<svg width="780" height="500" viewBox="0 0 780 500" fill="none" xmlns="http://www.w3.org/2000/svg">
    <path
        d="M199.631 158.761C192.599 167.083 181.348 173.646 170.097 172.708C168.69 161.457 174.199 149.503 180.645 142.119C187.677 133.563 199.983 127.469 209.945 127C211.117 138.72 206.546 150.206 199.631 158.761ZM209.828 174.935C193.537 173.998 179.59 184.194 171.855 184.194C164.002 184.194 152.165 175.404 139.273 175.638C122.513 175.873 106.925 185.366 98.3697 200.485C80.7896 230.723 93.7989 275.494 110.793 300.106C119.114 312.295 129.076 325.656 142.203 325.187C154.626 324.718 159.549 317.1 174.55 317.1C189.669 317.1 194.006 325.187 207.132 324.952C220.728 324.718 229.283 312.764 237.605 300.575C247.098 286.745 250.965 273.267 251.2 272.564C250.965 272.329 224.947 262.367 224.712 232.364C224.478 207.283 245.223 195.328 246.16 194.625C234.44 177.279 216.157 175.404 209.828 174.935ZM303.94 140.947V323.663H332.303V261.195H371.565C407.429 261.195 432.627 236.583 432.627 200.954C432.627 165.325 407.898 140.947 372.503 140.947H303.94ZM332.303 164.856H365.002C389.614 164.856 403.678 177.982 403.678 201.071C403.678 224.16 389.614 237.403 364.885 237.403H332.303V164.856ZM484.43 325.07C502.244 325.07 518.77 316.045 526.271 301.747H526.857V323.663H553.11V232.715C553.11 206.345 532.013 189.351 499.549 189.351C469.428 189.351 447.16 206.579 446.339 230.254H471.889C473.999 219.003 484.43 211.619 498.728 211.619C516.074 211.619 525.802 219.706 525.802 234.591V244.67L490.407 246.779C457.474 248.772 439.659 262.25 439.659 285.69C439.659 309.365 458.06 325.07 484.43 325.07ZM492.048 303.388C476.929 303.388 467.318 296.121 467.318 284.987C467.318 273.501 476.577 266.821 494.275 265.766L525.802 263.774V274.087C525.802 291.199 511.269 303.388 492.048 303.388ZM588.153 373.357C615.812 373.357 628.821 362.808 640.19 330.813L690 191.109H661.169L627.767 299.051H627.181L593.778 191.109H564.126L612.179 324.132L609.6 332.219C605.264 345.931 598.232 351.206 585.691 351.206C583.465 351.206 579.128 350.971 577.37 350.737V372.653C579.011 373.122 586.043 373.357 588.153 373.357Z"
        fill="white"></path>
    <rect x="3" y="3" width="774" height="494" rx="31" stroke="white" stroke-width="6"></rect>
</svg>