<svg width="88" height="23" viewBox="0 0 88 23" fill="none" xmlns="http://www.w3.org/2000/svg">
    <g clip-path="url(#clip0)">
        <path
            d="M80.8882 1.96915C82.2298 4.07512 83.661 6.08575 85.0026 8.19172C85.8633 9.47249 87.1906 11.0205 86.9555 12.6084C86.7179 14.1033 85.3632 15.0685 84.2818 15.9336C82.3923 17.5637 80.4085 19.1033 78.4271 20.7358C77.1666 21.7915 75.5493 19.6926 76.6211 18.4555C77.7849 17.2161 78.9487 15.9767 80.2043 14.7349C80.2939 14.6396 80.7391 14.0699 81.2786 13.5909C54.73 11.1981 28.5312 11.6811 1.9456 11.4295C0.380752 11.3764 0.417738 9.23524 1.88351 9.0117C28.0155 5.92494 55.1812 7.27835 81.3621 9.68049C80.8858 9.04128 80.4144 8.58806 80.2234 8.31377C79.2685 6.94236 78.4055 5.56859 77.4506 4.19718C75.8284 1.91227 79.4498 -0.320449 80.8882 1.96915Z"
            fill="black" />
    </g>
    <defs>
        <clipPath id="clip0">
            <rect width="20" height="86.2387" fill="white"
                transform="matrix(-0.0256722 -0.99967 -0.999674 0.0255301 87.1657 20.7917)" />
        </clipPath>
    </defs>
</svg>