<svg width="88" height="24" viewBox="0 0 88 24" fill="none" xmlns="http://www.w3.org/2000/svg">
    <g clip-path="url(#clip0)">
        <path
            d="M80.9819 21.9271C82.3198 19.8212 83.747 17.8105 85.085 15.7046C85.9432 14.4238 87.2669 12.8758 87.0324 11.2879C86.7955 9.79292 85.4445 8.82779 84.3661 7.96269C82.4818 6.33252 80.5035 4.79299 78.5276 3.16048C77.2707 2.1047 75.6578 4.20363 76.7267 5.4407C77.8872 6.68012 79.0478 7.91954 80.3 9.16131C80.3892 9.25665 80.8332 9.82634 81.3712 10.3054C54.8962 12.6982 28.7699 12.2152 2.25799 12.4668C0.697481 12.5199 0.734367 14.661 2.19607 14.8846C28.2557 17.9713 55.3461 16.6179 81.4545 14.2158C80.9796 14.855 80.5094 15.3082 80.3189 15.5825C79.3667 16.9539 78.5061 18.3277 77.5538 19.6991C75.9361 21.984 79.5475 24.2167 80.9819 21.9271Z"
            fill="black" />
    </g>
    <defs>
        <clipPath id="clip0">
            <rect width="20" height="86" fill="white" transform="translate(87.2419 3.10449) rotate(91.467)" />
        </clipPath>
    </defs>
</svg>