<svg id="Layer_1" data-name="Layer 1" xmlns="http://www.w3.org/2000/svg" viewBox="0 0 180 55.6"><path d="M61,47h-.2v-.4l-.2-.6a2.9,2.9,0,0,1-1.2-1.8l-.6,1c-1.2,2.4-2,4.2-2,5.8v1a12.7,12.7,0,0,0,6,1.5,15,15,0,0,0,4.7-.8l-1-.7H65.3a1.8,1.8,0,0,1-.7-.5,3.1,3.1,0,0,1-2,.7,3.5,3.5,0,0,1-3.5-3.5h0V47.2l2-.2H61Zm4-1v1l-.2.2H65l1-.2h1l.2.2,1.2,1h.2a23.4,23.4,0,0,0-1.5-2.7l-.6-1-1.4,1.4Zm6-19.7-.4.7c0,.1-1,1.3-3.4,1.7s-3.3,1-3.6,2.4l-.2,1.4H62V31q-.3-2.1-3.6-2.4A5.4,5.4,0,0,1,55,27l-.5-.7-.2.8a3.9,3.9,0,0,0,.5,2.8,3.3,3.3,0,0,0,2.4,1.5,1.8,1.8,0,0,1,1.5.8,2.7,2.7,0,0,1,.2,2l-1.3-.7-3-.7H54v.6a4.4,4.4,0,0,0,2.5,2.8l1.3.2h.6v1a7.2,7.2,0,0,0,.8,2.6l-2,4.3c-1.3,2.6-2.4,5-2.2,7l.7.6c-.1-2,1-4.7,2.2-7.2l1.7-3.8.6,1.3v.2a2.1,2.1,0,0,0,1,2.6h.1l.2,1,.4.2.7,1.5H60v.4a2.6,2.6,0,0,0,2.5,2.7h.1l1.2-.2,1-.7a4.7,4.7,0,0,0,1,1l1.2-.2,3.5,2.7h.2a1.5,1.5,0,0,0,1.2-1,1.7,1.7,0,0,0-.1-1.7v-.2L70.6,50a13,13,0,0,0-2-5.7,15.9,15.9,0,0,1-1.9-4.2,14,14,0,0,0,.9-2.9v-1h.5a2.5,2.5,0,0,0,1.3-.3A4.1,4.1,0,0,0,72,33.2v-.6h-.5a16.5,16.5,0,0,0-3.2.6L67,34a4.4,4.4,0,0,1,.2-2,2.1,2.1,0,0,1,1.4-.7A3.1,3.1,0,0,0,71,29.8a4.2,4.2,0,0,0,.5-2.7l-.2-.8Zm-14,8,.7.4c-.1,0-.2,0-.2-.1a4.8,4.8,0,0,1-2-.7,9.4,9.4,0,0,0,1.6.4Zm-.4,1.2a2.1,2.1,0,0,1-1-.6,6.1,6.1,0,0,0,1.8.5l.8.2A2.2,2.2,0,0,1,56.6,35.5Zm11.5-1.2L70,34a4.8,4.8,0,0,1-2,.7h-.1l.7-.4Zm-.4,1.2a7.6,7.6,0,0,0,2-.6l-1,.7a2.4,2.4,0,0,1-1.7.1c0-.1,1-.2,1-.2Zm-3.4-4a1.7,1.7,0,0,1,.6-1,2.1,2.1,0,0,0,1.3,1.7h-.1c-.1.2-.2.2-.2.4H66a2.3,2.3,0,0,1-1.7-.7l.2-.3Zm1.6,3.8a4,4,0,0,0-1.3,1.6,7.1,7.1,0,0,0-.4,1.7L64,37.4a5.2,5.2,0,0,1,1.3-2.8l.5.6C65.9,35.1,65.9,35.2,65.9,35.3Zm-1.8-3a2.5,2.5,0,0,0,1.7.6,3.4,3.4,0,0,0-.1,1,6.9,6.9,0,0,0-1.7-1v-.7h0Zm-.2,1.5h.3l-.3.7v-.7Zm.4.2,1,.5a4,4,0,0,0-1.2,2.3V35.1a3.1,3.1,0,0,1,.5-1h-.3Zm-3,.8-.3-.7.3-.2v1Zm0,.5V37a5,5,0,0,0-1.2-2.4l.8-.5C61,34.5,61.2,34.9,61.3,35.3Zm-.1-2.2a9.5,9.5,0,0,0-1.7,1,5,5,0,0,0-.2-1.2,1.9,1.9,0,0,0,1.7-.7l.2,1Zm-.3-1.5V32a2.1,2.1,0,0,1-1.7.7h-.1c0-.2-.1-.2-.2-.4H59a1.9,1.9,0,0,0,1.2-1.7c.2.2.3.2.4.5a.6.6,0,0,1,.5.5h-.2ZM55,28l.7.6-.5.4A1.6,1.6,0,0,1,55,28Zm.4,1.4v-.2l.6-.5,1,.3c-.2.3-.5,1-1,1l-.6-.6Zm1.8,1L56,30a1.9,1.9,0,0,0,1-1l1,.2a2.4,2.4,0,0,1-.7,1.3Zm.2.1a2.9,2.9,0,0,0,.7-1.2h1a2.4,2.4,0,0,1-.4,1.6,1.9,1.9,0,0,0-1.2-.4h-.1Zm1.2.5a1.8,1.8,0,0,0,.5-1.6c.5.1,1,.2,1.2.5a2.2,2.2,0,0,1-1.2,1.6l-.5-.5Zm2,10a24.6,24.6,0,0,1-1.4-3.8,7.7,7.7,0,0,1,.2-1.5,2,2,0,0,1,.8,1.2H60a.6.6,0,0,0,0,1.2c.1,0,.3,0,.3-.2a9.2,9.2,0,0,1,.2,2.8c.1.1,0,.2,0,.3Zm-1-6.2h0a2.3,2.3,0,0,1,.7-.7A4,4,0,0,1,61.5,37v1.2a4.8,4.8,0,0,0-.5-1.7,5.5,5.5,0,0,0-1.4-1.7Zm2,9.5a1.6,1.6,0,0,1-.6-1.7h0l.6-2a27.6,27.6,0,0,0,.7-7.6,2,2,0,0,1,1.3-.1,22.2,22.2,0,0,0,.7,7.7l.6,2h0a1.5,1.5,0,0,1-.6,1.7h-.6l-.4-.2v-.6l1-.3c.2,0,.2-.2.2-.5a.4.4,0,0,0-.5-.2l-1,.4-1.2-.4a.3.3,0,0,0-.4.2.4.4,0,0,0,.1.5h.1l1,.3v.6l-.3.2h-.7Zm1.8,1h.3v.2l-.5.3V46a1.2,1.2,0,0,1,.4-.8Zm-.5.6a1.5,1.5,0,0,0-.3-.7L63,45l.3.2A1.6,1.6,0,0,0,62.9,45.9Zm-.4-.1-.3-.2v-.2h.4a2.5,2.5,0,0,1,.2,1.2Zm.1,4.3a1.6,1.6,0,0,1-1.7-1.5h3.5A1.8,1.8,0,0,1,62.6,50.1Zm2.4-.8a2.4,2.4,0,0,0,.2-.8l1,1-1.3-.2Zm6,2a1.2,1.2,0,0,1,.1.8,1,1,0,0,1-.5.4l-2.7-2h.6l-.7-.6h.6L71,51.2ZM67.6,45a11.4,11.4,0,0,1,2,4.8l-2-.8-1.2-1a1.9,1.9,0,0,0-1.3.1H63l.7-1.3.7-.3.2-1h.2a2.3,2.3,0,0,0,1-2.7v-.2l.4-1a19.8,19.8,0,0,0,1.6,3.3ZM65,41.3v-.6a21.1,21.1,0,0,1,.2-2.5h.3c.3,0,.5-.3.6-.6a.7.7,0,0,0-.6-.7l.8-1.2.2,1.6a11.2,11.2,0,0,1-1.4,4H65Zm1.5-9.6h0a1.7,1.7,0,0,1-1.2-1.6,1.7,1.7,0,0,1,1.2-.5,2.7,2.7,0,0,0,.6,1.6A1,1,0,0,0,66.5,31.7Zm.5-.6a1.8,1.8,0,0,1-.5-1.6h1a1.7,1.7,0,0,0,.7,1.3l-1.2.4V31Zm1.4-.5a1.5,1.5,0,0,1-.7-1.2l1-.2a1.9,1.9,0,0,0,1,1,1.9,1.9,0,0,1-1.2.4Zm1.8-1-.5.6h0a1.4,1.4,0,0,1-1-1l1-.3a1,1,0,0,0,.6.5l-.2.2Zm.2-.3c-.2-.2-.4-.3-.5-.5l.8-.6-.3,1Z" fill="#96cf7e"/><path d="M80.7,6.6h0l-.3.4h.4Z"/><path d="M85,12,82,6.3V.1H50.8V6.3L48,12a5,5,0,0,0-.7,2.9V53.7a.8.8,0,0,0,.8.8h37a.8.8,0,0,0,.8-.8V15a6.5,6.5,0,0,0-.6-3ZM69.8,1.6h11V6h-11Zm-5,7V2.3h3.6V8l-3,5.8a6.4,6.4,0,0,0-.7,2.8v6.8H61v-7a5.9,5.9,0,0,1,.4-2l3-5.7h.4Zm-12.5-7h11V6h-11ZM77.3,15V53H48.7V15a5.9,5.9,0,0,1,.5-2.3L52,7H63v.4l-3,6.2a7.6,7.6,0,0,0-.5,2.7v8.5h6.7V16.6a5.4,5.4,0,0,1,.5-2.2l3-6.2V7H80.4l-2.7,5.5a3.9,3.9,0,0,0-.6,2.5Zm7,38H78.7V15a3.9,3.9,0,0,1,.4-1.8l2.4-5,2.2,4.4a4.7,4.7,0,0,1,.5,2.4V53ZM33.5,6v.3l.2-.3Z"/><path d="M14,47h-.2v-.4l-.2-.6a2.9,2.9,0,0,1-1.2-1.8l-.6,1c-1.2,2.4-2,4.2-2,5.8v1a12.7,12.7,0,0,0,6,1.5,15,15,0,0,0,4.7-.8l-1-.7H18.3a1.8,1.8,0,0,1-.7-.5,3.1,3.1,0,0,1-2,.7,3.5,3.5,0,0,1-3.5-3.5h0V47.2l2-.2H14Zm4-1-.2.5V47l-.2.2h.2l1-.2h1l.2.2,1.2,1h.2a23.4,23.4,0,0,0-1.5-2.7l-.6-1A8.6,8.6,0,0,1,18,45.9Zm6-19.7-.4.7c0,.1-1,1.3-3.4,1.7s-3.3,1-3.6,2.4l-.2,1.4H15l-.2-1.4q-.3-2.1-3.6-2.4A4.4,4.4,0,0,1,8,27l-.5-.7-.2.8a3.9,3.9,0,0,0,.5,2.8A2.9,2.9,0,0,0,10,31.4a1.8,1.8,0,0,1,1.5.8,2.7,2.7,0,0,1,.2,2l-1.3-.7-3-.7H6.8l.2.7a4.4,4.4,0,0,0,2.5,2.8l1.3.2h.6v1a7.2,7.2,0,0,0,.8,2.6l-2,4.2c-1.3,2.6-2.4,5-2.2,7l.7.6c-.1-2,1-4.7,2.2-7.2L12.6,41l.6,1.3v.2a2.1,2.1,0,0,0,1,2.6h.1l.2,1,.4.2.7,1.5H13v.4a2.6,2.6,0,0,0,2.5,2.7h.1l1.2-.2,1-.7a4.7,4.7,0,0,0,1,1l1.2-.2,3.5,2.7h.2a1.5,1.5,0,0,0,1.2-1,1.7,1.7,0,0,0-.1-1.7v-.2l-1.2-.5a13,13,0,0,0-2-5.7,15.9,15.9,0,0,1-1.9-4.2,14,14,0,0,0,.9-2.9v-1h.5a2.5,2.5,0,0,0,1.3-.3A4.1,4.1,0,0,0,25,33.3v-.6H24l-3,.6-1.2.8a4.4,4.4,0,0,1,.2-2,2.1,2.1,0,0,1,1.4-.7,3.1,3.1,0,0,0,2.4-1.5,4.2,4.2,0,0,0,.5-2.7l-.2-1Zm-14,8,.6.4a.1.1,0,0,1-.1-.1,4.8,4.8,0,0,1-2-.7,9.4,9.4,0,0,0,1.6.4Zm-.4,1.2a2.1,2.1,0,0,1-1-.6,6.1,6.1,0,0,0,1.8.5l.8.2A2.2,2.2,0,0,1,9.6,35.5ZM21,34.3l1.5-.3a4.8,4.8,0,0,1-2,.7h-.1l.7-.4Zm-.4,1.2a7.6,7.6,0,0,0,2-.6l-1,.7a2.4,2.4,0,0,1-1.7.1c0-.1,1-.2,1-.2Zm-3.4-4a1.7,1.7,0,0,1,.6-1,2.1,2.1,0,0,0,1.3,1.7H19c-.1.2-.2.2-.2.4h.1a2.3,2.3,0,0,1-1.7-.7l.2-.3ZM19,35a4,4,0,0,0-1.3,1.6,7.1,7.1,0,0,0-.4,1.7L17,37a5.2,5.2,0,0,1,1.3-2.8l.5.6c.1-.1.1,0,.1.1Zm-1.8-3a2.5,2.5,0,0,0,1.7.6l-.2,1a6.9,6.9,0,0,0-1.7-1l.2-.8h0ZM17,33.5h.3l-.3.7v-.7Zm.4.2,1,.5a4,4,0,0,0-1.2,2.3V34.8l.3-1h-.1Zm-3,.8-.4-.7.3-.2v1Zm0,.5v1.7a3.5,3.5,0,0,0-1.2-2.4l.8-.5.4,1.2Zm-.1-2.2a9.5,9.5,0,0,0-1.7,1,5,5,0,0,0-.2-1.2,1.9,1.9,0,0,0,1.7-.7l.2,1ZM14,31.3v.4a2.1,2.1,0,0,1-1.7.7h-.1c0-.2-.1-.2-.2-.4h0a1.9,1.9,0,0,0,1.2-1.7c.2.2.3.2.4.5a.6.6,0,0,1,.4.5ZM8,28l.7.6-.5.4A1.6,1.6,0,0,1,8,28Zm.4,1.4v-.2l.6-.5a1.9,1.9,0,0,0,1,.3c-.2.3-.5,1-1,1l-.6-.6Zm1.8,1L9,30a1.9,1.9,0,0,0,1-1l1,.2a1.5,1.5,0,0,1-.6,1.3Zm.2.1a2.9,2.9,0,0,0,.7-1.2h1a2.4,2.4,0,0,1-.4,1.6,1.9,1.9,0,0,0-1.2-.4h-.1Zm1.2.5a1.8,1.8,0,0,0,.5-1.6c.5.1,1,.2,1.2.5a2.2,2.2,0,0,1-1.2,1.6A1.2,1.2,0,0,0,11.6,31Zm2,10a24.6,24.6,0,0,1-1.4-3.8,7.7,7.7,0,0,1,.2-1.5,2,2,0,0,1,.8,1.2H13a.6.6,0,1,0,0,1.2h0c.1,0,.3,0,.3-.2a9.2,9.2,0,0,1,.2,2.8c.1.1,0,.2,0,.3Zm-1-6.2h0a2.3,2.3,0,0,1,.7-.7,3.8,3.8,0,0,1,1.2,2.8V38a4.8,4.8,0,0,0-.5-1.7,4.3,4.3,0,0,0-1.4-1.6h0Zm2,9.5a1.6,1.6,0,0,1-.6-1.7h0l.6-2a27.6,27.6,0,0,0,.7-7.6,2,2,0,0,1,1.3-.1,22.2,22.2,0,0,0,.7,7.7l.5,2h0a1.6,1.6,0,0,1-.5,1.7H16.2V44l1-.3c.2,0,.2-.2.2-.5a.4.4,0,0,0-.5-.2l-1,.4L14.7,43c-.1-.2-.4,0-.4.1a.8.8,0,0,0,.2.5l1,.3v.6l-.3.2h-.6Zm1.8,1h.3v.2l-.5.3V46a1.2,1.2,0,0,1,.4-.8Zm-.5.6a1.5,1.5,0,0,0-.3-.7L16,45l.3.2A1.6,1.6,0,0,0,15.9,45.9Zm-.4-.1-.3-.2v-.2h.4a2.5,2.5,0,0,1,.2,1.2l-.3-.8Zm.1,4.3a1.6,1.6,0,0,1-1.7-1.5h3.5A1.8,1.8,0,0,1,15.6,50.1Zm2.4-.8a2.4,2.4,0,0,0,.2-.8l1,1-1.3-.2Zm6,2a1.2,1.2,0,0,1,.1.8,1,1,0,0,1-.5.4l-2.7-2h.6l-.7-.6h.6L24,51.2ZM20.5,45a15.7,15.7,0,0,1,2,4.8l-2-.8-1.2-1a1.9,1.9,0,0,0-1.3.1H15.8l.7-1.3.7-.3.2-1h.2a2.3,2.3,0,0,0,1-2.7v-.2l.4-1a19.8,19.8,0,0,0,1.6,3.3ZM18,41.3l-.2-.6a21,21,0,0,0,.3-2.5h.3c.3,0,.5-.3.6-.6a.7.7,0,0,0-.6-.7l.8-1.2.2,1.6a11.2,11.2,0,0,1-1.4,4Zm1.5-9.6h0a1.7,1.7,0,0,1-1.2-1.6,1.7,1.7,0,0,1,1.2-.5,2.7,2.7,0,0,0,.6,1.6A1,1,0,0,0,19.5,31.7Zm.5-.6a1.8,1.8,0,0,1-.5-1.6h1a1.7,1.7,0,0,0,.7,1.3l-1.2.4V31Zm1.4-.5a1.5,1.5,0,0,1-.7-1.2l1-.2a1.9,1.9,0,0,0,1,1,1.9,1.9,0,0,1-1.2.4Zm1.8-1-.5.6h0a1.4,1.4,0,0,1-1-1l1-.3a1,1,0,0,0,.6.5l-.2.2Zm.2-.3-.5-.5.8-.6-.3,1Z" fill="#96cf7e"/><path d="M33.5,6v.3l.2-.3Z"/><path d="M38,12,35.2,6.4h-.1V.1H3.7V6.3L.8,12A6.7,6.7,0,0,0,0,15V53.8c0,.5.4.8,1,.8H38a1,1,0,0,0,1-.8V15a8.2,8.2,0,0,0-.7-3ZM22.7,1.6h11V6h.1V6h-11Zm-5.2,7V2.3H21V8l-3,5.8a8.2,8.2,0,0,0-.7,2.8v6.8H13.6v-7a5.9,5.9,0,0,1,.4-2l3-5.7h.5ZM5.2,1.6H16V6H5.2ZM1.5,15A5.9,5.9,0,0,1,2,12.7L5,7H16v.4l-3,6.2a10.7,10.7,0,0,0-.6,2.7v8.5H19V16.6a5.4,5.4,0,0,1,.5-2.2l3-6.2V7H33.1l-2.6,5.5a5.7,5.7,0,0,0-.6,2.5V53H1.5ZM37.2,53H31.6V15a3.3,3.3,0,0,1,.4-1.7l2.4-5,2.3,4.5a5.9,5.9,0,0,1,.5,2.3v38Z"/><path d="M35,6.3h0ZM158.8,6V7h0V6Zm20.5,6-3-5.7V.1H145V6.3l-3,5.8a6.6,6.6,0,0,0-.7,3V54c0,.5.4.8,1,.8h37a1,1,0,0,0,1-.8V15a11.1,11.1,0,0,0-.8-3ZM164,1.6h11V6H164Zm-5.2.7h3.7V8l-3,5.8a6.4,6.4,0,0,0-.7,2.8v6.8H155v-7a5.9,5.9,0,0,1,.4-2l3.2-6.3V2.3Zm-12.3-.7h10.8V6H146.5ZM171.3,15V53H142.8V15a5.9,5.9,0,0,1,.5-2.3l3-5.7h11v.6l-3,6a8.2,8.2,0,0,0-.6,2.7v8.5h6.7V16.6a5.4,5.4,0,0,1,.5-2.2l3-6.2V7h10.5l-2.5,5.5a5.7,5.7,0,0,0-.6,2.5Zm7.2,38H173V15a3.9,3.9,0,0,1,.4-1.8l2.3-5,2.3,4.6a5.9,5.9,0,0,1,.5,2.3v38Z"/><path d="M108,47h-.2v-.4l-.2-.6a2.9,2.9,0,0,1-1.2-1.8l-.6,1c-1.2,2.4-2,4-2,5.8v.8a12.7,12.7,0,0,0,6,1.5,15,15,0,0,0,4.7-.8l-1-.7h-1.2a1.8,1.8,0,0,1-.7-.5,3.1,3.1,0,0,1-2,.7,3.5,3.5,0,0,1-3.5-3.5h0V47H108Zm4-1-.2.5v.4l-.2.2h.2l1-.2h1v.2l1.2,1h.2l-1.4-2.7-.6-1a5.8,5.8,0,0,1-1.3,1.5h.1Zm6-19.6-.4.7c0,.1-1,1.3-3.4,1.7s-3.3,1-3.6,2.4l-.2,1.4h-1.5l-.2-1.4q-.3-2.1-3.6-2.4a4.8,4.8,0,0,1-3.3-1.7l-.5-.7-.2.8a3.9,3.9,0,0,0,.5,2.8,3.3,3.3,0,0,0,2.4,1.5,1.8,1.8,0,0,1,1.5.8,2.7,2.7,0,0,1,.2,2,3.3,3.3,0,0,0-1.3-.7l-3-.7h-.6l.2.6a4.4,4.4,0,0,0,2.5,2.8l1.3.2h.6v1a7.2,7.2,0,0,0,.8,2.6l-2,4.3c-1.3,2.6-2.4,5-2.2,7l.7.6c-.1-2,1-4.7,2.2-7.2l1.7-3.7.6,1.3v.2a2.1,2.1,0,0,0,1,2.6h.1l.2,1,.4.2.7,1.5H107v.4a2.5,2.5,0,0,0,2.5,2.6h.1l1.2-.2,1-.7a9.4,9.4,0,0,0,1,1l1.2-.2,3.5,2.6h.2a1.5,1.5,0,0,0,1.2-1,2.5,2.5,0,0,0-.1-1.7v-.2l-1.2-.5a10.3,10.3,0,0,0-2-5.6,24.9,24.9,0,0,1-2-4,14,14,0,0,0,.9-2.9V36.3h.5a2.5,2.5,0,0,0,1.3-.3,3.9,3.9,0,0,0,2.6-2.7v-.6h-.7l-3,.6-1.3.8a4.4,4.4,0,0,1,.2-2,2.4,2.4,0,0,1,1.4-1,3.1,3.1,0,0,0,2.4-1.5,4.2,4.2,0,0,0,.5-2.7l-.2-.8v.3Zm-13.8,7.8.7.4h-.2a4.8,4.8,0,0,1-2-.7l1.6.3h-.1Zm-.5,1.2-1-.6a6.1,6.1,0,0,0,1.8.5l.8.2A2.2,2.2,0,0,1,103.7,35.4Zm11.5-1.2,1.5-.3a4.8,4.8,0,0,1-2,.7h-.1l.7-.4Zm-.4,1.2a7.6,7.6,0,0,0,2-.6l-1,.7a2.4,2.4,0,0,1-1.7.1l1-.2Zm-3.4-4a1.7,1.7,0,0,1,.6-1,2.1,2.1,0,0,0,1.3,1.7h-.1l-.2.4h-.1a2.3,2.3,0,0,1-1.7-.7l.2-.3Zm1.6,3.8a4,4,0,0,0-1.3,1.6,7.1,7.1,0,0,0-.4,1.7l-.2-1.2a5.2,5.2,0,0,1,1.3-2.8,1,1,0,0,1,.5.6A.1.1,0,0,1,113,35.2Zm-1.8-3a2.5,2.5,0,0,0,1.7.6l-.2,1a6.9,6.9,0,0,0-1.7-1l.2-.8h0Zm-.2,1.6h.3l-.3.7v-.7Zm.5.1.8.5a4,4,0,0,0-1.2,2.3V35a10.4,10.4,0,0,1,.4-1h0Zm-3.2.8-.2-.7.2-.2v1Zm0,.5v1.7a5,5,0,0,0-1.2-2.4l.8-.5A5.6,5.6,0,0,1,108.3,35.2Zm-.1-2.2a9.5,9.5,0,0,0-1.7,1,5,5,0,0,0-.2-1.2,2.2,2.2,0,0,0,1.7-.7l.2,1h0Zm-.2-1.5v.4a2.1,2.1,0,0,1-1.7.7h-.1c0-.2-.1-.2-.2-.4h-.1a1.9,1.9,0,0,0,1.2-1.7,4.7,4.7,0,0,1,1,1H108Zm-6.2-3,.7.6-.5.4A3.6,3.6,0,0,1,101.8,28.5Zm.5,1.4v-.2l.6-.5,1,.3c-.2.3-.5,1-1,1Zm1.8,1-1.2-.4a1.9,1.9,0,0,0,1-1l1,.2a1.7,1.7,0,0,1-.7,1.3Zm.1.1a2.9,2.9,0,0,0,.7-1.2h1a2.4,2.4,0,0,1-.4,1.6,1.4,1.4,0,0,0-1.2-.4h-.1Zm1.3.5a1.8,1.8,0,0,0,.5-1.6c.4.1,1,.2,1.2.5A2.2,2.2,0,0,1,106,32,.8.8,0,0,0,105.5,31.5Zm2,10a24.6,24.6,0,0,1-1.4-3.8,7.7,7.7,0,0,1,.2-1.5,3.6,3.6,0,0,1,.8,1.2H107a.6.6,0,1,0,0,1.2c.1,0,.3,0,.3-.2a9.2,9.2,0,0,1,.2,2.8A.2.2,0,0,1,107.5,41.5Zm-1-6.2h0a2.3,2.3,0,0,1,.7-.7,4,4,0,0,1,1.2,2.9v1.2a4.8,4.8,0,0,0-.5-1.7,4.4,4.4,0,0,0-1.4-1.7Zm2,9.5a1.6,1.6,0,0,1-.6-1.7h0l.6-2a27.3,27.3,0,0,0,.7-7.5,2,2,0,0,1,1.3-.1,21.8,21.8,0,0,0,.7,7.6l.6,2h0a1.5,1.5,0,0,1-.6,1.7h-.6l-.4-.2V44l1-.3c.2,0,.2-.2.2-.5a.4.4,0,0,0-.5-.2l-1,.4-1.2-.4c-.2,0-.4.1-.4.2a.4.4,0,0,0,.1.5h.1l1,.3v.6l-.3.2h-.7Zm1.8.8h.3v.2l-.6.3v.2a1.2,1.2,0,0,1,.4-.8Zm-.5.7a1.5,1.5,0,0,0-.3-.7l.4-.2.3.2C110,45.7,109.9,46,109.8,46.3Zm-.4-.2-.3-.2v-.2h.4a2.5,2.5,0,0,1,.2,1.2Zm.1,4.3a1.6,1.6,0,0,1-1.7-1.5h3.5A1.8,1.8,0,0,1,109.5,50.4Zm2.4-.8a2.4,2.4,0,0,0,.2-.8l1,1-1.3-.2Zm6,2a1.2,1.2,0,0,1,.1.8,1,1,0,0,1-.5.4l-2.6-2h.6l-.7-.6h.6l2.5,1.3h0Zm-3.3-6.3a11.4,11.4,0,0,1,2,4.8l-2-.8-1.2-1a1.9,1.9,0,0,0-1.3.1H110l.7-1.3.7-.3.2-1h.2a2.2,2.2,0,0,0,1-2.6.3.3,0,0,0-.1-.2l.4-1a19.8,19.8,0,0,0,1.6,3.3Zm-2.5-3.7-.2-.6a21.1,21.1,0,0,1,.2-2.5h.3c.3,0,.5-.3.6-.6a.7.7,0,0,0-.6-.7,8.3,8.3,0,0,1,.8-1.2l.2,1.6a9.9,9.9,0,0,1-1.3,4Zm1.4-9.6h0a1.7,1.7,0,0,1-1.2-1.6,1.7,1.7,0,0,1,1.2-.5,2.7,2.7,0,0,0,.6,1.6l-.6.5Zm.6-.5a1.8,1.8,0,0,1-.5-1.6h1a1.7,1.7,0,0,0,.7,1.3l-1.2.4Zm1.4-.5a1.5,1.5,0,0,1-.7-1.2l1-.2a1.9,1.9,0,0,0,1,1l-1.2.4Zm1.8-1-.5.6h0a1.4,1.4,0,0,1-1-1l1-.3a1,1,0,0,0,.6.5l-.2.2Zm.1-.3c-.2-.2-.4-.3-.5-.5l.8-.6a1.7,1.7,0,0,1-.3,1Z" fill="#96cf7e"/><path d="M132.2,12l-3-5.7V.1H97.8V6.3L95,12a8.2,8.2,0,0,0-.7,3V53.8a.8.8,0,0,0,.8.8h37a.8.8,0,0,0,.8-.8V15a6.5,6.5,0,0,0-.6-3ZM116.8,1.6h11V6h-11Zm-5,7V2.3h3.6V8l-3,5.8a6.4,6.4,0,0,0-.7,2.8v6.8H108v-7a5.9,5.9,0,0,1,.4-2l3-5.7h.4Zm-12.5-7h11V6h-11ZM95.8,15a5.9,5.9,0,0,1,.5-2.3l3-5.7h11v.4l-3.2,6.2a7.6,7.6,0,0,0-.5,2.7v8.5h6.7V16.6a5.4,5.4,0,0,1,.5-2.2l3-6.2V7h10.6l-2.6,5.5a5.4,5.4,0,0,0-.6,2.5V53H95.8Zm35.5,38h-5.6V15a3.9,3.9,0,0,1,.4-1.8l2.4-5,2.3,4.5a5.9,5.9,0,0,1,.5,2.3Z"/><text transform="translate(147.7 43.2)" font-size="14.13" font-family="Milliard-Bold, Milliard" font-weight="700">+4</text></svg>