<svg width="133" height="55" viewBox="0 0 133 55" fill="none" xmlns="http://www.w3.org/2000/svg">
<path d="M81.3593 6.16347V6.34225L81.4399 6.50182L84.4437 12.4441C84.838 13.226 85.0434 14.0872 85.0442 14.9601V53.7617C85.0442 53.843 84.9752 53.923 84.8729 53.923H48.0238C47.9215 53.923 47.8525 53.843 47.8525 53.7617V14.9598C47.8534 14.0872 48.0586 13.2263 48.4527 12.4448C48.4527 12.4447 48.4527 12.4447 48.4527 12.4447C48.4528 12.4445 48.4529 12.4443 48.453 12.4441L51.4568 6.50182L51.5375 6.34225V6.16347V0.911216C51.5375 0.829917 51.6064 0.75 51.7087 0.75H81.188C81.2903 0.75 81.3593 0.829915 81.3593 0.911216V6.16347Z" fill="white" stroke="black" stroke-width="1.5"/>
<path d="M77.876 54.4753V14.958C77.8771 14.2505 78.0435 13.5529 78.3624 12.9196L81.6288 6.23242" stroke="black" stroke-width="1.5"/>
<path d="M65.3558 23.4083L65.3558 16.4992C65.3558 16.499 65.3558 16.4989 65.3558 16.4987C65.3567 15.6261 65.562 14.7652 65.956 13.9837C65.9561 13.9835 65.9562 13.9834 65.9563 13.9832L68.9601 8.04089L69.0406 7.88163L69.0407 7.70318L69.0453 2.27798L69.046 1.52734H68.2953H64.6104H63.8604V2.27734V7.8504C63.8573 7.87283 63.8549 7.89764 63.8538 7.92449C63.8528 7.93848 63.8501 7.95196 63.8457 7.96456C63.8435 7.97028 63.8416 7.97554 63.8398 7.98026C63.8362 7.9902 63.8331 7.99908 63.8306 8.00624L63.8257 8.02113C63.8244 8.02438 63.8232 8.02754 63.822 8.03061L60.7382 14.1213L60.7374 14.1228C60.3662 14.8602 60.1722 15.6729 60.1709 16.4973V16.4985V23.4083V24.1583H60.9209H64.6058H65.3558V23.4083Z" stroke="black" stroke-width="1.5"/>
<rect x="51.4868" y="5.96094" width="13.153" height="1.08417" fill="black"/>
<rect x="68.4766" y="5.96094" width="13.153" height="1.08417" fill="black"/>
<g clip-path="url(#clip0)">
<path d="M60.6133 47.8428L60.3109 47.7034L60.1765 47.2157L60.0085 46.484C59.3364 45.9962 58.7988 45.2298 58.5636 44.2891C58.3284 44.7768 58.0931 45.2298 57.8915 45.6478C56.413 48.4699 55.4049 50.63 55.5393 52.616L55.5729 53.7309C57.7571 54.8806 60.2101 55.5426 62.7975 55.5426C64.7801 55.5426 66.6954 55.1593 68.4763 54.4625L67.2666 53.5566L66.2922 53.6612L66.0233 53.696L65.7545 53.5915C65.6873 53.5566 65.3177 53.3824 64.8809 53.034C64.1752 53.5566 63.3351 53.8354 62.4279 53.8354C60.1093 53.8354 58.2276 51.8843 58.2276 49.4803V47.8776H60.6133V47.8428Z" fill="#96CF7E"/>
<path d="M65.5864 46.5526L65.4184 47.2145L65.3176 47.7023L65.0151 47.8765H65.2504C65.5864 47.7372 65.9896 47.6675 66.4264 47.6675C66.8969 47.6675 67.2665 47.7372 67.3337 47.772L67.5689 47.8417L67.7705 48.0159L69.2154 49.2701L69.3835 49.3398C68.9802 48.1901 68.3418 47.1449 67.6697 45.9951C67.4345 45.6119 67.1993 45.2286 66.9641 44.8105C66.6953 45.5422 66.1912 46.1345 65.5864 46.5526Z" fill="#96CF7E"/>
<path d="M72.9455 22.9313L72.4079 23.8023C72.3743 23.872 71.3326 25.4398 68.342 25.7534C65.7882 26.0321 64.3432 27.0425 64.0408 28.7149C63.94 29.2723 63.8392 29.8994 63.772 30.3872C63.5032 30.3175 62.4615 30.2827 61.9911 30.422C61.9239 29.9343 61.823 29.3072 61.7222 28.7149C61.4198 27.0425 59.9749 26.0321 57.4211 25.7534C54.4305 25.405 53.3888 23.8372 53.3552 23.8023L52.784 22.8965L52.5151 23.9069C52.3471 24.5688 52.3471 26.0321 53.12 27.2516C53.7584 28.2619 54.7329 28.8542 56.0434 29.0633C56.8835 29.2026 57.4547 29.551 57.7907 30.1433C58.194 30.875 58.1604 31.8157 58.0596 32.5473C57.6563 32.2338 57.0515 31.7808 56.5138 31.5718C55.6402 31.1885 53.0864 30.8401 52.784 30.8053L52.1455 30.7356L52.2799 31.3976C52.6159 32.826 53.792 34.1151 55.3378 34.7771C55.8754 34.9862 56.413 35.1255 56.9171 35.1255C57.1523 35.1255 57.3539 35.0907 57.5555 35.0558C57.5219 35.5088 57.4883 35.9965 57.4883 36.4495C57.4883 37.1114 57.9251 38.3657 58.4628 39.5503C58.1604 40.2819 56.9507 43.1389 56.1106 44.7067C54.4641 47.8423 53.1953 50.6866 53.3969 53.2299L54.3378 53.8919C54.1698 51.5924 55.3714 48.1559 56.9171 45.1596C57.5891 43.8705 58.4628 41.8846 58.9668 40.7C59.3029 41.4317 59.6053 42.024 59.7397 42.3375C59.7061 42.4769 59.6725 42.5466 59.6725 42.5814C59.1012 44.2189 60.1429 45.3687 60.7814 45.7519L60.8486 45.7867H60.8822L61.2182 46.9365L61.6886 47.1804L62.5287 48.9921H59.3029V49.4798C59.3029 51.2567 60.7142 52.72 62.4279 52.72C63.436 52.72 64.3432 52.2322 64.9145 51.4658C65.3513 52.1974 66.1914 52.5807 66.1914 52.5807L67.5691 52.4413L71.8366 55.6118L72.0382 55.5769C72.0718 55.5769 73.0463 55.3679 73.4495 54.5317C73.7184 53.9743 73.6848 53.2775 73.3487 52.511L73.2815 52.3368L71.9374 51.7096C71.803 48.8527 70.6605 46.9365 69.4172 44.8809C68.5436 43.3827 67.6363 41.8498 67.065 39.8987C67.6363 38.5747 68.1739 37.1114 68.1739 36.4146C68.1739 35.9617 68.1403 35.4739 68.1067 35.021C68.3083 35.0558 68.51 35.0907 68.7452 35.0907C69.2492 35.0907 69.7533 34.9862 70.3245 34.7423C71.8702 34.1151 73.0799 32.7912 73.3823 31.3627L73.5167 30.7008L72.8783 30.7705C72.5759 30.8053 70.0221 31.1537 69.1484 31.5369C68.6108 31.7808 68.0059 32.1989 67.6027 32.5125C67.5019 31.8157 67.4683 30.8401 67.8715 30.1085C68.2075 29.5162 68.7788 29.1678 69.6188 29.0284C70.9293 28.8194 71.9374 28.2271 72.5423 27.2167C73.3151 25.9973 73.3151 24.4992 73.1471 23.872L72.9455 22.9313ZM56.1778 32.408C56.413 32.5125 56.6819 32.6867 56.9507 32.8609C56.8835 32.8609 56.8499 32.8609 56.7827 32.826C56.077 32.7215 55.3378 32.5822 54.3297 31.955C55.1025 32.0944 55.8418 32.2686 56.1778 32.408ZM55.741 33.8364C55.3378 33.6622 54.9345 33.4183 54.5313 33.1048C55.3714 33.5229 56.0434 33.6274 56.6819 33.7319C57.0515 33.8016 57.3875 33.8364 57.7235 33.9758C57.2195 34.2197 56.4802 34.15 55.741 33.8364ZM69.518 32.408C69.8541 32.2686 70.5597 32.0944 71.299 31.9899C70.2909 32.617 69.5516 32.7215 68.846 32.8609C68.8124 32.8609 68.7788 32.8609 68.7452 32.8609C69.014 32.6867 69.2828 32.5125 69.518 32.408ZM69.014 33.7667C69.6525 33.6622 70.3581 33.5577 71.2654 33.0699C70.8621 33.4183 70.4253 33.6971 69.9885 33.8713C69.2156 34.1848 68.51 34.2197 68.0059 33.9758C68.342 33.8713 68.6444 33.8016 69.014 33.7667ZM64.8809 28.8891C64.9817 28.3665 65.2169 27.9832 65.6201 27.6348C65.7209 28.1574 66.0906 29.2375 67.1659 29.551C67.1323 29.5859 67.0987 29.6207 67.0987 29.6556C66.9978 29.8646 66.9306 30.004 66.8634 30.213H66.8298H66.7962C65.5865 30.213 64.9817 29.6207 64.7801 29.4117C64.8137 29.2723 64.8473 29.0633 64.8809 28.8891ZM66.897 33.488C66.4938 33.7667 65.7882 34.3939 65.3177 35.4391C65.0825 35.9617 64.9145 36.6934 64.7801 37.3902C64.7129 36.9024 64.6793 36.3798 64.6121 35.892C64.9145 33.7667 65.7881 32.8609 66.1914 32.5125C66.4602 32.7215 66.6618 32.9654 66.8298 33.2093C66.8634 33.3487 66.8634 33.4183 66.897 33.488ZM64.7465 29.6556C65.0153 29.9343 65.6537 30.3872 66.7962 30.3872C66.6618 30.8053 66.6282 31.2582 66.6282 31.7111C65.9898 31.2234 65.2505 30.875 64.6121 30.6311C64.6457 30.3872 64.7129 30.0388 64.7465 29.6556ZM64.5113 31.6066C64.6457 31.6415 64.7465 31.7111 64.8809 31.746C64.7801 31.955 64.6457 32.2338 64.5113 32.5822C64.5113 32.1641 64.5113 31.8505 64.5113 31.6066ZM65.0489 31.8157C65.4185 31.9899 65.7545 32.1989 66.0906 32.408C65.6873 32.7215 64.9481 33.5229 64.5785 35.1952C64.5449 34.4287 64.5113 33.7319 64.5113 33.1396C64.6793 32.5473 64.8809 32.0944 65.0489 31.8157ZM61.2182 32.7215C61.0838 32.3731 60.9494 32.0596 60.8486 31.8505C60.983 31.7808 61.0838 31.746 61.2182 31.6763C61.1846 31.955 61.2182 32.3034 61.2182 32.7215ZM61.2182 33.279C61.2182 33.9061 61.1846 34.6029 61.151 35.3694C60.815 33.7319 60.1429 32.8957 59.7061 32.5125C60.0085 32.2686 60.3445 32.0944 60.6806 31.9202C60.8486 32.2338 61.0502 32.6867 61.2182 33.279ZM61.1174 30.7356C60.479 30.9795 59.7397 31.3627 59.0676 31.8854C59.0676 31.4324 59.034 30.9098 58.8996 30.422C60.0757 30.422 60.6806 29.8994 60.9494 29.6207C61.0166 30.0388 61.0502 30.422 61.1174 30.7356ZM60.815 28.8891C60.8486 29.0633 60.8822 29.2375 60.9158 29.4117C60.7814 29.5859 60.1765 30.2478 58.866 30.2478C58.866 30.2478 58.866 30.2478 58.8324 30.2478C58.7652 30.0388 58.698 29.8646 58.5636 29.6904C58.53 29.6556 58.4964 29.5859 58.4628 29.551C59.5717 29.2026 59.9077 28.0877 60.0085 27.6C60.4789 27.9484 60.7142 28.3665 60.815 28.8891ZM53.3552 25.1263C53.5904 25.3353 53.9264 25.5444 54.2961 25.7534C54.1617 25.9625 53.9264 26.2063 53.6912 26.3457C53.4896 25.9276 53.3888 25.5095 53.3552 25.1263ZM53.8928 26.7638C53.8592 26.6941 53.792 26.5896 53.7584 26.5199C54.0609 26.3457 54.2961 26.067 54.4641 25.8579C54.8001 26.0321 55.2033 26.2063 55.6738 26.3457C55.5058 26.7289 55.1361 27.3909 54.5313 27.4606C54.2625 27.2516 54.0609 27.0077 53.8928 26.7638ZM56.077 28.1226C55.5394 28.018 55.0689 27.8438 54.6993 27.5651C55.3042 27.3909 55.6738 26.7638 55.8082 26.3457C56.1442 26.4502 56.5474 26.5199 56.9507 26.5896C56.8499 27.0077 56.6483 27.7742 56.077 28.1226ZM56.2786 28.1923C56.8163 27.7742 57.0179 27.0077 57.0851 26.6593C57.1523 26.6593 57.2195 26.6941 57.2867 26.6941C57.6227 26.7289 57.9588 26.7986 58.2276 26.8335C58.2612 27.2167 58.2276 28.1226 57.6563 28.7149C57.2867 28.4361 56.8163 28.2619 56.2786 28.1923ZM57.8243 28.7845C58.4292 28.1923 58.4628 27.2864 58.4292 26.8683C59.034 27.0077 59.5381 27.2167 59.9077 27.4954C59.8405 27.9135 59.5381 29.0981 58.4292 29.4117C58.2612 29.1678 58.0596 28.9587 57.8243 28.7845ZM60.1429 40.9439C59.3365 39.2367 58.4292 37.0766 58.4292 36.3449C58.4292 35.7178 58.4964 34.9862 58.5636 34.4636C58.866 34.7423 59.2693 35.1604 59.5717 35.8572C59.5381 35.8572 59.5045 35.8572 59.4709 35.8572C59.1012 35.8572 58.7652 36.1707 58.7652 36.5888C58.7652 36.9721 59.0676 37.3205 59.4709 37.3205C59.6389 37.3205 59.8069 37.2508 59.9077 37.1463C60.1765 38.4702 60.2101 40.1426 60.2437 40.491C60.2437 40.6303 60.1765 40.8045 60.1429 40.9439ZM58.8324 33.488C58.8324 33.4532 58.866 33.4183 58.866 33.3835C59.0676 33.1048 59.3029 32.8609 59.6053 32.617C60.0757 33.0003 60.8822 34.0106 61.1174 36.1011C61.0838 36.554 61.0166 37.0418 60.983 37.4947C60.8822 36.7282 60.6806 35.9617 60.4453 35.4391C59.9077 34.3939 59.2356 33.8016 58.8324 33.488ZM61.2182 44.8809C60.983 44.7067 60.1429 44.0447 60.5462 42.8601V42.8253C60.5462 42.8253 60.9158 41.3968 61.1846 40.491C62.2263 37.1463 62.0583 32.2338 62.0247 31.3627C62.3607 31.2234 63.2344 31.1885 63.5704 31.3279C63.5368 32.0944 63.3352 37.1114 64.4104 40.491C64.7129 41.3968 65.0489 42.8253 65.0489 42.8253V42.8601C65.4521 44.0447 64.6457 44.7067 64.3768 44.8809L63.6712 45.0202L63.2008 44.8112V44.1144L64.3768 43.7311C64.6121 43.6615 64.7465 43.3827 64.6793 43.1389C64.6121 42.895 64.3432 42.7556 64.108 42.8253L62.7639 43.2782L61.319 42.7905C61.0838 42.7208 60.815 42.8601 60.7478 43.104C60.6806 43.3479 60.815 43.6266 61.0502 43.6963L62.3271 44.1144V44.8112L61.8567 45.0202L61.2182 44.8809ZM63.436 45.8913L63.6712 45.9958L63.772 45.9609L63.6712 46.3442L62.9655 46.7274L62.8983 46.8668C63.0327 46.3094 63.3016 45.9958 63.436 45.8913ZM62.7639 46.7274C62.6967 46.3094 62.5623 45.9958 62.4279 45.7867L62.8647 45.5777L63.268 45.7519C63.0999 45.9609 62.8983 46.2397 62.7639 46.7274ZM62.2935 46.5184L61.9239 46.3442L61.823 45.9609L62.0247 45.9958L62.2599 45.8913C62.4279 46.17 62.5959 46.6229 62.6295 47.25L62.2935 46.5184ZM62.4279 51.7096C61.3862 51.7096 60.5126 50.9431 60.2773 49.9328H64.5449C64.3432 50.9431 63.4696 51.7096 62.4279 51.7096ZM65.2841 50.7341C65.4185 50.4205 65.5193 50.0721 65.5193 49.7237L66.7626 50.8735L65.2841 50.7341ZM72.5423 53.0336C72.7103 53.4517 72.7103 53.7652 72.6095 54.0091C72.4751 54.2878 72.2062 54.4272 72.0046 54.4969L68.846 52.1626H69.4844L68.7452 51.4658L69.4172 51.5703L72.5423 53.0336ZM68.5772 45.3687C69.6524 47.1804 70.6605 48.8876 70.8957 51.2219L68.6444 50.1767L67.0987 48.8527C67.0987 48.8527 66.1578 48.6088 65.4521 48.9921H62.7639L63.5704 47.3894L64.3768 46.9713L64.6457 45.8216L64.7801 45.7867L64.8473 45.7519C65.4857 45.3687 66.5274 44.2189 65.9562 42.5814C65.9562 42.5466 65.9226 42.442 65.889 42.3375C65.9898 42.1285 66.1914 41.7104 66.4266 41.2226C67.0314 42.7556 67.8379 44.0796 68.5772 45.3687ZM65.5529 40.9439C65.4857 40.7 65.4185 40.4561 65.3513 40.2471C65.3849 39.8987 65.4521 38.4354 65.7209 37.1811C65.8218 37.2508 65.9562 37.2856 66.057 37.2856C66.4266 37.2856 66.7626 36.9721 66.7626 36.554C66.7626 36.1707 66.4938 35.8572 66.1242 35.8223C66.4266 35.1604 66.8298 34.7074 67.1323 34.4287C67.1995 34.9862 67.2667 35.683 67.2667 36.3101C67.2667 37.0766 66.3594 39.2367 65.5529 40.9439ZM67.3003 29.3768H67.2331C66.1242 29.0633 65.8218 27.9484 65.7545 27.4954C66.1242 27.2167 66.6282 27.0077 67.2331 26.8683C67.1995 27.2864 67.2667 28.1923 67.8715 28.8194C67.6363 28.9936 67.5019 29.1329 67.3003 29.3768ZM68.0059 28.7149C67.4011 28.1574 67.3675 27.2167 67.4011 26.8335C67.7035 26.7638 68.0395 26.6941 68.4092 26.6593C68.4764 26.6593 68.51 26.6593 68.5772 26.6244C68.6444 26.9728 68.846 27.7393 69.3836 28.1574C68.846 28.2968 68.4092 28.471 68.0059 28.7149ZM69.6188 28.1226C69.014 27.7742 68.8124 26.9728 68.7452 26.6244C69.1484 26.5547 69.5516 26.4851 69.8877 26.3805C70.0557 26.7638 70.3917 27.4258 71.0302 27.5651C70.6269 27.8438 70.1565 28.0529 69.6188 28.1226ZM71.8366 26.7638C71.6686 27.0425 71.467 27.2516 71.2318 27.4606H71.1982C70.5933 27.3909 70.2237 26.7638 70.0557 26.3457C70.5261 26.2063 70.9293 26.0321 71.2654 25.8579C71.3998 26.067 71.6686 26.3805 71.971 26.5199C71.9038 26.5896 71.8702 26.6941 71.8366 26.7638ZM72.0382 26.3805C71.7694 26.2412 71.5342 25.9625 71.3998 25.7883C71.803 25.5792 72.1054 25.3353 72.3743 25.1263C72.3071 25.5095 72.2399 25.9625 72.0382 26.3805Z" fill="#96CF7E"/>
</g>
<path d="M34.2567 6.16347V6.34225L34.3374 6.50182L37.3412 12.4441C37.7355 13.226 37.9408 14.0872 37.9416 14.9601V53.7617C37.9416 53.843 37.8727 53.923 37.7704 53.923H0.921229C0.818945 53.923 0.75 53.843 0.75 53.7617V14.9598C0.75086 14.0872 0.956096 13.2263 1.35013 12.4448C1.35014 12.4447 1.35015 12.4447 1.35017 12.4447C1.35026 12.4445 1.35035 12.4443 1.35045 12.4441L4.35426 6.50182L4.43492 6.34225V6.16347V0.911216C4.43492 0.829917 4.50386 0.75 4.60615 0.75H34.0855C34.1878 0.75 34.2567 0.829915 34.2567 0.911216V6.16347Z" stroke="black" stroke-width="1.5"/>
<path d="M30.7734 54.4753V14.958C30.7746 14.2505 30.941 13.5529 31.2598 12.9196L34.5262 6.23242" stroke="black" stroke-width="1.5"/>
<path d="M18.2533 23.4083L18.2533 16.4992C18.2533 16.499 18.2533 16.4989 18.2533 16.4987C18.2542 15.6261 18.4594 14.7652 18.8535 13.9837C18.8536 13.9835 18.8536 13.9834 18.8537 13.9832L21.8575 8.04089L21.938 7.88163L21.9382 7.70318L21.9428 2.27798L21.9434 1.52734H21.1928H17.5079H16.7579V2.27734V7.8504C16.7548 7.87283 16.7524 7.89764 16.7512 7.92449C16.7503 7.93848 16.7475 7.95196 16.7432 7.96456C16.741 7.97028 16.739 7.97554 16.7373 7.98026C16.7336 7.9902 16.7305 7.99908 16.7281 8.00624L16.7232 8.02113C16.7219 8.02438 16.7207 8.02754 16.7195 8.03061L13.6356 14.1213L13.6349 14.1228C13.2636 14.8602 13.0697 15.6729 13.0684 16.4973V16.4985V23.4083V24.1583H13.8184H17.5033H18.2533V23.4083Z" stroke="black" stroke-width="1.5"/>
<rect x="4.38428" y="5.96094" width="13.153" height="1.08417" fill="black"/>
<rect x="21.374" y="5.96094" width="13.153" height="1.08417" fill="black"/>
<g clip-path="url(#clip1)">
<path d="M13.5108 47.8428L13.2084 47.7034L13.074 47.2157L12.9059 46.484C12.2339 45.9962 11.6963 45.2298 11.461 44.2891C11.2258 44.7768 10.9906 45.2298 10.789 45.6478C9.31047 48.4699 8.30239 50.63 8.4368 52.616L8.4704 53.7309C10.6546 54.8806 13.1076 55.5426 15.695 55.5426C17.6775 55.5426 19.5929 55.1593 21.3738 54.4625L20.1641 53.5566L19.1896 53.6612L18.9208 53.696L18.652 53.5915C18.5848 53.5566 18.2152 53.3824 17.7783 53.034C17.0727 53.5566 16.2326 53.8354 15.3253 53.8354C13.0068 53.8354 11.125 51.8843 11.125 49.4803V47.8776H13.5108V47.8428Z" fill="#96CF7E"/>
<path d="M18.4838 46.5526L18.3158 47.2145L18.215 47.7023L17.9126 47.8765H18.1478C18.4838 47.7372 18.8871 47.6675 19.3239 47.6675C19.7943 47.6675 20.164 47.7372 20.2312 47.772L20.4664 47.8417L20.668 48.0159L22.1129 49.2701L22.2809 49.3398C21.8777 48.1901 21.2392 47.1449 20.5672 45.9951C20.332 45.6119 20.0968 45.2286 19.8615 44.8105C19.5927 45.5422 19.0887 46.1345 18.4838 46.5526Z" fill="#96CF7E"/>
<path d="M25.843 22.9313L25.3053 23.8023C25.2717 23.872 24.23 25.4398 21.2394 25.7534C18.6856 26.0321 17.2407 27.0425 16.9383 28.7149C16.8375 29.2723 16.7367 29.8994 16.6695 30.3872C16.4006 30.3175 15.359 30.2827 14.8885 30.422C14.8213 29.9343 14.7205 29.3072 14.6197 28.7149C14.3173 27.0425 12.8724 26.0321 10.3186 25.7534C7.32795 25.405 6.28627 23.8372 6.25266 23.8023L5.68142 22.8965L5.4126 23.9069C5.24459 24.5688 5.24458 26.0321 6.01744 27.2516C6.65589 28.2619 7.63037 28.8542 8.94087 29.0633C9.78093 29.2026 10.3522 29.551 10.6882 30.1433C11.0914 30.875 11.0578 31.8157 10.957 32.5473C10.5538 32.2338 9.94894 31.7808 9.4113 31.5718C8.53764 31.1885 5.98384 30.8401 5.68142 30.8053L5.04297 30.7356L5.17738 31.3976C5.5134 32.826 6.68949 34.1151 8.23521 34.7771C8.77285 34.9862 9.3105 35.1255 9.81454 35.1255C10.0498 35.1255 10.2514 35.0907 10.453 35.0558C10.4194 35.5088 10.3858 35.9965 10.3858 36.4495C10.3858 37.1114 10.8226 38.3657 11.3602 39.5503C11.0578 40.2819 9.84813 43.1389 9.00807 44.7067C7.36154 47.8423 6.0928 50.6866 6.29441 53.2299L7.23528 53.8919C7.06727 51.5924 8.26882 48.1559 9.81454 45.1596C10.4866 43.8705 11.3602 41.8846 11.8643 40.7C12.2003 41.4317 12.5027 42.024 12.6372 42.3375C12.6035 42.4769 12.5699 42.5466 12.5699 42.5814C11.9987 44.2189 13.0404 45.3687 13.6788 45.7519L13.746 45.7867H13.7796L14.1157 46.9365L14.5861 47.1804L15.4262 48.9921H12.2003V49.4798C12.2003 51.2567 13.6116 52.72 15.3254 52.72C16.3334 52.72 17.2407 52.2322 17.8119 51.4658C18.2488 52.1974 19.0888 52.5807 19.0888 52.5807L20.4665 52.4413L24.7341 55.6118L24.9357 55.5769C24.9693 55.5769 25.9438 55.3679 26.347 54.5317C26.6158 53.9743 26.5822 53.2775 26.2462 52.511L26.179 52.3368L24.8349 51.7096C24.7005 48.8527 23.558 46.9365 22.3147 44.8809C21.441 43.3827 20.5338 41.8498 19.9625 39.8987C20.5338 38.5747 21.0714 37.1114 21.0714 36.4146C21.0714 35.9617 21.0378 35.4739 21.0042 35.021C21.2058 35.0558 21.4074 35.0907 21.6426 35.0907C22.1467 35.0907 22.6507 34.9862 23.222 34.7423C24.7677 34.1151 25.9774 32.7912 26.2798 31.3627L26.4142 30.7008L25.7758 30.7705C25.4733 30.8053 22.9195 31.1537 22.0459 31.5369C21.5082 31.7808 20.9034 32.1989 20.5002 32.5125C20.3993 31.8157 20.3657 30.8401 20.769 30.1085C21.105 29.5162 21.6762 29.1678 22.5163 29.0284C23.8268 28.8194 24.8349 28.2271 25.4397 27.2167C26.2126 25.9973 26.2126 24.4992 26.0446 23.872L25.843 22.9313ZM9.07528 32.408C9.3105 32.5125 9.57931 32.6867 9.84813 32.8609C9.78093 32.8609 9.74732 32.8609 9.68012 32.826C8.97447 32.7215 8.23521 32.5822 7.22714 31.955C8 32.0944 8.73925 32.2686 9.07528 32.408ZM8.63844 33.8364C8.23521 33.6622 7.83198 33.4183 7.42875 33.1048C8.26882 33.5229 8.94087 33.6274 9.57932 33.7319C9.94894 33.8016 10.285 33.8364 10.621 33.9758C10.117 34.2197 9.3777 34.15 8.63844 33.8364ZM22.4155 32.408C22.7515 32.2686 23.4572 32.0944 24.1964 31.9899C23.1884 32.617 22.4491 32.7215 21.7435 32.8609C21.7098 32.8609 21.6762 32.8609 21.6426 32.8609C21.9115 32.6867 22.1803 32.5125 22.4155 32.408ZM21.9115 33.7667C22.5499 33.6622 23.2556 33.5577 24.1628 33.0699C23.7596 33.4183 23.3228 33.6971 22.8859 33.8713C22.1131 34.1848 21.4074 34.2197 20.9034 33.9758C21.2394 33.8713 21.5418 33.8016 21.9115 33.7667ZM17.7783 28.8891C17.8791 28.3665 18.1144 27.9832 18.5176 27.6348C18.6184 28.1574 18.988 29.2375 20.0633 29.551C20.0297 29.5859 19.9961 29.6207 19.9961 29.6556C19.8953 29.8646 19.8281 30.004 19.7609 30.213H19.7273H19.6937C18.484 30.213 17.8792 29.6207 17.6775 29.4117C17.7111 29.2723 17.7447 29.0633 17.7783 28.8891ZM19.7945 33.488C19.3913 33.7667 18.6856 34.3939 18.2152 35.4391C17.98 35.9617 17.8119 36.6934 17.6775 37.3902C17.6103 36.9024 17.5767 36.3798 17.5095 35.892C17.8119 33.7667 18.6856 32.8609 19.0888 32.5125C19.3577 32.7215 19.5593 32.9654 19.7273 33.2093C19.7609 33.3487 19.7609 33.4183 19.7945 33.488ZM17.6439 29.6556C17.9128 29.9343 18.5512 30.3872 19.6937 30.3872C19.5593 30.8053 19.5257 31.2582 19.5257 31.7111C18.8872 31.2234 18.148 30.875 17.5095 30.6311C17.5431 30.3872 17.6103 30.0388 17.6439 29.6556ZM17.4087 31.6066C17.5431 31.6415 17.6439 31.7111 17.7783 31.746C17.6775 31.955 17.5431 32.2338 17.4087 32.5822C17.4087 32.1641 17.4087 31.8505 17.4087 31.6066ZM17.9464 31.8157C18.316 31.9899 18.652 32.1989 18.988 32.408C18.5848 32.7215 17.8455 33.5229 17.4759 35.1952C17.4423 34.4287 17.4087 33.7319 17.4087 33.1396C17.5767 32.5473 17.7783 32.0944 17.9464 31.8157ZM14.1157 32.7215C13.9813 32.3731 13.8468 32.0596 13.746 31.8505C13.8804 31.7808 13.9813 31.746 14.1157 31.6763C14.0821 31.955 14.1157 32.3034 14.1157 32.7215ZM14.1157 33.279C14.1157 33.9061 14.0821 34.6029 14.0485 35.3694C13.7124 33.7319 13.0404 32.8957 12.6035 32.5125C12.906 32.2686 13.242 32.0944 13.578 31.9202C13.746 32.2338 13.9477 32.6867 14.1157 33.279ZM14.0149 30.7356C13.3764 30.9795 12.6372 31.3627 11.9651 31.8854C11.9651 31.4324 11.9315 30.9098 11.7971 30.422C12.9732 30.422 13.578 29.8994 13.8468 29.6207C13.9141 30.0388 13.9477 30.422 14.0149 30.7356ZM13.7124 28.8891C13.746 29.0633 13.7796 29.2375 13.8132 29.4117C13.6788 29.5859 13.074 30.2478 11.7635 30.2478C11.7635 30.2478 11.7635 30.2478 11.7299 30.2478C11.6627 30.0388 11.5955 29.8646 11.4611 29.6904C11.4275 29.6556 11.3939 29.5859 11.3602 29.551C12.4691 29.2026 12.8052 28.0877 12.906 27.6C13.3764 27.9484 13.6116 28.3665 13.7124 28.8891ZM6.25266 25.1263C6.48788 25.3353 6.8239 25.5444 7.19353 25.7534C7.05912 25.9625 6.82391 26.2063 6.58869 26.3457C6.38707 25.9276 6.28627 25.5095 6.25266 25.1263ZM6.7903 26.7638C6.7567 26.6941 6.6895 26.5896 6.65589 26.5199C6.95832 26.3457 7.19353 26.067 7.36154 25.8579C7.69757 26.0321 8.1008 26.2063 8.57124 26.3457C8.40323 26.7289 8.0336 27.3909 7.42875 27.4606C7.15993 27.2516 6.95831 27.0077 6.7903 26.7638ZM8.97447 28.1226C8.43683 28.018 7.96639 27.8438 7.59677 27.5651C8.20161 27.3909 8.57124 26.7638 8.70565 26.3457C9.04167 26.4502 9.4449 26.5199 9.84813 26.5896C9.74732 27.0077 9.54572 27.7742 8.97447 28.1226ZM9.17608 28.1923C9.71372 27.7742 9.91535 27.0077 9.98255 26.6593C10.0498 26.6593 10.117 26.6941 10.1842 26.6941C10.5202 26.7289 10.8562 26.7986 11.125 26.8335C11.1586 27.2167 11.125 28.1226 10.5538 28.7149C10.1842 28.4361 9.71372 28.2619 9.17608 28.1923ZM10.7218 28.7845C11.3266 28.1923 11.3603 27.2864 11.3267 26.8683C11.9315 27.0077 12.4355 27.2167 12.8052 27.4954C12.738 27.9135 12.4355 29.0981 11.3267 29.4117C11.1586 29.1678 10.957 28.9587 10.7218 28.7845ZM13.0404 40.9439C12.2339 39.2367 11.3267 37.0766 11.3267 36.3449C11.3267 35.7178 11.3939 34.9862 11.4611 34.4636C11.7635 34.7423 12.1667 35.1604 12.4691 35.8572C12.4355 35.8572 12.4019 35.8572 12.3683 35.8572C11.9987 35.8572 11.6627 36.1707 11.6627 36.5888C11.6627 36.9721 11.9651 37.3205 12.3683 37.3205C12.5363 37.3205 12.7044 37.2508 12.8052 37.1463C13.074 38.4702 13.1076 40.1426 13.1412 40.491C13.1412 40.6303 13.074 40.8045 13.0404 40.9439ZM11.7299 33.488C11.7299 33.4532 11.7635 33.4183 11.7635 33.3835C11.9651 33.1048 12.2003 32.8609 12.5027 32.617C12.9732 33.0003 13.7796 34.0106 14.0149 36.1011C13.9813 36.554 13.914 37.0418 13.8804 37.4947C13.7796 36.7282 13.578 35.9617 13.3428 35.4391C12.8052 34.3939 12.1331 33.8016 11.7299 33.488ZM14.1157 44.8809C13.8804 44.7067 13.0404 44.0447 13.4436 42.8601V42.8253C13.4436 42.8253 13.8132 41.3968 14.0821 40.491C15.1237 37.1463 14.9557 32.2338 14.9221 31.3627C15.2581 31.2234 16.1318 31.1885 16.4678 31.3279C16.4342 32.0944 16.2326 37.1114 17.3079 40.491C17.6103 41.3968 17.9464 42.8253 17.9464 42.8253V42.8601C18.3496 44.0447 17.5431 44.7067 17.2743 44.8809L16.5686 45.0202L16.0982 44.8112V44.1144L17.2743 43.7311C17.5095 43.6615 17.6439 43.3827 17.5767 43.1389C17.5095 42.895 17.2407 42.7556 17.0055 42.8253L15.6614 43.2782L14.2165 42.7905C13.9812 42.7208 13.7124 42.8601 13.6452 43.104C13.578 43.3479 13.7124 43.6266 13.9477 43.6963L15.2245 44.1144V44.8112L14.7541 45.0202L14.1157 44.8809ZM16.3334 45.8913L16.5686 45.9958L16.6695 45.9609L16.5686 46.3442L15.863 46.7274L15.7958 46.8668C15.9302 46.3094 16.199 45.9958 16.3334 45.8913ZM15.6614 46.7274C15.5942 46.3094 15.4598 45.9958 15.3254 45.7867L15.7622 45.5777L16.1654 45.7519C15.9974 45.9609 15.7958 46.2397 15.6614 46.7274ZM15.191 46.5184L14.8213 46.3442L14.7205 45.9609L14.9221 45.9958L15.1573 45.8913C15.3254 46.17 15.4934 46.6229 15.527 47.25L15.191 46.5184ZM15.3254 51.7096C14.2837 51.7096 13.41 50.9431 13.1748 49.9328H17.4423C17.2407 50.9431 16.367 51.7096 15.3254 51.7096ZM18.1816 50.7341C18.316 50.4205 18.4168 50.0721 18.4168 49.7237L19.6601 50.8735L18.1816 50.7341ZM25.4397 53.0336C25.6077 53.4517 25.6077 53.7652 25.5069 54.0091C25.3725 54.2878 25.1037 54.4272 24.9021 54.4969L21.7435 52.1626H22.3819L21.6426 51.4658L22.3147 51.5703L25.4397 53.0336ZM21.4746 45.3687C22.5499 47.1804 23.558 48.8876 23.7932 51.2219L21.5418 50.1767L19.9961 48.8527C19.9961 48.8527 19.0552 48.6088 18.3496 48.9921H15.6614L16.4678 47.3894L17.2743 46.9713L17.5431 45.8216L17.6775 45.7867L17.7447 45.7519C18.3832 45.3687 19.4249 44.2189 18.8536 42.5814C18.8536 42.5466 18.82 42.442 18.7864 42.3375C18.8872 42.1285 19.0888 41.7104 19.3241 41.2226C19.9289 42.7556 20.7354 44.0796 21.4746 45.3687ZM18.4504 40.9439C18.3832 40.7 18.316 40.4561 18.2488 40.2471C18.2824 39.8987 18.3496 38.4354 18.6184 37.1811C18.7192 37.2508 18.8536 37.2856 18.9544 37.2856C19.3241 37.2856 19.6601 36.9721 19.6601 36.554C19.6601 36.1707 19.3913 35.8572 19.0216 35.8223C19.3241 35.1604 19.7273 34.7074 20.0297 34.4287C20.0969 34.9862 20.1641 35.683 20.1641 36.3101C20.1641 37.0766 19.2569 39.2367 18.4504 40.9439ZM20.1977 29.3768H20.1305C19.0216 29.0633 18.7192 27.9484 18.652 27.4954C19.0216 27.2167 19.5257 27.0077 20.1305 26.8683C20.0969 27.2864 20.1641 28.1923 20.769 28.8194C20.5338 28.9936 20.3993 29.1329 20.1977 29.3768ZM20.9034 28.7149C20.2985 28.1574 20.2649 27.2167 20.2985 26.8335C20.601 26.7638 20.937 26.6941 21.3066 26.6593C21.3738 26.6593 21.4074 26.6593 21.4746 26.6244C21.5418 26.9728 21.7434 27.7393 22.2811 28.1574C21.7434 28.2968 21.3066 28.471 20.9034 28.7149ZM22.5163 28.1226C21.9115 27.7742 21.7098 26.9728 21.6426 26.6244C22.0459 26.5547 22.4491 26.4851 22.7851 26.3805C22.9531 26.7638 23.2892 27.4258 23.9276 27.5651C23.5244 27.8438 23.0539 28.0529 22.5163 28.1226ZM24.7341 26.7638C24.5661 27.0425 24.3644 27.2516 24.1292 27.4606H24.0956C23.4908 27.3909 23.1211 26.7638 22.9531 26.3457C23.4236 26.2063 23.8268 26.0321 24.1628 25.8579C24.2972 26.067 24.5661 26.3805 24.8685 26.5199C24.8013 26.5896 24.7677 26.6941 24.7341 26.7638ZM24.9357 26.3805C24.6669 26.2412 24.4317 25.9625 24.2972 25.7883C24.7005 25.5792 25.0029 25.3353 25.2717 25.1263C25.2045 25.5095 25.1373 25.9625 24.9357 26.3805Z" fill="#96CF7E"/>
</g>
<path d="M128.462 6.16347V6.34225L128.543 6.50182L131.547 12.4441C131.941 13.226 132.146 14.0872 132.147 14.9601V53.7617C132.147 53.843 132.078 53.923 131.976 53.923H95.1268C95.0245 53.923 94.9556 53.843 94.9556 53.7617V14.9598C94.9564 14.0872 95.1617 13.2263 95.5557 12.4448C95.5557 12.4447 95.5557 12.4447 95.5557 12.4447C95.5558 12.4445 95.5559 12.4443 95.556 12.4441L98.5598 6.50182L98.6405 6.34225V6.16347V0.911216C98.6405 0.829917 98.7094 0.75 98.8117 0.75H128.291C128.393 0.75 128.462 0.829915 128.462 0.911216V6.16347Z" stroke="black" stroke-width="1.5"/>
<path d="M124.979 54.4753V14.958C124.98 14.2505 125.147 13.5529 125.465 12.9196L128.732 6.23242" stroke="black" stroke-width="1.5"/>
<path d="M112.459 23.4083L112.459 16.4992C112.459 16.499 112.459 16.4989 112.459 16.4987C112.46 15.6261 112.665 14.7652 113.06 13.9837C113.06 13.9835 113.06 13.9834 113.06 13.9832L116.064 8.04089L116.144 7.88163L116.144 7.70318L116.149 2.27798L116.149 1.52734H115.399H111.714H110.964V2.27734V7.8504C110.961 7.87283 110.958 7.89764 110.957 7.92449C110.956 7.93848 110.954 7.95196 110.949 7.96456C110.947 7.97028 110.945 7.97554 110.943 7.98026C110.94 7.9902 110.937 7.99908 110.934 8.00624L110.929 8.02113C110.928 8.02438 110.927 8.02754 110.926 8.03061L107.842 14.1213L107.841 14.1228C107.47 14.8602 107.276 15.6729 107.274 16.4973V16.4985V23.4083V24.1583H108.024H111.709H112.459V23.4083Z" stroke="black" stroke-width="1.5"/>
<rect x="98.5903" y="5.96094" width="13.153" height="1.08417" fill="black"/>
<rect x="115.58" y="5.96094" width="13.153" height="1.08417" fill="black"/>
<g clip-path="url(#clip2)">
<path d="M107.716 47.8428L107.414 47.7034L107.28 47.2157L107.112 46.484C106.439 45.9962 105.902 45.2298 105.667 44.2891C105.431 44.7768 105.196 45.2298 104.995 45.6478C103.516 48.4699 102.508 50.63 102.642 52.616L102.676 53.7309C104.86 54.8806 107.313 55.5426 109.901 55.5426C111.883 55.5426 113.798 55.1593 115.579 54.4625L114.37 53.5566L113.395 53.6612L113.126 53.696L112.858 53.5915C112.79 53.5566 112.421 53.3824 111.984 53.034C111.278 53.5566 110.438 53.8354 109.531 53.8354C107.212 53.8354 105.331 51.8843 105.331 49.4803V47.8776H107.716V47.8428Z" fill="#96CF7E"/>
<path d="M112.689 46.5526L112.521 47.2145L112.421 47.7023L112.118 47.8765H112.353C112.689 47.7372 113.093 47.6675 113.529 47.6675C114 47.6675 114.37 47.7372 114.437 47.772L114.672 47.8417L114.874 48.0159L116.318 49.2701L116.486 49.3398C116.083 48.1901 115.445 47.1449 114.773 45.9951C114.538 45.6119 114.302 45.2286 114.067 44.8105C113.798 45.5422 113.294 46.1345 112.689 46.5526Z" fill="#96CF7E"/>
<path d="M120.049 22.9313L119.511 23.8023C119.477 23.872 118.436 25.4398 115.445 25.7534C112.891 26.0321 111.446 27.0425 111.144 28.7149C111.043 29.2723 110.942 29.8994 110.875 30.3872C110.606 30.3175 109.565 30.2827 109.094 30.422C109.027 29.9343 108.926 29.3072 108.825 28.7149C108.523 27.0425 107.078 26.0321 104.524 25.7534C101.534 25.405 100.492 23.8372 100.458 23.8023L99.887 22.8965L99.6182 23.9069C99.4502 24.5688 99.4501 26.0321 100.223 27.2516C100.861 28.2619 101.836 28.8542 103.146 29.0633C103.987 29.2026 104.558 29.551 104.894 30.1433C105.297 30.875 105.263 31.8157 105.163 32.5473C104.759 32.2338 104.155 31.7808 103.617 31.5718C102.743 31.1885 100.189 30.8401 99.887 30.8053L99.2485 30.7356L99.3829 31.3976C99.719 32.826 100.895 34.1151 102.441 34.7771C102.978 34.9862 103.516 35.1255 104.02 35.1255C104.255 35.1255 104.457 35.0907 104.659 35.0558C104.625 35.5088 104.591 35.9965 104.591 36.4495C104.591 37.1114 105.028 38.3657 105.566 39.5503C105.263 40.2819 104.054 43.1389 103.214 44.7067C101.567 47.8423 100.298 50.6866 100.5 53.2299L101.441 53.8919C101.273 51.5924 102.474 48.1559 104.02 45.1596C104.692 43.8705 105.566 41.8846 106.07 40.7C106.406 41.4317 106.708 42.024 106.843 42.3375C106.809 42.4769 106.776 42.5466 106.776 42.5814C106.204 44.2189 107.246 45.3687 107.884 45.7519L107.952 45.7867H107.985L108.321 46.9365L108.792 47.1804L109.632 48.9921H106.406V49.4798C106.406 51.2567 107.817 52.72 109.531 52.72C110.539 52.72 111.446 52.2322 112.018 51.4658C112.454 52.1974 113.294 52.5807 113.294 52.5807L114.672 52.4413L118.94 55.6118L119.141 55.5769C119.175 55.5769 120.149 55.3679 120.553 54.5317C120.821 53.9743 120.788 53.2775 120.452 52.511L120.385 52.3368L119.04 51.7096C118.906 48.8527 117.764 46.9365 116.52 44.8809C115.647 43.3827 114.739 41.8498 114.168 39.8987C114.739 38.5747 115.277 37.1114 115.277 36.4146C115.277 35.9617 115.243 35.4739 115.21 35.021C115.411 35.0558 115.613 35.0907 115.848 35.0907C116.352 35.0907 116.856 34.9862 117.428 34.7423C118.973 34.1151 120.183 32.7912 120.485 31.3627L120.62 30.7008L119.981 30.7705C119.679 30.8053 117.125 31.1537 116.251 31.5369C115.714 31.7808 115.109 32.1989 114.706 32.5125C114.605 31.8157 114.571 30.8401 114.975 30.1085C115.311 29.5162 115.882 29.1678 116.722 29.0284C118.032 28.8194 119.04 28.2271 119.645 27.2167C120.418 25.9973 120.418 24.4992 120.25 23.872L120.049 22.9313ZM103.281 32.408C103.516 32.5125 103.785 32.6867 104.054 32.8609C103.986 32.8609 103.953 32.8609 103.886 32.826C103.18 32.7215 102.441 32.5822 101.433 31.955C102.206 32.0944 102.945 32.2686 103.281 32.408ZM102.844 33.8364C102.441 33.6622 102.038 33.4183 101.634 33.1048C102.474 33.5229 103.146 33.6274 103.785 33.7319C104.155 33.8016 104.491 33.8364 104.827 33.9758C104.323 34.2197 103.583 34.15 102.844 33.8364ZM116.621 32.408C116.957 32.2686 117.663 32.0944 118.402 31.9899C117.394 32.617 116.655 32.7215 115.949 32.8609C115.915 32.8609 115.882 32.8609 115.848 32.8609C116.117 32.6867 116.386 32.5125 116.621 32.408ZM116.117 33.7667C116.755 33.6622 117.461 33.5577 118.368 33.0699C117.965 33.4183 117.528 33.6971 117.092 33.8713C116.319 34.1848 115.613 34.2197 115.109 33.9758C115.445 33.8713 115.747 33.8016 116.117 33.7667ZM111.984 28.8891C112.085 28.3665 112.32 27.9832 112.723 27.6348C112.824 28.1574 113.194 29.2375 114.269 29.551C114.235 29.5859 114.202 29.6207 114.202 29.6556C114.101 29.8646 114.034 30.004 113.966 30.213H113.933H113.899C112.69 30.213 112.085 29.6207 111.883 29.4117C111.917 29.2723 111.95 29.0633 111.984 28.8891ZM114 33.488C113.597 33.7667 112.891 34.3939 112.421 35.4391C112.186 35.9617 112.018 36.6934 111.883 37.3902C111.816 36.9024 111.782 36.3798 111.715 35.892C112.018 33.7667 112.891 32.8609 113.294 32.5125C113.563 32.7215 113.765 32.9654 113.933 33.2093C113.966 33.3487 113.966 33.4183 114 33.488ZM111.849 29.6556C112.118 29.9343 112.757 30.3872 113.899 30.3872C113.765 30.8053 113.731 31.2582 113.731 31.7111C113.093 31.2234 112.354 30.875 111.715 30.6311C111.749 30.3872 111.816 30.0388 111.849 29.6556ZM111.614 31.6066C111.749 31.6415 111.849 31.7111 111.984 31.746C111.883 31.955 111.749 32.2338 111.614 32.5822C111.614 32.1641 111.614 31.8505 111.614 31.6066ZM112.152 31.8157C112.522 31.9899 112.858 32.1989 113.194 32.408C112.79 32.7215 112.051 33.5229 111.681 35.1952C111.648 34.4287 111.614 33.7319 111.614 33.1396C111.782 32.5473 111.984 32.0944 112.152 31.8157ZM108.321 32.7215C108.187 32.3731 108.052 32.0596 107.952 31.8505C108.086 31.7808 108.187 31.746 108.321 31.6763C108.288 31.955 108.321 32.3034 108.321 32.7215ZM108.321 33.279C108.321 33.9061 108.288 34.6029 108.254 35.3694C107.918 33.7319 107.246 32.8957 106.809 32.5125C107.112 32.2686 107.448 32.0944 107.784 31.9202C107.952 32.2338 108.153 32.6867 108.321 33.279ZM108.22 30.7356C107.582 30.9795 106.843 31.3627 106.171 31.8854C106.171 31.4324 106.137 30.9098 106.003 30.422C107.179 30.422 107.784 29.8994 108.052 29.6207C108.12 30.0388 108.153 30.422 108.22 30.7356ZM107.918 28.8891C107.952 29.0633 107.985 29.2375 108.019 29.4117C107.884 29.5859 107.28 30.2478 105.969 30.2478C105.969 30.2478 105.969 30.2478 105.935 30.2478C105.868 30.0388 105.801 29.8646 105.667 29.6904C105.633 29.6556 105.599 29.5859 105.566 29.551C106.675 29.2026 107.011 28.0877 107.112 27.6C107.582 27.9484 107.817 28.3665 107.918 28.8891ZM100.458 25.1263C100.693 25.3353 101.029 25.5444 101.399 25.7534C101.265 25.9625 101.029 26.2063 100.794 26.3457C100.593 25.9276 100.492 25.5095 100.458 25.1263ZM100.996 26.7638C100.962 26.6941 100.895 26.5896 100.861 26.5199C101.164 26.3457 101.399 26.067 101.567 25.8579C101.903 26.0321 102.306 26.2063 102.777 26.3457C102.609 26.7289 102.239 27.3909 101.634 27.4606C101.365 27.2516 101.164 27.0077 100.996 26.7638ZM103.18 28.1226C102.642 28.018 102.172 27.8438 101.802 27.5651C102.407 27.3909 102.777 26.7638 102.911 26.3457C103.247 26.4502 103.65 26.5199 104.054 26.5896C103.953 27.0077 103.751 27.7742 103.18 28.1226ZM103.382 28.1923C103.919 27.7742 104.121 27.0077 104.188 26.6593C104.255 26.6593 104.323 26.6941 104.39 26.6941C104.726 26.7289 105.062 26.7986 105.331 26.8335C105.364 27.2167 105.331 28.1226 104.759 28.7149C104.39 28.4361 103.919 28.2619 103.382 28.1923ZM104.927 28.7845C105.532 28.1923 105.566 27.2864 105.532 26.8683C106.137 27.0077 106.641 27.2167 107.011 27.4954C106.944 27.9135 106.641 29.0981 105.532 29.4117C105.364 29.1678 105.163 28.9587 104.927 28.7845ZM107.246 40.9439C106.439 39.2367 105.532 37.0766 105.532 36.3449C105.532 35.7178 105.599 34.9862 105.667 34.4636C105.969 34.7423 106.372 35.1604 106.675 35.8572C106.641 35.8572 106.607 35.8572 106.574 35.8572C106.204 35.8572 105.868 36.1707 105.868 36.5888C105.868 36.9721 106.171 37.3205 106.574 37.3205C106.742 37.3205 106.91 37.2508 107.011 37.1463C107.28 38.4702 107.313 40.1426 107.347 40.491C107.347 40.6303 107.28 40.8045 107.246 40.9439ZM105.935 33.488C105.935 33.4532 105.969 33.4183 105.969 33.3835C106.171 33.1048 106.406 32.8609 106.708 32.617C107.179 33.0003 107.985 34.0106 108.22 36.1011C108.187 36.554 108.12 37.0418 108.086 37.4947C107.985 36.7282 107.784 35.9617 107.548 35.4391C107.011 34.3939 106.339 33.8016 105.935 33.488ZM108.321 44.8809C108.086 44.7067 107.246 44.0447 107.649 42.8601V42.8253C107.649 42.8253 108.019 41.3968 108.288 40.491C109.329 37.1463 109.161 32.2338 109.128 31.3627C109.464 31.2234 110.337 31.1885 110.673 31.3279C110.64 32.0944 110.438 37.1114 111.513 40.491C111.816 41.3968 112.152 42.8253 112.152 42.8253V42.8601C112.555 44.0447 111.749 44.7067 111.48 44.8809L110.774 45.0202L110.304 44.8112V44.1144L111.48 43.7311C111.715 43.6615 111.849 43.3827 111.782 43.1389C111.715 42.895 111.446 42.7556 111.211 42.8253L109.867 43.2782L108.422 42.7905C108.187 42.7208 107.918 42.8601 107.851 43.104C107.784 43.3479 107.918 43.6266 108.153 43.6963L109.43 44.1144V44.8112L108.96 45.0202L108.321 44.8809ZM110.539 45.8913L110.774 45.9958L110.875 45.9609L110.774 46.3442L110.069 46.7274L110.001 46.8668C110.136 46.3094 110.405 45.9958 110.539 45.8913ZM109.867 46.7274C109.8 46.3094 109.665 45.9958 109.531 45.7867L109.968 45.5777L110.371 45.7519C110.203 45.9609 110.001 46.2397 109.867 46.7274ZM109.397 46.5184L109.027 46.3442L108.926 45.9609L109.128 45.9958L109.363 45.8913C109.531 46.17 109.699 46.6229 109.733 47.25L109.397 46.5184ZM109.531 51.7096C108.489 51.7096 107.616 50.9431 107.38 49.9328H111.648C111.446 50.9431 110.573 51.7096 109.531 51.7096ZM112.387 50.7341C112.522 50.4205 112.622 50.0721 112.622 49.7237L113.866 50.8735L112.387 50.7341ZM119.645 53.0336C119.813 53.4517 119.813 53.7652 119.713 54.0091C119.578 54.2878 119.309 54.4272 119.108 54.4969L115.949 52.1626H116.587L115.848 51.4658L116.52 51.5703L119.645 53.0336ZM115.68 45.3687C116.755 47.1804 117.764 48.8876 117.999 51.2219L115.747 50.1767L114.202 48.8527C114.202 48.8527 113.261 48.6088 112.555 48.9921H109.867L110.673 47.3894L111.48 46.9713L111.749 45.8216L111.883 45.7867L111.95 45.7519C112.589 45.3687 113.63 44.2189 113.059 42.5814C113.059 42.5466 113.026 42.442 112.992 42.3375C113.093 42.1285 113.294 41.7104 113.53 41.2226C114.134 42.7556 114.941 44.0796 115.68 45.3687ZM112.656 40.9439C112.589 40.7 112.522 40.4561 112.454 40.2471C112.488 39.8987 112.555 38.4354 112.824 37.1811C112.925 37.2508 113.059 37.2856 113.16 37.2856C113.53 37.2856 113.866 36.9721 113.866 36.554C113.866 36.1707 113.597 35.8572 113.227 35.8223C113.53 35.1604 113.933 34.7074 114.235 34.4287C114.302 34.9862 114.37 35.683 114.37 36.3101C114.37 37.0766 113.462 39.2367 112.656 40.9439ZM114.403 29.3768H114.336C113.227 29.0633 112.925 27.9484 112.858 27.4954C113.227 27.2167 113.731 27.0077 114.336 26.8683C114.302 27.2864 114.37 28.1923 114.975 28.8194C114.739 28.9936 114.605 29.1329 114.403 29.3768ZM115.109 28.7149C114.504 28.1574 114.47 27.2167 114.504 26.8335C114.807 26.7638 115.143 26.6941 115.512 26.6593C115.579 26.6593 115.613 26.6593 115.68 26.6244C115.747 26.9728 115.949 27.7393 116.487 28.1574C115.949 28.2968 115.512 28.471 115.109 28.7149ZM116.722 28.1226C116.117 27.7742 115.915 26.9728 115.848 26.6244C116.251 26.5547 116.655 26.4851 116.991 26.3805C117.159 26.7638 117.495 27.4258 118.133 27.5651C117.73 27.8438 117.26 28.0529 116.722 28.1226ZM118.94 26.7638C118.772 27.0425 118.57 27.2516 118.335 27.4606H118.301C117.696 27.3909 117.327 26.7638 117.159 26.3457C117.629 26.2063 118.032 26.0321 118.368 25.8579C118.503 26.067 118.772 26.3805 119.074 26.5199C119.007 26.5896 118.973 26.6941 118.94 26.7638ZM119.141 26.3805C118.872 26.2412 118.637 25.9625 118.503 25.7883C118.906 25.5792 119.208 25.3353 119.477 25.1263C119.41 25.5095 119.343 25.9625 119.141 26.3805Z" fill="#96CF7E"/>
</g>
<defs>
<clipPath id="clip0">
<rect width="21.4954" height="30.257" fill="white" transform="translate(52.1455 22.8965)"/>
</clipPath>
<clipPath id="clip1">
<rect width="21.4954" height="30.257" fill="white" transform="translate(5.04297 22.8965)"/>
</clipPath>
<clipPath id="clip2">
<rect width="21.4954" height="30.257" fill="white" transform="translate(99.2485 22.8965)"/>
</clipPath>
</defs>
</svg>
