<svg width="86" height="55" viewBox="0 0 86 55" fill="none" xmlns="http://www.w3.org/2000/svg">
<path d="M34.2567 6.16347V6.34225L34.3374 6.50182L37.3412 12.4441C37.7355 13.226 37.9408 14.0872 37.9416 14.9601V53.7617C37.9416 53.843 37.8727 53.923 37.7704 53.923H0.921229C0.818945 53.923 0.75 53.843 0.75 53.7617V14.9598C0.75086 14.0872 0.956096 13.2263 1.35013 12.4448C1.35014 12.4447 1.35015 12.4447 1.35017 12.4447C1.35026 12.4445 1.35035 12.4443 1.35045 12.4441L4.35426 6.50182L4.43492 6.34225V6.16347V0.911216C4.43492 0.829917 4.50386 0.75 4.60615 0.75H34.0855C34.1878 0.75 34.2567 0.829915 34.2567 0.911216V6.16347Z" stroke="black" stroke-width="1.5"/>
<path d="M30.7734 54.4753V14.958C30.7746 14.2505 30.941 13.5529 31.2598 12.9196L34.5262 6.23242" stroke="black" stroke-width="1.5"/>
<path d="M18.2533 23.4083L18.2533 16.4992C18.2533 16.499 18.2533 16.4989 18.2533 16.4987C18.2542 15.6261 18.4594 14.7652 18.8535 13.9837C18.8536 13.9835 18.8536 13.9834 18.8537 13.9832L21.8575 8.04089L21.938 7.88163L21.9382 7.70318L21.9428 2.27798L21.9434 1.52734H21.1928H17.5079H16.7579V2.27734V7.8504C16.7548 7.87283 16.7524 7.89764 16.7512 7.92449C16.7503 7.93848 16.7475 7.95196 16.7432 7.96456C16.741 7.97028 16.739 7.97554 16.7373 7.98026C16.7336 7.9902 16.7305 7.99908 16.7281 8.00624L16.7232 8.02113C16.7219 8.02438 16.7207 8.02754 16.7195 8.03061L13.6356 14.1213L13.6349 14.1228C13.2636 14.8602 13.0697 15.6729 13.0684 16.4973V16.4985V23.4083V24.1583H13.8184H17.5033H18.2533V23.4083Z" stroke="black" stroke-width="1.5"/>
<rect x="4.38428" y="5.96094" width="13.153" height="1.08417" fill="black"/>
<rect x="21.374" y="5.96094" width="13.153" height="1.08417" fill="black"/>
<g clip-path="url(#clip0)">
<path d="M13.5108 47.8428L13.2084 47.7034L13.074 47.2157L12.9059 46.484C12.2339 45.9962 11.6963 45.2298 11.461 44.2891C11.2258 44.7768 10.9906 45.2298 10.789 45.6478C9.31047 48.4699 8.30239 50.63 8.4368 52.616L8.4704 53.7309C10.6546 54.8806 13.1076 55.5426 15.695 55.5426C17.6775 55.5426 19.5929 55.1593 21.3738 54.4625L20.1641 53.5566L19.1896 53.6612L18.9208 53.696L18.652 53.5915C18.5848 53.5566 18.2152 53.3824 17.7783 53.034C17.0727 53.5566 16.2326 53.8354 15.3253 53.8354C13.0068 53.8354 11.125 51.8843 11.125 49.4803V47.8776H13.5108V47.8428Z" fill="#96CF7E"/>
<path d="M18.4838 46.5526L18.3158 47.2145L18.215 47.7023L17.9126 47.8765H18.1478C18.4838 47.7372 18.8871 47.6675 19.3239 47.6675C19.7943 47.6675 20.164 47.7372 20.2312 47.772L20.4664 47.8417L20.668 48.0159L22.1129 49.2701L22.2809 49.3398C21.8777 48.1901 21.2392 47.1449 20.5672 45.9951C20.332 45.6119 20.0968 45.2286 19.8615 44.8105C19.5927 45.5422 19.0887 46.1345 18.4838 46.5526Z" fill="#96CF7E"/>
<path d="M25.843 22.9313L25.3053 23.8023C25.2717 23.872 24.23 25.4398 21.2394 25.7534C18.6856 26.0321 17.2407 27.0425 16.9383 28.7149C16.8375 29.2723 16.7367 29.8994 16.6695 30.3872C16.4006 30.3175 15.359 30.2827 14.8885 30.422C14.8213 29.9343 14.7205 29.3072 14.6197 28.7149C14.3173 27.0425 12.8724 26.0321 10.3186 25.7534C7.32795 25.405 6.28627 23.8372 6.25266 23.8023L5.68142 22.8965L5.4126 23.9069C5.24459 24.5688 5.24458 26.0321 6.01744 27.2516C6.65589 28.2619 7.63037 28.8542 8.94087 29.0633C9.78093 29.2026 10.3522 29.551 10.6882 30.1433C11.0914 30.875 11.0578 31.8157 10.957 32.5473C10.5538 32.2338 9.94894 31.7808 9.4113 31.5718C8.53764 31.1885 5.98384 30.8401 5.68142 30.8053L5.04297 30.7356L5.17738 31.3976C5.5134 32.826 6.68949 34.1151 8.23521 34.7771C8.77285 34.9862 9.3105 35.1255 9.81454 35.1255C10.0498 35.1255 10.2514 35.0907 10.453 35.0558C10.4194 35.5088 10.3858 35.9965 10.3858 36.4495C10.3858 37.1114 10.8226 38.3657 11.3602 39.5503C11.0578 40.2819 9.84813 43.1389 9.00807 44.7067C7.36154 47.8423 6.0928 50.6866 6.29441 53.2299L7.23528 53.8919C7.06727 51.5924 8.26882 48.1559 9.81454 45.1596C10.4866 43.8705 11.3602 41.8846 11.8643 40.7C12.2003 41.4317 12.5027 42.024 12.6372 42.3375C12.6035 42.4769 12.5699 42.5466 12.5699 42.5814C11.9987 44.2189 13.0404 45.3687 13.6788 45.7519L13.746 45.7867H13.7796L14.1157 46.9365L14.5861 47.1804L15.4262 48.9921H12.2003V49.4798C12.2003 51.2567 13.6116 52.72 15.3254 52.72C16.3334 52.72 17.2407 52.2322 17.8119 51.4658C18.2488 52.1974 19.0888 52.5807 19.0888 52.5807L20.4665 52.4413L24.7341 55.6118L24.9357 55.5769C24.9693 55.5769 25.9438 55.3679 26.347 54.5317C26.6158 53.9743 26.5822 53.2775 26.2462 52.511L26.179 52.3368L24.8349 51.7096C24.7005 48.8527 23.558 46.9365 22.3147 44.8809C21.441 43.3827 20.5338 41.8498 19.9625 39.8987C20.5338 38.5747 21.0714 37.1114 21.0714 36.4146C21.0714 35.9617 21.0378 35.4739 21.0042 35.021C21.2058 35.0558 21.4074 35.0907 21.6426 35.0907C22.1467 35.0907 22.6507 34.9862 23.222 34.7423C24.7677 34.1151 25.9774 32.7912 26.2798 31.3627L26.4142 30.7008L25.7758 30.7705C25.4733 30.8053 22.9195 31.1537 22.0459 31.5369C21.5082 31.7808 20.9034 32.1989 20.5002 32.5125C20.3993 31.8157 20.3657 30.8401 20.769 30.1085C21.105 29.5162 21.6762 29.1678 22.5163 29.0284C23.8268 28.8194 24.8349 28.2271 25.4397 27.2167C26.2126 25.9973 26.2126 24.4992 26.0446 23.872L25.843 22.9313ZM9.07528 32.408C9.3105 32.5125 9.57931 32.6867 9.84813 32.8609C9.78093 32.8609 9.74732 32.8609 9.68012 32.826C8.97447 32.7215 8.23521 32.5822 7.22714 31.955C8 32.0944 8.73925 32.2686 9.07528 32.408ZM8.63844 33.8364C8.23521 33.6622 7.83198 33.4183 7.42875 33.1048C8.26882 33.5229 8.94087 33.6274 9.57932 33.7319C9.94894 33.8016 10.285 33.8364 10.621 33.9758C10.117 34.2197 9.3777 34.15 8.63844 33.8364ZM22.4155 32.408C22.7515 32.2686 23.4572 32.0944 24.1964 31.9899C23.1884 32.617 22.4491 32.7215 21.7435 32.8609C21.7098 32.8609 21.6762 32.8609 21.6426 32.8609C21.9115 32.6867 22.1803 32.5125 22.4155 32.408ZM21.9115 33.7667C22.5499 33.6622 23.2556 33.5577 24.1628 33.0699C23.7596 33.4183 23.3228 33.6971 22.8859 33.8713C22.1131 34.1848 21.4074 34.2197 20.9034 33.9758C21.2394 33.8713 21.5418 33.8016 21.9115 33.7667ZM17.7783 28.8891C17.8791 28.3665 18.1144 27.9832 18.5176 27.6348C18.6184 28.1574 18.988 29.2375 20.0633 29.551C20.0297 29.5859 19.9961 29.6207 19.9961 29.6556C19.8953 29.8646 19.8281 30.004 19.7609 30.213H19.7273H19.6937C18.484 30.213 17.8792 29.6207 17.6775 29.4117C17.7111 29.2723 17.7447 29.0633 17.7783 28.8891ZM19.7945 33.488C19.3913 33.7667 18.6856 34.3939 18.2152 35.4391C17.98 35.9617 17.8119 36.6934 17.6775 37.3902C17.6103 36.9024 17.5767 36.3798 17.5095 35.892C17.8119 33.7667 18.6856 32.8609 19.0888 32.5125C19.3577 32.7215 19.5593 32.9654 19.7273 33.2093C19.7609 33.3487 19.7609 33.4183 19.7945 33.488ZM17.6439 29.6556C17.9128 29.9343 18.5512 30.3872 19.6937 30.3872C19.5593 30.8053 19.5257 31.2582 19.5257 31.7111C18.8872 31.2234 18.148 30.875 17.5095 30.6311C17.5431 30.3872 17.6103 30.0388 17.6439 29.6556ZM17.4087 31.6066C17.5431 31.6415 17.6439 31.7111 17.7783 31.746C17.6775 31.955 17.5431 32.2338 17.4087 32.5822C17.4087 32.1641 17.4087 31.8505 17.4087 31.6066ZM17.9464 31.8157C18.316 31.9899 18.652 32.1989 18.988 32.408C18.5848 32.7215 17.8455 33.5229 17.4759 35.1952C17.4423 34.4287 17.4087 33.7319 17.4087 33.1396C17.5767 32.5473 17.7783 32.0944 17.9464 31.8157ZM14.1157 32.7215C13.9813 32.3731 13.8468 32.0596 13.746 31.8505C13.8804 31.7808 13.9813 31.746 14.1157 31.6763C14.0821 31.955 14.1157 32.3034 14.1157 32.7215ZM14.1157 33.279C14.1157 33.9061 14.0821 34.6029 14.0485 35.3694C13.7124 33.7319 13.0404 32.8957 12.6035 32.5125C12.906 32.2686 13.242 32.0944 13.578 31.9202C13.746 32.2338 13.9477 32.6867 14.1157 33.279ZM14.0149 30.7356C13.3764 30.9795 12.6372 31.3627 11.9651 31.8854C11.9651 31.4324 11.9315 30.9098 11.7971 30.422C12.9732 30.422 13.578 29.8994 13.8468 29.6207C13.9141 30.0388 13.9477 30.422 14.0149 30.7356ZM13.7124 28.8891C13.746 29.0633 13.7796 29.2375 13.8132 29.4117C13.6788 29.5859 13.074 30.2478 11.7635 30.2478C11.7635 30.2478 11.7635 30.2478 11.7299 30.2478C11.6627 30.0388 11.5955 29.8646 11.4611 29.6904C11.4275 29.6556 11.3939 29.5859 11.3602 29.551C12.4691 29.2026 12.8052 28.0877 12.906 27.6C13.3764 27.9484 13.6116 28.3665 13.7124 28.8891ZM6.25266 25.1263C6.48788 25.3353 6.8239 25.5444 7.19353 25.7534C7.05912 25.9625 6.82391 26.2063 6.58869 26.3457C6.38707 25.9276 6.28627 25.5095 6.25266 25.1263ZM6.7903 26.7638C6.7567 26.6941 6.6895 26.5896 6.65589 26.5199C6.95832 26.3457 7.19353 26.067 7.36154 25.8579C7.69757 26.0321 8.1008 26.2063 8.57124 26.3457C8.40323 26.7289 8.0336 27.3909 7.42875 27.4606C7.15993 27.2516 6.95831 27.0077 6.7903 26.7638ZM8.97447 28.1226C8.43683 28.018 7.96639 27.8438 7.59677 27.5651C8.20161 27.3909 8.57124 26.7638 8.70565 26.3457C9.04167 26.4502 9.4449 26.5199 9.84813 26.5896C9.74732 27.0077 9.54572 27.7742 8.97447 28.1226ZM9.17608 28.1923C9.71372 27.7742 9.91535 27.0077 9.98255 26.6593C10.0498 26.6593 10.117 26.6941 10.1842 26.6941C10.5202 26.7289 10.8562 26.7986 11.125 26.8335C11.1586 27.2167 11.125 28.1226 10.5538 28.7149C10.1842 28.4361 9.71372 28.2619 9.17608 28.1923ZM10.7218 28.7845C11.3266 28.1923 11.3603 27.2864 11.3267 26.8683C11.9315 27.0077 12.4355 27.2167 12.8052 27.4954C12.738 27.9135 12.4355 29.0981 11.3267 29.4117C11.1586 29.1678 10.957 28.9587 10.7218 28.7845ZM13.0404 40.9439C12.2339 39.2367 11.3267 37.0766 11.3267 36.3449C11.3267 35.7178 11.3939 34.9862 11.4611 34.4636C11.7635 34.7423 12.1667 35.1604 12.4691 35.8572C12.4355 35.8572 12.4019 35.8572 12.3683 35.8572C11.9987 35.8572 11.6627 36.1707 11.6627 36.5888C11.6627 36.9721 11.9651 37.3205 12.3683 37.3205C12.5363 37.3205 12.7044 37.2508 12.8052 37.1463C13.074 38.4702 13.1076 40.1426 13.1412 40.491C13.1412 40.6303 13.074 40.8045 13.0404 40.9439ZM11.7299 33.488C11.7299 33.4532 11.7635 33.4183 11.7635 33.3835C11.9651 33.1048 12.2003 32.8609 12.5027 32.617C12.9732 33.0003 13.7796 34.0106 14.0149 36.1011C13.9813 36.554 13.914 37.0418 13.8804 37.4947C13.7796 36.7282 13.578 35.9617 13.3428 35.4391C12.8052 34.3939 12.1331 33.8016 11.7299 33.488ZM14.1157 44.8809C13.8804 44.7067 13.0404 44.0447 13.4436 42.8601V42.8253C13.4436 42.8253 13.8132 41.3968 14.0821 40.491C15.1237 37.1463 14.9557 32.2338 14.9221 31.3627C15.2581 31.2234 16.1318 31.1885 16.4678 31.3279C16.4342 32.0944 16.2326 37.1114 17.3079 40.491C17.6103 41.3968 17.9464 42.8253 17.9464 42.8253V42.8601C18.3496 44.0447 17.5431 44.7067 17.2743 44.8809L16.5686 45.0202L16.0982 44.8112V44.1144L17.2743 43.7311C17.5095 43.6615 17.6439 43.3827 17.5767 43.1389C17.5095 42.895 17.2407 42.7556 17.0055 42.8253L15.6614 43.2782L14.2165 42.7905C13.9812 42.7208 13.7124 42.8601 13.6452 43.104C13.578 43.3479 13.7124 43.6266 13.9477 43.6963L15.2245 44.1144V44.8112L14.7541 45.0202L14.1157 44.8809ZM16.3334 45.8913L16.5686 45.9958L16.6695 45.9609L16.5686 46.3442L15.863 46.7274L15.7958 46.8668C15.9302 46.3094 16.199 45.9958 16.3334 45.8913ZM15.6614 46.7274C15.5942 46.3094 15.4598 45.9958 15.3254 45.7867L15.7622 45.5777L16.1654 45.7519C15.9974 45.9609 15.7958 46.2397 15.6614 46.7274ZM15.191 46.5184L14.8213 46.3442L14.7205 45.9609L14.9221 45.9958L15.1573 45.8913C15.3254 46.17 15.4934 46.6229 15.527 47.25L15.191 46.5184ZM15.3254 51.7096C14.2837 51.7096 13.41 50.9431 13.1748 49.9328H17.4423C17.2407 50.9431 16.367 51.7096 15.3254 51.7096ZM18.1816 50.7341C18.316 50.4205 18.4168 50.0721 18.4168 49.7237L19.6601 50.8735L18.1816 50.7341ZM25.4397 53.0336C25.6077 53.4517 25.6077 53.7652 25.5069 54.0091C25.3725 54.2878 25.1037 54.4272 24.9021 54.4969L21.7435 52.1626H22.3819L21.6426 51.4658L22.3147 51.5703L25.4397 53.0336ZM21.4746 45.3687C22.5499 47.1804 23.558 48.8876 23.7932 51.2219L21.5418 50.1767L19.9961 48.8527C19.9961 48.8527 19.0552 48.6088 18.3496 48.9921H15.6614L16.4678 47.3894L17.2743 46.9713L17.5431 45.8216L17.6775 45.7867L17.7447 45.7519C18.3832 45.3687 19.4249 44.2189 18.8536 42.5814C18.8536 42.5466 18.82 42.442 18.7864 42.3375C18.8872 42.1285 19.0888 41.7104 19.3241 41.2226C19.9289 42.7556 20.7354 44.0796 21.4746 45.3687ZM18.4504 40.9439C18.3832 40.7 18.316 40.4561 18.2488 40.2471C18.2824 39.8987 18.3496 38.4354 18.6184 37.1811C18.7192 37.2508 18.8536 37.2856 18.9544 37.2856C19.3241 37.2856 19.6601 36.9721 19.6601 36.554C19.6601 36.1707 19.3913 35.8572 19.0216 35.8223C19.3241 35.1604 19.7273 34.7074 20.0297 34.4287C20.0969 34.9862 20.1641 35.683 20.1641 36.3101C20.1641 37.0766 19.2569 39.2367 18.4504 40.9439ZM20.1977 29.3768H20.1305C19.0216 29.0633 18.7192 27.9484 18.652 27.4954C19.0216 27.2167 19.5257 27.0077 20.1305 26.8683C20.0969 27.2864 20.1641 28.1923 20.769 28.8194C20.5338 28.9936 20.3993 29.1329 20.1977 29.3768ZM20.9034 28.7149C20.2985 28.1574 20.2649 27.2167 20.2985 26.8335C20.601 26.7638 20.937 26.6941 21.3066 26.6593C21.3738 26.6593 21.4074 26.6593 21.4746 26.6244C21.5418 26.9728 21.7434 27.7393 22.2811 28.1574C21.7434 28.2968 21.3066 28.471 20.9034 28.7149ZM22.5163 28.1226C21.9115 27.7742 21.7098 26.9728 21.6426 26.6244C22.0459 26.5547 22.4491 26.4851 22.7851 26.3805C22.9531 26.7638 23.2892 27.4258 23.9276 27.5651C23.5244 27.8438 23.0539 28.0529 22.5163 28.1226ZM24.7341 26.7638C24.5661 27.0425 24.3644 27.2516 24.1292 27.4606H24.0956C23.4908 27.3909 23.1211 26.7638 22.9531 26.3457C23.4236 26.2063 23.8268 26.0321 24.1628 25.8579C24.2972 26.067 24.5661 26.3805 24.8685 26.5199C24.8013 26.5896 24.7677 26.6941 24.7341 26.7638ZM24.9357 26.3805C24.6669 26.2412 24.4317 25.9625 24.2972 25.7883C24.7005 25.5792 25.0029 25.3353 25.2717 25.1263C25.2045 25.5095 25.1373 25.9625 24.9357 26.3805Z" fill="#96CF7E"/>
</g>
<path d="M80.9481 6.16347V6.34225L81.0288 6.50182L84.0326 12.4441C84.4269 13.226 84.6322 14.0872 84.633 14.9601V53.7617C84.633 53.843 84.5641 53.923 84.4618 53.923H47.6126C47.5104 53.923 47.4414 53.843 47.4414 53.7617V14.9598C47.4423 14.0872 47.6475 13.2263 48.0415 12.4448C48.0415 12.4447 48.0416 12.4447 48.0416 12.4447C48.0417 12.4445 48.0418 12.4443 48.0419 12.4441L51.0457 6.50182L51.1263 6.34225V6.16347V0.911216C51.1263 0.829917 51.1953 0.75 51.2976 0.75H80.7769C80.8792 0.75 80.9481 0.829915 80.9481 0.911216V6.16347Z" stroke="black" stroke-width="1.5"/>
<path d="M77.4648 54.4753V14.958C77.466 14.2505 77.6324 13.5529 77.9513 12.9196L81.2176 6.23242" stroke="black" stroke-width="1.5"/>
<path d="M64.9452 23.4083L64.9452 16.4992C64.9452 16.499 64.9452 16.4989 64.9452 16.4987C64.9461 15.6261 65.1513 14.7652 65.5454 13.9837C65.5455 13.9835 65.5455 13.9834 65.5456 13.9832L68.5494 8.04089L68.6299 7.88163L68.6301 7.70318L68.6347 2.27798L68.6353 1.52734H67.8847H64.1998H63.4498V2.27734V7.8504C63.4467 7.87283 63.4443 7.89764 63.4431 7.92449C63.4422 7.93848 63.4394 7.95196 63.4351 7.96456C63.4329 7.97028 63.4309 7.97554 63.4292 7.98026C63.4255 7.9902 63.4224 7.99908 63.42 8.00624L63.4151 8.02113C63.4138 8.02438 63.4126 8.02754 63.4114 8.03061L60.3275 14.1213L60.3268 14.1228C59.9555 14.8602 59.7616 15.6729 59.7603 16.4973V16.4985V23.4083V24.1583H60.5103H64.1952H64.9452V23.4083Z" stroke="black" stroke-width="1.5"/>
<rect x="51.0762" y="5.96094" width="13.153" height="1.08417" fill="black"/>
<rect x="68.0654" y="5.96094" width="13.153" height="1.08417" fill="black"/>
<g clip-path="url(#clip1)">
<path d="M60.2022 47.8428L59.8998 47.7034L59.7654 47.2157L59.5974 46.484C58.9253 45.9962 58.3877 45.2298 58.1524 44.2891C57.9172 44.7768 57.682 45.2298 57.4804 45.6478C56.0019 48.4699 54.9938 50.63 55.1282 52.616L55.1618 53.7309C57.346 54.8806 59.799 55.5426 62.3864 55.5426C64.3689 55.5426 66.2843 55.1593 68.0652 54.4625L66.8555 53.5566L65.881 53.6612L65.6122 53.696L65.3434 53.5915C65.2762 53.5566 64.9066 53.3824 64.4697 53.034C63.7641 53.5566 62.924 53.8354 62.0167 53.8354C59.6982 53.8354 57.8164 51.8843 57.8164 49.4803V47.8776H60.2022V47.8428Z" fill="#96CF7E"/>
<path d="M65.1752 46.5526L65.0072 47.2145L64.9064 47.7023L64.604 47.8765H64.8392C65.1752 47.7372 65.5785 47.6675 66.0153 47.6675C66.4857 47.6675 66.8554 47.7372 66.9226 47.772L67.1578 47.8417L67.3594 48.0159L68.8043 49.2701L68.9723 49.3398C68.5691 48.1901 67.9307 47.1449 67.2586 45.9951C67.0234 45.6119 66.7882 45.2286 66.553 44.8105C66.2841 45.5422 65.7801 46.1345 65.1752 46.5526Z" fill="#96CF7E"/>
<path d="M72.5344 22.9313L71.9967 23.8023C71.9631 23.872 70.9214 25.4398 67.9308 25.7534C65.377 26.0321 63.9321 27.0425 63.6297 28.7149C63.5289 29.2723 63.4281 29.8994 63.3609 30.3872C63.092 30.3175 62.0504 30.2827 61.5799 30.422C61.5127 29.9343 61.4119 29.3072 61.3111 28.7149C61.0087 27.0425 59.5638 26.0321 57.01 25.7534C54.0194 25.405 52.9777 23.8372 52.9441 23.8023L52.3728 22.8965L52.104 23.9069C51.936 24.5688 51.936 26.0321 52.7088 27.2516C53.3473 28.2619 54.3218 28.8542 55.6323 29.0633C56.4723 29.2026 57.0436 29.551 57.3796 30.1433C57.7828 30.875 57.7492 31.8157 57.6484 32.5473C57.2452 32.2338 56.6404 31.7808 56.1027 31.5718C55.229 31.1885 52.6752 30.8401 52.3728 30.8053L51.7344 30.7356L51.8688 31.3976C52.2048 32.826 53.3809 34.1151 54.9266 34.7771C55.4643 34.9862 56.0019 35.1255 56.5059 35.1255C56.7412 35.1255 56.9428 35.0907 57.1444 35.0558C57.1108 35.5088 57.0772 35.9965 57.0772 36.4495C57.0772 37.1114 57.514 38.3657 58.0517 39.5503C57.7492 40.2819 56.5395 43.1389 55.6995 44.7067C54.0529 47.8423 52.7842 50.6866 52.9858 53.2299L53.9267 53.8919C53.7587 51.5924 54.9602 48.1559 56.5059 45.1596C57.178 43.8705 58.0517 41.8846 58.5557 40.7C58.8917 41.4317 59.1941 42.024 59.3286 42.3375C59.295 42.4769 59.2613 42.5466 59.2613 42.5814C58.6901 44.2189 59.7318 45.3687 60.3702 45.7519L60.4374 45.7867H60.471L60.8071 46.9365L61.2775 47.1804L62.1176 48.9921H58.8917V49.4798C58.8917 51.2567 60.303 52.72 62.0168 52.72C63.0248 52.72 63.9321 52.2322 64.5034 51.4658C64.9402 52.1974 65.7802 52.5807 65.7802 52.5807L67.158 52.4413L71.4255 55.6118L71.6271 55.5769C71.6607 55.5769 72.6352 55.3679 73.0384 54.5317C73.3072 53.9743 73.2736 53.2775 72.9376 52.511L72.8704 52.3368L71.5263 51.7096C71.3919 48.8527 70.2494 46.9365 69.0061 44.8809C68.1324 43.3827 67.2252 41.8498 66.6539 39.8987C67.2252 38.5747 67.7628 37.1114 67.7628 36.4146C67.7628 35.9617 67.7292 35.4739 67.6956 35.021C67.8972 35.0558 68.0988 35.0907 68.334 35.0907C68.8381 35.0907 69.3421 34.9862 69.9134 34.7423C71.4591 34.1151 72.6688 32.7912 72.9712 31.3627L73.1056 30.7008L72.4672 30.7705C72.1647 30.8053 69.6109 31.1537 68.7373 31.5369C68.1996 31.7808 67.5948 32.1989 67.1916 32.5125C67.0908 31.8157 67.0571 30.8401 67.4604 30.1085C67.7964 29.5162 68.3676 29.1678 69.2077 29.0284C70.5182 28.8194 71.5263 28.2271 72.1311 27.2167C72.904 25.9973 72.904 24.4992 72.736 23.872L72.5344 22.9313ZM55.7667 32.408C56.0019 32.5125 56.2707 32.6867 56.5395 32.8609C56.4723 32.8609 56.4387 32.8609 56.3715 32.826C55.6659 32.7215 54.9266 32.5822 53.9185 31.955C54.6914 32.0944 55.4307 32.2686 55.7667 32.408ZM55.3298 33.8364C54.9266 33.6622 54.5234 33.4183 54.1202 33.1048C54.9602 33.5229 55.6323 33.6274 56.2707 33.7319C56.6404 33.8016 56.9764 33.8364 57.3124 33.9758C56.8084 34.2197 56.0691 34.15 55.3298 33.8364ZM69.1069 32.408C69.4429 32.2686 70.1486 32.0944 70.8878 31.9899C69.8798 32.617 69.1405 32.7215 68.4349 32.8609C68.4013 32.8609 68.3676 32.8609 68.334 32.8609C68.6029 32.6867 68.8717 32.5125 69.1069 32.408ZM68.6029 33.7667C69.2413 33.6622 69.947 33.5577 70.8542 33.0699C70.451 33.4183 70.0142 33.6971 69.5773 33.8713C68.8045 34.1848 68.0988 34.2197 67.5948 33.9758C67.9308 33.8713 68.2332 33.8016 68.6029 33.7667ZM64.4697 28.8891C64.5706 28.3665 64.8058 27.9832 65.209 27.6348C65.3098 28.1574 65.6794 29.2375 66.7547 29.551C66.7211 29.5859 66.6875 29.6207 66.6875 29.6556C66.5867 29.8646 66.5195 30.004 66.4523 30.213H66.4187H66.3851C65.1754 30.213 64.5706 29.6207 64.3689 29.4117C64.4025 29.2723 64.4361 29.0633 64.4697 28.8891ZM66.4859 33.488C66.0827 33.7667 65.377 34.3939 64.9066 35.4391C64.6714 35.9617 64.5034 36.6934 64.3689 37.3902C64.3017 36.9024 64.2681 36.3798 64.2009 35.892C64.5034 33.7667 65.377 32.8609 65.7802 32.5125C66.0491 32.7215 66.2507 32.9654 66.4187 33.2093C66.4523 33.3487 66.4523 33.4183 66.4859 33.488ZM64.3353 29.6556C64.6042 29.9343 65.2426 30.3872 66.3851 30.3872C66.2507 30.8053 66.2171 31.2582 66.2171 31.7111C65.5786 31.2234 64.8394 30.875 64.2009 30.6311C64.2345 30.3872 64.3017 30.0388 64.3353 29.6556ZM64.1001 31.6066C64.2345 31.6415 64.3353 31.7111 64.4697 31.746C64.3689 31.955 64.2345 32.2338 64.1001 32.5822C64.1001 32.1641 64.1001 31.8505 64.1001 31.6066ZM64.6378 31.8157C65.0074 31.9899 65.3434 32.1989 65.6794 32.408C65.2762 32.7215 64.537 33.5229 64.1673 35.1952C64.1337 34.4287 64.1001 33.7319 64.1001 33.1396C64.2681 32.5473 64.4697 32.0944 64.6378 31.8157ZM60.8071 32.7215C60.6727 32.3731 60.5382 32.0596 60.4374 31.8505C60.5718 31.7808 60.6727 31.746 60.8071 31.6763C60.7735 31.955 60.8071 32.3034 60.8071 32.7215ZM60.8071 33.279C60.8071 33.9061 60.7735 34.6029 60.7399 35.3694C60.4038 33.7319 59.7318 32.8957 59.295 32.5125C59.5974 32.2686 59.9334 32.0944 60.2694 31.9202C60.4374 32.2338 60.6391 32.6867 60.8071 33.279ZM60.7063 30.7356C60.0678 30.9795 59.3286 31.3627 58.6565 31.8854C58.6565 31.4324 58.6229 30.9098 58.4885 30.422C59.6646 30.422 60.2694 29.8994 60.5383 29.6207C60.6055 30.0388 60.6391 30.422 60.7063 30.7356ZM60.4038 28.8891C60.4374 29.0633 60.471 29.2375 60.5046 29.4117C60.3702 29.5859 59.7654 30.2478 58.4549 30.2478C58.4549 30.2478 58.4549 30.2478 58.4213 30.2478C58.3541 30.0388 58.2869 29.8646 58.1525 29.6904C58.1189 29.6556 58.0853 29.5859 58.0517 29.551C59.1605 29.2026 59.4966 28.0877 59.5974 27.6C60.0678 27.9484 60.303 28.3665 60.4038 28.8891ZM52.9441 25.1263C53.1793 25.3353 53.5153 25.5444 53.8849 25.7534C53.7505 25.9625 53.5153 26.2063 53.2801 26.3457C53.0785 25.9276 52.9777 25.5095 52.9441 25.1263ZM53.4817 26.7638C53.4481 26.6941 53.3809 26.5896 53.3473 26.5199C53.6497 26.3457 53.8849 26.067 54.053 25.8579C54.389 26.0321 54.7922 26.2063 55.2626 26.3457C55.0946 26.7289 54.725 27.3909 54.1202 27.4606C53.8513 27.2516 53.6497 27.0077 53.4817 26.7638ZM55.6659 28.1226C55.1282 28.018 54.6578 27.8438 54.2882 27.5651C54.893 27.3909 55.2626 26.7638 55.3971 26.3457C55.7331 26.4502 56.1363 26.5199 56.5395 26.5896C56.4387 27.0077 56.2371 27.7742 55.6659 28.1226ZM55.8675 28.1923C56.4051 27.7742 56.6068 27.0077 56.674 26.6593C56.7412 26.6593 56.8084 26.6941 56.8756 26.6941C57.2116 26.7289 57.5476 26.7986 57.8164 26.8335C57.85 27.2167 57.8164 28.1226 57.2452 28.7149C56.8756 28.4361 56.4051 28.2619 55.8675 28.1923ZM57.4132 28.7845C58.0181 28.1923 58.0517 27.2864 58.0181 26.8683C58.6229 27.0077 59.1269 27.2167 59.4966 27.4954C59.4294 27.9135 59.1269 29.0981 58.0181 29.4117C57.85 29.1678 57.6484 28.9587 57.4132 28.7845ZM59.7318 40.9439C58.9253 39.2367 58.0181 37.0766 58.0181 36.3449C58.0181 35.7178 58.0853 34.9862 58.1525 34.4636C58.4549 34.7423 58.8581 35.1604 59.1605 35.8572C59.1269 35.8572 59.0933 35.8572 59.0597 35.8572C58.6901 35.8572 58.3541 36.1707 58.3541 36.5888C58.3541 36.9721 58.6565 37.3205 59.0597 37.3205C59.2277 37.3205 59.3958 37.2508 59.4966 37.1463C59.7654 38.4702 59.799 40.1426 59.8326 40.491C59.8326 40.6303 59.7654 40.8045 59.7318 40.9439ZM58.4213 33.488C58.4213 33.4532 58.4549 33.4183 58.4549 33.3835C58.6565 33.1048 58.8917 32.8609 59.1942 32.617C59.6646 33.0003 60.471 34.0106 60.7063 36.1011C60.6727 36.554 60.6055 37.0418 60.5718 37.4947C60.471 36.7282 60.2694 35.9617 60.0342 35.4391C59.4966 34.3939 58.8245 33.8016 58.4213 33.488ZM60.8071 44.8809C60.5719 44.7067 59.7318 44.0447 60.135 42.8601V42.8253C60.135 42.8253 60.5046 41.3968 60.7735 40.491C61.8151 37.1463 61.6471 32.2338 61.6135 31.3627C61.9496 31.2234 62.8232 31.1885 63.1592 31.3279C63.1256 32.0944 62.924 37.1114 63.9993 40.491C64.3017 41.3968 64.6378 42.8253 64.6378 42.8253V42.8601C65.041 44.0447 64.2345 44.7067 63.9657 44.8809L63.2601 45.0202L62.7896 44.8112V44.1144L63.9657 43.7311C64.2009 43.6615 64.3353 43.3827 64.2681 43.1389C64.2009 42.895 63.9321 42.7556 63.6969 42.8253L62.3528 43.2782L60.9079 42.7905C60.6727 42.7208 60.4038 42.8601 60.3366 43.104C60.2694 43.3479 60.4038 43.6266 60.6391 43.6963L61.9159 44.1144V44.8112L61.4455 45.0202L60.8071 44.8809ZM63.0248 45.8913L63.2601 45.9958L63.3609 45.9609L63.2601 46.3442L62.5544 46.7274L62.4872 46.8668C62.6216 46.3094 62.8904 45.9958 63.0248 45.8913ZM62.3528 46.7274C62.2856 46.3094 62.1512 45.9958 62.0168 45.7867L62.4536 45.5777L62.8568 45.7519C62.6888 45.9609 62.4872 46.2397 62.3528 46.7274ZM61.8824 46.5184L61.5127 46.3442L61.4119 45.9609L61.6135 45.9958L61.8488 45.8913C62.0168 46.17 62.1848 46.6229 62.2184 47.25L61.8824 46.5184ZM62.0168 51.7096C60.9751 51.7096 60.1014 50.9431 59.8662 49.9328H64.1337C63.9321 50.9431 63.0584 51.7096 62.0168 51.7096ZM64.873 50.7341C65.0074 50.4205 65.1082 50.0721 65.1082 49.7237L66.3515 50.8735L64.873 50.7341ZM72.1311 53.0336C72.2992 53.4517 72.2991 53.7652 72.1983 54.0091C72.0639 54.2878 71.7951 54.4272 71.5935 54.4969L68.4349 52.1626H69.0733L68.334 51.4658L69.0061 51.5703L72.1311 53.0336ZM68.166 45.3687C69.2413 47.1804 70.2494 48.8876 70.4846 51.2219L68.2332 50.1767L66.6875 48.8527C66.6875 48.8527 65.7467 48.6088 65.041 48.9921H62.3528L63.1592 47.3894L63.9657 46.9713L64.2345 45.8216L64.3689 45.7867L64.4361 45.7519C65.0746 45.3687 66.1163 44.2189 65.545 42.5814C65.545 42.5466 65.5114 42.442 65.4778 42.3375C65.5786 42.1285 65.7803 41.7104 66.0155 41.2226C66.6203 42.7556 67.4268 44.0796 68.166 45.3687ZM65.1418 40.9439C65.0746 40.7 65.0074 40.4561 64.9402 40.2471C64.9738 39.8987 65.041 38.4354 65.3098 37.1811C65.4106 37.2508 65.545 37.2856 65.6458 37.2856C66.0155 37.2856 66.3515 36.9721 66.3515 36.554C66.3515 36.1707 66.0827 35.8572 65.713 35.8223C66.0155 35.1604 66.4187 34.7074 66.7211 34.4287C66.7883 34.9862 66.8555 35.683 66.8555 36.3101C66.8555 37.0766 65.9483 39.2367 65.1418 40.9439ZM66.8891 29.3768H66.8219C65.713 29.0633 65.4106 27.9484 65.3434 27.4954C65.713 27.2167 66.2171 27.0077 66.8219 26.8683C66.7883 27.2864 66.8555 28.1923 67.4604 28.8194C67.2252 28.9936 67.0908 29.1329 66.8891 29.3768ZM67.5948 28.7149C66.9899 28.1574 66.9563 27.2167 66.9899 26.8335C67.2924 26.7638 67.6284 26.6941 67.998 26.6593C68.0652 26.6593 68.0988 26.6593 68.166 26.6244C68.2332 26.9728 68.4349 27.7393 68.9725 28.1574C68.4349 28.2968 67.998 28.471 67.5948 28.7149ZM69.2077 28.1226C68.6029 27.7742 68.4012 26.9728 68.334 26.6244C68.7373 26.5547 69.1405 26.4851 69.4765 26.3805C69.6445 26.7638 69.9806 27.4258 70.619 27.5651C70.2158 27.8438 69.7454 28.0529 69.2077 28.1226ZM71.4255 26.7638C71.2575 27.0425 71.0559 27.2516 70.8206 27.4606H70.787C70.1822 27.3909 69.8126 26.7638 69.6445 26.3457C70.115 26.2063 70.5182 26.0321 70.8542 25.8579C70.9886 26.067 71.2575 26.3805 71.5599 26.5199C71.4927 26.5896 71.4591 26.6941 71.4255 26.7638ZM71.6271 26.3805C71.3583 26.2412 71.1231 25.9625 70.9886 25.7883C71.3919 25.5792 71.6943 25.3353 71.9631 25.1263C71.8959 25.5095 71.8287 25.9625 71.6271 26.3805Z" fill="#96CF7E"/>
</g>
<defs>
<clipPath id="clip0">
<rect width="21.4954" height="30.257" fill="white" transform="translate(5.04297 22.8965)"/>
</clipPath>
<clipPath id="clip1">
<rect width="21.4954" height="30.257" fill="white" transform="translate(51.7344 22.8965)"/>
</clipPath>
</defs>
</svg>
