<svg xmlns="http://www.w3.org/2000/svg" viewBox="0 0 135.1 144.7">
    <g id="Layer_2" data-name="Layer 2">
        <g id="Layer_1-2" data-name="Layer 1">
            <path class="blink2"
                d="M116.9,104.8l-.6,1c0,.1-1.1,1.7-4.3,2.1s-4.3,1.4-4.6,3.2l-.3,1.8a6,6,0,0,0-1.9,0c-.1-.5-.2-1.2-.3-1.8s-1.8-2.9-4.6-3.2a6.3,6.3,0,0,1-4.3-2.1l-.6-1-.3,1.1a4.7,4.7,0,0,0,.7,3.6,3.9,3.9,0,0,0,3.1,1.9,2.4,2.4,0,0,1,1.8,1.2,3.9,3.9,0,0,1,.3,2.6l-1.6-1.1a34.7,34.7,0,0,0-4-.8h-.7l.2.8a5.4,5.4,0,0,0,3.2,3.6,5.9,5.9,0,0,0,1.7.4h.7c0,.5-.1,1-.1,1.5a9.7,9.7,0,0,0,1.1,3.3c-.4.8-1.7,3.9-2.6,5.6-1.7,3.4-3.1,6.4-2.8,9.2l1,.7c-.2-2.5,1.1-6.2,2.7-9.4.7-1.4,1.7-3.5,2.2-4.8.3.8.7,1.4.8,1.7a.4.4,0,0,1-.1.3,2.8,2.8,0,0,0,1.2,3.4h.1l.4,1.2.5.3.9,1.9h-3.5v.5a3.5,3.5,0,0,0,3.4,3.5,3.2,3.2,0,0,0,2.6-1.3,3.5,3.5,0,0,0,1.4,1.2l1.5-.2,4.5,3.4h.2a2.2,2.2,0,0,0,1.5-1.1,2.5,2.5,0,0,0-.1-2.2v-.2l-1.4-.7c-.1-3-1.4-5.1-2.7-7.3a24.5,24.5,0,0,1-2.5-5.4,13.9,13.9,0,0,0,1.2-3.7,7.1,7.1,0,0,0-.1-1.5h.7l1.7-.3a5.4,5.4,0,0,0,3.2-3.7l.2-.7h-.7a21.4,21.4,0,0,0-4,.8,9.1,9.1,0,0,0-1.6,1.1,3.9,3.9,0,0,1,.3-2.6,2.2,2.2,0,0,1,1.8-1.2,4.6,4.6,0,0,0,3.2-1.9,5.2,5.2,0,0,0,.6-3.6ZM99,115l.8.5h-.1a7.1,7.1,0,0,1-2.7-.9Zm-.4,1.6a5.7,5.7,0,0,1-1.3-.8,8.4,8.4,0,0,0,2.3.7l1.1.2A2.6,2.6,0,0,1,98.6,116.6Zm14.6-1.6,1.9-.4a5.1,5.1,0,0,1-2.6.9h-.1Zm-.5,1.5a6.9,6.9,0,0,0,2.4-.7l-1.4.8a2.3,2.3,0,0,1-2.1.1Zm-4.4-5.2a2,2,0,0,1,.8-1.4,2.7,2.7,0,0,0,1.6,2.1h0c-.2.2-.2.4-.3.6h-.1a2.7,2.7,0,0,1-2.1-.9C108.2,111.7,108.3,111.4,108.3,111.3Zm2.1,4.9a5.6,5.6,0,0,0-1.6,2.1,7.3,7.3,0,0,0-.6,2.1c-.1-.5-.1-1.1-.2-1.6a5.2,5.2,0,0,1,1.7-3.6,2.3,2.3,0,0,1,.7.7Zm-2.3-4.1a3,3,0,0,0,2.2.8,6.1,6.1,0,0,0-.1,1.4,11.9,11.9,0,0,0-2.2-1.2C108,112.9,108.1,112.5,108.1,112.1Zm-.2,2.1h.4l-.4.9Zm.6.2,1.1.6a5,5,0,0,0-1.6,3.1,19.3,19.3,0,0,1-.1-2.3A6.4,6.4,0,0,1,108.5,114.4Zm-4.1,1-.4-1h.4Zm0,.6a17,17,0,0,1-.1,2.2,5.4,5.4,0,0,0-1.5-3l1-.7A7.7,7.7,0,0,1,104.4,116Zm-.1-2.8a8.5,8.5,0,0,0-2.2,1.3,4.4,4.4,0,0,0-.2-1.6,2.8,2.8,0,0,0,2.2-.9C104.2,112.5,104.2,112.9,104.3,113.2Zm-.3-1.9a1.1,1.1,0,0,0,.1.5,2.8,2.8,0,0,1-2.2.9h-.1a1.4,1.4,0,0,0-.2-.6h-.1a2.8,2.8,0,0,0,1.6-2.1A1.9,1.9,0,0,1,104,111.3Zm-8-4.1,1,.7-.6.6A3.3,3.3,0,0,1,96,107.2Zm.6,1.8-.2-.3a2.9,2.9,0,0,0,.8-.7l1.3.5c-.2.4-.6,1.1-1.2,1.2Zm2.3,1.4a3.4,3.4,0,0,1-1.5-.6,1.7,1.7,0,0,0,1.2-1.3l1.2.3C99.7,109.2,99.5,110.1,98.9,110.4Zm.2.1a2.9,2.9,0,0,0,.9-1.6h1.2a3.1,3.1,0,0,1-.6,2.1A3.4,3.4,0,0,0,99.1,110.5Zm1.7.6a2.4,2.4,0,0,0,.6-2,3.4,3.4,0,0,1,1.6.7,2.5,2.5,0,0,1-1.6,2Zm2.4,13.1c-.8-1.8-1.8-4.1-1.8-4.9a11.2,11.2,0,0,1,.2-2,3.8,3.8,0,0,1,1,1.5h-.1a.7.7,0,0,0-.7.8.7.7,0,0,0,.7.7h.5a19.3,19.3,0,0,1,.3,3.6A.6.6,0,0,1,103.2,124.2Zm-1.4-8h.1a2,2,0,0,1,.8-.8,5.7,5.7,0,0,1,1.6,3.7c-.1.5-.1,1-.2,1.5a11.9,11.9,0,0,0-.5-2.2A5.6,5.6,0,0,0,101.8,116.2Zm2.6,12.3a1.7,1.7,0,0,1-.7-2.2h0s.4-1.6.7-2.5a32.2,32.2,0,0,0,.8-9.9,3.3,3.3,0,0,1,1.7,0c0,.8-.3,6.2.9,9.9.3.9.7,2.5.7,2.5h0a2,2,0,0,1-.7,2.2H107l-.5-.2v-.7l1.3-.5c.2,0,.3-.3.3-.6a.4.4,0,0,0-.6-.3l-1.5.5-1.5-.6a.5.5,0,0,0-.6.4c-.1.2.1.5.3.6l1.4.5v.7l-.5.2Zm2.4,1.1h.3v.5l-.8.4h0A1.3,1.3,0,0,1,106.8,129.6Zm-.8.9a2,2,0,0,0-.3-1l.4-.3.5.2A2.7,2.7,0,0,0,106,130.5Zm-.5-.3h-.4v-.5h.5a2.6,2.6,0,0,1,.4,1.4Zm.2,5.6a2.4,2.4,0,0,1-2.3-1.9h4.5A2.2,2.2,0,0,1,105.7,135.8Zm3-1a2.3,2.3,0,0,0,.3-1.1l1.3,1.2Zm7.8,2.5a1.7,1.7,0,0,1,0,1,.7.7,0,0,1-.6.5l-3.4-2.5h.7l-.8-.7h.7Zm-4.3-8.3a15.2,15.2,0,0,1,2.5,6.3l-2.4-1.1-1.6-1.4a2.8,2.8,0,0,0-1.8.1H106l.9-1.7.9-.5.2-1.2h.3a2.9,2.9,0,0,0,1.1-3.4v-.3a8.7,8.7,0,0,0,.5-1.2A37.7,37.7,0,0,0,112.2,129Zm-3.2-4.8c-.1-.2-.1-.5-.2-.7a18.6,18.6,0,0,1,.4-3.3h.3a.8.8,0,0,0,.8-.8.8.8,0,0,0-.7-.8,4.8,4.8,0,0,1,1.1-1.5,14.1,14.1,0,0,1,.1,2.1A17.7,17.7,0,0,1,109,124.2Zm1.9-12.4h-.1a2.6,2.6,0,0,1-1.6-2,3.9,3.9,0,0,1,1.6-.7,2.9,2.9,0,0,0,.7,2.1A1.7,1.7,0,0,0,110.9,111.8Zm.7-.7a2.6,2.6,0,0,1-.6-2.1h1c.1,0,.2,0,.2-.1a3.1,3.1,0,0,0,.9,1.7A3.4,3.4,0,0,0,111.6,111.1Zm1.7-.7c-.6-.3-.8-1.2-.9-1.6l1.2-.2c.2.4.6,1.1,1.2,1.2A2.5,2.5,0,0,1,113.3,110.4Zm2.4-1.4-.6.7H115a1.8,1.8,0,0,1-1.2-1.2l1.3-.5a1.6,1.6,0,0,0,.7.7Zm.2-.4a4.6,4.6,0,0,1-.7-.7,5.2,5.2,0,0,0,1.1-.7A10.3,10.3,0,0,1,115.9,108.6Z"
                fill="#c98931" />
            <path
                d="M100.7,13.8H16a4.5,4.5,0,0,0-4.5,4.5V50A4.5,4.5,0,0,0,16,54.5h84.7a4.5,4.5,0,0,0,4.5-4.5V18.3A4.5,4.5,0,0,0,100.7,13.8Z"
                fill="none" stroke="#c98931" stroke-miterlimit="10" stroke-width="2" />
            <polyline class="blink1" points="62.3 44 62.3 31.2 62.2 31.2 57.4 32.8" fill="none" stroke="#c98931"
                stroke-linecap="round" stroke-linejoin="round" stroke-width="2" />
            <path class="blink2"
                d="M65.2,32.4a9.7,9.7,0,0,1,4.2-1.2c2.5,0,4.1,1.5,4.1,3.9a5.9,5.9,0,0,1-.2,1.4,4.9,4.9,0,0,1-1.4,1.8l-6.5,5.6h8.1"
                fill="none" stroke="#c98931" stroke-linecap="round" stroke-linejoin="round" stroke-width="2" />
            <path d="M85,44a4.2,4.2,0,0,0,4.3-4.3,4.4,4.4,0,1,0-8.7,0A4.2,4.2,0,0,0,85,44Z" fill="none" stroke="#c98931"
                stroke-miterlimit="10" stroke-width="2" />
            <path
                d="M79.6,143.7h-68A10.6,10.6,0,0,1,1,133.2V11.6A10.6,10.6,0,0,1,11.6,1h93.5a10.5,10.5,0,0,1,10.6,10.5V61.1"
                fill="none" stroke="#000" stroke-linecap="round" stroke-miterlimit="10" stroke-width="2" />
            <path class="blink dot1"
                d="M28.6,64H15.4a4,4,0,0,0-3.9,4V78a4,4,0,0,0,3.9,4H28.6a3.9,3.9,0,0,0,3.9-4V68A3.9,3.9,0,0,0,28.6,64Z"
                fill="none" stroke="#000" stroke-miterlimit="10" stroke-width="2" />
            <path class="blink dot2"
                d="M28.6,88.5H15.4a4,4,0,0,0-3.9,4v10a4,4,0,0,0,3.9,4H28.6a3.9,3.9,0,0,0,3.9-4v-10A3.9,3.9,0,0,0,28.6,88.5Z"
                fill="none" stroke="#000" stroke-miterlimit="10" stroke-width="2" />
            <path class="blink dot3"
                d="M28.6,113H15.4a4,4,0,0,0-3.9,4v10a4,4,0,0,0,3.9,4H28.6a3.9,3.9,0,0,0,3.9-4V117A3.9,3.9,0,0,0,28.6,113Z"
                fill="none" stroke="#000" stroke-miterlimit="10" stroke-width="2" />
            <path class="blink dot4"
                d="M57.9,64H44.7a3.9,3.9,0,0,0-3.9,4V78a3.9,3.9,0,0,0,3.9,4H57.9a3.9,3.9,0,0,0,3.9-4V68A3.9,3.9,0,0,0,57.9,64Z"
                fill="none" stroke="#000" stroke-miterlimit="10" stroke-width="2" />
            <path class="blink dot5"
                d="M57.9,88.5H44.7a3.9,3.9,0,0,0-3.9,4v10a3.9,3.9,0,0,0,3.9,4H57.9a3.9,3.9,0,0,0,3.9-4v-10A3.9,3.9,0,0,0,57.9,88.5Z"
                fill="none" stroke="#000" stroke-miterlimit="10" stroke-width="2" />
            <path class="blink dot6"
                d="M57.9,113H44.7a3.9,3.9,0,0,0-3.9,4v10a3.9,3.9,0,0,0,3.9,4H57.9a3.9,3.9,0,0,0,3.9-4V117A3.9,3.9,0,0,0,57.9,113Z"
                fill="none" stroke="#000" stroke-miterlimit="10" stroke-width="2" />
            <path
                d="M121.4,140H88.3a6,6,0,0,1-6.1-5.6l-3-48.1a.9.9,0,0,1,.3-.9,1.1,1.1,0,0,1,.8-.3h49.1a1.1,1.1,0,0,1,.8.3,1,1,0,0,1,.3.9l-3,48.1A6,6,0,0,1,121.4,140Z"
                fill="none" stroke="#000" stroke-miterlimit="10" stroke-width="2" />
            <path
                d="M133.8,81.5,131,76.1a1.4,1.4,0,0,0-1.1-.6h-50a1.4,1.4,0,0,0-1.2.6l-2.9,5.6A2.1,2.1,0,0,0,76,84a2.7,2.7,0,0,0,2.2,1.1h53.2a2.7,2.7,0,0,0,2.3-1.2A2.3,2.3,0,0,0,133.8,81.5Z"
                fill="none" stroke="#000" stroke-miterlimit="10" stroke-width="2" />
            <path
                d="M119.9,75.5H89.8a1.2,1.2,0,0,1-1-.4.6.6,0,0,1-.2-.8l2-4.8a1.4,1.4,0,0,1,1.2-.7h26.1a1.3,1.3,0,0,1,1.2.7l2,4.8a.6.6,0,0,1-.2.8A1.2,1.2,0,0,1,119.9,75.5Z"
                fill="none" stroke="#000" stroke-miterlimit="10" stroke-width="2" />
            <polyline points="92.1 35.3 97.9 35.3 92.8 43.5 98.3 43.5" fill="none" stroke="#c98931"
                stroke-linecap="round" stroke-linejoin="round" stroke-width="2" />
        </g>
    </g>

    <style>
        .blink {
            animation: blink 2s infinite;
        }

        .dot1 {
            animation-delay: 1000ms;
        }

        .dot2 {
            animation-delay: 1400ms;
        }

        .dot3 {
            animation-delay: 1700ms;
        }

        .dot4 {
            animation-delay: 2100ms;
        }

        .dot5 {
            animation-delay: 2300ms;
        }

        .dot6 {
            animation-delay: 2500ms;
        }

        @keyframes blink {
            0% {
                opacity: 0;
            }

            50%,
            100% {
                opacity: 1;
            }
        }

        .blink1 {
            animation: blink1 2s infinite;
            animation-delay: 2500ms;
        }

        @keyframes blink1 {
            0% {
                opacity: 0;
            }

            50%,
            100% {
                opacity: 1;
            }
        }

        .blink2 {
            animation: blink2 2s infinite;
            animation-delay: 2000ms;
        }

        @keyframes blink2 {
            0% {
                transform: translateY(0px);
                opacity: 0;
            }

            50% {
                transform: translateY(-1px);
                opacity: 1;
            }

            100% {
                transform: translateY(0px);
                opacity: 1;
            }
        }
    </style>

</svg>