<svg class="icon" width="21" height="22" viewBox="0 0 21 22" fill="none" xmlns="http://www.w3.org/2000/svg">
  <path
    d="M20.6369 19.95H20.6351L19.0713 6.19007C19.0504 6.00559 18.9011 5.86667 18.7238 5.86667H14.8738V4.76667C14.8738 2.13409 12.8367 0 10.3238 0C7.81088 0 5.77379 2.13409 5.77379 4.76667V5.86667H1.92379C1.74647 5.86667 1.59715 6.00559 1.57624 6.19007L0.0124376 19.95C-0.101794 20.9554 0.583594 21.8675 1.54334 21.9872C1.61211 21.9957 1.68128 22 1.75054 22H18.8988C19.8653 22.0002 20.649 21.1796 20.6491 20.167C20.6492 20.0945 20.6451 20.022 20.6369 19.95ZM6.47379 4.76667C6.47379 2.53912 8.1975 0.733333 10.3238 0.733333C12.4501 0.733333 14.1738 2.53912 14.1738 4.76667V5.86667H6.47379V4.76667ZM19.6824 20.8971C19.4835 21.1317 19.1984 21.2662 18.8988 21.2667H1.75054C1.17063 21.2668 0.700407 20.7746 0.700188 20.167C0.700188 20.1235 0.702638 20.0801 0.707538 20.0369L2.23459 6.6H5.77379V9.16667C5.77379 9.36916 5.9305 9.53333 6.12379 9.53333C6.31708 9.53333 6.47379 9.36916 6.47379 9.16667V6.6H14.1738V9.16667C14.1738 9.36916 14.3305 9.53333 14.5238 9.53333C14.7171 9.53333 14.8738 9.36916 14.8738 9.16667V6.6H18.413L19.94 20.0369C19.9754 20.349 19.8817 20.6621 19.6824 20.8971Z"
    fill="black"></path>
</svg>