<?xml version="1.0" encoding="utf-8"?>
<!-- Generator: Adobe Illustrator 25.2.0, SVG Export Plug-In . SVG Version: 6.00 Build 0)  -->
<svg version="1.1" id="Layer_1" xmlns="http://www.w3.org/2000/svg"
    xmlns:xlink="http://www.w3.org/1999/xlink" x="0px" y="0px" viewBox="0 0 96 96"
    style="enable-background:new 0 0 96 96;" xml:space="preserve">
    <path class="st0 empty-water-middle" d="M71.4,52.6C70.4,74.7,57.1,82.9,52.8,85c-0.2,0.1-0.4,0.2-0.6,0.2H26.3C26.2,85.1,26,85,25.8,85
	C11,77.9,7.8,62.1,7.2,52.6H71.4z" />
    <path class="st2 empty-water-middle2" d="M71.4,52.6C70.4,74.7,57.1,82.9,52.8,85c-0.2,0.1-0.4,0.2-0.6,0.2H26.3C26.2,85.1,26,85,25.8,85
	C11,77.9,7.8,62.1,7.2,52.6H71.4z" />
    <g>
        <defs>
            <rect id="SVGID_1_" width="96" height="96" />
        </defs>
        <clipPath id="SVGID_2_">
            <use xlink:href="#SVGID_1_" style="overflow:visible;" />
        </clipPath>
        <g class="st1">
            <path d="M75.2,49.8c-0.6,0-1.1,0-1.7,0.1l-0.1-3.6c-0.1-1.7-1.5-3-3.2-3H22.8c-0.8,0-1.4,0.6-1.4,1.4c0,0.8,0.6,1.4,1.4,1.4h47.5
			c0.2,0,0.4,0.2,0.4,0.4C72,72.4,57,81.6,52.4,83.8c-0.2,0.1-0.4,0.2-0.6,0.2H26.5c-0.2-0.1-0.4-0.2-0.5-0.2
			C7.7,75.1,7.4,53,7.8,46.4c0-0.2,0.2-0.4,0.4-0.4h8.1c0.8,0,1.4-0.6,1.4-1.4c0-0.8-0.6-1.4-1.4-1.4H8.2c-1.7,0-3.1,1.3-3.2,3
			C4.8,50,4.8,57.3,7.2,65.1c2.6,8.3,7.1,14.7,13.5,18.9H6.5c-1.4,0-2.6,1.2-2.6,2.6v3.2c0,3.4,2.7,6.1,6.1,6.1h58.6
			c3.4,0,6.1-2.7,6.1-6.1v-3.2c0-1.4-1.2-2.6-2.6-2.6H57.7c3.4-2.2,6-5,8.1-7.9c2.6,2.1,5.8,3.4,9.4,3.4c8.2,0,14.9-6.7,14.9-14.9
			C90.1,56.5,83.4,49.8,75.2,49.8z M71.8,86.8v3.1c0,1.8-1.5,3.3-3.3,3.3H9.9c-1.8,0-3.3-1.5-3.3-3.3v-3.1
			C6.6,86.8,71.8,86.8,71.8,86.8z M72.4,60.5c0.8-0.5,1.8-0.9,2.8-0.9c2.8,0,5,2.3,5,5c0,2.8-2.3,5-5,5c-2,0-3.8-1.2-4.6-2.9
			C71.4,64.7,71.9,62.6,72.4,60.5L72.4,60.5z M75.2,76.7c-2.9,0-5.7-1-7.9-2.9c0.7-1.2,1.4-2.5,2-3.9c1.4,1.6,3.5,2.6,5.8,2.6
			c4.3,0,7.8-3.5,7.9-7.9c0-4.3-3.5-7.8-7.9-7.9c-0.8,0-1.5,0.1-2.2,0.3c0.2-1.5,0.4-2.9,0.4-4.4c0.6-0.1,1.2-0.1,1.8-0.2
			c6.6,0,12.1,5.4,12.1,12.1C87.2,71.3,81.8,76.7,75.2,76.7L75.2,76.7z M86.7,5.4C83.2,1.9,78.4-0.1,73.5,0C63.3,0.1,55,8.4,55,18.6
			c0,6.7,3.6,12.9,9.5,16.2v3.7c0,0.8,0.5,1.6,1.2,1.9c0.3,0.1,0.6,0.2,0.9,0.2c0.5,0,1-0.2,1.3-0.5l3.6-3c0.7,0.1,1.4,0.1,2.1,0.1
			c6.3,0,12.2-3.2,15.6-8.5c0.4-0.7,0.2-1.5-0.5-1.9c-0.6-0.4-1.5-0.2-1.9,0.4c-2.9,4.5-7.9,7.2-13.2,7.2c-0.7,0-1.4,0-2-0.1
			c-0.6-0.1-1.2,0.1-1.6,0.5l-2.6,2.2v-2.6c0-0.8-0.4-1.5-1.1-1.8c-5.2-2.7-8.4-8.1-8.4-13.9c0-8.6,7-15.7,15.6-15.8
			c4.2,0,8.2,1.6,11.2,4.6c3,3,4.7,7,4.6,11.2c0,1-0.1,2-0.3,3c-0.2,0.8,0.4,1.5,1.1,1.7c0.8,0.2,1.5-0.4,1.7-1.1
			c0.2-1.2,0.3-2.4,0.3-3.6C92.2,13.6,90.2,8.9,86.7,5.4L86.7,5.4z M79,19.6c-0.1,0.1-0.7,0.6-2,1.7c-0.8,0.7-1.4,1.3-1.9,1.9
			c-0.3,0.5-0.8,0.8-1.3,0.8c-0.5,0-1-0.1-1.3-0.4c-0.4-0.3-0.6-0.7-0.7-1.2c-0.1-0.7,0.4-1.5,1.5-2.5l2.9-2.5
			c1.1-1,1.6-1.8,1.5-2.5c-0.1-0.8-0.5-1.5-1.4-2.2c-0.9-0.6-1.8-0.9-2.7-0.8c-0.5,0-1.1,0.4-1.9,1c-0.8,0.6-1.3,0.9-1.7,1
			c-0.5,0-1-0.1-1.3-0.4c-0.4-0.3-0.6-0.7-0.6-1.2c-0.1-0.9,0.6-1.7,2.1-2.6c1.2-0.7,2.3-1.1,3.1-1.2c1.9-0.2,3.7,0.4,5.3,1.7
			c1.6,1.3,2.6,2.8,2.7,4.6C81.4,16.4,80.7,18,79,19.6L79,19.6z M73.5,29.5c-0.5,0-1-0.1-1.4-0.4c-0.4-0.3-0.7-0.7-0.8-1.2
			c-0.1-0.6,0.1-1.2,0.4-1.7c0.3-0.6,0.9-1,1.6-1.1c0.5-0.1,1.1,0.1,1.4,0.5c0.3,0.3,0.5,0.8,0.5,1.3c0,0.5-0.1,1.1-0.3,1.5
			C74.7,29.1,74.2,29.5,73.5,29.5L73.5,29.5z" />
        </g>
    </g>

    <style>
        .st0 {
            fill: #c98931;
        }

        .st1 {
            clip-path: url(#SVGID_2_);
        }

        .st2 {
            fill: #fff;
        }

        .empty-water-middle {
            opacity: 1;
            transform-origin: center center;
            transform: translate(0, 0);
            animation: empty-water-middle 2s linear alternate infinite;
        }

        @keyframes empty-water-middle {

            0%,
            40% {
                transform: translate(0, 0);
            }

            75% {
                transform: translate(0, 34px);
                opacity: 0;
            }

            76% {
                opacity: 0;
            }

            100% {
                transform: translate(0, 34px);
                opacity: 0;
            }
        }

        .empty-water-middle2 {
            opacity: 1;
            transform-origin: center center;
            transform: translate(0, 0) rotate(360deg);
            animation: empty-water-middle2 2s linear alternate infinite;
        }

        @keyframes empty-water-middle2 {

            0%,
            40% {
                transform: translate(0, 34px) rotate(360deg);
            }

            75% {
                transform: translate(0, 34px) rotate(360deg);
                opacity: 1;
            }

            76% {
                opacity: 0;
            }

            100% {
                transform: translate(0, 0) rotate(360deg);
                opacity: 0;
            }
        }
    </style>

</svg>