<svg id="Layer_1" data-name="Layer 1" xmlns="http://www.w3.org/2000/svg" viewBox="0 0 110 84">
    <polygon points="81.6 45.1 10.8 45.1 7.7 27.9 84.8 27.9 81.6 45.1" fill="#4b2e18" /><text
        transform="translate(67 38.2)" opacity="0.5" font-size="5.51" fill="#fff"
        font-family="BebasNeue-Regular, Bebas Neue" style="isolation:isolate">2 Oz</text><text
        transform="translate(17 38.2)" opacity="0.5" font-size="5.51" fill="#fff"
        font-family="GeneralSans-Bold, General Sans" font-weight="700" style="isolation:isolate">CHOCOL<tspan x="25.1"
            y="0" letter-spacing="-0.06em">A</tspan>
        <tspan x="28.9" y="0" letter-spacing="0em">TE</tspan>
    </text>
    <path d="M85.8,29.1H7.9V18.3H85.8Z" fill="#fbf2d1" />
    <polygon points="69.9 70 23.6 69.7 13 50.2 11 43.6 22.8 43.6 72.4 43.6 81.4 43.6 79.1 50.9 69.9 70"
        fill="#28180b" />
    <path
        d="M95.6,16.5a13.6,13.6,0,0,0-7.4,2.1c0-1.6.1-3.2.1-4.8V12.6H85v1.2a7.1,7.1,0,0,1-.1,1.4h0a80.9,80.9,0,0,1-.7,9.9l-1,4L78.6,47.8h0c-4.5,13.7-8.3,18.6-10.9,20.3H25.4c-5.1-3.3-10.6-16.3-15.1-35.8-.3-1.1-.5-2.2-.7-3.3A77.1,77.1,0,0,1,8.2,16.4h0V12.6H4.8v1.2A89.2,89.2,0,0,0,7,33.1c3.5,15,9.4,33.8,17.1,38.2l.9.2H68.1l.8-.2c3.6-2,7.1-7.2,10.4-15.5l.4-.2,5.9-4.4a68,68,0,0,0,16.3-17.5l.5-.8a8.4,8.4,0,0,0,2.2-3.6h.1a10,10,0,0,0,.4-2.4,2.2,2.2,0,0,0,.1-.8A9.6,9.6,0,0,0,95.6,16.5Zm6.2,10.1a7.7,7.7,0,0,1-.2,1.5h-.1a5.6,5.6,0,0,1-1.6,2.5l-.2.3-.6,1A64.4,64.4,0,0,1,83.6,48.6l-2.2,1.6.4-1.3L87.4,26a.4.4,0,0,1,.1-.3l.3-1.6c.6-2.6,4.5-4.3,7.7-4.3a6.4,6.4,0,0,1,6.4,6.3A.9.9,0,0,1,101.8,26.6Z"
        fill="#fff" stroke="#441d1d" stroke-miterlimit="10" stroke-width="0.4" /><text transform="translate(15.6 25.9)"
        opacity="0.5" font-size="5.51" font-family="GeneralSans-Bold, General Sans" font-weight="700"
        style="isolation:isolate">
        <tspan letter-spacing="-0.02em">S</tspan>
        <tspan x="3.6" y="0">TEAMED MILK</tspan>
    </text><text transform="translate(67.2 25.9)" opacity="0.5" font-size="5.51"
        font-family="BebasNeue-Regular, Bebas Neue" style="isolation:isolate">1 Oz</text><text
        transform="translate(29.9 53.9)" opacity="0.5" font-size="5.79" fill="#fff"
        font-family="GeneralSans-Bold, General Sans" font-weight="700">ESPRES<tspan x="22.9" y="0"
            letter-spacing="-0.02em">S</tspan>
        <tspan x="26.7" y="0" letter-spacing="0em">O</tspan>
    </text><text transform="translate(41.6 62.7)" opacity="0.5" font-size="5.79" fill="#fff"
        font-family="BebasNeue-Regular, Bebas Neue">2 OZ</text>
</svg>