<svg id="Layer_1" data-name="Layer 1" xmlns="http://www.w3.org/2000/svg" viewBox="0 0 110 84">
    <polygon points="62.8 69.8 30.3 69.9 20.6 42.3 22.1 42.3 71.1 42.3 72.1 42.3 62.8 69.8" fill="#28180b" />
    <path
        d="M87.1,16.1a14.6,14.6,0,0,0-7.6,2.2c.1-1.6.2-3.3.2-4.9v-.9a1.4,1.4,0,0,0-.2-.6H76.4a1.3,1.3,0,0,0-.1.6v.9a87.7,87.7,0,0,1-.8,11.5L69.8,48h0C65.3,62,61.3,67,58.7,68.7H34.1c-5.2-3.3-10.8-16.5-15.4-36.4a79.4,79.4,0,0,1-2.2-18.9v-.9a1.3,1.3,0,0,0-.1-.6H13.2c0,.2-.1.4-.1.6v.9a86.9,86.9,0,0,0,2.3,19.7c3.5,15.2,9.5,34.4,17.4,38.8l.8.2H59.2l.8-.2c3.6-2,7.2-7.3,10.5-15.7l.4-.3,6-4.4A67,67,0,0,0,93.5,33.7l.5-.8a9.6,9.6,0,0,0,2.3-3.7h0a6.4,6.4,0,0,0,.5-2.3,2.5,2.5,0,0,0,.1-.8A9.8,9.8,0,0,0,87.1,16.1Zm6.4,10.4-.3,1.4c0,.1-.1.1-.1.2a5.6,5.6,0,0,1-1.6,2.5l-.2.3-.7,1A63.1,63.1,0,0,1,74.9,48.8l-2.2,1.6.3-1.3,5.8-23.3v-.3l.4-1.6c.6-2.6,4.5-4.4,7.9-4.4A6.5,6.5,0,0,1,93.5,26Z"
        fill="#fff" stroke="#441d1d" stroke-miterlimit="10" stroke-width="0.4" /><text transform="translate(30 53)"
        opacity="0.5" font-size="5.79" fill="#fff" font-family="GeneralSans-Bold, General Sans" font-weight="700">ESPRES
        <tspan x="22.9" y="0" letter-spacing="-0.02em">S</tspan>
        <tspan x="26.7" y="0" letter-spacing="0em">O</tspan>
    </text><text transform="translate(41.6 61.8)" opacity="0.5" font-size="5.79" fill="#fff"
        font-family="BebasNeue-Regular, Bebas Neue">1 OZ</text>
</svg>