<svg id="Layer_1" data-name="Layer 1" xmlns="http://www.w3.org/2000/svg" viewBox="0 0 110 84">
    <path d="M82.5,45.6H11.2L8.1,20a6.1,6.1,0,0,1,6.1-6.1H80.8A6.1,6.1,0,0,1,86.9,20Z" fill="#ffeee3" />
    <polygon points="70.8 72.3 24 71.9 13.2 52.2 11.2 45.6 23.2 45.6 73.3 45.6 82.5 45.6 80.1 52.9 70.8 72.3"
        fill="#28180b" />
    <path
        d="M96.7,18.1a13.9,13.9,0,0,0-7.4,2.2c0-1.7.1-3.3.1-4.9V14.2H86.1a.4.4,0,0,0-.1.3v2.3a84.2,84.2,0,0,1-.8,10.1L80.6,45.6l-1,4.2h0c-4.5,13.8-8.4,18.8-11.1,20.5H25.8c-4-2.6-8.4-11.4-12.3-24.8q-1.5-5.2-3-11.4A87.6,87.6,0,0,1,8.4,18V14.5a.4.4,0,0,0-.1-.3H5v1.2A86,86,0,0,0,7.2,35c3.6,15.1,9.5,34.2,17.3,38.6l.9.2H69l.8-.2c3.6-2.1,7.1-7.3,10.5-15.7l.4-.2,5.9-4.4a66.2,66.2,0,0,0,16.5-17.7l.5-.8a9.6,9.6,0,0,0,2.3-3.7h0a5.9,5.9,0,0,0,.5-2.3,2.2,2.2,0,0,0,.1-.8A9.8,9.8,0,0,0,96.7,18.1Zm6.4,10.3a4,4,0,0,1-.3,1.5h0a8.2,8.2,0,0,1-1.6,2.5l-.3.3-.6,1A62.8,62.8,0,0,1,84.6,50.6l-2.1,1.6.3-1.3,5.7-23.1v-.3l.4-1.6c.6-2.7,4.5-4.4,7.8-4.4a6.4,6.4,0,0,1,6.4,6.4Z"
        fill="#fff" stroke="#441d1d" stroke-miterlimit="10" stroke-width="0.4" /><text transform="translate(20.4 31.6)"
        opacity="0.5" font-size="5.57" font-family="GeneralSans-Bold, General Sans" font-weight="700"
        style="isolation:isolate">Milk <tspan x="13.1" y="0" letter-spacing="-0.02em">f</tspan>
        <tspan x="15.3" y="0">oam</tspan>
    </text><text transform="translate(63.3 31.6)" opacity="0.5" font-size="5.57"
        font-family="BebasNeue-Regular, Bebas Neue" style="isolation:isolate">4 Oz</text><text
        transform="translate(32.6 55.6)" opacity="0.5" font-size="5.79" fill="#fff"
        font-family="GeneralSans-Bold, General Sans" font-weight="700">ESPRES<tspan x="22.9" y="0"
            letter-spacing="-0.02em">S</tspan>
        <tspan x="26.7" y="0" letter-spacing="0em">O</tspan>
    </text><text transform="translate(44.3 64.4)" opacity="0.5" font-size="5.79" fill="#fff"
        font-family="BebasNeue-Regular, Bebas Neue">2 OZ</text>
</svg>