<svg id="Layer_1" data-name="Layer 1" xmlns="http://www.w3.org/2000/svg" viewBox="0 0 110 84">
    <path d="M71.3,28H22a6.4,6.4,0,0,1,6.4-6.4H64.9A6.4,6.4,0,0,1,71.3,28Z" fill="#ffeee3" />
    <polygon points="62.6 69.7 31.1 69.8 15.6 28 23.1 28 70.6 28 76.1 28 62.6 69.7" fill="#28180b" />
    <path
        d="M86,17.8a13.5,13.5,0,0,0-7.3,2.1c.1-1.6.2-3.2.2-4.7v-.9c0-.2-.1-.4-.1-.6H75.7a1.3,1.3,0,0,0-.1.6v.9a81.7,81.7,0,0,1-.8,11.1L69.3,48.7h0c-4.4,13.5-8.2,18.3-10.7,20H34.8c-5-3.3-10.4-16-14.9-35.3a78.8,78.8,0,0,1-2.1-18.2v-.9c0-.2-.1-.4-.1-.6H14.6a1.3,1.3,0,0,0-.1.6v.9a80.9,80.9,0,0,0,2.2,19C20.1,49,25.8,67.4,33.5,71.7a1.1,1.1,0,0,0,.8.2H59.1a1.3,1.3,0,0,0,.8-.2c3.5-1.9,6.9-7,10.1-15.2a.5.5,0,0,0,.4-.2L76.2,52a62.4,62.4,0,0,0,16-17.2l.5-.8A10.1,10.1,0,0,0,95,30.5h0a10.6,10.6,0,0,0,.5-2.3v-.8A9.5,9.5,0,0,0,86,17.8Zm6.2,10a3.2,3.2,0,0,1-.3,1.4v.2a6.3,6.3,0,0,1-1.6,2.4c-.1.1-.2.2-.2.3l-.6.9A62.6,62.6,0,0,1,74.3,49.4L72.1,51l.4-1.3L78,27.2c0-.1.1-.2.1-.3l.3-1.6c.6-2.5,4.4-4.2,7.6-4.2a6.2,6.2,0,0,1,6.2,6.2Z"
        fill="#fff" stroke="#441d1d" stroke-miterlimit="10" stroke-width="0.4" />
    <g opacity="0.5">
        <path d="M31.4,26.3V23.9h.9a1.2,1.2,0,0,1,0,2.4Zm.6-.5h.3c.4,0,.6-.3.6-.7a.5.5,0,0,0-.6-.6H32Z" />
        <path
            d="M33.7,25.1a1.2,1.2,0,0,1,1.2-1.2,1.2,1.2,0,0,1,0,2.4A1.2,1.2,0,0,1,33.7,25.1Zm1.8,0c0-.4-.2-.7-.6-.7s-.5.3-.5.7.2.7.5.7S35.5,25.5,35.5,25.1Z" />
        <path d="M37,26.3V24.5h-.7v-.6h2v.6h-.7v1.8Z" />
        <path
            d="M39.1,25.1a1.2,1.2,0,0,1,1.2-1.2,1.2,1.2,0,1,1,0,2.4A1.2,1.2,0,0,1,39.1,25.1Zm1.8,0c0-.4-.2-.7-.6-.7s-.5.3-.5.7.2.7.5.7S40.9,25.5,40.9,25.1Z" />
        <path d="M41.9,26.3V23.9h1.6v.6h-1v.4h.8v.5h-.8v.9Z" />
        <path d="M44.5,26.3V23.9h1.6v.6h-1v.4h.8v.5h-.8v.9Z" />
        <path
            d="M46.3,25.1a1.2,1.2,0,1,1,1.2,1.2A1.2,1.2,0,0,1,46.3,25.1Zm1.8,0a.7.7,0,0,0-.6-.7c-.4,0-.6.3-.6.7s.2.7.6.7A.7.7,0,0,0,48.1,25.1Z" />
        <path d="M50.3,25.9h-.9v.4h-.6l.8-2.4h.7l.9,2.4h-.7Zm-.7-.5h.5l-.2-.8Z" />
        <path d="M51.9,24.9v1.4h-.6V23.9H52l.6,1.6.6-1.6H54v2.4h-.6V24.9l-.5,1.4h-.5Z" />
        <path d="M55.7,24.9v1.4h-.6V23.9h.7l.6,1.6.6-1.6h.7v2.4h-.5V24.9l-.5,1.4h-.5Z" />
        <path d="M58.2,26.3V23.9h.6v2.4Z" />
        <path d="M59.3,26.3V23.9h.6v1.8h1v.6Z" />
        <path d="M61.2,26.3V23.9h.6v1l.7-1h.7L62.4,25l.9,1.3h-.8l-.7-1.1v1.1Z" />
    </g><text transform="translate(30.4 45.3)" opacity="0.5" font-size="5.79" fill="#fff"
        font-family="GeneralSans-Bold, General Sans" font-weight="700">ESPRES<tspan x="22.9" y="0"
            letter-spacing="-0.02em">S</tspan>
        <tspan x="26.7" y="0" letter-spacing="0em">O</tspan>
    </text><text transform="translate(42.1 54.1)" opacity="0.5" font-size="5.79" fill="#fff"
        font-family="BebasNeue-Regular, Bebas Neue">2 OZ</text>
</svg>