<svg id="Layer_1" data-name="Layer 1" xmlns="http://www.w3.org/2000/svg" viewBox="0 0 110 84">
    <rect x="16.7" y="13.7" width="59.6" height="14.47" fill="#f8e6d0" />
    <polygon points="62.7 69.4 30.6 69.5 14.8 26.8 22.4 26.8 70.9 26.8 76.5 26.8 62.7 69.4" fill="#28180b" />
    <path
        d="M86.7,16.4a14.8,14.8,0,0,0-7.4,2.1c0-1.6.1-3.2.1-4.8v-.9a4.3,4.3,0,0,0-.1-.5H76.1a4.3,4.3,0,0,0-.1.5v.9a72,72,0,0,1-.8,11.4L69.6,47.9h0c-4.4,13.8-8.3,18.7-10.9,20.4H34.3c-5.1-3.3-10.6-16.4-15.2-36A83.8,83.8,0,0,1,17,13.7v-.9a4.3,4.3,0,0,0-.1-.5H13.7a.7.7,0,0,0-.1.5v.9a91.1,91.1,0,0,0,2.2,19.5c3.6,15,9.4,33.9,17.2,38.3a1.5,1.5,0,0,0,.9.2H59.1a1.5,1.5,0,0,0,.9-.2c3.5-2,7-7.2,10.3-15.5l.5-.2,5.9-4.4A66.6,66.6,0,0,0,93,33.8l.6-.8a9.7,9.7,0,0,0,2.2-3.6h.1a10,10,0,0,0,.4-2.4,2.2,2.2,0,0,0,.1-.8A9.8,9.8,0,0,0,86.7,16.4ZM93,26.6a4,4,0,0,1-.3,1.5h0a6.7,6.7,0,0,1-1.6,2.5l-.3.3-.6,1A63.3,63.3,0,0,1,74.7,48.7l-2.2,1.6.3-1.3,5.7-23c0-.1.1-.2.1-.3l.4-1.6c.5-2.6,4.4-4.3,7.7-4.3A6.3,6.3,0,0,1,93,26.1Z"
        fill="#fff" stroke="#441d1d" stroke-miterlimit="10" stroke-width="0.4" /><text transform="translate(25.7 22.4)"
        opacity="0.5" font-size="4.64" font-family="GeneralSans-Bold, General Sans" font-weight="700"
        style="isolation:isolate">H<tspan x="3.6" y="0" letter-spacing="-0.01em">o</tspan>
        <tspan x="6.4" y="0">t Milk</tspan>
    </text>
    <g opacity="0.5">
        <path d="M63,20h-.6v-.4H63l.2-.3h.3v3.6H63V20Z" />
        <path
            d="M65,22.5a1.1,1.1,0,0,1-.2-.6V20a1.4,1.4,0,0,1,.2-.7l.6-.2.7.2a1.4,1.4,0,0,1,.2.7v1.9a1.1,1.1,0,0,1-.2.6.9.9,0,0,1-.7.3Zm.9-.6V20c0-.3-.1-.4-.3-.4s-.2.1-.2.4v1.9c0,.2.1.3.2.3A.3.3,0,0,0,65.9,21.9Z" />
        <path d="M66.7,22.2l1.1-2.5h-1v-.5h1.6v.5l-1.1,2.5h1.1v.5H66.7v-.5Z" />
    </g><text transform="translate(31.4 44.7)" opacity="0.5" font-size="5.79" fill="#fff"
        font-family="GeneralSans-Bold, General Sans" font-weight="700">ESPRES<tspan x="22.9" y="0"
            letter-spacing="-0.02em">S</tspan>
        <tspan x="26.7" y="0" letter-spacing="0em">O</tspan>
    </text><text transform="translate(43.1 53.5)" opacity="0.5" font-size="5.79" fill="#fff"
        font-family="BebasNeue-Regular, Bebas Neue">2 OZ</text>
</svg>