<svg id="Layer_1" data-name="Layer 1" xmlns="http://www.w3.org/2000/svg" viewBox="0 0 110 84">
    <polygon points="70.1 69.9 23.2 69.5 12.5 49.8 6.3 15.4 30.7 15.4 73.5 15.4 86.6 15.4 79.4 50.5 70.1 69.9"
        fill="#28180b" />
    <path d="M60.7,60c0,7.8-6.3,9.1-14.2,9.1S32.4,67.8,32.4,60a14.2,14.2,0,0,1,28.3,0Z" fill="#fbf2d1" /><text
        transform="translate(43 66)" opacity="0.5" font-size="5.57" font-family="BebasNeue-Regular, Bebas Neue"
        style="isolation:isolate">2 Oz</text>
    <path
        d="M96,15.7a14.4,14.4,0,0,0-7.5,2.1c.1-1.6.2-3.2.2-4.9v-.8a.6.6,0,0,0-.1-.4H85.3v1.2a86.5,86.5,0,0,1-.8,11.5l-5.7,23h0c-4.4,13.8-8.4,18.8-11,20.5H25.1C19.9,64.7,14.4,51.5,9.7,31.8A84.9,84.9,0,0,1,7.6,12.9V11.7H4.3a.6.6,0,0,0-.1.4v.8A85.4,85.4,0,0,0,6.5,32.5C10,47.7,15.9,66.7,23.8,71.2l.8.2H68.3l.8-.2c3.6-2.1,7.1-7.3,10.4-15.7l.5-.2,5.9-4.4a67.7,67.7,0,0,0,16.5-17.7l.5-.9a9.2,9.2,0,0,0,2.3-3.6h0a6.4,6.4,0,0,0,.5-2.4,1.7,1.7,0,0,0,.1-.7A9.8,9.8,0,0,0,96,15.7Zm6.4,10.2a5.7,5.7,0,0,1-.3,1.5v.2a6.7,6.7,0,0,1-1.6,2.4l-.3.4-.6.9A64.8,64.8,0,0,1,83.9,48.2l-2.2,1.6.4-1.3,5.7-23.2V25l.4-1.6c.6-2.6,4.5-4.3,7.8-4.3a6.4,6.4,0,0,1,6.4,6.4Z"
        fill="#fff" stroke="#441d1d" stroke-miterlimit="10" stroke-width="0.4" /><text transform="translate(39.3 54.2)"
        opacity="0.5" font-size="3.75" font-family="GeneralSans-Bold, General Sans" font-weight="700"
        style="isolation:isolate">
        <tspan letter-spacing="-0.11em">V</tspan>
        <tspan x="2.3" y="0">ANILA</tspan>
        <tspan x="-3.7" y="4.5">ICE CREAM</tspan>
    </text><text transform="translate(31.3 29.4)" opacity="0.5" font-size="5.79" fill="#fff"
        font-family="GeneralSans-Bold, General Sans" font-weight="700">ESPRES<tspan x="22.9" y="0"
            letter-spacing="-0.02em">S</tspan>
        <tspan x="26.7" y="0" letter-spacing="0em">O</tspan>
    </text><text transform="translate(43 38.2)" opacity="0.5" font-size="5.79" fill="#fff"
        font-family="BebasNeue-Regular, Bebas Neue">2 OZ</text>
</svg>