<svg id="Layer_1" data-name="Layer 1" xmlns="http://www.w3.org/2000/svg" xmlns:xlink="http://www.w3.org/1999/xlink"
    viewBox="0 0 110 84">
    <defs>
        <linearGradient id="linear-gradient" x1="35" y1="58.72" x2="63.23" y2="58.72"
            gradientTransform="translate(-19.5 24.8) rotate(-23.8)" gradientUnits="userSpaceOnUse">
            <stop offset="0" stop-color="#fff" />
            <stop offset="1" stop-color="#d0e5f6" />
        </linearGradient>
        <linearGradient id="linear-gradient-2" x1="29.82" y1="62.97" x2="56.85" y2="62.97"
            gradientUnits="userSpaceOnUse">
            <stop offset="0" stop-color="#d0e5f6" />
            <stop offset="1" stop-color="#fff" />
        </linearGradient>
    </defs>
    <polygon points="70 72.3 23.5 71.9 12.8 52.4 6.7 22.9 30.9 22.9 73.4 22.9 86.3 22.9 79.2 53.1 70 72.3"
        fill="#28180b" />
    <path
        d="M95.7,18.6a13.8,13.8,0,0,0-7.4,2.1c0-1.6.1-3.2.1-4.9V14.6H85.1a.6.6,0,0,0-.1.4v.8a71.2,71.2,0,0,1-.8,11.4L78.6,50h0c-4.4,13.7-8.3,18.7-10.9,20.3H25.3c-5.1-3.3-10.6-16.3-15.2-35.9A83.1,83.1,0,0,1,8,15.8V14.6H4.7v1.2A85.1,85.1,0,0,0,6.9,35.3c3.5,15,9.3,33.9,17.1,38.3l.9.2H68.2l.8-.2c3.6-2,7-7.2,10.3-15.5l.5-.3,5.9-4.4A64.7,64.7,0,0,0,102,35.9l.5-.8a11.6,11.6,0,0,0,2.3-3.6h0a10.3,10.3,0,0,0,.5-2.4v-.8A9.5,9.5,0,0,0,95.7,18.6ZM102,28.7a6.6,6.6,0,0,1-.3,1.5h0a8.2,8.2,0,0,1-1.6,2.5l-.3.3-.6,1A63.3,63.3,0,0,1,83.7,50.8l-2.2,1.6.3-1.3,5.7-23a.4.4,0,0,1,.1-.3l.3-1.6c.6-2.6,4.5-4.3,7.8-4.3a6.3,6.3,0,0,1,6.3,6.3Z"
        fill="#fff" stroke="#441d1d" stroke-miterlimit="10" stroke-width="0.4" />
    <rect x="37" y="51.2" width="24.2" height="14.98" transform="translate(27.8 -14.8) rotate(23.8)"
        fill="url(#linear-gradient)" />
    <rect x="29.8" y="55.5" width="27" height="14.98" fill="url(#linear-gradient-2)" /><text
        transform="translate(34.3 65.1)" opacity="0.5" font-size="5.53" font-family="GeneralSans-Bold, General Sans"
        font-weight="700" style="isolation:isolate">Ice cube</text><text transform="translate(32.2 32.8)" opacity="0.5"
        font-size="5.79" fill="#fff" font-family="GeneralSans-Bold, General Sans" font-weight="700">ESPRES<tspan
            x="22.9" y="0" letter-spacing="-0.02em">S</tspan>
        <tspan x="26.7" y="0" letter-spacing="0em">O</tspan>
    </text><text transform="translate(43.8 41.5)" opacity="0.5" font-size="5.79" fill="#fff"
        font-family="BebasNeue-Regular, Bebas Neue">2 OZ</text>
</svg>