<svg id="Layer_1" data-name="Layer 1" xmlns="http://www.w3.org/2000/svg" viewBox="0 0 110 84">
    <polygon points="81.7 43 10.5 43 7.4 25.7 85 25.7 81.7 43" fill="#fbf2d1" /><text transform="translate(16.8 36.1)"
        opacity="0.5" font-size="5.54" font-family="GeneralSans-Bold, General Sans" font-weight="700"
        style="isolation:isolate">H<tspan x="4.3" y="0" letter-spacing="-0.01em">O</tspan>
        <tspan x="8.7" y="0">T MILK</tspan>
    </text>
    <path d="M86,26.9H7.6V16.1A6.1,6.1,0,0,1,13.7,10H79.9A6.1,6.1,0,0,1,86,16.1Z" fill="#ffeee3" />
    <polygon points="70 68.1 23.4 67.7 12.7 48.1 10.7 41.5 22.6 41.5 72.5 41.5 81.6 41.5 79.3 48.8 70 68.1"
        fill="#28180b" />
    <path
        d="M95.8,14.2a13.8,13.8,0,0,0-7.4,2.1c.1-1.6.1-3.2.1-4.8v-.9a1.3,1.3,0,0,0-.1-.6H85.3a1.4,1.4,0,0,0-.2.6v2.3h0a66.3,66.3,0,0,1-.8,10l-1,4L78.7,45.8h0c-4.4,13.8-8.3,18.8-10.9,20.4H25.2c-5.1-3.3-10.6-16.3-15.2-36-.3-1.1-.5-2.2-.7-3.3A78.3,78.3,0,0,1,7.9,14.1h0V10.6a1.4,1.4,0,0,0-.2-.6H4.6a1.3,1.3,0,0,0-.1.6v.9A85.1,85.1,0,0,0,6.7,31C10.3,46.1,16.1,65,24,69.4l.8.2H68.2l.8-.2c3.6-2,7.1-7.3,10.4-15.6l.4-.2,6-4.4a68.7,68.7,0,0,0,16.4-17.6l.5-.8a9.4,9.4,0,0,0,2.2-3.7h.1a20.5,20.5,0,0,0,.5-2.4v-.8A9.7,9.7,0,0,0,95.8,14.2Zm6.3,10.2a7.7,7.7,0,0,1-.2,1.5.1.1,0,0,0-.1.1,6.7,6.7,0,0,1-1.6,2.5c-.1.1-.2.2-.2.3l-.7,1A63.3,63.3,0,0,1,83.8,46.5l-2.2,1.6.3-1.3,5.7-23a.4.4,0,0,1,.1-.3l.3-1.6c.6-2.6,4.5-4.3,7.8-4.3a6.4,6.4,0,0,1,6.4,6.3C102.2,24.1,102.1,24.2,102.1,24.4Z"
        fill="#fff" stroke="#441d1d" stroke-miterlimit="10" stroke-width="0.4" /><text transform="translate(66.2 36.1)"
        opacity="0.5" font-size="5.54" font-family="BebasNeue-Regular, Bebas Neue" style="isolation:isolate">2
        Oz</text><text transform="translate(14 21.6)" opacity="0.5" font-size="5.54"
        font-family="GeneralSans-Bold, General Sans" font-weight="700" style="isolation:isolate">WHIPPED
        CREAM</text><text transform="translate(66.2 21.6)" opacity="0.5" font-size="5.54"
        font-family="BebasNeue-Regular, Bebas Neue" style="isolation:isolate">2 Oz</text><text
        transform="translate(30.4 51.8)" opacity="0.5" font-size="5.79" fill="#fff"
        font-family="GeneralSans-Bold, General Sans" font-weight="700">ESPRES<tspan x="22.9" y="0"
            letter-spacing="-0.02em">S</tspan>
        <tspan x="26.7" y="0" letter-spacing="0em">O</tspan>
    </text><text transform="translate(42.1 60.6)" opacity="0.5" font-size="5.79" fill="#fff"
        font-family="BebasNeue-Regular, Bebas Neue">2 OZ</text>
</svg>