<svg id="Layer_1" data-name="Layer 1" xmlns="http://www.w3.org/2000/svg" viewBox="0 0 110 84">
    <polygon points="84 47.1 12.5 47.1 9.3 29.7 87.3 29.7 84 47.1" fill="#fbf2d1" /><text
        transform="translate(18.8 40.1)" opacity="0.5" font-size="5.57" font-family="GeneralSans-Bold, General Sans"
        font-weight="700" style="isolation:isolate">
        <tspan letter-spacing="0em">S</tspan>
        <tspan x="3.8" y="0" letter-spacing="-0.01em">t</tspan>
        <tspan x="6.2" y="0" letter-spacing="0em">eam</tspan>
        <tspan x="17.7" y="0" letter-spacing="-0.01em">e</tspan>
        <tspan x="21" y="0">d milk</tspan>
    </text>
    <path d="M88.3,30.9H9.5V20a6.1,6.1,0,0,1,6.1-6.1H82.2A6.1,6.1,0,0,1,88.3,20Z" fill="#ffeee3" />
    <polygon points="72.2 72.3 25.4 71.9 14.6 52.2 12.6 45.6 24.6 45.6 74.7 45.6 83.9 45.6 81.6 52.9 72.2 72.3"
        fill="#28180b" />
    <path
        d="M98.2,18.1a14,14,0,0,0-7.5,2.2c.1-1.7.1-3.3.1-4.9V14.2H87.5a.4.4,0,0,0-.1.3v2.3h0a67.7,67.7,0,0,1-.8,10.1l-1,4L81,49.8h0c-4.5,13.8-8.4,18.8-11,20.5H27.2C22.1,67.1,16.5,54,11.9,34.2c-.2-1.1-.5-2.2-.7-3.3A90.9,90.9,0,0,1,9.8,18h0V14.5a.4.4,0,0,0-.1-.3H6.4v1.2A92,92,0,0,0,8.6,35C12.2,50.1,18.1,69.2,26,73.6l.8.2H70.4l.8-.2c3.7-2.1,7.2-7.3,10.5-15.7l.4-.2,6-4.4a65.8,65.8,0,0,0,16.4-17.7l.6-.8a9.4,9.4,0,0,0,2.2-3.7h.1a8.5,8.5,0,0,0,.4-2.3,2.2,2.2,0,0,0,.1-.8A9.8,9.8,0,0,0,98.2,18.1Zm6.3,10.3a4,4,0,0,1-.3,1.5h0a6.7,6.7,0,0,1-1.6,2.5l-.3.3-.6,1A64,64,0,0,1,86.1,50.6l-2.2,1.6.3-1.3,5.7-23.1c0-.1.1-.2.1-.3l.4-1.6c.5-2.7,4.4-4.4,7.7-4.4a6.4,6.4,0,0,1,6.4,6.4Z"
        fill="#fff" stroke="#441d1d" stroke-miterlimit="10" stroke-width="0.4" /><text transform="translate(68.4 40.1)"
        opacity="0.5" font-size="5.57" font-family="BebasNeue-Regular, Bebas Neue" style="isolation:isolate">2
        Oz</text><text transform="translate(20.3 25.6)" opacity="0.5" font-size="5.57"
        font-family="GeneralSans-Bold, General Sans" font-weight="700" style="isolation:isolate">
        <tspan letter-spacing="-0.02em">F</tspan>
        <tspan x="3.2" y="0">oam</tspan>
        <tspan x="14.8" y="0" letter-spacing="-0.01em">e</tspan>
        <tspan x="18.1" y="0">d milk</tspan>
    </text><text transform="translate(68.4 25.6)" opacity="0.5" font-size="5.57"
        font-family="BebasNeue-Regular, Bebas Neue" style="isolation:isolate">2 Oz</text><text
        transform="translate(33.2 56)" opacity="0.5" font-size="5.79" fill="#fff"
        font-family="GeneralSans-Bold, General Sans" font-weight="700">ESPRES<tspan x="22.9" y="0"
            letter-spacing="-0.02em">S</tspan>
        <tspan x="26.7" y="0" letter-spacing="0em">O</tspan>
    </text><text transform="translate(44.8 64.8)" opacity="0.5" font-size="5.79" fill="#fff"
        font-family="BebasNeue-Regular, Bebas Neue">2 OZ</text>
</svg>