<svg width="60" height="56" viewBox="0 0 60 56" fill="none" xmlns="http://www.w3.org/2000/svg">
    <path
        d="M55.835 0.139648H34.2584C33.7729 0.139648 33.3795 0.533027 33.3795 1.01851C33.3795 1.50399 33.7729 1.89737 34.2584 1.89737H55.835C57.1628 1.89737 58.2431 2.97767 58.2431 4.30545V26.9368C58.2431 28.2646 57.1628 29.3449 55.835 29.3449H52.3887C52.2035 29.3449 52.0231 29.4034 51.8732 29.512L45.8804 33.8525V30.2238C45.8804 29.7383 45.487 29.3449 45.0016 29.3449H25.9256C24.5977 29.3449 23.5175 28.2646 23.5175 26.9368V4.30545C23.5175 2.97767 24.5978 1.89737 25.9256 1.89737H30.4289C30.9143 1.89737 31.3077 1.50399 31.3077 1.01851C31.3077 0.533027 30.9143 0.139648 30.4289 0.139648H25.9256C23.6285 0.139648 21.7598 2.00834 21.7598 4.30545V26.9368C21.7598 29.2339 23.6286 31.1026 25.9256 31.1026H44.1227V35.5743C44.1227 35.9045 44.3078 36.2068 44.602 36.3571C44.9137 36.5057 45.2187 36.482 45.5172 36.2862L52.6736 31.1028H55.835C58.1321 31.1028 60.0008 29.2341 60.0008 26.937V4.30545C60.0008 2.00846 58.132 0.139648 55.835 0.139648Z"
        fill="white" />
    <path
        d="M51.0437 46.5929C50.8604 45.2831 50.0895 44.1695 48.9262 43.5356L45.018 41.4063C44.5918 41.1737 44.058 41.3312 43.8258 41.7578C43.5938 42.1839 43.751 42.7177 44.1773 42.9498L48.0851 45.079C48.7537 45.4432 49.1968 46.0828 49.3027 46.835C49.3033 46.8398 49.3039 46.8446 49.3046 46.8493C49.4071 47.6091 49.1485 48.3503 48.5954 48.882L48.0193 49.4351L33.5913 41.3167L35.2869 39.8252C36.0102 39.1888 37.0632 39.0713 37.908 39.5327L40.3465 40.8617C40.7727 41.0938 41.3065 40.9368 41.5389 40.5105C41.771 40.0843 41.614 39.5505 41.1877 39.3182L38.7497 37.9896C37.2599 37.1761 35.4015 37.3831 34.1261 38.5053L30.1746 41.981C29.3652 42.6929 28.1839 42.759 27.3021 42.1413C21.3502 37.9716 17.028 33.3844 14.0884 28.1182C13.5927 27.229 13.7312 26.1324 14.4328 25.3896L17.5606 22.0815C18.7269 20.8466 19.0003 18.9966 18.2409 17.478L12.9774 6.95085C12.391 5.77658 11.3141 4.96767 10.0229 4.73143C8.73083 4.49473 7.43656 4.87053 6.47145 5.76169L4.47234 7.60859C2.26253 9.6499 0.8001 12.2898 0.243253 15.2425C-0.314649 18.2002 0.0913857 21.1837 1.41729 23.8716C1.42315 23.8841 1.42866 23.8948 1.43323 23.9037C2.27342 25.6029 3.18193 27.2644 4.13181 28.8394C4.29035 29.1045 4.46132 29.3846 4.63967 29.672C4.89571 30.0843 5.43744 30.211 5.84992 29.9551C6.26228 29.6991 6.38907 29.1572 6.13315 28.7449C5.95984 28.4656 5.79391 28.1938 5.63864 27.9343C4.71338 26.4001 3.82959 24.7839 3.01178 23.1306C3.00721 23.121 3.00253 23.1116 2.99772 23.1022C0.687371 18.4275 1.71962 12.6916 5.49486 9.06352L13.4207 23.9018L13.1553 24.1825C11.9238 25.486 11.6818 27.4118 12.5533 28.9747C15.6252 34.4781 20.1196 39.2558 26.2936 43.5811C27.0024 44.0774 27.8209 44.3223 28.6366 44.3223C29.603 44.3223 30.5653 43.9782 31.3355 43.3008L32.1929 42.5466L46.6951 50.7067L46.6804 50.7207C42.9423 54.3121 37.3426 55.1295 32.7465 52.7544C22.7842 47.605 14.6855 40.7979 8.6754 32.5228C8.39007 32.13 7.84048 32.0427 7.44781 32.3282C7.05502 32.6135 6.96795 33.163 7.25317 33.5558C13.4258 42.0547 21.7314 49.0395 31.9392 54.3162C33.9485 55.3545 36.1244 55.8602 38.2859 55.8602C41.7879 55.8602 45.251 54.5317 47.8978 51.9888L49.813 50.1497C50.7683 49.2311 51.2183 47.9544 51.0501 46.6427C51.0485 46.6259 51.0463 46.6095 51.0437 46.5929ZM6.82675 7.82643L7.66413 7.05292C8.2191 6.54048 8.9632 6.32475 9.70648 6.46045C10.4487 6.59626 11.0678 7.06124 11.405 7.73667L16.6688 18.2643C17.0993 19.1253 16.9442 20.1743 16.2831 20.8742L14.694 22.555L6.82675 7.82643Z"
        fill="white" />
    <path
        d="M52.9153 16.4538C52.9153 14.761 51.5381 13.3838 49.8453 13.3838C48.1526 13.3838 46.7754 14.761 46.7754 16.4538C46.7754 18.1465 48.1526 19.5238 49.8453 19.5238C51.5381 19.5238 52.9153 18.1465 52.9153 16.4538ZM48.533 16.4538C48.533 15.7302 49.1216 15.1415 49.8452 15.1415C50.5688 15.1415 51.1575 15.7302 51.1575 16.4538C51.1575 17.1774 50.5688 17.766 49.8452 17.766C49.1216 17.766 48.533 17.1774 48.533 16.4538Z"
        fill="#F2C578" />
    <path
        d="M43.9485 16.4538C43.9485 14.761 42.5713 13.3838 40.8786 13.3838C39.1858 13.3838 37.8086 14.761 37.8086 16.4538C37.8086 18.1465 39.1858 19.5238 40.8786 19.5238C42.5713 19.5238 43.9485 18.1465 43.9485 16.4538ZM39.5662 16.4538C39.5662 15.7302 40.1549 15.1415 40.8785 15.1415C41.6021 15.1415 42.1907 15.7302 42.1907 16.4538C42.1907 17.1774 41.6021 17.766 40.8785 17.766C40.1549 17.766 39.5662 17.1774 39.5662 16.4538Z"
        fill="#F2C578" />
    <path
        d="M28.8438 16.4538C28.8438 18.1465 30.2209 19.5238 31.9138 19.5238C33.6067 19.5238 34.9838 18.1465 34.9838 16.4538C34.9838 14.761 33.6066 13.3838 31.9138 13.3838C30.221 13.3838 28.8438 14.761 28.8438 16.4538ZM31.9138 15.1415C32.6374 15.1415 33.2261 15.7302 33.2261 16.4538C33.2261 17.1774 32.6374 17.766 31.9138 17.766C31.1902 17.766 30.6016 17.1774 30.6016 16.4538C30.6016 15.7302 31.1902 15.1415 31.9138 15.1415Z"
        fill="#F2C578" />
</svg>