<svg width="60" height="60" viewBox="0 0 60 60" fill="none" xmlns="http://www.w3.org/2000/svg">
    <path
        d="M57.567 58.3785H2.4319C2.21686 58.3785 2.01063 58.2931 1.85857 58.1411C1.70652 57.989 1.62109 57.7828 1.62109 57.5677V24.3245C1.62109 24.1094 1.70652 23.9032 1.85857 23.7512C2.01063 23.5991 2.21686 23.5137 2.4319 23.5137C2.64694 23.5137 2.85318 23.5991 3.00523 23.7512C3.15729 23.9032 3.24272 24.1094 3.24272 24.3245V56.7569H56.7562V24.3245C56.7562 24.1094 56.8417 23.9032 56.9937 23.7512C57.1458 23.5991 57.352 23.5137 57.567 23.5137C57.7821 23.5137 57.9883 23.5991 58.1404 23.7512C58.2924 23.9032 58.3779 24.1094 58.3779 24.3245V57.5677C58.3779 57.7828 58.2924 57.989 58.1404 58.1411C57.9883 58.2931 57.7821 58.3785 57.567 58.3785Z"
        fill="white" />
    <path
        d="M57.567 25.1356C57.3842 25.1345 57.207 25.0717 57.0643 24.9572L47.3346 17.2302C47.2411 17.168 47.1615 17.0871 47.1009 16.9926C47.0403 16.8981 47 16.7921 46.9825 16.6811C46.9651 16.5702 46.9708 16.4569 46.9994 16.3483C47.028 16.2398 47.0789 16.1383 47.1487 16.0504C47.2186 15.9625 47.306 15.8901 47.4053 15.8377C47.5046 15.7854 47.6137 15.7542 47.7257 15.7462C47.8377 15.7382 47.9501 15.7535 48.0559 15.7913C48.1616 15.829 48.2584 15.8883 48.34 15.9653L58.0698 23.6924C58.2004 23.7972 58.2954 23.9399 58.3417 24.1009C58.3879 24.2619 58.3832 24.4333 58.3281 24.5915C58.273 24.7497 58.1702 24.887 58.0339 24.9844C57.8977 25.0818 57.7346 25.1346 57.567 25.1356Z"
        fill="white" />
    <path
        d="M37.1431 8.91857C36.9602 8.91751 36.783 8.85464 36.6404 8.74019L29.9998 3.46992L23.3593 8.74019C23.1901 8.85264 22.9849 8.89749 22.7842 8.86588C22.5836 8.83426 22.4021 8.72848 22.2757 8.56947C22.1493 8.41045 22.0872 8.20979 22.1017 8.00717C22.1161 7.80456 22.2061 7.61476 22.3539 7.47532L29.4971 1.79965C29.6403 1.68653 29.8174 1.625 29.9998 1.625C30.1823 1.625 30.3594 1.68653 30.5025 1.79965L37.6458 7.47532C37.7764 7.58015 37.8714 7.72288 37.9177 7.88388C37.9639 8.04489 37.9592 8.21627 37.9041 8.37447C37.849 8.53267 37.7462 8.66992 37.61 8.76734C37.4737 8.86477 37.3106 8.9176 37.1431 8.91857Z"
        fill="white" />
    <path
        d="M2.43309 25.1356C2.26558 25.1346 2.10247 25.0818 1.9662 24.9844C1.82993 24.887 1.72717 24.7497 1.67207 24.5915C1.61697 24.4333 1.61222 24.2619 1.65848 24.1009C1.70473 23.9399 1.79972 23.7972 1.93039 23.6924L11.6601 15.9653C11.7418 15.8883 11.8385 15.829 11.9443 15.7913C12.05 15.7535 12.1625 15.7382 12.2745 15.7462C12.3864 15.7542 12.4956 15.7854 12.5949 15.8377C12.6942 15.8901 12.7815 15.9625 12.8514 16.0504C12.9213 16.1383 12.9721 16.2398 13.0007 16.3483C13.0293 16.4569 13.0351 16.5702 13.0176 16.6811C13.0001 16.7921 12.9598 16.8981 12.8992 16.9926C12.8386 17.0871 12.759 17.168 12.6655 17.2302L2.9358 24.9572C2.79314 25.0717 2.61598 25.1345 2.43309 25.1356Z"
        fill="white" />
    <path
        d="M30.0003 44.6351C27.8538 44.6352 25.7716 43.903 24.0976 42.5595L1.93003 24.9568C1.78232 24.8173 1.69232 24.6275 1.67784 24.4249C1.66337 24.2223 1.72548 24.0216 1.85187 23.8626C1.97827 23.7036 2.15975 23.5978 2.3604 23.5662C2.56106 23.5346 2.76627 23.5794 2.93544 23.6919L25.1354 41.2946C26.5262 42.4051 28.253 43.0099 30.0327 43.0099C31.8124 43.0099 33.5393 42.4051 34.93 41.2946L57.0652 23.6919C57.1468 23.6148 57.2436 23.5555 57.3493 23.5178C57.4551 23.4801 57.5675 23.4648 57.6795 23.4728C57.7915 23.4808 57.9006 23.5119 57.9999 23.5643C58.0992 23.6167 58.1866 23.6891 58.2565 23.777C58.3263 23.8649 58.3772 23.9663 58.4058 24.0749C58.4344 24.1835 58.4401 24.2968 58.4227 24.4077C58.4052 24.5186 58.3649 24.6247 58.3043 24.7192C58.2437 24.8137 58.1641 24.8946 58.0706 24.9568L35.903 42.5595C34.229 43.903 32.1468 44.6352 30.0003 44.6351Z"
        fill="white" />
    <path
        d="M57.5682 58.3788H2.43309C2.26558 58.3778 2.10247 58.325 1.9662 58.2276C1.82993 58.1302 1.72717 57.9929 1.67207 57.8347C1.61697 57.6765 1.61222 57.5051 1.65848 57.3441C1.70473 57.1831 1.79972 57.0404 1.93039 56.9356L22.8574 40.314C22.9391 40.2369 23.0358 40.1776 23.1416 40.1399C23.2473 40.1022 23.3598 40.0868 23.4718 40.0948C23.5837 40.1028 23.6929 40.134 23.7922 40.1864C23.8915 40.2387 23.9788 40.3112 24.0487 40.3991C24.1186 40.487 24.1694 40.5884 24.198 40.697C24.2266 40.8055 24.2324 40.9189 24.2149 41.0298C24.1974 41.1407 24.1571 41.2468 24.0965 41.3413C24.0359 41.4358 23.9563 41.5167 23.8628 41.5788L4.76012 56.7572H55.2412L36.1385 41.5788C35.9908 41.4394 35.9008 41.2496 35.8863 41.047C35.8718 40.8444 35.9339 40.6437 36.0603 40.4847C36.1867 40.3257 36.3682 40.2199 36.5689 40.1883C36.7695 40.1567 36.9747 40.2015 37.1439 40.314L58.0709 56.9356C58.2016 57.0404 58.2966 57.1831 58.3428 57.3441C58.3891 57.5051 58.3843 57.6765 58.3292 57.8347C58.2741 57.9929 58.1714 58.1302 58.0351 58.2276C57.8988 58.325 57.7357 58.3778 57.5682 58.3788Z"
        fill="white" />
    <path
        d="M47.838 32.8617C47.623 32.8617 47.4168 32.7763 47.2647 32.6243C47.1127 32.4722 47.0272 32.266 47.0272 32.0509V8.9185H12.9732V32.0509C12.9732 32.266 12.8878 32.4722 12.7357 32.6243C12.5836 32.7763 12.3774 32.8617 12.1624 32.8617C11.9473 32.8617 11.7411 32.7763 11.589 32.6243C11.437 32.4722 11.3516 32.266 11.3516 32.0509V8.10769C11.3516 7.89265 11.437 7.68641 11.589 7.53436C11.7411 7.3823 11.9473 7.29688 12.1624 7.29688H47.838C48.0531 7.29688 48.2593 7.3823 48.4114 7.53436C48.5634 7.68641 48.6489 7.89265 48.6489 8.10769V32.0509C48.6489 32.266 48.5634 32.4722 48.4114 32.6243C48.2593 32.7763 48.0531 32.8617 47.838 32.8617Z"
        fill="white" />
    <path
        d="M41.5052 16.2154H18.4944C18.2794 16.2154 18.0731 16.1299 17.9211 15.9779C17.769 15.8258 17.6836 15.6196 17.6836 15.4046C17.6836 15.1895 17.769 14.9833 17.9211 14.8312C18.0731 14.6792 18.2794 14.5938 18.4944 14.5938H41.5052C41.7202 14.5938 41.9265 14.6792 42.0785 14.8312C42.2306 14.9833 42.316 15.1895 42.316 15.4046C42.316 15.6196 42.2306 15.8258 42.0785 15.9779C41.9265 16.1299 41.7202 16.2154 41.5052 16.2154Z"
        fill="#96CF7E" />
    <path
        d="M41.5052 22.7027H18.4944C18.2794 22.7027 18.0731 22.6172 17.9211 22.4652C17.769 22.3131 17.6836 22.1069 17.6836 21.8919C17.6836 21.6768 17.769 21.4706 17.9211 21.3185C18.0731 21.1665 18.2794 21.0811 18.4944 21.0811H41.5052C41.7202 21.0811 41.9265 21.1665 42.0785 21.3185C42.2306 21.4706 42.316 21.6768 42.316 21.8919C42.316 22.1069 42.2306 22.3131 42.0785 22.4652C41.9265 22.6172 41.7202 22.7027 41.5052 22.7027Z"
        fill="#96CF7E" />
    <path
        d="M41.5052 29.189H18.4944C18.2794 29.189 18.0731 29.1036 17.9211 28.9515C17.769 28.7995 17.6836 28.5932 17.6836 28.3782C17.6836 28.1632 17.769 27.9569 17.9211 27.8049C18.0731 27.6528 18.2794 27.5674 18.4944 27.5674H41.5052C41.7202 27.5674 41.9265 27.6528 42.0785 27.8049C42.2306 27.9569 42.316 28.1632 42.316 28.3782C42.316 28.5932 42.2306 28.7995 42.0785 28.9515C41.9265 29.1036 41.7202 29.189 41.5052 29.189Z"
        fill="#96CF7E" />
</svg>