<svg width="60" height="60" viewBox="0 0 60 60" fill="none" xmlns="http://www.w3.org/2000/svg">
    <path
        d="M37.6073 38.8414C37.7156 38.6651 37.8239 38.4921 37.9322 38.3126C42.802 30.2501 45.2527 23.1973 45.2175 17.3525C45.1959 13.3312 43.5834 9.48199 40.7326 6.64591C37.8817 3.80983 34.0241 2.21748 30.0028 2.2168C25.9815 2.21612 22.1234 3.80716 19.2715 6.64228C16.4197 9.47739 14.806 13.3261 14.783 17.3473C14.7473 23.1973 17.1984 30.2511 22.0683 38.3126C22.1766 38.4921 22.2848 38.6651 22.3931 38.8414C12.1406 40.1084 5.34375 43.7726 5.34375 48.1231C5.34375 53.585 16.1719 57.8632 30 57.8632C43.8281 57.8632 54.6562 53.585 54.6562 48.1231C54.6562 43.7726 47.8594 40.1084 37.6073 38.8414ZM16.4236 17.3525C16.4134 15.5628 16.7572 13.7889 17.4351 12.1326C18.113 10.4763 19.1116 8.97035 20.3736 7.7014C21.6356 6.43246 23.136 5.42554 24.7886 4.73856C26.4411 4.05157 28.2132 3.69809 30.0028 3.69843C31.7925 3.69877 33.5644 4.05293 35.2167 4.74054C36.869 5.42815 38.369 6.43564 39.6305 7.70506C40.892 8.97448 41.8901 10.4808 42.5674 12.1373C43.2447 13.7939 43.5877 15.568 43.5769 17.3576C43.6472 29.0098 32.7534 43.3812 30 46.8275C27.2466 43.3812 16.3523 29.0093 16.4236 17.3525ZM30 56.2226C16.2323 56.2226 6.98438 52.0343 6.98438 48.1231C6.98438 44.6543 13.8417 41.427 23.3597 40.3803C25.2005 43.2545 27.2092 46.0177 29.3752 48.6556C29.4521 48.7463 29.5478 48.8191 29.6557 48.8691C29.7636 48.919 29.8811 48.9449 30 48.9449C30.1189 48.9449 30.2364 48.919 30.3443 48.8691C30.4522 48.8191 30.5479 48.7463 30.6248 48.6556C32.791 46.0177 34.7998 43.2545 36.6408 40.3803C46.1564 41.427 53.0161 44.6525 53.0161 48.1231C53.0156 52.0343 43.7677 56.2226 30 56.2226Z"
        fill="white" />
    <path
        d="M23.2944 51.471C19.6541 51.005 16.7319 50.1847 15.0688 49.1624C14.977 49.1037 14.8745 49.0639 14.7671 49.0453C14.6598 49.0267 14.5498 49.0296 14.4437 49.0539C14.3375 49.0783 14.2372 49.1235 14.1487 49.187C14.0602 49.2505 13.9852 49.331 13.9282 49.4238C13.8711 49.5166 13.8331 49.6199 13.8164 49.7275C13.7996 49.8351 13.8045 49.945 13.8307 50.0508C13.8569 50.1565 13.9039 50.256 13.9689 50.3434C14.034 50.4307 14.1158 50.5043 14.2096 50.5597C16.0672 51.7016 19.22 52.6035 23.0863 53.098C23.1211 53.1025 23.1562 53.1047 23.1913 53.1046C23.3992 53.1035 23.599 53.0236 23.7502 52.8809C23.9015 52.7382 23.9929 52.5434 24.006 52.3359C24.0191 52.1284 23.9529 51.9237 23.8208 51.7631C23.6887 51.6025 23.5006 51.4981 23.2944 51.471Z"
        fill="#83A7B5" />
    <path
        d="M31.3783 51.8629C30.235 51.8891 29.0444 51.8831 27.8824 51.8404C27.7746 51.8364 27.6672 51.8537 27.5661 51.8913C27.4651 51.9288 27.3724 51.9859 27.2934 52.0593C27.2145 52.1327 27.1507 52.2209 27.1058 52.3189C27.0609 52.4169 27.0358 52.5228 27.0318 52.6305C27.0278 52.7382 27.0451 52.8457 27.0827 52.9467C27.1202 53.0477 27.1773 53.1404 27.2507 53.2194C27.3241 53.2984 27.4123 53.3621 27.5103 53.407C27.6083 53.4519 27.7142 53.4771 27.8219 53.481C28.5428 53.5073 29.275 53.5209 30.0006 53.5209C30.4778 53.5209 30.9498 53.5152 31.4167 53.504C31.6342 53.499 31.8408 53.4077 31.991 53.2504C32.1413 53.093 32.2228 52.8824 32.2178 52.6649C32.2167 52.5567 32.1939 52.4499 32.1509 52.3506C32.1078 52.2513 32.0453 52.1617 31.9671 52.087C31.8889 52.0122 31.7965 51.9539 31.6953 51.9154C31.5942 51.8769 31.4864 51.8591 31.3783 51.8629Z"
        fill="#83A7B5" />
    <path
        d="M36.9266 17.352C36.9265 15.982 36.52 14.6428 35.7587 13.5037C34.9974 12.3646 33.9154 11.4769 32.6496 10.9528C31.3838 10.4286 29.991 10.2916 28.6473 10.559C27.3036 10.8265 26.0694 11.4863 25.1007 12.4552C24.132 13.4241 23.4724 14.6584 23.2052 16.0022C22.9381 17.3459 23.0754 18.7387 23.5998 20.0044C24.1242 21.2701 25.0121 22.3519 26.1514 23.113C27.2906 23.8741 28.6299 24.2802 29.9999 24.2802C31.8366 24.2779 33.5973 23.5472 34.8959 22.2484C36.1944 20.9496 36.9248 19.1887 36.9266 17.352ZM24.7134 17.352C24.7135 16.3065 25.0238 15.2845 25.6048 14.4152C26.1858 13.546 27.0115 12.8685 27.9775 12.4686C28.9435 12.0686 30.0064 11.964 31.0319 12.1681C32.0573 12.3722 32.9992 12.8758 33.7384 13.6151C34.4777 14.3545 34.9811 15.2965 35.185 16.322C35.3889 17.3474 35.2841 18.4103 34.884 19.3763C34.4838 20.3422 33.8062 21.1678 32.9369 21.7486C32.0675 22.3295 31.0455 22.6395 29.9999 22.6395C28.5981 22.638 27.2542 22.0805 26.2631 21.0892C25.2719 20.0979 24.7146 18.7538 24.7134 17.352Z"
        fill="#83A7B5" />
</svg>