
<svg xmlns="http://www.w3.org/2000/svg" viewBox="0 0 125.9 123.8">
	<g id="Layer_2" data-name="Layer 2">
		<g id="Layer_1-2" data-name="Layer 1">
			<path class="line" d="M43.9,66.6l3.7-26H87.1l-3.7,26Z" fill="none" stroke="#569046" stroke-linecap="round" stroke-linejoin="round" stroke-width="3"/>
			<path class="lines" d="M63,86.9c-6.7-6.7-19.1-5-27.8,3.6a24.5,24.5,0,0,0-7.7,17,14.1,14.1,0,0,0,14.8,14.8,24.7,24.7,0,0,0,17.1-7.7,24.4,24.4,0,0,0,7.8-17A14.6,14.6,0,0,0,63,86.9Z" fill="none" stroke="#000" stroke-miterlimit="10" stroke-width="3"/>
			<line class="drive" x1="53.5" y1="49.2" x2="77.5" y2="49.2" fill="none" stroke="#569046" stroke-linecap="round" stroke-linejoin="round" stroke-width="3"/>
			<line class="blink two" x1="56.7" y1="57.1" x2="71.2" y2="57.1" fill="none" stroke="#569046" stroke-linecap="round" stroke-linejoin="round" stroke-width="3"/>
			<line class="blink one" x1="39.8" y1="13.4" x2="47.4" y2="13.4" fill="none" stroke="#569046" stroke-linecap="round" stroke-linejoin="round" stroke-width="3"/>
			<line class="blink two" x1="52.9" y1="13.4" x2="60.5" y2="13.4" fill="none" stroke="#569046" stroke-linecap="round" stroke-linejoin="round" stroke-width="3"/>
			<line class="blink three" x1="66" y1="13.4" x2="73.6" y2="13.4" fill="none" stroke="#569046" stroke-linecap="round" stroke-linejoin="round" stroke-width="3"/>
			<line class="blink four" x1="79.1" y1="13.4" x2="86.8" y2="13.4" fill="none" stroke="#569046" stroke-linecap="round" stroke-linejoin="round" stroke-width="3"/>
			<line class="blink five" x1="92.2" y1="13.4" x2="99.9" y2="13.4" fill="none" stroke="#569046" stroke-linecap="round" stroke-linejoin="round" stroke-width="3"/>
			<polyline  class="lines" points="25.6 61.7 33.5 1.5 111.5 1.5 98.5 103.2 111.5 94.7 111.5 64.3" fill="none" stroke="#000" stroke-linecap="round" stroke-linejoin="round" stroke-width="3"/>
			<line x1="75.3" y1="103.2" x2="98.5" y2="103.2" fill="none" stroke="#000" stroke-linecap="round" stroke-linejoin="round" stroke-width="3"/>
			<polyline  class="lines" points="111.5 1.5 124.4 90.3 111.5 94.7" fill="none" stroke="#000" stroke-linecap="round" stroke-linejoin="round" stroke-width="3"/>
			<path class="line" d="M35.5,81.2S27.7,68,16.6,71.2-2.6,91.9,3.7,106.6,19.6,121.7,23,119.5s-5.3-4.1-5.9-16.7c-.4-8,8.6-7.6,4.5-20.3a19.5,19.5,0,0,0-2-4.1c-1.1-1.6-2.7-4.4-2.8-6.9" fill="none" stroke="#569046" stroke-linecap="round" stroke-linejoin="round" stroke-width="3"/>
			<path class="lines" d="M31.2,115.1a8.7,8.7,0,0,1,5.2-1.9c3.1,0,10.2-1.4,10.9-10.6A11,11,0,0,1,57.8,91.9c1.7,0,5.6-1.4,6.2-2.3" fill="none" stroke="#000" stroke-miterlimit="10" stroke-width="3"/>
		</g>
	</g>

<style>
.line {
	stroke: #569046;
	stroke-width: 3px;
	stroke-dasharray: 300;
	stroke-dashoffset: 300;
	animation: line 5s linear forwards;
}
@keyframes line {
	from {
		stroke-dashoffset: 300;
	}
	to {
		stroke-dashoffset: 0;
	}
}
.lines {
	stroke: #000000;
	stroke-width: 3px;
	stroke-dasharray: 300;
	stroke-dashoffset: 300;
	animation: line 5s linear forwards;
}
@keyframes lines {
	from {
		stroke-dashoffset: 300;
	}
	to {
		stroke-dashoffset: 0;
	}
}
.blink {
    animation: blink 3s infinite;
}
.one {
    animation-delay: 1000ms;
}
.two {
    animation-delay: 1200ms;
}
.three {
    animation-delay: 1400ms;
}
.four {
    animation-delay: 1600ms;
}
.five {
    animation-delay: 1800ms;
}
@keyframes blink {
	0% {
	    opacity: 0;
	}
	50%, 100% {
	    opacity: 1;
	}
}
.drive {
    transform: translateX(-100%);
    position: relative;
    animation: drive 3s 1s cubic-bezier(0.88, 0.08, 0.16, 1.1) infinite;
}
@keyframes drive {
	0% {
	    transform: translateX(-100%);
	    opacity: 0;
	}
	25% {
	    transform: translateX(0%);
	    opacity: 1;
	}
	75% {
	    transform: translateX(0%);
	    opacity: 1;
	}
	100% {
	    transform: translateX(100%);
	    opacity: 0;
	}
}
</style>

</svg>