<svg width="22" height="22" viewBox="0 0 22 22" fill="none" xmlns="http://www.w3.org/2000/svg">
    <path
        d="M7.01746 17.1133C5.74897 17.1133 4.7207 18.1416 4.7207 19.41C4.7207 20.6785 5.74902 21.7068 7.01746 21.7068C8.28596 21.7068 9.31422 20.6785 9.31422 19.41C9.31427 18.1416 8.28596 17.1133 7.01746 17.1133ZM7.01746 20.6861C6.31276 20.6861 5.7415 20.1148 5.7415 19.4101C5.7415 18.7054 6.31276 18.1341 7.01746 18.1341C7.72217 18.1341 8.29343 18.7054 8.29343 19.4101C8.29348 20.1148 7.72217 20.6861 7.01746 20.6861Z"
        fill="black"></path>
    <path
        d="M16.7147 17.1133C15.4462 17.1133 14.418 18.1416 14.418 19.41C14.418 20.6785 15.4463 21.7068 16.7147 21.7068C17.9832 21.7068 19.0115 20.6785 19.0115 19.41C19.0115 18.1416 17.9832 17.1133 16.7147 17.1133ZM16.7147 20.6861C16.01 20.6861 15.4388 20.1148 15.4388 19.4101C15.4388 18.7054 16.01 18.1341 16.7147 18.1341C17.4194 18.1341 17.9907 18.7054 17.9907 19.4101C17.9907 20.1148 17.4194 20.6861 16.7147 20.6861Z"
        fill="black"></path>
    <path
        d="M21.896 3.71461C21.7897 3.59851 21.6443 3.52582 21.4877 3.51044L4.8743 3.28076L4.41494 1.87716C4.09133 0.938865 3.21268 0.305424 2.22022 0.294922H0.510397C0.228504 0.294922 0 0.523426 0 0.805318C0 1.08721 0.228504 1.31572 0.510397 1.31572H2.22022C2.77517 1.32798 3.26383 1.68431 3.44519 2.20892L6.68621 11.983L6.43103 12.5699C6.1464 13.3039 6.23189 14.13 6.66071 14.7902C7.08543 15.4385 7.79996 15.8387 8.57471 15.862H18.5019C18.7838 15.862 19.0123 15.6335 19.0123 15.3516C19.0123 15.0697 18.7838 14.8412 18.5019 14.8412H8.57466C8.13714 14.8303 7.7344 14.6001 7.50282 14.2287C7.27383 13.8619 7.22679 13.41 7.37524 13.0037L7.57941 12.5444L18.3233 11.4215C19.5034 11.2915 20.4742 10.4332 20.7477 9.27783L21.9726 4.14837C22.0278 4.00066 21.9985 3.83453 21.896 3.71461ZM19.7524 9.04821C19.5867 9.79194 18.9552 10.3405 18.1957 10.4008L7.57941 11.4981L5.20606 4.30155L20.8497 4.53123L19.7524 9.04821Z"
        fill="black"></path>
</svg>