<svg width="18" height="18" viewBox="0 0 18 18" fill="none" xmlns="http://www.w3.org/2000/svg">
    <g clip-path="url(#clip0)">
        <path
            d="M17 12.4136C15.75 12.4136 14.55 12.2136 13.43 11.8436C13.08 11.7336 12.69 11.8136 12.41 12.0836L10.21 14.2836C7.38 12.8436 5.06 10.5336 3.62 7.69357L5.82 5.48357C6.1 5.22357 6.18 4.83357 6.07 4.48357C5.7 3.36357 5.5 2.16357 5.5 0.913574C5.5 0.363574 5.05 -0.0864258 4.5 -0.0864258H1C0.45 -0.0864258 0 0.363574 0 0.913574C0 10.3036 7.61 17.9136 17 17.9136C17.55 17.9136 18 17.4636 18 16.9136V13.4136C18 12.8636 17.55 12.4136 17 12.4136ZM16 8.91357H18C18 3.94357 13.97 -0.0864258 9 -0.0864258V1.91357C12.87 1.91357 16 5.04357 16 8.91357ZM12 8.91357H14C14 6.15357 11.76 3.91357 9 3.91357V5.91357C10.66 5.91357 12 7.25357 12 8.91357Z"
            fill="white" fill-opacity="0.6" />
    </g>
    <defs>
        <clipPath id="clip0">
            <rect width="18" height="18" fill="white" />
        </clipPath>
    </defs>
</svg>