<svg width="22" height="22" viewBox="0 0 22 22" fill="none" xmlns="http://www.w3.org/2000/svg">
    <g clip-path="url(#clip0)">
        <path
            d="M15.4128 0.913574H7.54329C3.922 0.913574 0.985352 3.85022 0.985352 7.47151V15.341C0.985352 18.9623 3.922 21.899 7.54329 21.899H15.4128C19.0341 21.899 21.9708 18.9623 21.9708 15.341V7.47151C21.9708 3.85022 19.0341 0.913574 15.4128 0.913574ZM20.0034 15.341C20.0034 17.8724 17.9442 19.9316 15.4128 19.9316H7.54329C5.01193 19.9316 2.95273 17.8724 2.95273 15.341V7.47151C2.95273 4.94015 5.01193 2.88096 7.54329 2.88096H15.4128C17.9442 2.88096 20.0034 4.94015 20.0034 7.47151V15.341Z"
            fill="white" fill-opacity="0.6"></path>
        <path
            d="M11.478 6.15991C8.58074 6.15991 6.23169 8.50897 6.23169 11.4063C6.23169 14.3036 8.58074 16.6526 11.478 16.6526C14.3753 16.6526 16.7244 14.3036 16.7244 11.4063C16.7244 8.50897 14.3753 6.15991 11.478 6.15991ZM11.478 14.6852C9.67067 14.6852 8.19907 13.2136 8.19907 11.4063C8.19907 9.59758 9.67067 8.12729 11.478 8.12729C13.2854 8.12729 14.757 9.59758 14.757 11.4063C14.757 13.2136 13.2854 14.6852 11.478 14.6852Z"
            fill="white" fill-opacity="0.6"></path>
        <path
            d="M17.1179 6.46529C17.504 6.46529 17.817 6.1523 17.817 5.76621C17.817 5.38012 17.504 5.06714 17.1179 5.06714C16.7318 5.06714 16.4188 5.38012 16.4188 5.76621C16.4188 6.1523 16.7318 6.46529 17.1179 6.46529Z"
            fill="white" fill-opacity="0.6"></path>
    </g>
    <defs>

    </defs>
</svg>