<svg xmlns="http://www.w3.org/2000/svg" width="122" height="123" fill="#d5d5d5" xmlns:v="https://vecta.io/nano">
    <path
        d="M120.431 82.005c-10.337 1.205-20.883-4.034-29.646-8.959-10.074-5.711-19.572-12.574-28.124-20.38C46.867 38.311 33.277 20.708 24.094 1.376c-3.673-7.649-6.979-15.927-7.503-24.467 0-.367.63-.471.682-.105C19.582-6.483 28.554 9.339 38.052 22.961 50.802 41.35 66.911 57.277 85.8 69.327c9.917 6.339 22.458 13.726 34.684 12.417.052.052.052.262-.053.262z" />
    <path
        d="M21.995-4.859c5.142 9.273 15.322 16.084 25.658 17.97 2.519.471 5.037.681 7.503 1.257 1.889.419 4.46.995 5.719 2.567 1.154 1.362 1.049 3.248 1.207 4.925.262 3.143 1.679 4.82 4.618 5.92 2.886 1.048 6.506 1.362 8.553 3.877 1.049 1.362 1.312 3.039 1.522 4.663.367 3.72 1.049 7.125 4.46 9.221 3.673 2.305 8.133 1.624 11.071 5.291 2.309 2.934 2.991 6.758 4.355 10.164.997 2.358 2.361 4.558 4.775 5.711s5.299 1.205 7.503 2.882c1.574 1.153 2.309 2.934 3.043 4.663 1.627 3.877 4.146 6.654 8.606 7.02.629.052.629.995 0 .943-4.513-.314-7.504-2.986-9.183-7.02-1.364-3.196-2.571-5.239-6.087-6.339-1.941-.629-3.987-.995-5.666-2.2-2.886-2.096-3.988-5.711-5.037-8.907-.682-2.096-1.364-4.244-2.624-6.025-1.994-2.829-4.827-3.353-7.976-4.296-4.093-1.205-7.031-4.191-7.661-8.435-.42-2.672-.052-5.711-2.309-7.649-1.731-1.519-4.25-1.938-6.401-2.619-2.886-.891-5.405-2.2-5.982-5.396-.21-1.205-.157-2.41-.367-3.615-.472-2.567-2.309-3.458-4.617-4.191-2.833-.838-5.877-1.1-8.815-1.572-10.809-1.834-21.041-8.906-26.131-18.704-.053-.105.21-.262.262-.105z" />
    <path
        d="M48.966 66.183c-2.519-.733-3.726-2.41-4.827-4.715-2.099-4.453-3.306-8.016-6.979-11.526-1.522-1.467-3.096-2.724-4.46-4.087.157-.314.262-.629.367-.943 1.154 1.1 2.361 2.096 3.621 3.196 2.361 2.148 4.565 4.558 6.034 7.44 2.046 4.087 2.099 8.907 7.661 10.164 2.361.524 4.04.262 6.139 1.677 2.204 1.519 3.673 3.929 5.247 6.025 1.259 1.624 2.624 3.353 4.513 4.296 2.676 1.31 5.195.524 7.923.314 2.571-.262 5.037-.157 7.451.681 3.253 1.1 5.247 3.51 8.186 5.134 4.88 2.672 7.084-1.048 11.228-1.781 2.047-.367 4.146.419 6.087.838 4.512.995 9.077 1.467 12.96-1.467.578-.472 1.207.524.63.995-5.562 4.139-10.914 1.257-17.053.733-4.303-.367-6.664 3.301-10.652 2.986-2.309-.157-4.093-1.781-5.877-3.091-4.67-3.405-8.553-4.61-14.325-4.034-2.361.262-4.722.472-6.926-.629-2.466-1.205-3.988-3.563-5.614-5.711-1.522-1.991-2.938-4.244-5.3-5.396-1.994-.891-4.04-.524-6.034-1.1zM29.289 31.238l-.157 4.348c-.315-.419-.577-.786-.944-1.1 0 0-.053 0-.053-.052l.158-5.449c-.105-3.877-.892-7.702-1.679-11.421-1.574-7.439-3.62-14.774-4.827-22.266-.052-.157.21-.262.262-.105 2.624 11.736 7.661 23.838 7.241 36.045zm42.187-1.571c-12.908-2.358-25.973-5.396-37.779-11.264-.367-.157-.053-.681.315-.524 11.859 5.868 24.661 8.592 37.464 11.736.052 0 0 .052 0 .052zM86.85 48.004c-11.806-4.401-25.973-2.043-36.992-8.697a.27.27 0 0 1 .262-.472c11.596 5.815 24.924 4.087 36.782 9.011.105.052.052.21-.052.157zm18.942 20.904C93.671 66.55 81.183 64.56 70.059 58.901c-.315-.157-.052-.576.262-.419 11.334 5.187 23.507 7.44 35.576 10.216.105 0 .052.21-.105.21zm7.503 9.011c-7.031-.733-14.167-1.834-20.936-3.929-.315-.105-.21-.576.157-.472 6.926 1.624 13.8 3.143 20.832 4.139.104.052.104.314-.053.262z" />
    <path
        d="M105.739 83.368c-7.293-3.353-13.747-8.487-20.044-13.412-.21-.157.052-.524.315-.367 6.559 4.663 12.541 10.112 19.834 13.674.053.052-.052.157-.105.105zm-14.377 2.095C80.081 79.752 76.303 66.55 68.327 57.591c-.262-.262.157-.681.42-.419 8.08 8.959 11.858 21.742 22.772 28.029.21.105.053.367-.157.262zm-27.6-8.54c-6.979-11.945-10.966-25.2-14.849-38.35-.157-.471.63-.681.735-.209 3.883 13.15 7.871 26.3 14.272 38.455.105.105-.053.209-.157.105zM28.817 30.872c.472-7.544.052-14.931-1.207-22.371-.052-.367.472-.524.577-.157 1.259 7.387 1.836 15.036.787 22.528 0 .105-.21.105-.157 0zm7.87-8.697c2.938 4.244 2.571 10.111 3.043 15.089.63 6.549 1.417 12.993 3.043 19.385.053.314-.367.419-.42.105-1.784-5.449-2.623-11.316-3.096-17.027-.472-5.868-.367-11.945-2.624-17.499-.105-.105 0-.105.053-.052zm23.455 3.196c-6.611-1.048-13.223-2.724-19.414-5.344-.105-.052 0-.157.052-.157 6.297 2.41 12.698 4.296 19.362 5.396.052.052.052.105 0 .105zm-5.352-2.41c-6.874-1.257-13.642-3.51-19.782-6.968-.105-.052 0-.157.052-.157 6.244 3.248 12.751 5.711 19.729 6.968.105.105.105.21 0 .157zm-5.142-2.725l-7.241-2.724c-.052 0-.052-.105.053-.105l7.188 2.829zm-3.096-3.143c-1.049-.314-2.099-.629-3.096-1.1-.105-.052 0-.157.053-.105l3.043 1.153c.052 0 .052.105 0 .052zM37.579 30.4c.577 4.925.944 9.902.997 14.827 0 .157-.262.157-.262 0A139.65 139.65 0 0 0 37.37 30.4c.052-.105.21-.105.21 0zm-1.259 2.882c.787 3.196 1.364 6.863.787 10.112 0 .157-.21.105-.21-.052-.105-3.405 0-6.654-.735-10.007-.052-.105.157-.21.157-.052zm-1.049 3.929l.157 2.41c0 .105-.157.105-.21 0l-.053-2.41c0-.052.105-.052.105 0zm-5.247-8.645c.157 2.672.315 5.501-.052 8.173 0 .157-.21.105-.21-.052l.157-8.121c-.052-.105.052-.105.105 0zM28.922 5.462c2.519 2.305 5.247 3.825 8.29 5.291.105.052.052.262-.105.21-3.096-1.048-5.929-3.196-8.238-5.449-.052 0 .053-.105.053-.052zm2.781 3.929c1.207.891 2.519 1.624 3.83 2.41.157.105 0 .314-.105.21-1.312-.733-2.571-1.624-3.778-2.567-.052 0 0-.105.053-.052zM76.46 43.708c-7.451-.995-15.164-2.41-22.248-5.082-.105-.052-.052-.157.052-.157 3.673.995 7.294 2.2 11.019 3.039 3.725.891 7.451 1.572 11.229 2.096.052 0 0 .105-.052.105zm-6.034-2.568c-3.568-.524-7.084-1.205-10.547-2.148-.052 0-.052-.157.053-.105a89.69 89.69 0 0 0 10.547 2.2s0 .052-.053.052zm-1.521-2.148c-3.778-.367-7.556-.995-11.176-2.043-.105 0-.053-.157.053-.105 3.673.891 7.398 1.624 11.176 2.043 0 0 0 .105-.052.105zm1.259-8.173c-8.448-1.415-16.791-3.563-24.871-6.392-.105-.052-.053-.21.052-.157 8.081 2.829 16.424 5.03 24.871 6.497.052 0 .052.052-.052.052zm-4.775.367c-3.725-.733-7.451-1.519-11.124-2.462-.105 0-.052-.157.053-.157l11.071 2.515c.053.052.053.157 0 .105zM55.21 32.548c-3.463-1.153-7.451-.681-10.704-2.567-.105-.052 0-.21.105-.157 3.411 1.572 7.136 1.415 10.599 2.724.052-.052.052 0 0 0zm-2.624.629l-6.297-1.572c-.105-.052-.052-.157.053-.157l6.297 1.624c.053 0 0 .105-.052.105zm-3.935 10.216c1.679 5.92 3.725 11.683 5.929 17.446.052.157-.157.209-.21.052-2.361-5.658-4.25-11.526-5.877-17.446 0-.105.157-.105.157-.052zm.892 6.916l1.994 7.492c0 .105-.105.157-.157.052-.787-2.462-1.312-5.029-1.941-7.492 0-.105.052-.105.105-.052zm-2.781-3.353c1.259 4.715 2.781 9.326 4.145 13.988.053.157-.157.21-.262.052-1.679-4.558-2.886-9.326-4.04-14.041 0-.052.157-.052.157 0zm.21 6.496l1.627 5.134c.052.105-.157.157-.21.052l-1.522-5.134c.052-.105.105-.105.105-.052zm-6.926-22.58c.63 7.911 1.994 15.717 3.568 23.524.052.157-.157.209-.21.052-1.889-7.701-2.938-15.665-3.463-23.576-.053-.105.105-.105.105 0zm1.993 6.915l1.154 7.492c0 .105-.21.157-.21.052l-1.049-7.44c-.052-.157.105-.157.105-.105zm11.754 9.378c3.043 9.011 6.769 17.656 10.704 26.3.052.105-.105.262-.21.105-4.303-8.435-7.713-17.394-10.652-26.405 0-.052.105-.052.158 0zm3.988 5.816l5.142 12.521c0 .052-.105.105-.105.052-1.784-4.139-3.463-8.33-5.142-12.521 0-.105.105-.157.105-.052zm4.302 6.287l1.049 2.567c.053.105-.157.157-.21.052l-.997-2.567c0-.105.105-.105.157-.052zm8.658 3.196c2.309 4.139 4.985 8.121 7.346 12.207.052.105-.105.21-.157.105-2.781-3.825-5.037-8.121-7.293-12.26-.052-.052.052-.105.105-.052z" />
    <path
        d="M70.689 65.817l2.991 5.239c.052.105-.105.21-.157.105-1.154-1.624-2.046-3.51-2.886-5.291-.105-.105 0-.157.052-.052zm-.053 2.671l.315.472c.052.105-.105.157-.157.105l-.315-.471c-.053-.105.105-.21.157-.105zm25.396-3.877c-8.186-1.205-16.424-3.144-24.084-6.339-.105-.052-.105-.262.052-.21 7.871 2.777 15.741 5.134 24.032 6.496.105 0 .052.052 0 .052zm-5.509-2.462L79.399 59.32c-.105 0-.052-.157.052-.157 3.725.891 7.398 1.939 11.124 2.882 0 .052 0 .157-.053.105zM78.979 47.846c-6.244-.891-12.541-1.729-18.68-3.196-.105-.052-.053-.21.052-.21l18.68 3.196c.157 0 .105.209-.052.209zm9.34 3.301c-6.401-.838-12.803-1.781-19.1-3.091-.105 0-.052-.209.053-.157l19.099 3.196s0 .105-.052.052zm-5.51.524l-8.448-1.729c-.105 0-.053-.157 0-.157 2.833.262 5.719.995 8.5 1.729.052.052.052.157-.052.157zm21.671 18.494l-9.97-1.991c-3.306-.681-6.664-1.205-9.917-2.096-.157-.052-.105-.262.052-.262 3.306.524 6.664 1.362 9.917 2.096l9.917 2.148c.105 0 .105.157 0 .105zm-2.938.314c-4.041-1.257-8.081-1.939-12.226-2.567-.105 0-.052-.157 0-.157 4.145.367 8.29 1.414 12.226 2.619.104 0 .052.105 0 .105zm-1.837.839l-7.084-1.415c-.105 0-.052-.21.053-.21l7.084 1.467c.105 0 .052.157-.052.157zm6.139 2.776L91.52 72.313c-.157 0-.157-.314 0-.262l14.325 1.886c.105.052.105.157 0 .157zM95.35 80.905l-6.244-5.029-6.401-5.606c-.105-.105.052-.21.157-.157 2.151 1.677 4.145 3.615 6.244 5.396l6.244 5.396c.052 0 0 .052 0 0zm-5.982-2.567c-2.151-1.677-4.303-3.458-6.087-5.553-.105-.105.053-.314.157-.157l5.982 5.711c0-.052-.052 0-.052 0zm-3.41-.996c-.577-.524-1.154-1.1-1.574-1.781-.052-.052.053-.105.053-.052l1.574 1.781c.053.052 0 .105-.052.052zm25.396 1.625l-9.708-1.834c-.104-.052-.104-.262.053-.21 3.253.367 6.506 1.205 9.707 1.938.053 0 .053.105-.052.105zm-1.365.471c-1.521-.576-2.99-.786-4.565-1.048-.105 0-.052-.157 0-.157 1.575-.052 3.201.524 4.618 1.1.052 0 0 .105-.053.105zM59.04 48.58c1.154 1.1 2.676 1.572 4.145 2.043l4.355 1.414 8.343 2.567c5.772 1.362 11.806 1.677 17.63 2.567.105 0 .052.157 0 .157l-9.025-1.205c-3.148-.419-6.296-.733-9.34-1.519-2.991-.733-5.929-1.781-8.868-2.777-2.414-.786-5.51-1.31-7.294-3.248-.052.052 0-.052.053 0zM17.063-23.143c1.154 6.287 1.469 12.679.787 19.018-.682 6.235-2.414 12.207-4.25 18.232-3.411 11.107-5.037 22.58-4.722 34.159.157 5.344.735 10.793 2.571 15.874 1.05 2.882 2.466 5.606 3.883 8.278 4.355 8.121 9.34 15.874 14.692 23.366 6.559 9.221 13.747 18.127 22.195 25.724.315.262-.157.681-.42.419-7.556-6.339-13.852-14.093-19.729-21.952S20.789 83.944 15.961 75.404c-3.568-6.339-6.454-12.521-7.451-19.856-1.469-10.635-.944-22.004 1.417-32.482 1.627-7.23 4.46-14.146 5.982-21.376 1.732-8.121 1.941-16.556.735-24.729 0-.21.367-.367.42-.105z" />
    <path
        d="M46.395 55.757l.997 2.829c.053.105-.157.157-.21.052l-.892-2.829c-.052-.052.053-.105.105-.052zM17.85-3.811c-.052 3.039.525 5.973 1.994 8.592 1.259 2.253 3.253 4.034 4.355 6.339 1.889 4.139.052 8.435-.315 12.626-.42 5.134 2.676 8.278 5.719 11.945 2.046 2.462 3.988 5.291 3.568 8.697-.525 4.191-4.512 7.387-4.408 11.736.157 4.401 4.67 7.23 7.084 10.478 2.676 3.615 2.676 7.702 2.151 11.998-.682 5.553-1.049 10.688 2.204 15.612 1.207 1.886 3.411 3.248 4.04 5.449.262 1.048.157 2.148.262 3.248.157 1.677.525 3.406.945 5.03s.892 3.3 1.784 4.715c.787 1.205 2.046 2.043 2.991 3.143 1.469 1.729 2.151 3.72 2.361 5.921.052.733-1.05.681-1.102 0-.315-3.458-2.361-5.135-4.513-7.44-1.417-1.519-2.204-3.563-2.781-5.501-.577-2.2-.997-4.401-1.102-6.654-.105-1.781-.42-2.881-1.627-4.296-.735-.838-1.522-1.676-2.151-2.62-2.519-3.772-3.306-8.121-2.886-12.574.577-5.658 2.099-11.107-1.836-15.927-2.151-2.619-5.09-4.768-6.402-7.963-1.522-3.825.63-7.125 2.309-10.478 1.102-2.2 1.941-4.453 1.207-6.916-.63-2.148-2.204-3.929-3.673-5.553-2.256-2.62-4.775-5.239-5.352-8.749-.945-5.501 2.833-11.212-.157-16.451-1.312-2.305-3.253-4.087-4.25-6.601s-1.259-5.134-.892-7.806c.052-.262.472-.314.472 0z" />
    <path
        d="M17.693-5.855C17.326 6.038 1.952 8.972-.987 19.503c-.787 2.829-.472 5.763-1.049 8.645-.472 2.462-1.627 4.506-3.253 6.392-1.941 2.253-4.198 4.191-5.667 6.863a18.63 18.63 0 0 0-2.256 9.483c.105 3.248 1.259 6.077 2.833 8.854 1.417 2.462 2.833 4.82 3.201 7.649.367 2.986-.21 5.973.735 8.906 1.049 3.248 3.463 5.973 6.244 7.911 4.04 2.777 8.71 3.929 11.806 8.016 2.991 3.929 4.46 9.169 8.395 12.417 4.722 3.877 11.701 2.305 15.899 7.178 2.414 2.881 3.725 5.972 7.766 7.02 3.043.786 5.982.681 8.658 2.515.577.419 0 1.414-.577.995-2.781-1.991-5.982-1.729-9.13-2.776-2.204-.786-3.778-2.201-5.195-3.982-2.099-2.672-3.725-5.03-7.084-6.182-2.571-.891-5.3-1.048-7.871-2.096-4.617-1.886-6.874-6.235-9.235-10.321-1.259-2.148-2.571-4.296-4.408-6.025-2.414-2.2-5.562-3.248-8.29-4.925-4.198-2.515-7.766-6.601-8.448-11.631-.42-3.091.21-6.182-.787-9.169-.944-2.829-2.781-5.239-3.935-8.016-1.994-4.82-1.784-10.426.42-15.141 1.102-2.305 2.624-4.191 4.355-5.973 2.781-2.934 4.827-5.606 5.247-9.745.315-2.934.21-5.815 1.364-8.592 1.154-2.672 3.148-4.872 5.3-6.863 5.142-4.715 12.593-9.064 13.38-16.713 0-.262.262-.262.262-.052zm10.756 41.023c-6.139-6.392-11.124-13.674-15.584-21.323-.21-.367.367-.681.525-.314 4.145 7.806 9.445 14.827 15.164 21.533.105.052 0 .157-.105.105z" />
    <path
        d="M-8.018 36.792c6.087-9.221 14.115-17.551 21.408-25.829.367-.367.892.21.577.576-3.725 4.139-7.398 8.383-10.966 12.626s-6.926 8.749-10.809 12.783c-.105.105-.262-.052-.21-.157zm42.502 29.601a331.67 331.67 0 0 1-14.954-18.18c-4.145-5.344-8.133-10.74-10.757-16.975-.105-.262.315-.419.42-.105 2.729 6.863 7.294 12.679 11.859 18.389L34.59 66.287c.052.105-.053.157-.105.105zm-42.03 2.777C-5.919 57.382-.253 46.642 7.985 38.05c.367-.367.944.21.577.576C.272 47.061-5.027 57.748-7.546 69.17c.052.052 0 .052 0 0zm45.65 23.575c-5.037-6.182-10.704-11.84-16.056-17.76-5.142-5.763-9.55-11.893-13.17-18.704a.24.24 0 0 1 .42-.21c6.454 14.198 19.729 24.257 28.912 36.621.052.052-.053.105-.105.052zm-23.087 6.497C12.341 93.27 9.98 87.402 8.93 80.853c-1.049-6.444-.944-12.259 1.154-18.442.157-.419.839-.21.682.209-2.309 6.339-2.099 12.417-.997 18.966.997 6.025 2.728 12.155 5.352 17.656 0 0-.053.052-.105 0zm33.214 14.931c-4.303-2.881-7.084-7.387-10.914-10.845-3.673-3.3-7.818-6.391-10.337-10.74a.27.27 0 0 1 .472-.262c2.519 4.244 6.664 7.335 10.232 10.636 3.778 3.457 6.559 7.963 10.652 11.054.105.105 0 .262-.105.157zm-10.494 1.101c-1.312-3.091-3.778-5.501-5.824-8.121-1.889-2.462-3.725-5.03-5.3-7.702-2.886-4.872-5.142-10.426-5.772-16.136 0-.21.315-.262.315-.052.997 6.497 3.621 12.207 7.189 17.708 3.043 4.715 7.713 8.906 9.707 14.198.158.209-.21.314-.315.105zM13.81 12.535c1.994 3.196 4.303 6.077 6.559 9.064.105.105-.105.262-.21.157-2.519-2.724-4.617-5.92-6.506-9.168 0-.052.105-.105.157-.052zm2.466 2.305l2.151 3.039c.053.052-.052.105-.052.052-.787-.943-1.469-2.043-2.151-3.039-.053-.052.052-.105.052-.052zm.053-1.729c.892 1.1 1.889 2.253 2.414 3.563.052.105-.052.157-.105.052l-2.361-3.563c-.052-.052.052-.105.052-.052zm.997-.209l2.309 3.196c.052.052-.052.105-.105.052l-2.309-3.196c0-.052.052-.105.105-.052zm-.735-11.684c1.417 4.087 3.411 7.701 5.614 11.369.052.105-.105.157-.157.105-2.571-3.353-4.355-7.44-5.614-11.421-.052-.105.105-.157.157-.052zm2.046 7.387l1.574 2.462c.052.052-.053.157-.105.105-.577-.786-1.05-1.624-1.574-2.462-.105-.105.053-.157.105-.105zm.473 2.41c-.053 0-.053-.105 0-.105s.052.105 0 .105zM14.754 7.61C9.035 12.692 4.68 19.084-.567 24.637c-.052.052-.21 0-.157-.105 2.361-3.039 4.985-5.92 7.503-8.854 2.466-2.882 4.985-5.711 7.871-8.121.105-.052.157 0 .105.052zm-4.46 2.882c-2.519 2.462-4.88 4.977-6.874 7.963-.052.105-.21 0-.157-.105 1.732-3.091 4.46-5.554 6.979-7.911.052-.105.105 0 .052.052z" />
    <path
        d="M7.199 12.011c-.997 1.1-1.889 2.305-2.781 3.563-.052.105-.21 0-.157-.105.787-1.31 1.784-2.462 2.833-3.51.052-.052.105 0 .105.052zm18.365 41.336c-2.676-2.882-5.405-5.763-7.766-8.907-2.571-3.405-4.303-7.125-6.297-10.95-.052-.105.105-.21.157-.105 1.889 3.667 3.568 7.23 5.982 10.583 2.414 3.301 5.195 6.287 7.976 9.326.052 0 0 .105-.052.052zM9.98 25.999l4.46 8.435 4.88 8.068c.052.105-.105.157-.157.052l-4.932-8.068c-1.679-2.724-3.148-5.554-4.408-8.487 0 0 .105-.052.157 0zm.734-.838c2.991 8.278 9.13 14.722 13.328 22.319.053.105-.052.157-.105.052-4.46-7.387-10.389-14.093-13.328-22.371 0-.052.052-.052.105 0zm2.781 1.467c3.358 5.082 6.506 10.321 10.232 15.089.052.105-.052.21-.105.105-1.941-2.2-3.411-4.715-4.985-7.125l-5.195-8.016c-.105-.052 0-.105.053-.052zm4.355 2.619l5.247 6.811c.052.052-.053.157-.105.105l-5.142-6.916c-.053 0 0 0 0 0zm4.355 1.572l4.932 6.758c.052.052-.052.157-.105.052L22.1 30.872c-.052-.052.052-.105.105-.052zM14.02 62.516c1.522 2.62 3.516 4.977 5.457 7.335l5.982 7.073c4.093 4.767 8.343 9.273 12.593 13.884.105.105-.053.314-.157.157-4.46-4.611-8.71-9.483-12.908-14.303l-5.982-7.073c-1.837-2.253-3.673-4.453-5.09-7.02 0-.105.105-.157.105-.052zm22.772 25.881c-5.457-8.33-13.17-14.879-18.68-23.157-.053-.105.105-.157.157-.105 5.824 8.016 13.328 14.774 18.575 23.209.052.052 0 .052-.052.052zm-.315-1.834c-3.253-5.344-6.926-10.321-10.652-15.298-.053-.052.052-.157.105-.105 3.988 4.768 7.451 10.007 10.599 15.35.053.052 0 .105-.052.052zm.42-2.672c-2.466-4.139-5.247-7.963-8.29-11.683-.105-.105.053-.262.157-.157 3.148 3.615 5.877 7.597 8.238 11.788.052.052-.053.105-.105.052zM23.675 64.454A99.61 99.61 0 0 1 7.618 40.983c-.052-.157.157-.262.21-.105a102.43 102.43 0 0 0 15.951 23.471c.053.052-.052.157-.105.105zM8.248 38.992c3.725 6.339 8.343 12.207 12.593 18.18.052.052-.052.105-.105.052l-6.559-9.064c-2.099-2.986-4.303-5.868-6.087-9.116 0-.052.105-.157.157-.052zm.42-3.3c1.312 2.986 3.411 5.606 5.3 8.225l6.034 8.592c.052.105-.105.157-.157.105-2.151-2.882-4.198-5.815-6.244-8.749-1.836-2.567-3.83-5.134-5.037-8.068 0-.105.105-.157.105-.105zm2.991-16.399c-1.417.419-2.414 2.462-3.306 3.563L6.097 25.79.85 32.548c-3.358 4.296-6.559 8.645-9.392 13.307-.052.105-.262 0-.157-.105 2.833-4.872 6.297-9.326 9.707-13.726l5.614-7.23 2.728-3.51c.63-.838 1.207-1.834 2.309-2.096.053 0 .053.105 0 .105zM5.887 38.521c-2.781 3.51-5.562 7.073-7.766 11.002-2.309 4.087-3.725 8.54-5.352 12.941-.052.105-.21.052-.157-.052 1.364-4.453 2.991-8.906 5.352-12.993 2.256-3.877 5.037-7.44 7.923-10.897z" />
    <path
        d="M10.294 23.956C3.578 31.92-2.299 40.459-8.018 49.156c-.052.052-.105 0-.105-.052 2.676-4.558 5.824-8.854 8.92-13.15 2.991-4.139 6.034-8.225 9.392-12.05.105-.052.157 0 .105.052zM1.479 37.159c-1.784 2.096-3.253 4.348-4.722 6.654-.052.052-.157 0-.105-.052 1.312-2.41 2.991-4.61 4.722-6.654.052-.105.157-.052.105.052zm1.155-9.902c-4.985 5.554-9.13 11.631-12.96 18.023-.053.105-.21 0-.157-.105C-7.021 38.626-2.404 32.6 2.581 27.152c.052 0 .105.052.052.105zM9.717 58.22c-3.253 6.916-3.568 14.198-3.043 21.742 0 .105-.157.105-.21 0-.63-7.282-.525-15.246 3.096-21.795.105-.052.21 0 .157.052zm-.997-2.987C4.732 61.31 3.893 68.226 3.525 75.351a.08.08 0 0 1-.157 0C3.211 68.435 4.68 60.996 8.615 55.18c.052-.052.157 0 .105.052zm-2.466.682c-1.889 3.353-3.043 6.863-3.883 10.635 0 .105-.157.052-.157-.052.525-3.772 2.046-7.387 3.935-10.688 0-.052.157 0 .105.105zm-2.938 1.833c-.472 1.1-.84 2.2-1.154 3.353-.052.105-.21.052-.21-.052.262-1.153.735-2.305 1.207-3.353.105-.052.21 0 .157.052zm4.407-15.403C4.732 46.17 2.161 50.309.43 54.867-1.406 59.53-2.246 64.35-3.243 69.274c0 .105-.157.052-.157-.052 1.469-9.745 4.513-19.332 11.019-26.929.105-.052.157 0 .105.052zM.482 73.361c-.262 4.61.525 8.907 1.784 13.36.052.105-.157.157-.157.052C.535 82.582.167 77.814.43 73.361c0-.052.052-.052.052 0zm7.189 10.426l2.046 7.282c.052.157-.157.21-.21.052-.787-2.358-1.417-4.82-1.941-7.282 0-.105.105-.105.105-.052zm-.105 3.405l.682 2.096c.052.105-.105.157-.157.052-.262-.681-.472-1.415-.63-2.096 0-.105.105-.157.105-.052zm4.04-21.742c-2.256 5.187-1.732 11.107-1.102 16.608.63 5.554 2.046 10.845 3.988 16.084.053.052-.105.105-.105.052-2.309-5.134-3.463-10.845-4.04-16.398-.315-2.882-.472-5.763-.42-8.697 0-2.724.367-5.291 1.627-7.754-.052-.052.053 0 .053.105zm0 14.407c.367 6.811 1.732 13.412 3.883 19.856.052.105-.157.157-.21.052-2.256-6.392-3.463-13.15-3.778-19.908.052-.052.105-.052.105 0zm4.67-4.453c-.472 3.091-.682 6.182-.525 9.273.157 3.144.787 6.13 1.469 9.169.052.105-.157.157-.21.052-1.941-5.815-2.046-12.574-.84-18.546.053-.052.157 0 .105.052zm.63 8.068c.42 4.977 1.417 9.797 2.519 14.617 0 .105-.105.105-.157.052-1.417-4.715-2.099-9.745-2.466-14.669.052-.052.105-.052.105 0zm2.099 4.453c.315 3.091.997 6.13 1.941 9.064.052.105-.157.157-.21.052a38.58 38.58 0 0 1-1.889-9.116c.052-.052.157-.052.157 0zm14.849 22.686c-4.198-4.558-8.081-9.431-11.386-14.67-.053-.105.105-.157.157-.105 3.463 5.135 7.189 10.06 11.334 14.67.053.052-.052.157-.105.105zm-3.831-2.463c-2.571-1.938-4.775-4.296-6.244-7.177-.052-.105.105-.21.157-.105 1.574 2.777 3.568 5.239 6.139 7.178.052.052 0 .157-.053.104zM26.508 91.75c1.154 4.715 3.201 8.906 5.614 13.098.052.105-.105.157-.157.105-2.781-3.825-4.565-8.54-5.614-13.151.052-.052.157-.105.157-.052zm6.506 11.316c1.049 2.41 2.309 4.611 3.621 6.864.053.104-.105.209-.157.104-1.417-2.148-2.571-4.505-3.568-6.915-.052-.105.053-.157.105-.053zm4.146 5.344l1.102 2.253c.052.105-.105.157-.157.105l-1.102-2.253c0-.157.157-.209.157-.105zm10.336 11.841c-2.519-2.306-4.985-4.82-7.031-7.545-.052-.104.105-.209.157-.157 2.204 2.672 4.408 5.239 6.926 7.649 0 .053-.052.105-.052.053zm-4.827-3.406c-.892-.838-1.784-1.833-2.414-2.934-.052-.104.105-.209.157-.104.682 1.047 1.417 2.043 2.309 2.986.105 0 0 .105-.053.052zm-2.623-1.362c-.21-.314-.472-.576-.682-.891-.105-.104.105-.209.21-.104.21.314.42.576.682.89 0 .105-.157.21-.21.105zm.104-12.207c-2.781-2.724-5.824-5.03-8.815-7.492-.105-.052.052-.21.105-.157 3.201 2.096 6.087 4.872 8.763 7.597.105.052 0 .157-.053.052zm-.787-2.724c-2.361-1.991-4.932-3.563-7.503-5.292-.105-.052 0-.209.105-.157 2.728 1.362 5.195 3.353 7.503 5.344.052.105-.052.157-.105.105zm.473-.943c-3.253-3.51-6.874-6.444-10.757-9.221-.105-.052 0-.262.105-.157 3.988 2.515 7.608 5.815 10.756 9.273.053.052-.052.21-.105.105zM14.859 68.226c4.145 5.711 8.71 11.002 13.485 16.136.052.105-.052.21-.105.105-4.932-4.977-9.392-10.531-13.485-16.241-.053 0 .052-.052.105 0zm7.346 11.16l1.836 1.991c.052.105-.052.21-.105.105L22.1 79.49c-.157-.052 0-.157.105-.105zm4.775-17.604c2.781 2.305 5.405 4.82 7.766 7.597.105.105-.052.314-.21.209-2.361-2.777-4.88-5.344-7.661-7.649-.052-.105 0-.209.105-.157zm3.463 5.763a12.37 12.37 0 0 1 1.207 1.572c.053.105-.105.21-.157.105l-1.154-1.519c-.053-.157.052-.262.105-.157zM24.829-1.296c-1.994-1.729-5.877-5.291-4.722-8.33 1.417-3.772 7.556-1.467 9.97-.419 3.673 1.624 7.451 5.501 5.3 9.797-2.414 4.872-8.028 1.781-10.704-.943-.367-.367.158-.891.525-.524 1.469 1.31 2.991 2.724 5.037 3.039 2.833.472 4.932-1.572 4.827-4.401-.157-3.772-4.145-5.815-7.241-6.916-1.417-.524-3.043-.995-4.565-.786-2.623.419-2.991 2.253-1.941 4.296.944 1.781 2.414 3.405 3.725 4.872.315.21 0 .524-.21.314z" />
    <path
        d="M34.903.013c1.837 1.257 4.145 2.934 3.83 5.501-.157 1.415-1.469 3.825-3.201 3.301-.262-.105-.157-.524.105-.419 1.049.314 1.837-.943 2.204-1.677.577-1.1.577-2.2.053-3.353-.63-1.362-1.941-2.253-3.096-3.143-.21-.052-.052-.314.105-.21z" />
    <path
        d="M34.903-6.745c3.778-.472 8.553 2.043 9.235 6.025.577 3.405-1.941 6.968-5.614 6.496-.42-.052-.472-.786 0-.681 4.303.576 6.244-4.715 4.04-7.911-1.574-2.305-4.985-3.772-7.713-3.772-.053 0-.053-.157.052-.157z" />
    <path
        d="M41.252 4.886c1.522 1.467 4.88 5.291 2.466 7.282-.105.105-.262 0-.21-.157 1.102-2.515-1.154-4.977-2.466-6.916-.157-.157.105-.314.21-.21zm2.781-3.772c2.519.314 4.617 2.148 4.827 4.768.157 2.305-1.417 5.344-4.04 5.239-.367 0-.367-.576 0-.576 2.571.157 3.83-3.039 3.411-5.134-.42-2.148-2.204-3.563-4.25-3.982-.157-.052-.105-.314.052-.314zM21.786-5.069c-4.67-1.31-3.62 4.925-2.466 7.178 1.102 2.096 2.361 3.982 4.985 4.139.367 0 .525.524.21.681-3.358 1.938-6.349-4.558-6.821-6.916-.63-2.829.525-7.073 4.198-5.239 0 .052-.052.157-.105.157zm2.938 23.367c.315.891.735 1.729 1.364 2.41.315.314.682.629 1.154.733.42.052.735-.157 1.102-.052.315.052.367.419.262.629-.525 1.1-2.151.314-2.729-.314-.84-.891-1.259-2.148-1.417-3.353-.053-.157.21-.21.262-.052z" />
    <path
        d="M26.246 13.792c-.63.367-1.679.576-2.309.105-.262-.21-.105-.576.21-.524s.63.21.944.262c.367.052.735.052 1.049-.052.105 0 .21.157.105.209zm-.105 7.492c.367 2.305-.472 4.925-2.466 6.287-.315.209-.682-.262-.42-.524 1.732-1.572 2.729-3.353 2.676-5.763 0-.105.157-.105.21 0zM12.97-5.592C9.35-3.915 7.88 2.267 11.238 4.886c.315.262.157.733-.262.681C8.457 4.991 8.248 1.9 8.562-.248c.367-2.62 1.732-4.768 4.303-5.501.157-.052.21.157.105.157zM44.873 1.69c-.472 1.467-1.417 3.72-3.306 3.72-.21 0-.21-.262-.053-.314.84-.262 1.469-.576 2.046-1.257.525-.629.892-1.415 1.207-2.2.053-.105.157-.052.105.052z" />
    <path
        d="M45.87 2.633c-.577.629-.892 1.415-1.417 2.043-.525.576-1.207.786-1.994.786-.21 0-.157-.262 0-.262 1.05-.105 1.627-.367 2.256-1.205.367-.472.63-.995 1.102-1.415 0-.105.105 0 .052.052z" />
    <path
        d="M41.882 4.99c1.732 1.415 2.886 3.772 2.938 6.025 0 .157-.21.21-.262.052-.315-2.358-1.102-4.244-2.676-6.077-.052 0 0-.052 0 0zm.63-.314c1.417 1.1 2.676 2.934 2.624 4.82 0 .105-.157.157-.21.052-.42-1.886-1.05-3.458-2.519-4.768-.105-.052 0-.157.105-.105zm.577-.314c1.259.838 2.361 2.253 2.519 3.825 0 .105-.157.157-.21.052-.525-1.467-1.102-2.724-2.414-3.72-.053-.105 0-.21.105-.157zm1.417-.053c.577.786 1.049 1.572 1.417 2.462.053.105-.105.105-.157.052-.315-.891-.787-1.677-1.364-2.462 0-.052.052-.052.105-.052zm-.21-2.043c1.207.943 1.994 2.253 2.414 3.72.053.105-.157.21-.21.052-.367-1.467-1.154-2.724-2.204-3.772-.105.052-.052 0 0 0zm2.098 1.677c.105.052.158.157.262.21.053.052 0 .105-.052.052-.105-.052-.157-.157-.262-.21-.053-.052 0-.105.052-.052zM35.271-.511c.944.576 1.837 1.257 2.624 2.043.525.576 1.259 1.31.944 2.148-.052.157-.315.157-.315-.052.053-1.677-2.046-3.196-3.358-4.034-.053 0 0-.157.105-.105zm.21-.89c1.049.576 2.151 1.31 2.781 2.358.105.157-.105.314-.262.21-.84-.891-1.522-1.781-2.571-2.41-.052-.052 0-.157.053-.157zm.105-.524c1.731.681 3.568 2.2 4.145 4.034.053.157-.21.262-.315.105-.525-.838-.892-1.677-1.574-2.358a10.63 10.63 0 0 0-2.309-1.729c-.053 0 0-.105.053-.052zm.314-.891c1.732 1.048 3.463 2.62 4.303 4.453.105.21-.157.367-.315.157-1.259-1.729-2.361-3.248-4.145-4.453-.053-.052.052-.21.157-.157zm-.577 3.51c-.735 1.781-3.096 1.624-4.67 1.519-2.204-.157-4.25-.995-5.667-2.724-.157-.157.105-.419.262-.262 1.102 1.362 2.624 2.2 4.355 2.515 1.627.314 4.722.733 5.614-1.1 0-.105.157-.052.105.052z" />
    <path
        d="M35.271 1.009c-2.624 1.834-5.614 2.777-8.186.314-.157-.105.052-.367.21-.262 1.312.733 2.309 1.572 3.883 1.415 1.469-.105 2.781-.891 3.988-1.572.105-.105.157.052.105.105z" />
    <path
        d="M26.823 1.271c1.627 1.938 4.04 1.572 6.244 1.467.315 0 .315.472 0 .524-2.309.314-4.932.157-6.401-1.886 0-.105.105-.157.157-.105z" />
    <path
        d="M24.776-1.454c2.414 3.458 5.3 7.073 10.022 5.92.21-.052.315.262.157.314-4.46 2.043-8.238-2.986-10.284-6.182-.053-.052.052-.105.105-.052z" />
    <path
        d="M28.712 2.947c1.784.995 3.463.838 5.404.524.105 0 .262.157.105.21-1.784.786-3.935.262-5.562-.681-.105 0 0-.105.053-.052zM29.919 4.1c1.364 1.153 2.781 1.362 4.512 1.572.157 0 .21.262.053.314-1.679.262-3.463-.629-4.67-1.781-.052-.052.052-.157.105-.105z" />
    <path
        d="M32.804 7.139a9.04 9.04 0 0 1 1.154-.262c.105 0 .157.157.053.157-.367.105-.787.157-1.154.262-.105 0-.157-.105-.053-.157zM27.715.799c.682 1.31 1.574 2.62 2.099 4.034.052.157-.157.21-.21.105-.787-1.205-1.364-2.724-2.046-4.034-.053-.105.105-.157.157-.105z" />
    <path
        d="M30.233 2.319l.63 1.677c.21.524.525 1.1.63 1.624.053.157-.157.21-.21.105-.577-.943-.892-2.305-1.154-3.353 0-.052.053-.105.105-.052zm1.994-.42l.787 3.353c0 .105-.157.157-.21.052-.315-1.1-.525-2.253-.735-3.353-.052-.105.105-.157.157-.052zm1.627.839l.577 2.043c.053.105-.157.21-.21.052l-.525-2.043c0-.105.105-.157.157-.052zm1.836.157c.053.21.053.472.105.681 0 .157-.157.21-.21.052-.053-.21-.053-.472-.105-.681 0-.105.21-.157.21-.052zm1.47.629c.682.524 1.049 1.834.315 2.515-.105.105-.21 0-.157-.157.367-.786.472-1.624-.262-2.253-.052-.052.052-.157.105-.105zm-.945 1.047c.105.21.21.419.367.629.053.105-.105.21-.157.105l-.315-.629c-.053-.105.052-.157.105-.105zm-.892-9.325c.997 1.781.997 3.825 0 5.553-.105.157-.315 0-.262-.157.945-1.677 1.05-3.615.157-5.344-.052-.052.053-.157.105-.052zm.997.576c.787 1.677.944 3.982-.367 5.449-.105.105-.21-.052-.157-.157.787-1.781 1.207-3.353.367-5.239 0-.052.105-.105.157-.052z" />
    <path
        d="M37.002-4.597c.682 2.043.63 4.506-.682 6.339-.053.105-.21 0-.157-.105.945-2.043 1.417-3.982.682-6.182 0-.105.105-.105.157-.052zm.892 3.72L37.632.694c0 .105-.21.052-.157-.052l.262-1.572c.052-.105.157-.052.157.052zm.682 1.362l-.262 1.1c-.052.105-.21.052-.21-.052l.262-1.1c.105-.105.262-.052.21.052zm.84 1.624c-.052 0-.052-.105 0-.105.053.052.053.105 0 .105zm5.299 3.248l-1.154 1.677c-.053.105-.21 0-.157-.105.367-.576.84-1.1 1.207-1.624.053-.105.157-.052.105.052zm1.417 2.515c-.21.105-.367.21-.577.262-.052 0-.052-.052-.052-.105.157-.105.367-.21.525-.262.105 0 .157.105.105.105zM41.62 5.724c-.997.367-2.099.733-3.148.733-.157 0-.21-.262-.053-.262l3.148-.576c.105-.105.157.052.052.105zm.472.576l-2.834.838c-.42.105-.84.105-1.154-.21-.105-.105.052-.314.157-.21.577.419 1.259.105 1.889-.052l1.942-.472c.052-.052.105.105 0 .105zM40.99 7.558c-1.102.681-2.466.995-3.778.733-.157-.052-.157-.367.052-.314 1.312.157 2.466.052 3.621-.524.105-.105.21.052.105.105zM39.049 8.92c-.787.052-1.522.052-2.309-.052-.157 0-.157-.262.052-.262.735.157 1.522.157 2.256.157.053.052.053.157 0 .157z" />
    <path
        d="M39.101 5.672a13.47 13.47 0 0 1-1.102 2.724c-.315.576-.682 1.362-1.417 1.519-.21.052-.315-.314-.105-.367.735-.21 1.154-1.205 1.522-1.834.367-.681.682-1.362.945-2.096.052-.105.21-.052.157.052z" />
    <path
        d="M40.098 5.776c-.21 1.153-.682 2.2-1.364 3.196-.21.314-.892 1.467-1.364.891-.105-.157.052-.367.21-.262.315.21 1.364-1.572 1.469-1.834.367-.629.63-1.31.84-2.043.053-.105.262-.052.21.052zm.682.996c-.157 1.257-.577 2.882-1.627 3.772-.105.052-.21 0-.157-.105.315-.576.735-1.048.997-1.624.315-.629.472-1.31.577-2.043.053-.105.21-.105.21 0zm.892 1.833c-.157.314-.262.629-.472.943-.053.105-.21.052-.157-.052.105-.314.315-.629.472-.995.053-.105.21 0 .157.105zm.472.839c-.052.21-.157.367-.21.576-.053.105-.262.052-.21-.052.052-.21.157-.367.21-.576.052-.157.262-.105.21.052zm1.155.995v.314c0 .105-.21.105-.21 0s0-.21-.052-.314c0-.105.262-.105.262 0zM22.048-3.13c.735 3.039.315 6.025-1.102 8.802-.105.157-.315 0-.21-.157 1.417-2.672 1.784-5.658 1.207-8.645-.053-.052.105-.105.105 0zm.63 3.458c.315 1.781.21 3.772-.735 5.396-.053.105-.315.052-.262-.105.63-1.781 1.049-3.353.84-5.291 0-.052.157-.105.157 0zm.787 3.405c-.052.681-.157 1.519-.577 2.096-.052.052-.21.052-.157-.052l.367-.943.262-1.1c0-.052.157-.052.105 0zm.157 2.201l-.157.157c-.052.052-.157-.052-.105-.105l.157-.157c.053-.052.157.052.105.105zm.42.785l1.259 7.23c0 .157-.262.21-.262.052-.525-2.358-.787-4.82-1.049-7.23-.052-.105 0-.105.052-.052zm-.945.21c.735 1.415 1.312 3.248 1.364 4.82 0 .157-.262.21-.315.052-.21-.786-.262-1.624-.472-2.41l-.682-2.41c0-.052.105-.105.105-.052zm-.787-.472l.997 3.772c.052.262-.315.367-.367.105l-.735-3.877c-.053-.052.105-.105.105 0z" />
    <path
        d="M21.156 6.143a24.8 24.8 0 0 1 2.361 3.72c.105.21-.21.367-.262.157-.577-1.31-1.312-2.62-2.099-3.877-.052 0 0 0 0 0zm4.355 7.073c.892 2.462 1.679 5.344 1.732 7.964 0 .157-.21.157-.262.052-.682-2.567-1.049-5.344-1.574-7.963 0-.105.105-.105.105-.052zm-.367.314c.682 2.253 1.102 4.715.84 7.073 0 .157-.315.21-.315 0 .105-2.41 0-4.715-.682-7.02.052-.105.157-.157.157-.052z" />
    <path d="M25.091 14.211c.315 2.2.735 4.558.577 6.758a.16.16 0 0 1-.315 0l-.42-6.758c0-.052.105-.105.157 0z" />
    <path
        d="M25.144 15.678c.21 2.724.262 5.501-.367 8.173-.052.21-.367.157-.367-.052.315-2.724.682-5.396.525-8.121 0-.105.157-.105.21 0z" />
    <path
        d="M25.721 19.974c-.157 1.886-.315 3.929-1.102 5.711-.052.157-.262.052-.262-.105l1.154-5.606c.053-.105.21-.105.21 0z" />
    <path
        d="M26.508 20.76c-.42 1.467-.84 3.143-1.627 4.401-.052.105-.21.052-.157-.052.472-1.467 1.207-2.881 1.679-4.401 0-.105.157-.052.105.052zm.42-1.624c.157.629.262 1.362.157 1.991 0 .105-.157.052-.157 0 0-.681 0-1.31-.105-1.938-.052-.157.105-.157.105-.052zm-.997-2.148l-.472-1.31c-.053-.105.105-.105.157-.052l.472 1.31c0 .105-.157.105-.157.052zM23.937 7.82c-.63-.052-1.259-.262-1.889-.524-.157-.052 0-.262.105-.21.577.262 1.154.472 1.784.576.105.052.105.21 0 .157zm.944 1.624a4.55 4.55 0 0 1-1.679-.314c-.158-.052-.053-.262.105-.21.525.21 1.049.367 1.627.367.052 0 .052.157-.053.157zm.368 2.2c-.525-.052-.997-.21-1.417-.471-.105-.052 0-.262.105-.157a4.05 4.05 0 0 0 1.312.524c.105-.052.105.105 0 .105zm.21 1.729c-.472 0-.944-.052-1.417-.052-.157 0-.157-.262 0-.262l1.417.157a.08.08 0 0 1 0 .157zm.052 3.196c-.315-.052-.63-.052-.944-.105-.157 0-.157-.262.052-.21l.944.157c.052 0 .052.21-.052.157zm.892 2.043c-.42.105-.892.157-1.312.052-.157-.052-.105-.314.052-.262.42.105.787.052 1.207-.052.105 0 .21.21.052.262zm-.367 2.305c-.105 0-.105-.21 0-.21.158 0 .158.21 0 .21z" />
    <path
        d="M24.986 19.346l-.157-.157c-.052-.052.052-.157.105-.105l.157.157c.105.052 0 .157-.105.105zM11.764-2.711c-.053 0-.053 0 0 0-.053-.052-.053-.052-.053-.105.053-.105.053-.105.157-.105 0 0 .053 0 .053.052.053.419-.42.838-.577 1.257-.262.733-.105 1.362 0 2.148.053.157-.21.314-.315.157-.262-.524-.262-1.205-.157-1.781.052-.314.21-.576.315-.838.052-.052.577-.786.577-.786h0zm-1.207 1.415c-.105.576-.053 1.1 0 1.624 0 .157-.21.157-.262.052-.157-.576-.053-1.153.105-1.729 0-.105.21-.052.157.052zm.052 3.51v.157a.08.08 0 0 1-.157 0v-.157c-.053-.105.157-.105.157 0zm2.047-7.545c.262 2.253 1.364 3.877 2.886 5.449.105.105-.052.314-.157.21-1.784-1.257-2.729-3.51-2.886-5.658a.08.08 0 0 1 .157 0z" />
    <path
        d="M12.288-3.287c.63 1.415 1.574 2.41 2.676 3.51.105.105-.053.367-.21.262-1.207-.891-2.046-2.358-2.571-3.72 0-.052.105-.105.105-.052z" />
    <path
        d="M12.97-1.192A4.86 4.86 0 0 0 13.914.38c.105.105-.053.262-.157.157a3.99 3.99 0 0 1-.892-1.677c-.052-.052.105-.105.105-.052zm1.889.577c-.892 1.886-2.256 3.51-3.988 4.61-.21.157-.42-.21-.21-.314 1.732-1.1 3.148-2.515 4.093-4.348 0-.105.105-.052.105.052z" />
    <path
        d="M15.646-.301c-1.259 1.624-2.781 3.563-4.617 4.61-.105.052-.262-.105-.157-.21.735-.786 1.679-1.362 2.466-2.096S14.859.485 15.594-.353c0-.052.105 0 .052.052zm-.367-1.519c-1.207 1.991-2.728 3.825-4.565 5.239-.157.105-.315-.157-.21-.262 1.836-1.467 3.411-3.091 4.67-5.082.052-.052.157 0 .105.105z" />
</svg>