<svg version="1.1" id="Layer_1" xmlns="http://www.w3.org/2000/svg" x="0px" y="0px" viewBox="0 0 38 24"
    style="enable-background:new 0 0 38 24;" xmlns:xlink="http://www.w3.org/1999/xlink" xml:space="preserve">
    <style>
        .st0 {
            fill: none;
        }

        .st1 {
            fill: #F4F4F4;
        }

        .st2 {
            fill: #FFFFFF;
        }

        .st3 {
            fill: #FF5F00;
        }

        .st4 {
            fill: #EB001B;
        }

        .st5 {
            fill: #F79E1B;
        }
    </style>
    <g>
        <rect x="-54.5" y="-48.1" class="st0" width="146.8" height="120.4"></rect>
        <g>
            <path
                d="M2.4,23.8c-1.3,0-2.3-1-2.3-2.3V2.4c0-1.3,1-2.3,2.3-2.3h33.2c1.3,0,2.3,1,2.3,2.3v19.2c0,1.3-1,2.3-2.3,2.3H2.4z">
            </path>
            <path class="st1"
                d="M35.6,0.2c1.2,0,2.2,1,2.2,2.2v19.2c0,1.2-1,2.2-2.2,2.2H2.4c-1.2,0-2.2-1-2.2-2.2V2.4c0-1.2,1-2.2,2.2-2.2 			H35.6 M35.6,0H2.4C1.1,0,0,1.1,0,2.4v19.2c0,1.3,1.1,2.4,2.4,2.4h33.2c1.3,0,2.4-1.1,2.4-2.4V2.4C38,1.1,36.9,0,35.6,0L35.6,0z">
            </path>
        </g>
        <g>
            <path class="st2"
                d="M12.2,20.6v-1.1c0-0.4-0.3-0.7-0.6-0.7c0,0-0.1,0-0.1,0c-0.3,0-0.5,0.1-0.6,0.3c-0.1-0.2-0.4-0.3-0.6-0.3 			c-0.2,0-0.4,0.1-0.5,0.3v-0.2H9.3v1.8h0.4v-1c0-0.2,0.1-0.4,0.4-0.5c0,0,0.1,0,0.1,0c0.3,0,0.4,0.2,0.4,0.5v1H11v-1 			c0-0.2,0.1-0.5,0.4-0.5c0,0,0,0,0.1,0c0.3,0,0.4,0.2,0.4,0.5v1L12.2,20.6z M18.2,18.8h-0.6v-0.6h-0.4v0.6h-0.4v0.4h0.4V20 			c0,0.4,0.2,0.7,0.6,0.7c0.2,0,0.3,0,0.5-0.1l-0.1-0.3c-0.1,0.1-0.2,0.1-0.4,0.1c-0.2,0-0.3-0.1-0.3-0.3v-0.8h0.6V18.8z M21.5,18.8 			c-0.2,0-0.4,0.1-0.5,0.3v-0.2h-0.4v1.8h0.4v-1c0-0.3,0.1-0.5,0.4-0.5c0.1,0,0.2,0,0.2,0l0.1-0.4C21.7,18.8,21.6,18.8,21.5,18.8 			L21.5,18.8z M16.4,18.9c-0.2-0.1-0.5-0.2-0.7-0.2c-0.5,0-0.8,0.2-0.8,0.6c0,0.3,0.2,0.5,0.6,0.5l0.2,0c0.2,0,0.3,0.1,0.3,0.2 			c0,0.1-0.1,0.2-0.4,0.2c-0.2,0-0.4-0.1-0.6-0.2l-0.2,0.3c0.2,0.2,0.5,0.2,0.8,0.2c0.5,0,0.8-0.2,0.8-0.6c0-0.3-0.2-0.5-0.6-0.5 			l-0.2,0c-0.2,0-0.3-0.1-0.3-0.2c0-0.1,0.1-0.2,0.3-0.2c0.2,0,0.4,0.1,0.6,0.2L16.4,18.9z M27,18.8c-0.2,0-0.4,0.1-0.5,0.3v-0.2 			h-0.4v1.8h0.4v-1c0-0.3,0.1-0.5,0.4-0.5c0.1,0,0.2,0,0.2,0l0.1-0.4C27.2,18.8,27.1,18.8,27,18.8L27,18.8z M21.9,19.7 			c0,0.5,0.4,0.9,0.9,1c0,0,0.1,0,0.1,0c0.2,0,0.5-0.1,0.7-0.2l-0.2-0.3c-0.1,0.1-0.3,0.2-0.5,0.2c-0.3,0-0.6-0.3-0.5-0.6 			c0-0.3,0.3-0.5,0.5-0.5c0.2,0,0.3,0.1,0.5,0.2l0.2-0.3c-0.2-0.2-0.4-0.2-0.7-0.2C22.4,18.7,22,19.1,21.9,19.7 			C21.9,19.7,21.9,19.7,21.9,19.7L21.9,19.7z M25.7,19.7v-0.9h-0.4V19c-0.1-0.2-0.4-0.3-0.6-0.3c-0.5,0-0.9,0.5-0.9,1 			c0,0.5,0.4,0.9,0.9,0.9c0.2,0,0.4-0.1,0.6-0.3v0.2h0.4V19.7z M24.2,19.7c0-0.3,0.3-0.5,0.6-0.5c0.3,0,0.5,0.3,0.5,0.6 			c0,0.3-0.3,0.5-0.5,0.5C24.4,20.3,24.2,20.1,24.2,19.7C24.2,19.7,24.2,19.7,24.2,19.7z M19.4,18.8c-0.5,0-0.9,0.5-0.9,1 			c0,0.5,0.4,0.9,0.9,0.9c0.3,0,0.5-0.1,0.7-0.3L20,20.1c-0.2,0.1-0.3,0.2-0.5,0.2c-0.3,0-0.5-0.2-0.5-0.4h1.4c0,0,0-0.1,0-0.2 			C20.3,19.1,19.9,18.8,19.4,18.8L19.4,18.8z M19.4,19.1c0.2,0,0.5,0.2,0.5,0.4h-0.9C18.9,19.3,19.1,19.1,19.4,19.1L19.4,19.1z 			 M29.3,19.7v-1.6h-0.4v1c-0.1-0.2-0.4-0.3-0.6-0.3c-0.5,0-0.9,0.5-0.9,1c0,0.5,0.4,0.9,0.9,0.9c0.2,0,0.4-0.1,0.6-0.3v0.2h0.4 			V19.7z M30,20.4C30,20.4,30,20.4,30,20.4c0.1,0,0.1,0,0.1,0.1c0,0,0,0,0,0.1c0,0,0,0.1,0,0.1c0,0,0,0,0,0.1c0,0,0,0-0.1,0 			c0,0,0,0-0.1,0c-0.1,0-0.1,0-0.2-0.1c0,0,0-0.1,0-0.1c0,0,0,0,0-0.1C29.9,20.4,29.9,20.4,30,20.4C29.9,20.4,30,20.4,30,20.4 			L30,20.4z M30,20.7C30,20.7,30,20.7,30,20.7C30.1,20.7,30.1,20.7,30,20.7c0.2-0.1,0.2-0.2,0.1-0.2c0,0,0,0,0,0c0,0,0,0-0.1,0 			c0,0,0,0-0.1,0c0,0,0,0,0,0c-0.1,0.1-0.1,0.1,0,0.2C29.9,20.7,29.9,20.7,30,20.7C30,20.7,30,20.7,30,20.7L30,20.7z M30,20.5 			C30,20.5,30,20.5,30,20.5C30.1,20.5,30.1,20.5,30,20.5C30.1,20.5,30.1,20.5,30,20.5c0,0.1,0,0.1,0,0.1l0.1,0.1h0L30,20.6h0v0.1h0 			L30,20.5L30,20.5z M30,20.5L30,20.5L30,20.5C30,20.5,30,20.5,30,20.5C30,20.5,30,20.5,30,20.5C30,20.5,30,20.5,30,20.5 			C30,20.5,30,20.5,30,20.5L30,20.5z M27.9,19.7c0-0.3,0.3-0.5,0.6-0.5c0.3,0,0.5,0.3,0.5,0.6c0,0.3-0.3,0.5-0.5,0.5 			C28.1,20.3,27.9,20.1,27.9,19.7C27.9,19.7,27.9,19.7,27.9,19.7z M14.5,19.7v-0.9h-0.4V19c-0.1-0.2-0.4-0.3-0.6-0.3 			c-0.5,0-0.9,0.5-0.9,1c0,0.5,0.4,0.9,0.9,0.9c0.2,0,0.4-0.1,0.6-0.3v0.2h0.4V19.7z M13,19.7c0-0.3,0.3-0.5,0.6-0.5 			c0.3,0,0.5,0.3,0.5,0.6c0,0.3-0.3,0.5-0.5,0.5C13.2,20.3,13,20.1,13,19.7C13,19.7,13,19.7,13,19.7L13,19.7z">
            </path>
            <g>
                <rect x="16.3" y="4.9" class="st3" width="6" height="10.8"></rect>
                <path class="st4"
                    d="M16.7,10.3c0-2.1,1-4.1,2.6-5.4c-3-2.3-7.3-1.8-9.6,1.2c-2.3,3-1.8,7.3,1.2,9.6c2.5,2,6,2,8.5,0 				C17.6,14.4,16.7,12.4,16.7,10.3z">
                </path>
                <path class="st5"
                    d="M30.4,10.3c0,3.8-3.1,6.9-6.9,6.9c-1.5,0-3-0.5-4.2-1.5c3-2.3,3.5-6.7,1.2-9.6c-0.3-0.4-0.7-0.8-1.2-1.2 				c3-2.3,7.3-1.8,9.6,1.2C29.9,7.3,30.4,8.8,30.4,10.3L30.4,10.3z">
                </path>
                <path class="st5"
                    d="M29.7,14.6v-0.2h0.1v0h-0.2v0h0.1L29.7,14.6L29.7,14.6z M30.2,14.6v-0.3h-0.1L30,14.5L30,14.3h-0.1v0.3h0 				v-0.2l0.1,0.2h0.1l0.1-0.2L30.2,14.6L30.2,14.6z">
                </path>
            </g>
        </g>
    </g>
</svg>