<svg width="16" height="30" viewBox="0 0 16 30" fill="none" xmlns="http://www.w3.org/2000/svg">
<path d="M6.21384 20.5383L5.9919 20.4405L5.89326 20.0974L5.76997 19.5831C5.27677 19.2402 4.88223 18.7013 4.70961 18.04C4.53699 18.3829 4.36437 18.7013 4.21642 18.9953C3.13139 20.9792 2.3916 22.4979 2.49025 23.894L2.51491 24.678C4.11778 25.4861 5.91793 25.9516 7.81671 25.9516C9.27162 25.9516 10.6773 25.6821 11.9842 25.1923L11.0965 24.5554L10.3813 24.6289L10.1841 24.6534L9.98675 24.58C9.93743 24.5554 9.66617 24.4329 9.3456 24.188C8.82775 24.5554 8.21127 24.7514 7.54545 24.7514C5.84395 24.7514 4.46302 23.3797 4.46302 21.6896V20.5629H6.21384V20.5383Z" fill="black"/>
<path d="M9.86355 19.6319L9.74025 20.0972L9.66628 20.4402L9.44434 20.5626H9.61696C9.86355 20.4646 10.1595 20.4157 10.48 20.4157C10.8253 20.4157 11.0965 20.4646 11.1458 20.4892L11.3184 20.5381L11.4664 20.6606L12.5268 21.5424L12.65 21.5915C12.3541 20.7831 11.8856 20.0483 11.3924 19.2399C11.2198 18.9705 11.0472 18.7011 10.8746 18.4072C10.6773 18.9216 10.3074 19.3379 9.86355 19.6319Z" fill="black"/>
<path d="M15.2643 3.02449L14.8697 3.63685C14.845 3.68583 14.0806 4.78807 11.8859 5.00852C10.0118 5.20448 8.9514 5.9148 8.72947 7.09051C8.6555 7.48242 8.58152 7.92332 8.53219 8.26623C8.33492 8.21725 7.57047 8.19276 7.22525 8.29072C7.17592 7.94781 7.10194 7.50691 7.02797 7.09051C6.80604 5.9148 5.74567 5.20448 3.87156 5.00852C1.67685 4.76357 0.912405 3.66134 0.887745 3.63685L0.46853 3L0.271256 3.71033C0.147959 4.17572 0.147956 5.20448 0.715125 6.06177C1.18366 6.77209 1.89879 7.18849 2.86051 7.33546C3.47699 7.43343 3.8962 7.67838 4.1428 8.09478C4.43872 8.60915 4.41406 9.2705 4.34007 9.78486C4.04417 9.56442 3.60028 9.24599 3.20574 9.09903C2.56459 8.82961 0.690465 8.58465 0.46853 8.56016L0 8.51118L0.0986366 8.97656C0.345232 9.98082 1.20832 10.8871 2.34266 11.3525C2.73721 11.4995 3.13177 11.5974 3.50165 11.5974C3.67427 11.5974 3.82223 11.5729 3.97019 11.5484C3.94553 11.8669 3.92086 12.2098 3.92086 12.5282C3.92086 12.9936 4.24144 13.8754 4.63599 14.7082C4.41406 15.2226 3.52632 17.2311 2.90982 18.3334C1.7015 20.5378 0.770424 22.5374 0.918382 24.3255L1.60884 24.7909C1.48555 23.1743 2.36732 20.7582 3.50165 18.6517C3.99485 17.7454 4.63599 16.3493 5.00588 15.5165C5.25247 16.0309 5.47442 16.4473 5.57305 16.6677C5.54839 16.7657 5.52373 16.8147 5.52373 16.8392C5.10452 17.9903 5.86897 18.7987 6.3375 19.0681L6.38681 19.0926H6.41147L6.65807 19.901L7.00331 20.0724L7.61979 21.346H5.25248V21.6891C5.25248 22.9381 6.28818 23.967 7.54582 23.967C8.2856 23.967 8.9514 23.6241 9.37063 23.0852C9.69119 23.5996 10.3077 23.869 10.3077 23.869L11.3187 23.771L14.4505 26L14.5985 25.9755C14.623 25.9755 15.3382 25.8285 15.6342 25.2406C15.8314 24.8488 15.8067 24.3588 15.5601 23.8199L15.5108 23.6975L14.5245 23.2567C14.4258 21.2482 13.5874 19.901 12.675 18.4558C12.0338 17.4025 11.368 16.3248 10.9488 14.9531C11.368 14.0223 11.7626 12.9936 11.7626 12.5037C11.7626 12.1853 11.7379 11.8424 11.7133 11.524C11.8612 11.5484 12.0092 11.5729 12.1818 11.5729C12.5517 11.5729 12.9216 11.4995 13.3408 11.328C14.4751 10.8871 15.3629 9.95633 15.5848 8.95207L15.6835 8.48668L15.215 8.53567C14.993 8.56016 13.1189 8.8051 12.4777 9.07454C12.0832 9.24599 11.6393 9.53993 11.3434 9.76037C11.2694 9.2705 11.2447 8.58465 11.5407 8.07028C11.7873 7.65389 12.2065 7.40894 12.823 7.31096C13.7847 7.164 14.5245 6.7476 14.9684 6.03726C15.5355 5.17997 15.5355 4.12673 15.4122 3.68583L15.2643 3.02449ZM2.95914 9.6869C3.13177 9.76037 3.32903 9.88284 3.52632 10.0053C3.47699 10.0053 3.45233 10.0053 3.40301 9.98082C2.88516 9.90735 2.34266 9.80937 1.60287 9.36848C2.17004 9.46644 2.71254 9.58892 2.95914 9.6869ZM2.63858 10.6912C2.34266 10.5687 2.04674 10.3972 1.75083 10.1768C2.36732 10.4707 2.86051 10.5442 3.32904 10.6177C3.60028 10.6667 3.8469 10.6912 4.09348 10.7891C3.72359 10.9606 3.18108 10.9116 2.63858 10.6912ZM12.749 9.6869C12.9956 9.58892 13.5134 9.46644 14.0559 9.39297C13.3162 9.83386 12.7736 9.90735 12.2558 10.0053C12.2311 10.0053 12.2065 10.0053 12.1818 10.0053C12.3791 9.88284 12.5764 9.76037 12.749 9.6869ZM12.3791 10.6422C12.8476 10.5687 13.3655 10.4952 14.0313 10.1523C13.7354 10.3972 13.4148 10.5932 13.0942 10.7156C12.527 10.9361 12.0092 10.9606 11.6393 10.7891C11.8859 10.7156 12.1078 10.6667 12.3791 10.6422ZM9.34597 7.21298C9.41994 6.84558 9.59256 6.57613 9.88848 6.3312C9.96245 6.69862 10.2337 7.45793 11.0228 7.67838C10.9982 7.70287 10.9735 7.72736 10.9735 7.75185C10.8995 7.89883 10.8502 7.9968 10.8009 8.14376H10.7762H10.7516C9.86382 8.14376 9.41995 7.72736 9.27198 7.5804C9.29664 7.48242 9.32131 7.33546 9.34597 7.21298ZM10.8255 10.4462C10.5296 10.6422 10.0118 11.0831 9.66655 11.8179C9.49392 12.1853 9.37063 12.6997 9.27198 13.1895C9.22266 12.8466 9.19801 12.4792 9.14869 12.1363C9.37063 10.6422 10.0118 10.0053 10.3077 9.76037C10.505 9.90735 10.6529 10.0788 10.7762 10.2503C10.8009 10.3482 10.8009 10.3972 10.8255 10.4462ZM9.24732 7.75185C9.4446 7.94781 9.91313 8.26623 10.7516 8.26623C10.6529 8.56016 10.6283 8.87859 10.6283 9.19701C10.1597 8.8541 9.61722 8.60915 9.14869 8.4377C9.17335 8.26623 9.22266 8.02129 9.24732 7.75185ZM9.07471 9.12352C9.17334 9.14802 9.24732 9.19701 9.34597 9.2215C9.27198 9.36848 9.17334 9.56442 9.07471 9.80937C9.07471 9.51544 9.07471 9.29499 9.07471 9.12352ZM9.46926 9.2705C9.74051 9.39297 9.98711 9.53993 10.2337 9.6869C9.93779 9.90735 9.39529 10.4707 9.12403 11.6464C9.09937 11.1076 9.07471 10.6177 9.07471 10.2013C9.198 9.78486 9.34597 9.46644 9.46926 9.2705ZM6.65807 9.90735C6.55944 9.66239 6.46079 9.44195 6.38681 9.29499C6.48546 9.24599 6.55944 9.2215 6.65807 9.17252C6.63341 9.36848 6.65807 9.61341 6.65807 9.90735ZM6.65807 10.2992C6.65807 10.7401 6.63341 11.23 6.60875 11.7689C6.36215 10.6177 5.86897 10.0298 5.54839 9.76037C5.77033 9.58892 6.01692 9.46644 6.26352 9.34397C6.38681 9.56442 6.53478 9.88284 6.65807 10.2992ZM6.5841 8.51118C6.11557 8.68263 5.57305 8.95207 5.07986 9.31948C5.07986 9.00106 5.0552 8.63365 4.95657 8.29072C5.81965 8.29072 6.26352 7.92332 6.4608 7.72736C6.51012 8.02129 6.53478 8.29072 6.5841 8.51118ZM6.36215 7.21298C6.38681 7.33546 6.41147 7.45793 6.43613 7.5804C6.3375 7.70287 5.89363 8.16825 4.93191 8.16825C4.93191 8.16825 4.93191 8.16825 4.90725 8.16825C4.85793 8.02129 4.8086 7.89883 4.70997 7.77636C4.68531 7.75185 4.66065 7.70287 4.63599 7.67838C5.44975 7.43343 5.69635 6.64962 5.77033 6.30671C6.11557 6.55164 6.28818 6.84558 6.36215 7.21298ZM0.887745 4.56763C1.06036 4.71459 1.30695 4.86155 1.57821 5.00852C1.47958 5.15548 1.30696 5.32694 1.13434 5.42492C0.986383 5.13099 0.912405 4.83706 0.887745 4.56763ZM1.28229 5.71884C1.25763 5.66986 1.20832 5.59637 1.18366 5.54739C1.40559 5.42492 1.57821 5.22897 1.70151 5.08199C1.94811 5.20448 2.24401 5.32694 2.58925 5.42492C2.46595 5.69435 2.1947 6.15975 1.75083 6.20873C1.55355 6.06177 1.40559 5.8903 1.28229 5.71884ZM2.88517 6.67411C2.49061 6.60064 2.14538 6.47817 1.87413 6.28222C2.318 6.15975 2.58925 5.71884 2.68788 5.42492C2.93448 5.49839 3.2304 5.54739 3.52632 5.59637C3.45233 5.8903 3.30438 6.42918 2.88517 6.67411ZM3.03312 6.72311C3.42767 6.42917 3.57564 5.8903 3.62496 5.64537C3.67427 5.64537 3.72359 5.66986 3.77291 5.66986C4.01949 5.69435 4.2661 5.74335 4.46338 5.76784C4.48804 6.03726 4.46338 6.67411 4.04416 7.09051C3.77291 6.89456 3.42767 6.77209 3.03312 6.72311ZM4.16746 7.13951C4.61133 6.72311 4.63599 6.08626 4.61133 5.79233C5.0552 5.89031 5.4251 6.03726 5.69636 6.23322C5.64704 6.52715 5.4251 7.35996 4.61133 7.5804C4.48804 7.40894 4.34007 7.26198 4.16746 7.13951ZM5.86897 15.688C5.27714 14.4877 4.61133 12.9691 4.61133 12.4547C4.61133 12.0138 4.66065 11.4995 4.70997 11.132C4.93191 11.328 5.22783 11.6219 5.44976 12.1118C5.4251 12.1118 5.40044 12.1118 5.37578 12.1118C5.10452 12.1118 4.85793 12.3323 4.85793 12.6262C4.85793 12.8956 5.07986 13.1406 5.37578 13.1406C5.49907 13.1406 5.62238 13.0916 5.69636 13.0181C5.89363 13.9489 5.91829 15.1246 5.94294 15.3695C5.94294 15.4675 5.89362 15.59 5.86897 15.688ZM4.90725 10.4462C4.90725 10.4217 4.93191 10.3972 4.93191 10.3727C5.07986 10.1768 5.25249 10.0053 5.47442 9.83386C5.81965 10.1033 6.41149 10.8136 6.5841 12.2833C6.55944 12.6017 6.51012 12.9446 6.48546 13.263C6.41147 12.7242 6.26352 12.1853 6.09091 11.8179C5.69636 11.0831 5.20315 10.6667 4.90725 10.4462ZM6.65807 18.4558C6.48546 18.3334 5.86897 17.868 6.16488 17.0351V17.0106C6.16488 17.0106 6.43613 16.0064 6.63341 15.3695C7.39786 13.0181 7.27457 9.56442 7.24991 8.95207C7.4965 8.8541 8.13765 8.82961 8.38424 8.92757C8.35958 9.46644 8.21163 12.9936 9.00073 15.3695C9.22266 16.0064 9.46926 17.0106 9.46926 17.0106V17.0351C9.76518 17.868 9.17334 18.3334 8.97606 18.4558L8.45821 18.5538L8.11299 18.4068V17.9169L8.97606 17.6474C9.14868 17.5985 9.24732 17.4025 9.198 17.2311C9.14868 17.0596 8.95142 16.9617 8.77879 17.0106L7.79242 17.3291L6.73205 16.9861C6.55944 16.9371 6.36217 17.0351 6.31284 17.2065C6.26352 17.378 6.36216 17.574 6.53478 17.623L7.47184 17.9169V18.4068L7.1266 18.5538L6.65807 18.4558ZM8.2856 19.1661L8.45821 19.2396L8.53219 19.2152L8.45821 19.4846L7.94037 19.7539L7.89105 19.8519C7.98969 19.4601 8.18697 19.2396 8.2856 19.1661ZM7.79242 19.7539C7.7431 19.4601 7.64445 19.2396 7.54582 19.0926L7.86639 18.9457L8.16231 19.0681C8.039 19.2152 7.89105 19.411 7.79242 19.7539ZM7.44718 19.607L7.17592 19.4846L7.10194 19.2152L7.24991 19.2396L7.42252 19.1661C7.54582 19.3621 7.66912 19.6804 7.69378 20.1213L7.44718 19.607ZM7.54582 23.2567C6.78137 23.2567 6.14023 22.7178 5.96762 22.0074H9.09937C8.9514 22.7178 8.31026 23.2567 7.54582 23.2567ZM9.64188 22.5709C9.74051 22.3503 9.81448 22.1054 9.81448 21.8605L10.7269 22.6688L9.64188 22.5709ZM14.9684 24.1874C15.0916 24.4813 15.0916 24.7017 15.0177 24.8733C14.919 25.0691 14.7217 25.1671 14.5738 25.2162L12.2558 23.575H12.7243L12.1818 23.0852L12.675 23.1587L14.9684 24.1874ZM12.0585 18.7987C12.8476 20.0724 13.5874 21.2726 13.76 22.9138L12.1078 22.1789L10.9735 21.2482C10.9735 21.2482 10.283 21.0767 9.76518 21.346H7.79242L8.38424 20.2193L8.97606 19.9255L9.17335 19.1172L9.27198 19.0926L9.32131 19.0681C9.78984 18.7987 10.5543 17.9903 10.1351 16.8392C10.1351 16.8147 10.1104 16.7412 10.0857 16.6677C10.1597 16.5207 10.3077 16.2268 10.4803 15.8839C10.9242 16.9617 11.516 17.8925 12.0585 18.7987ZM9.83914 15.688C9.78984 15.5165 9.74051 15.345 9.69119 15.1981C9.71585 14.9531 9.76518 13.9244 9.96245 13.0426C10.0364 13.0916 10.1351 13.1161 10.209 13.1161C10.4803 13.1161 10.7269 12.8956 10.7269 12.6017C10.7269 12.3323 10.5296 12.1118 10.2584 12.0873C10.4803 11.6219 10.7762 11.3035 10.9982 11.1076C11.0475 11.4995 11.0968 11.9893 11.0968 12.4302C11.0968 12.9691 10.431 14.4877 9.83914 15.688ZM11.1214 7.55591H11.0721C10.2584 7.33546 10.0364 6.55164 9.98711 6.23322C10.2584 6.03726 10.6283 5.89031 11.0721 5.79233C11.0475 6.08626 11.0968 6.72311 11.5407 7.164C11.368 7.28647 11.2694 7.38445 11.1214 7.55591ZM11.6393 7.09051C11.1954 6.69862 11.1708 6.03726 11.1954 5.76784C11.4174 5.71884 11.664 5.66986 11.9352 5.64537C11.9845 5.64537 12.0092 5.64537 12.0585 5.62088C12.1078 5.86581 12.2558 6.40468 12.6503 6.69862C12.2558 6.79658 11.9352 6.91906 11.6393 7.09051ZM12.823 6.67411C12.3791 6.42918 12.2311 5.86581 12.1818 5.62088C12.4777 5.57188 12.7736 5.5229 13.0202 5.44941C13.1435 5.71884 13.3901 6.18424 13.8587 6.28222C13.5627 6.47817 13.2175 6.62513 12.823 6.67411ZM14.4505 5.71884C14.3272 5.9148 14.1792 6.06177 14.0066 6.20873H13.982C13.5381 6.15975 13.2668 5.71884 13.1435 5.42492C13.4888 5.32694 13.7847 5.20448 14.0313 5.08199C14.1299 5.22897 14.3272 5.44941 14.5492 5.54739C14.4998 5.59637 14.4751 5.66986 14.4505 5.71884ZM14.5985 5.44941C14.4011 5.35143 14.2285 5.15548 14.1299 5.03301C14.4258 4.88605 14.6477 4.71459 14.845 4.56763C14.7958 4.83706 14.7464 5.15548 14.5985 5.44941Z" fill="black"/>
</svg>
