<svg xmlns="http://www.w3.org/2000/svg" width="143" height="193" fill="none" xmlns:v="https://vecta.io/nano">
    <g clip-path="url(#A)" fill="#90ca79">
        <path
            d="M56.333 159.121l-2.012-.889-.894-3.111-1.118-4.667c-4.471-3.111-8.047-8-9.612-14.001l-4.471 8.667c-9.836 18.002-16.542 31.78-15.648 44.448l.224 7.111c14.53 7.334 30.849 11.557 48.062 11.557 13.189 0 25.931-2.445 37.779-6.89l-8.048-5.778-6.483.667-1.788.222-1.788-.667c-.447-.222-2.906-1.333-5.812-3.555-4.694 3.333-10.283 5.111-16.319 5.111-15.425 0-27.943-12.445-27.943-27.78v-10.223h15.872v-.222zm33.085-8.222l-1.118 4.223-.671 3.111-2.012 1.111h1.565c2.235-.889 4.918-1.333 7.824-1.333 3.13 0 5.589.444 6.036.667l1.565.444 1.341 1.111 9.613 8.001 1.117.444c-2.682-7.333-6.93-14.001-11.4-21.334l-4.695-7.556c-1.788 4.667-5.142 8.445-9.165 11.111zM138.374.222l-3.577 5.556c-.223.444-7.153 10.445-27.049 12.445-16.989 1.778-26.601 8.223-28.613 18.89-.671 3.556-1.341 7.556-1.788 10.667-1.788-.445-8.718-.667-11.848.222-.447-3.111-1.118-7.112-1.788-10.89C61.699 26.445 52.087 20 35.097 18.222 15.201 16.001 8.271 6 8.048 5.778L4.247 0 2.459 6.445C1.341 10.667 1.341 20.001 6.483 27.78c4.247 6.445 10.73 10.223 19.448 11.556 5.589.889 9.389 3.111 11.624 6.889 2.683 4.667 2.459 10.667 1.788 15.334-2.683-2-6.706-4.889-10.283-6.223-5.812-2.445-22.802-4.667-24.813-4.889L0 50.003l.894 4.222c2.235 9.112 10.06 17.334 20.343 21.557 3.577 1.334 7.154 2.222 10.507 2.222 1.565 0 2.906-.222 4.247-.445-.224 2.889-.447 6-.447 8.89 0 4.222 2.906 12.223 6.483 19.779-2.012 4.667-10.059 22.891-15.648 32.891-10.954 20.002-19.394 38.144-18.053 54.367l6.259 4.223c-1.118-14.668 6.876-36.588 17.159-55.701 4.471-8.222 10.283-20.89 13.636-28.446l5.142 10.445c-.224.889-.447 1.334-.447 1.556-3.8 10.445 3.13 17.779 7.377 20.223l.447.223h.224l2.235 7.333 3.13 1.556 5.589 11.556h-21.46v3.112c0 11.334 9.389 20.668 20.79 20.668 6.706 0 12.742-3.112 16.542-8.001 2.906 4.667 8.495 7.112 8.495 7.112l9.165-.889 28.39 20.223 1.341-.222c.224 0 6.707-1.333 9.389-6.667 1.789-3.556 1.565-8.001-.67-12.89l-.448-1.111-8.941-4c-.894-18.224-8.495-30.447-16.766-43.559-5.812-9.556-11.848-19.334-15.648-31.779 3.8-8.445 7.377-17.779 7.377-22.224 0-2.889-.224-6-.447-8.89 1.341.222 2.682.445 4.247.445 3.353 0 6.706-.667 10.507-2.222 10.283-4 18.33-12.445 20.342-21.557l.894-4.223-4.247.444c-2.012.222-19.001 2.445-24.813 4.889-3.577 1.556-7.601 4.223-10.284 6.223-.67-4.445-.894-10.667 1.789-15.334 2.235-3.778 6.036-6 11.624-6.889 8.718-1.333 15.425-5.111 19.449-11.556 5.141-7.778 5.141-17.335 4.023-21.335l-1.341-6zM26.825 60.671c1.565.667 3.353 1.778 5.142 2.889-.447 0-.671 0-1.118-.222-4.694-.667-9.612-1.556-16.319-5.556 5.142.889 10.06 2 12.295 2.889zm-2.906 9.112c-2.683-1.111-5.365-2.667-8.048-4.667 5.589 2.667 10.06 3.334 14.307 4 2.459.445 4.694.667 6.93 1.556-3.353 1.556-8.271 1.111-13.189-.889zm91.654-9.112c2.235-.889 6.929-2 11.847-2.667-6.706 4-11.624 4.667-16.318 5.556h-.671c1.788-1.111 3.577-2.222 5.142-2.889zm-3.354 8.667c4.248-.667 8.942-1.333 14.978-4.445-2.683 2.222-5.589 4-8.495 5.111-5.141 2-9.836 2.222-13.189.667 2.235-.667 4.247-1.111 6.706-1.333zM84.723 38.225c.671-3.334 2.236-5.778 4.918-8 .671 3.334 3.13 10.223 10.283 12.223-.224.222-.447.444-.447.667-.671 1.334-1.118 2.222-1.565 3.556h-.224-.224c-8.048 0-12.071-3.778-13.413-5.111.224-.889.447-2.222.671-3.334zM98.136 67.56c-2.682 1.778-7.377 5.778-10.507 12.445-1.565 3.334-2.683 8.001-3.577 12.445-.447-3.111-.671-6.445-1.118-9.556 2.012-13.556 7.824-19.335 10.507-21.557 1.788 1.333 3.13 2.889 4.247 4.445.224.889.224 1.333.447 1.778zM83.829 43.114c1.788 1.778 6.036 4.667 13.636 4.667-.894 2.667-1.118 5.556-1.118 8.445-4.247-3.111-9.165-5.334-13.413-6.889.224-1.556.671-3.778.894-6.223zm-1.565 12.445c.894.222 1.565.667 2.459.889-.671 1.334-1.565 3.111-2.459 5.334v-6.223zm3.577 1.333c2.459 1.111 4.694 2.445 6.93 3.778-2.683 2-7.601 7.112-10.059 17.779l-.447-13.112c1.118-3.778 2.459-6.667 3.577-8.445zM60.357 62.67c-.894-2.222-1.788-4.222-2.459-5.556.894-.444 1.565-.667 2.459-1.111-.224 1.778 0 4 0 6.667zm0 3.556c0 4-.224 8.445-.447 13.334-2.236-10.445-6.706-15.779-9.612-18.223 2.012-1.556 4.247-2.667 6.483-3.778 1.118 2 2.459 4.889 3.577 8.667zm-.671-16.223c-4.247 1.556-9.165 4-13.636 7.334 0-2.889-.224-6.223-1.118-9.334 7.824 0 11.848-3.334 13.636-5.111.447 2.667.671 5.111 1.118 7.112zm-2.012-11.779l.671 3.334c-.894 1.111-4.918 5.334-13.636 5.334h-.224c-.447-1.334-.894-2.445-1.788-3.556-.224-.222-.447-.667-.671-.889 7.377-2.222 9.613-9.334 10.283-12.445 3.13 2.222 4.694 4.889 5.365 8.223zM8.048 14.223c1.565 1.333 3.8 2.667 6.259 4-.894 1.333-2.459 2.889-4.024 3.778-1.341-2.667-2.012-5.334-2.235-7.778zm3.577 10.445c-.223-.444-.671-1.111-.894-1.556 2.012-1.111 3.577-2.889 4.695-4.222a46.74 46.74 0 0 0 8.048 3.111c-1.118 2.445-3.577 6.667-7.6 7.112-1.788-1.333-3.13-2.889-4.247-4.445zm14.53 8.667c-3.577-.667-6.706-1.778-9.165-3.556 4.024-1.111 6.483-5.111 7.377-7.778 2.236.667 4.918 1.111 7.601 1.556-.671 2.667-2.012 7.556-5.812 9.778zm1.341.444c3.577-2.667 4.918-7.556 5.365-9.778.447 0 .894.222 1.341.222 2.235.222 4.471.667 6.259.889.224 2.445 0 8.223-3.8 12.001-2.459-1.778-5.589-2.889-9.165-3.334zm10.283 3.778c4.024-3.778 4.247-9.556 4.024-12.223 4.024.889 7.377 2.222 9.836 4-.447 2.667-2.459 10.223-9.836 12.223a17.14 17.14 0 0 0-4.024-4zm15.425 77.561c-5.365-10.89-11.401-24.669-11.401-29.336 0-4 .447-8.667.894-12.001 2.012 1.778 4.694 4.445 6.706 8.889h-.671c-2.459 0-4.694 2-4.694 4.667 0 2.445 2.012 4.667 4.694 4.667 1.118 0 2.236-.444 2.906-1.111 1.788 8.445 2.012 19.112 2.235 21.335 0 .889-.447 2-.671 2.889zM44.485 67.56c0-.222.224-.445.224-.667 1.341-1.778 2.906-3.334 4.918-4.889 3.13 2.445 8.495 8.889 10.06 22.224-.224 2.889-.671 6-.894 8.889-.671-4.889-2.012-9.778-3.577-13.112-3.577-6.667-8.048-10.445-10.73-12.445zm15.872 72.671c-1.565-1.111-7.153-5.333-4.471-12.889v-.223l4.247-14.889c6.93-21.335 5.812-52.671 5.589-58.226 2.235-.889 8.048-1.111 10.283-.222-.224 4.889-1.565 36.891 5.589 58.449 2.012 5.778 4.247 14.889 4.247 14.889v.223c2.683 7.556-2.683 11.778-4.471 12.889l-4.694.889-3.13-1.333v-4.445l7.824-2.444c1.565-.445 2.459-2.223 2.012-3.778s-2.235-2.445-3.8-2.001l-8.942 2.89-9.613-3.112c-1.565-.444-3.353.445-3.8 2s.447 3.334 2.012 3.778l8.495 2.667v4.445l-3.13 1.333-4.247-.889zm14.754 6.445l1.565.667.671-.222-.671 2.444-4.694 2.445-.447.889c.894-3.556 2.683-5.556 3.577-6.223zm-4.471 5.334c-.447-2.667-1.341-4.667-2.236-6l2.906-1.334 2.683 1.111c-1.118 1.334-2.459 3.112-3.353 6.223zm-3.13-1.333l-2.459-1.112-.671-2.444 1.341.222 1.565-.667c1.118 1.778 2.236 4.667 2.459 8.668l-2.235-4.667zm.894 33.113c-6.93 0-12.742-4.889-14.307-11.334h28.39c-1.341 6.445-7.153 11.334-14.083 11.334zm19.001-6.223c.894-2 1.565-4.222 1.565-6.445l8.271 7.334-9.836-.889zm48.286 14.668c1.117 2.667 1.117 4.667.447 6.222-.895 1.778-2.683 2.667-4.024 3.112l-21.013-14.89h4.247l-4.918-4.445 4.471.667 20.79 9.334zm-26.379-48.892c7.154 11.556 13.86 22.446 15.425 37.336l-14.978-6.668-10.283-8.445s-6.259-1.555-10.954.889H70.64l5.365-10.223 5.365-2.666 1.788-7.334.894-.222.447-.223c4.247-2.444 11.177-9.778 7.377-20.223 0-.222-.224-.889-.447-1.556l3.577-7.111c4.024 9.778 9.389 18.223 14.307 26.446zm-20.119-28.224l-1.341-4.445c.224-2.222.671-11.556 2.459-19.557a4.33 4.33 0 0 0 2.235.667c2.459 0 4.694-2 4.694-4.667 0-2.445-1.788-4.445-4.247-4.667a27.88 27.88 0 0 1 6.706-8.889c.447 3.556.894 8.001.894 12.001 0 4.889-6.036 18.668-11.401 29.558zm11.625-73.783h-.448c-7.376-2-9.388-9.112-9.835-12.001 2.459-1.778 5.812-3.111 9.835-4-.223 2.667.224 8.445 4.248 12.445-1.565 1.111-2.459 2-3.8 3.556zm4.694-4.222c-4.024-3.556-4.247-9.556-4.024-12.001 2.012-.445 4.248-.889 6.707-1.111.447 0 .67 0 1.117-.222.447 2.222 1.789 7.112 5.365 9.779-3.576.889-6.482 2-9.165 3.556zm10.73-3.778c-4.024-2.222-5.365-7.334-5.812-9.556 2.682-.444 5.365-.889 7.6-1.556 1.118 2.445 3.354 6.667 7.601 7.556-2.683 1.778-5.812 3.111-9.389 3.556zm14.754-8.667c-1.118 1.778-2.459 3.111-4.024 4.445h-.223c-4.024-.444-6.483-4.445-7.601-7.112a46.75 46.75 0 0 0 8.048-3.111c.894 1.333 2.682 3.334 4.694 4.223-.447.444-.67 1.111-.894 1.556zm1.341-2.445c-1.788-.889-3.353-2.667-4.247-3.778 2.682-1.333 4.694-2.889 6.483-4.222-.447 2.445-.894 5.334-2.236 8.001z"
            fill-opacity=".5" />
    </g>
    <defs>
        <clipPath id="A">
            <path fill="#fff" d="M0 0h143v193H0z" />
        </clipPath>
    </defs>
</svg>