<svg width="93" height="90" viewBox="0 0 93 90" fill="none" xmlns="http://www.w3.org/2000/svg">
<path opacity="0.8" d="M89.1449 31.421C78.18 -2.93409 48.0265 -1.21633 34.3203 3.93694C26.6106 6.01539 -4.22826 25.4083 1.76818 56.328C7.76462 87.2476 37.7468 88.1064 50.5964 88.1064C63.4459 88.1064 102.851 74.365 89.1449 31.421Z" stroke="#96CF7E"/>
<circle cx="47" cy="46.1064" r="42.5" fill="white" stroke="#96CF7E"/>
<g clip-path="url(#clip0)">
<path d="M47.3821 45.7732C47.3821 45.2149 47.3483 44.0634 47.3595 43.505C47.3821 42.3884 46.8418 41.6091 46.0089 40.9926C45.9301 41.0275 45.8738 41.0275 45.8288 41.0624C44.6132 42.2837 43.1163 42.7025 41.4617 42.7141C39.7284 42.7257 38.3552 41.9464 37.2184 40.6553C36.4531 39.7945 35.8903 38.7826 35.3838 37.7008C36.273 36.7703 37.2522 35.9677 38.389 35.3978C39.3344 34.9209 40.3362 34.665 41.3829 34.8046C43.4652 35.0721 45.0972 36.084 46.1215 38.0149C46.324 38.3987 46.4141 38.8524 46.5717 39.3176C46.7855 39.4572 47.0444 39.6433 47.3821 39.8643C47.4834 39.5154 47.5621 39.1781 47.686 38.8756C47.8323 38.5383 48.0124 38.2243 48.215 37.9218C48.4063 37.6311 48.6427 37.3868 48.924 37.0378C48.6652 35.2931 49.2392 33.6298 50.3085 32.1293C51.389 30.6172 52.7734 29.547 54.5855 29.1399C55.5535 28.9189 56.5215 28.9422 57.4894 29.105C58.8288 29.3377 60.1007 29.8029 61.3275 30.3845C61.395 30.4194 61.4513 30.4659 61.5864 30.5474C61.5414 31.001 61.4963 31.4663 61.4401 31.9432C61.26 33.2575 60.9336 34.5254 60.3821 35.7235C59.3353 37.9684 57.5795 39.2479 55.2496 39.7364C54.0002 39.9923 52.7509 40.0388 51.524 39.6317C50.9275 39.434 50.3647 39.1083 49.7232 38.8059C49.3067 39.0734 49.1717 39.5968 49.0816 40.1319C49.0479 40.3412 49.0591 40.5622 49.0591 40.7716C49.0591 42.2488 49.0591 44.296 49.0591 45.7732H47.3821ZM50.5448 36.1887C50.7699 36.0608 50.9275 35.9677 51.0851 35.8747C52.357 35.0954 53.6288 34.316 54.9007 33.5367C55.0582 33.4437 55.2271 33.339 55.3959 33.2692C55.9362 33.0482 56.4764 33.432 56.4877 34.0369C56.4989 34.4672 56.2513 34.6999 55.9249 34.8976C54.5968 35.7002 53.2799 36.5144 51.963 37.3286C51.7604 37.4566 51.5691 37.5845 51.2877 37.7706C51.5916 37.8986 51.7942 37.9916 52.008 38.0498C53.2461 38.3871 54.4505 38.2592 55.6548 37.8753C57.1405 37.3984 58.1873 36.4214 58.8626 34.9907C59.2565 34.1532 59.5266 33.2692 59.673 32.3503C59.718 32.106 59.7405 31.8617 59.7855 31.5593C59.1552 31.35 58.5812 31.129 57.9847 30.9777C56.9266 30.7102 55.8461 30.5474 54.7656 30.8731C52.4357 31.571 51.1189 33.2575 50.5336 35.6188C50.5111 35.7816 50.5448 35.9561 50.5448 36.1887ZM44.647 38.8524C43.3751 36.1189 39.5933 35.7816 37.5111 38.0847C38.9518 41.1206 41.8106 41.6672 43.7128 40.411C43.6228 40.3878 43.5552 40.3529 43.4877 40.3412C42.5422 40.1202 41.5855 39.8992 40.6401 39.6666C40.0773 39.527 39.7847 39.085 39.9085 38.6197C40.0435 38.1196 40.46 37.887 41.0115 38.0149C41.5067 38.1312 42.002 38.2475 42.486 38.3638C43.1725 38.5151 43.8704 38.6779 44.647 38.8524Z" fill="#94CD7C"/>
<path d="M52.5144 45.6915C54.3715 45.6682 55.6659 46.5173 56.3525 48.3202C56.375 48.3784 56.3975 48.4249 56.4313 48.4714C56.4425 48.4831 56.465 48.4831 56.5213 48.518C56.6339 48.4133 56.7577 48.3086 56.8702 48.1807C57.9958 46.9012 59.1213 45.6217 60.2243 44.3422C60.8434 43.621 61.5525 43.0395 62.4867 42.7952C64.3551 42.3067 66.4598 43.5629 66.91 45.4937C67.1689 46.6104 66.91 47.6456 66.201 48.5412C64.839 50.2627 63.4997 52.0191 62.1152 53.729C61.0122 55.1015 59.8416 56.4159 58.5585 57.6023C57.7594 58.3351 56.9265 59.0214 55.9698 59.5448C55.1932 59.9752 54.3715 60.1845 53.4936 60.1845C49.4079 60.1729 45.3109 60.1845 41.2252 60.1845C40.9888 60.1845 40.7525 60.2078 40.4486 60.2194C40.5386 60.4288 40.5949 60.5684 40.6512 60.708C40.8988 61.3244 40.7525 61.8711 40.2122 62.2201C39.807 62.4876 39.3681 62.7319 38.9516 62.9761C37.9499 63.581 36.9256 64.1509 35.9352 64.7907C35.3161 65.1862 34.5395 65.1047 34.0893 64.2905C32.1646 60.7894 30.1949 57.3115 28.259 53.8104C27.8313 53.0427 27.9888 52.4378 28.7092 51.9958C30.1049 51.1584 31.5005 50.3209 32.8962 49.495C33.6728 49.0414 34.2243 49.2042 34.6858 49.9952C34.8096 50.2046 34.9334 50.4256 35.0572 50.6233C35.3274 50.6466 35.4061 50.4372 35.5187 50.3092C36.0927 49.6695 36.6668 49.0298 37.2408 48.39C38.3438 47.2036 39.6382 46.3545 41.1914 45.959C41.7092 45.8311 42.2607 45.7613 42.801 45.7496L52.5144 45.6915ZM35.9802 52.3332C37.1395 54.4036 38.265 56.4275 39.4018 58.4514C39.6832 58.4631 39.9308 58.4863 40.1672 58.4863C44.478 58.4863 48.7888 58.4747 53.0997 58.4979C54.0789 58.4979 54.9455 58.2304 55.7447 57.6837C56.6339 57.0673 57.4442 56.3461 58.1984 55.5668C60.6745 53.0427 62.7455 50.158 64.9291 47.3781C65.1317 47.1222 65.2555 46.7616 65.3005 46.4359C65.4131 45.4472 64.5577 44.505 63.5334 44.412C62.7005 44.3306 62.104 44.7377 61.575 45.3309C59.6053 47.5642 57.6243 49.7858 55.6546 52.0191C54.8555 52.9264 53.865 53.3916 52.6719 53.38C50.9049 53.3684 49.149 53.38 47.3819 53.38C47.2356 53.38 47.078 53.3916 46.9317 53.3684C46.5265 53.2986 46.2676 52.9845 46.2451 52.5774C46.2226 52.0307 46.5378 51.6934 47.123 51.6818C48.1585 51.6702 49.1828 51.6818 50.2183 51.6818C51.0849 51.6818 51.9403 51.6934 52.807 51.6818C53.9213 51.6585 54.788 50.7978 54.8442 49.6811C54.9118 48.4482 54.0001 47.4595 52.762 47.4479C49.5542 47.4362 46.3464 47.4711 43.1499 47.4246C41.5178 47.4013 40.1334 47.9829 38.9403 49.0647C37.8711 50.0301 36.9481 51.1584 35.9802 52.3332ZM29.846 53.2637C31.7031 56.5904 33.5152 59.8356 35.3611 63.1274C36.5655 62.4062 37.7135 61.7316 38.9178 61.0104C37.0719 57.707 35.2486 54.4501 33.4139 51.1467C32.2096 51.8563 31.0616 52.5425 29.846 53.2637Z" fill="black"/>
</g>
<defs>
<clipPath id="clip0">
<rect width="39" height="36" fill="white" transform="translate(28 29)"/>
</clipPath>
</defs>
</svg>
