<svg width="93" height="90" viewBox="0 0 93 90" fill="none" xmlns="http://www.w3.org/2000/svg">
<circle cx="47" cy="46.1074" r="42.5" fill="white" stroke="#96CF7E"/>
<path opacity="0.8" d="M89.1449 31.422C78.18 -2.93311 48.0265 -1.21535 34.3203 3.93792C26.6106 6.01637 -4.22826 25.4093 1.76818 56.3289C7.76462 87.2485 37.7468 88.1074 50.5964 88.1074C63.4459 88.1074 102.851 74.3659 89.1449 31.422Z" stroke="#96CF7E"/>
<g clip-path="url(#clip0)">
<path d="M64.9002 50.594C64.3399 48.0964 61.861 46.526 59.3634 47.0863C59.2366 47.1147 59.1111 47.1485 58.9873 47.1875V46.1061C58.9873 45.738 58.6888 45.4395 58.3206 45.4395H31.654C31.2858 45.4395 30.9873 45.738 30.9873 46.1061V48.1061C30.9961 53.0655 33.2986 57.7418 37.224 60.7728H29.654C29.2858 60.7728 28.9873 61.0713 28.9873 61.4395C28.9906 64.0154 31.0781 66.1028 33.654 66.1061H56.3206C58.8965 66.1028 60.984 64.0154 60.9873 61.4395C60.9873 61.0713 60.6888 60.7728 60.3206 60.7728H52.7506C53.9984 59.8061 55.0965 58.6604 56.0093 57.3728L61.3926 56.1308C63.8901 55.5705 65.4606 53.0915 64.9002 50.594ZM58.6413 51.3881V51.3861L60.168 51.0808C60.5374 51.002 60.9008 51.2376 60.9796 51.607C61.0553 51.9616 60.8411 52.3137 60.4913 52.4095L58.1866 53.0681C58.3688 52.5169 58.5205 51.956 58.6413 51.3881ZM59.5873 62.1061C59.2685 63.6572 57.9041 64.771 56.3206 64.7728H33.654C32.0705 64.771 30.7061 63.6572 30.3873 62.1061H59.5873ZM50.3773 60.7728H39.5973C35.098 58.139 32.3294 53.3197 32.3206 48.1061V46.7728H57.654V48.1061C57.6451 53.3197 54.8766 58.139 50.3773 60.7728ZM63.0298 53.5445C62.5615 54.194 61.8734 54.6513 61.0933 54.8315L57.012 55.7728C57.2169 55.3985 57.4066 55.0168 57.5813 54.6275L60.858 53.6908C61.9298 53.3867 62.5521 52.2712 62.2481 51.1994C61.9603 50.1854 60.9405 49.5637 59.9073 49.7728L58.8693 49.9801C58.9246 49.5208 58.9566 49.0568 58.9706 48.5895L59.304 48.4781C60.3117 48.1369 61.4225 48.307 62.282 48.9341V48.9321C63.7621 49.9993 64.097 52.0643 63.0298 53.5445Z" fill="black"/>
<path d="M48.9863 30.1055C47.8817 30.1055 46.9863 29.2101 46.9863 28.1055V26.1055H45.653V28.1055C45.6552 29.9455 47.1463 31.4366 48.9863 31.4388C50.0909 31.4388 50.9863 32.3342 50.9863 33.4388C50.9863 34.5434 50.0909 35.4388 48.9863 35.4388H41.653C36.8688 35.4443 32.9918 39.3213 32.9863 44.1055H34.3197C34.3244 40.0574 37.6049 36.7769 41.653 36.7721H48.9863C50.8272 36.7721 52.3197 35.2797 52.3197 33.4388C52.3197 31.5979 50.8272 30.1055 48.9863 30.1055Z" fill="#96CF7E"/>
<path d="M53.6536 38.7721H56.6536C59.4151 38.7721 61.6537 36.5336 61.6537 33.7721C61.6537 31.0107 59.4151 28.7721 56.6536 28.7721H56.3203C55.2157 28.7721 54.3203 27.8767 54.3203 26.7721V26.1055H52.987V26.7721C52.987 28.6131 54.4794 30.1055 56.3203 30.1055H56.6536C58.6787 30.1055 60.3203 31.7471 60.3203 33.7721C60.3203 35.7972 58.6787 37.4388 56.6536 37.4388H53.6536C52.365 37.4388 51.3203 38.4835 51.3203 39.7721C51.3203 41.0608 52.365 42.1055 53.6536 42.1055C54.7582 42.1055 55.6536 43.0009 55.6536 44.1055H56.987C56.9848 42.2655 55.4936 40.7743 53.6536 40.7721C53.1014 40.7721 52.6536 40.3244 52.6536 39.7721C52.6536 39.2199 53.1013 38.7721 53.6536 38.7721Z" fill="#96CF7E"/>
<path d="M35.3085 50.627L34.0078 50.919C34.3965 52.6523 35.2745 55.0523 37.2371 56.627L38.0705 55.5856C36.4078 54.2556 35.6538 52.155 35.3085 50.627Z" fill="#96CF7E"/>
<path d="M34.9867 48.1055H33.6533C33.6621 48.5798 33.6983 49.0533 33.762 49.5235L35.0847 49.3541C35.0286 48.9401 34.9958 48.5232 34.9867 48.1055Z" fill="#96CF7E"/>
</g>
<defs>
<clipPath id="clip0">
<rect width="40" height="40" fill="white" transform="translate(27 26.1055)"/>
</clipPath>
</defs>
</svg>
