
<svg width="93" height="89" viewBox="0 0 93 89" fill="none" xmlns="http://www.w3.org/2000/svg">
<circle cx="47" cy="46" r="42.5" fill="white" stroke="#94CD7C"/>
<path d="M46.0635 26.6226C46.1059 26.5802 46.1059 26.5802 46.0635 26.6226C46.1059 26.5802 46.1059 26.5802 46.0635 26.6226Z" fill="#231F20"/>
<path d="M67.4081 26.1997L63.097 30.5108L62.0403 31.5675C61.6599 31.9479 61.2795 32.3283 60.8146 32.8777C60.7723 32.92 60.7301 32.9622 60.6878 33.0045C57.6024 37.1043 53.7562 40.2742 50.0791 43.3174C49.9523 43.4442 49.7832 43.5709 49.6564 43.6977C48.7689 44.4163 47.8813 45.1348 47.0782 45.8533C46.8669 46.0224 46.6556 46.1914 46.4442 46.4028C46.4442 46.5296 46.4442 46.6564 46.4865 46.7831C46.5288 46.9522 46.5288 47.1213 46.571 47.2903C45.9793 47.3326 45.6412 48.2202 45.5144 48.6428L45.4721 48.7274L45.4299 48.8119C45.134 49.2768 44.8804 50.3335 44.7959 50.6716C44.2464 52.6581 44.1196 55.194 44.5 57.8145C44.8804 60.435 45.6834 62.8442 46.7824 64.5348C47.1205 65.042 47.4586 65.5069 47.839 65.845C49.107 66.9017 49.6987 67.0285 49.9523 66.9862C50.2482 66.9439 50.5018 66.6481 50.8399 66.0986C51.0512 65.8028 51.2203 65.5492 51.4739 65.2533C51.9811 64.3657 52.3192 63.14 52.4882 61.703C52.5728 61.0267 52.615 60.3082 52.615 59.5897C52.615 58.7021 52.5728 57.8145 52.446 56.8847C52.5305 56.9269 52.5728 57.0115 52.6573 57.0537C53.1222 57.4764 53.5872 57.8568 54.0521 58.2372C54.1366 59.5051 54.0943 60.7731 53.9675 61.9143C53.7562 63.6049 53.3336 65.042 52.6996 66.0986L52.6573 66.1831L52.5728 66.2677C52.4037 66.4367 52.2346 66.6903 52.0656 66.9439C51.6429 67.5779 51.1357 68.3387 50.1636 68.4655C50.0791 68.4655 49.9946 68.4655 49.8678 68.4655C49.0224 68.4655 48.0503 68.0006 46.8246 66.9439L46.7824 66.9017C46.3174 66.479 45.8948 65.9296 45.5144 65.2956C44.2887 63.3936 43.4011 60.8154 43.0207 57.9836C42.6403 55.1518 42.7671 52.4045 43.4011 50.2489C43.5279 49.784 43.6124 49.4036 43.7392 49.0655C43.6547 49.15 43.5279 49.2768 43.4011 49.4036L43.3588 49.4459C43.1475 49.615 42.8939 49.784 42.598 49.9531C42.1331 50.418 41.7105 50.8829 41.2455 51.3901C38.7941 54.0106 36.2159 56.8847 33.3841 60.1391C32.1161 61.4916 30.975 62.5906 30.0028 63.6049L28.6503 64.9574C28.5235 65.0842 28.3122 65.1688 28.1431 65.1688C27.9741 65.1688 27.7628 65.0842 27.636 64.9574C27.3401 64.6616 27.3401 64.1967 27.636 63.9008L28.9885 62.5483C30.0028 61.5339 31.1018 60.435 32.3275 59.1248C34.8211 56.2507 37.1458 53.6725 39.3436 51.3056C39.6394 51.0097 39.9353 50.6716 40.1889 50.3757C40.6961 49.8263 41.2033 49.3191 41.7105 48.7696C41.7527 48.7274 41.795 48.6851 41.8373 48.6428C42.4712 48.0089 43.1052 47.3749 43.7392 46.7831C44.2041 46.3605 44.6691 45.9378 45.1763 45.4729C46.4865 44.3317 47.839 43.1906 49.1492 42.1339C51.1357 40.4855 53.1222 38.8372 55.0242 37.0198C56.588 35.5405 58.0251 33.9766 59.3776 32.286C59.4621 32.1592 59.5889 32.0324 59.6734 31.9056L59.7157 31.8633C60.2229 31.3139 60.6033 30.8912 60.9837 30.4686L66.3514 25.1008C66.6473 24.8049 67.1122 24.8049 67.4081 25.1008C67.7039 25.4389 67.7039 25.9039 67.4081 26.1997Z" fill="#231F20"/>
<path d="M47.3746 25.8188C47.1633 25.9033 46.9097 26.0301 46.6983 26.1569C46.487 26.2837 46.2757 26.4105 46.1066 26.5795C46.6561 27.5939 46.8251 28.6928 46.5715 29.7072C46.3602 30.7216 45.7685 31.6514 44.8386 32.37C44.9654 32.5813 45.0922 32.7926 45.219 33.0039C45.3458 33.2153 45.5149 33.4266 45.684 33.5957C46.9097 32.6658 47.7127 31.4401 48.0086 30.0453C48.3467 28.6083 48.0931 27.1713 47.3746 25.8188ZM46.5715 24.5508L45.9798 24.8889C46.1489 24.7621 46.3602 24.6776 46.5715 24.5508ZM44.416 34.3564C44.3314 34.2296 44.2046 34.0606 44.1201 33.9338L44.416 34.3564Z" fill="#94CD7C"/>
<path d="M57.9402 27.0875C57.3062 26.3268 56.5032 25.6082 55.6156 25.1011C54.728 24.5516 53.7136 24.1712 52.6147 23.9176C50.5014 23.4527 48.3459 23.7063 46.613 24.5516C46.4016 24.6361 46.1903 24.7629 46.0213 24.8897C44.4152 25.8196 43.3585 27.2566 42.9781 28.905C42.8513 29.4544 42.8091 30.0462 42.8936 30.5956C42.8936 30.7224 42.8936 30.8492 42.9359 30.9337V30.976C42.9359 31.0183 42.9359 31.0605 42.9781 31.1451C42.9781 31.2296 43.0204 31.2719 43.0204 31.3564C43.0627 31.4832 43.1049 31.6523 43.1049 31.7791C43.1472 31.9481 43.1894 32.0749 43.274 32.244C43.3162 32.3708 43.3585 32.4976 43.443 32.6666C43.4853 32.7512 43.5276 32.8357 43.5698 32.9625C43.6544 33.1316 43.7812 33.3006 43.8657 33.5119C43.9502 33.6387 44.0348 33.7233 44.077 33.8501L44.1616 33.9769C44.2461 34.1037 44.3729 34.2727 44.4997 34.3995C45.7677 35.8788 47.6274 36.9777 49.7406 37.4427C50.4592 37.6117 51.1777 37.654 51.8962 37.654C53.0374 37.654 54.094 37.4427 55.0661 37.1045C56.63 35.6252 58.067 34.0614 59.4195 32.3708C59.7154 30.5533 59.2082 28.6936 57.9402 27.0875ZM57.8979 32.1172C57.264 35.0335 53.7136 36.7241 49.9942 35.9211C48.2613 35.5407 46.7398 34.6954 45.7254 33.5119C45.5563 33.3429 45.3873 33.1316 45.2605 32.9202C45.1337 32.7089 45.0069 32.4976 44.8801 32.2862C44.7955 32.1172 44.711 31.9481 44.6688 31.7791C44.6688 31.7368 44.6265 31.6945 44.6265 31.6945C44.5842 31.5677 44.542 31.3987 44.4997 31.2719C44.4997 31.1873 44.4574 31.1451 44.4574 31.0605C44.4574 30.976 44.4152 30.9337 44.4152 30.8492C44.3729 30.7224 44.3729 30.5533 44.3729 30.4265C44.3729 30.3843 44.3729 30.342 44.3729 30.2997C44.3729 29.9194 44.3729 29.539 44.4574 29.1586C44.4997 28.9472 44.5842 28.6936 44.6688 28.4823C44.6688 28.4401 44.711 28.3978 44.711 28.3555C44.711 28.3133 44.7533 28.271 44.7533 28.271C44.7955 28.1865 44.8378 28.1442 44.8378 28.0597C44.8378 28.0597 44.8801 28.0174 44.8801 27.9751C44.9223 27.9329 44.9223 27.8906 44.9646 27.8061C45.0069 27.7638 45.0491 27.6793 45.0491 27.637C45.0914 27.5947 45.1337 27.5102 45.1759 27.4679C45.2182 27.4257 45.2605 27.3411 45.3027 27.2989C45.4295 27.1298 45.5563 27.003 45.7254 26.8762C45.7677 26.834 45.8099 26.7917 45.8945 26.7494C45.8945 26.7494 45.8945 26.7072 45.9367 26.7072C45.979 26.6649 46.0213 26.6226 46.0635 26.5804C46.0635 26.5804 46.0635 26.5804 46.1058 26.5381L46.1481 26.4958C46.3171 26.369 46.5284 26.2 46.7398 26.0732C46.9511 25.9464 47.1624 25.8196 47.416 25.735C48.3459 25.3124 49.4025 25.1011 50.4592 25.1011C51.0509 25.1011 51.6849 25.1856 52.2766 25.3124C54.094 25.6928 55.7001 26.6649 56.7568 27.9751C57.7711 29.2854 58.1938 30.7647 57.8979 32.1172Z" fill="#94CD7C"/>
<path d="M70.4084 33.5536C69.5631 32.1166 68.2952 31.0177 66.8581 30.4682C65.5479 29.961 64.2376 30.0033 63.0965 30.4682L62.0398 31.5249C61.6594 31.9053 61.279 32.2857 60.8141 32.8351C60.7718 32.8774 60.7296 32.9196 60.6873 32.9619C60.4337 33.6382 60.2646 34.399 60.2646 35.1597C60.2646 36.3854 60.6028 37.6534 61.3213 38.8791C62.1243 40.2316 63.3078 41.2883 64.618 41.8377C64.8294 41.9223 65.0407 42.0068 65.252 42.0913C65.7592 42.2604 66.2664 42.3027 66.7736 42.3027C67.6189 42.3027 68.3797 42.0913 69.0982 41.6687C70.2394 40.9924 71.0002 39.8935 71.296 38.4987V38.4565C71.3383 38.2451 71.3806 38.0338 71.3806 37.8225C71.5919 36.47 71.2115 34.9061 70.4084 33.5536ZM69.9013 38.2451C69.859 38.4987 69.7745 38.7523 69.6899 38.9637C69.6477 39.0059 69.6477 39.0905 69.6054 39.175C69.6054 39.2173 69.5631 39.2595 69.5631 39.3018C69.5209 39.3863 69.4363 39.5131 69.3941 39.5976C69.3518 39.6399 69.3518 39.6822 69.3095 39.7244C69.2673 39.809 69.1827 39.8512 69.1405 39.9358C69.0559 40.0203 68.9714 40.1048 68.9291 40.1471C68.8869 40.1894 68.8869 40.1894 68.8446 40.2316C68.8023 40.2739 68.8023 40.2739 68.7601 40.3162C68.7178 40.3584 68.7178 40.3584 68.6755 40.4007C68.591 40.443 68.5487 40.4852 68.4642 40.5275C68.3797 40.5698 68.2952 40.612 68.2106 40.6543C68.1261 40.6966 68.0416 40.7388 67.9148 40.7811C67.8302 40.7811 67.788 40.8233 67.7034 40.8233C67.6189 40.8233 67.5766 40.8656 67.4921 40.8656C67.4076 40.8656 67.3653 40.9079 67.2808 40.9079C67.0272 40.9501 66.7736 40.9501 66.52 40.9079C66.2664 40.9079 66.0128 40.8233 65.7592 40.7388C65.5479 40.6543 65.2943 40.5698 65.083 40.4852C64.1108 40.0203 63.2655 39.2172 62.6738 38.2029C61.279 35.8783 61.6594 33.0887 63.4346 32.0321C64.2799 31.5249 65.3365 31.4826 66.3932 31.863C67.5344 32.2857 68.5065 33.1732 69.1827 34.3144C69.7745 35.3288 70.0703 36.47 70.0281 37.5266C69.9858 37.7802 69.9435 38.0338 69.9013 38.2451Z" fill="#94CD7C"/>
<path d="M71.423 37.9058C71.423 38.1171 71.3807 38.3284 71.3384 38.5397L71.423 37.9058ZM66.985 38.1171C66.0975 38.6243 65.4212 39.4696 65.0408 40.484C65.2522 40.6108 65.5057 40.6953 65.7171 40.7376C65.9707 40.8221 66.2243 40.8644 66.4779 40.9066C66.7737 40.2726 67.1964 39.7232 67.7458 39.3851C68.2953 39.0469 68.9715 38.9201 69.6901 39.0047C69.7746 38.7933 69.8591 38.5397 69.9014 38.2862C69.9437 38.0326 69.9859 37.779 69.9859 37.5676C68.9293 37.3986 67.8726 37.5676 66.985 38.1171ZM67.2386 40.8644C66.985 40.9066 66.7315 40.9066 66.4779 40.8644C66.6892 40.9066 66.985 40.9066 67.2386 40.8644ZM64.6182 41.9633L65.2522 42.1746C65.0408 42.0901 64.8295 42.0055 64.6182 41.9633Z" fill="#94CD7C"/>
<path d="M45.1339 45.5563C44.8803 45.0492 44.4577 44.6265 44.0773 44.2884C43.8659 44.077 43.6123 43.8657 43.4855 43.6966L43.4433 43.6121L43.3587 43.5699C42.3866 42.8091 41.0341 42.1751 39.3858 41.7524C37.7797 41.3298 35.92 41.0762 34.018 41.0762H33.9757C31.1017 41.0762 28.4389 41.5834 26.4102 42.5555C25.7339 42.8513 25.1422 43.2317 24.6773 43.6121C23.7474 44.2884 22.9866 45.3028 22.5217 46.3171C22.0991 47.3315 22.4372 48.3459 23.4516 49.0644C23.7052 49.2757 24.0433 49.4448 24.3814 49.5716C24.8041 49.8675 25.4381 50.2056 26.4102 50.586C28.4389 51.5158 31.1439 52.023 33.9757 52.023C34.3561 52.023 34.7365 52.023 35.1169 51.9807C36.5962 51.8962 38.0333 51.6849 39.3012 51.3468C39.5971 51.0509 39.893 50.7128 40.1465 50.4169C40.6537 49.8675 41.1609 49.3603 41.6681 48.8108C41.4568 48.9376 41.2032 49.0644 40.9496 49.1912C39.3858 49.9097 37.2725 50.3746 35.0324 50.5014C34.6943 50.5014 34.3139 50.5437 33.9335 50.5437C31.313 50.5437 28.8193 50.0788 26.9596 49.2335C26.6215 49.1067 25.6071 48.684 25.1845 48.3882L25.0999 48.3459L25.0154 48.3036C24.7195 48.1768 24.5082 48.05 24.2969 47.9232C23.6206 47.416 23.7897 47.0779 23.832 46.9088C24.1701 46.1058 24.7618 45.345 25.5226 44.7956C25.9452 44.4574 26.4102 44.1616 27.0019 43.908C28.8616 43.0627 31.313 42.5977 33.9757 42.5977H34.018C35.7932 42.5977 37.4838 42.8091 39.0054 43.1895C40.4001 43.5699 41.5413 44.077 42.3866 44.711C42.598 45.0069 42.8516 45.2182 43.1052 45.4295C43.5701 45.8522 43.8659 46.1481 43.8659 46.4439C43.8659 46.5285 43.8237 46.6975 43.7391 46.9088C44.2041 46.4017 44.669 45.979 45.1339 45.5563Z" fill="#94CD7C"/>
<path d="M64.4073 57.1379V57.0534V56.9689C64.2382 55.7432 63.731 54.3484 62.8857 52.8691C62.0404 51.3898 60.8992 49.9105 59.5467 48.6002C57.518 46.5715 55.2356 45.0499 53.1223 44.2891C52.4461 44.0355 51.7698 43.8665 51.1781 43.7819C50.6709 43.6974 50.1637 43.6974 49.6143 43.7397C48.769 44.4159 47.8814 45.1344 47.0783 45.853C46.867 46.022 46.6557 46.1911 46.4443 46.4024C46.4443 46.5292 46.4443 46.656 46.4866 46.7828C46.5289 46.9519 46.5289 47.1209 46.5711 47.29C46.5711 47.3323 46.5711 47.3745 46.6134 47.4168C46.6134 47.4591 46.6557 47.5013 46.6557 47.5436C46.6979 47.6281 46.6979 47.7127 46.7402 47.7972C46.8247 48.3044 47.0361 48.9806 47.4587 49.9527C48.2618 52.066 49.7833 54.3061 51.8121 56.3349C52.0234 56.5462 52.1925 56.7153 52.4461 56.9266C52.5306 56.9689 52.5729 57.0534 52.6574 57.0957C53.1223 57.5183 53.5873 57.8987 54.0522 58.2791C55.4469 59.3358 56.884 60.1811 58.2365 60.646C58.955 60.8996 59.589 61.0686 60.223 61.1532H60.2652C60.5188 61.1532 60.7302 61.1532 60.9415 61.1532C62.294 61.1532 63.2239 60.8996 63.7733 60.3501C64.4496 59.6316 64.4073 58.744 64.365 57.9832C64.365 57.6451 64.365 57.3493 64.4073 57.1379ZM62.7589 59.2935C62.5899 59.4625 62.0404 59.7584 60.392 59.6739C59.8849 59.6316 59.3354 59.4626 58.7859 59.2512C57.2221 58.6595 55.4892 57.6029 53.8831 56.1658L53.7141 55.9968C53.4605 55.7854 53.2069 55.5318 52.9533 55.2782C51.0936 53.4185 49.6565 51.3475 48.938 49.4033C48.8112 49.0652 48.3463 48.0931 48.304 47.5436V47.4591L48.2618 47.3745C48.135 47.1209 48.0927 46.8251 48.0504 46.6138C47.9236 45.7684 48.304 45.6416 48.4308 45.5571C49.2339 45.219 50.206 45.1344 51.0936 45.2612C51.6008 45.3035 52.1502 45.4726 52.7419 45.6839C54.6439 46.4024 56.7572 47.7972 58.6169 49.6569C59.8849 50.8826 60.9415 52.2774 61.7023 53.6299C62.4208 54.8978 62.8857 56.0813 63.0125 57.0957C62.9703 57.4338 62.9703 57.7719 63.0125 58.11C62.9703 58.6595 62.9703 59.0822 62.7589 59.2935Z" fill="#94CD7C"/>
<path d="M39.132 47.5861C39.0897 47.5861 39.0897 47.5861 39.0475 47.5861C35.7085 47.1634 32.7921 47.1634 29.1573 47.2902C28.7769 47.3325 28.3965 46.9944 28.3965 46.5717C28.3965 46.1491 28.6923 45.8109 29.115 45.8109C32.7921 45.6841 35.7507 45.7264 39.2165 46.1491C39.6392 46.1913 39.8928 46.5717 39.8505 46.9944C39.8505 47.2902 39.5124 47.5861 39.132 47.5861Z" fill="#231F20"/>
<path d="M59.0395 57.3487C58.8281 57.3487 58.6168 57.2642 58.4477 57.0529C56.3767 54.3479 54.348 52.2768 51.7275 49.7832C51.4316 49.4873 51.4316 49.0224 51.6852 48.7265C51.9811 48.4306 52.446 48.4306 52.7419 48.6842C55.4046 51.2202 57.4756 53.3335 59.5889 56.123C59.8425 56.4611 59.758 56.9261 59.4621 57.1797C59.3776 57.2642 59.2085 57.3487 59.0395 57.3487Z" fill="#231F20"/>
<path opacity="0.8" d="M89.1449 31.421C78.18 -2.93409 48.0265 -1.21633 34.3203 3.93694C26.6106 6.01539 -4.22826 25.4083 1.76818 56.328C7.76462 87.2476 37.7468 88.1064 50.5964 88.1064C63.4459 88.1064 102.851 74.365 89.1449 31.421Z" stroke="#94CD7C"/>
</svg>
