<svg width="93" height="90" viewBox="0 0 93 90" fill="none" xmlns="http://www.w3.org/2000/svg">
<circle cx="47" cy="46.1074" r="42.5" fill="white" stroke="#96CF7E"/>
<path opacity="0.8" d="M89.1449 31.422C78.18 -2.93311 48.0265 -1.21535 34.3203 3.93792C26.6106 6.01637 -4.22826 25.4093 1.76818 56.3289C7.76462 87.2485 37.7468 88.1074 50.5964 88.1074C63.4459 88.1074 102.851 74.3659 89.1449 31.422Z" stroke="#96CF7E"/>
<path d="M47.4923 48.4206C46.4235 51.198 43.7025 53.0894 40.6931 53.0894C36.5025 53.0894 32.9939 56.0706 32.1782 60.0222C29.872 56.4363 30.7017 51.1417 34.365 47.4714C37.297 44.5394 41.3329 43.3371 44.7853 44.3214C44.5603 43.8011 44.3704 43.2738 44.2157 42.7464C42.6759 42.4652 41.0376 42.5355 39.3993 42.9644C37.1634 43.548 35.0821 44.7574 33.3735 46.473C31.1235 48.723 29.7525 51.5988 29.5204 54.5659C29.2814 57.5683 30.2376 60.3105 32.2064 62.2792C33.8376 63.9105 35.9962 64.8456 38.436 64.9862C38.6329 64.9933 38.8298 65.0003 39.0337 65.0003C41.1853 65.0003 43.4282 64.3605 45.397 63.1652C45.7274 62.9612 45.8329 62.5323 45.636 62.2019C45.4321 61.8714 45.0032 61.7659 44.6728 61.9628C40.8126 64.2972 36.2353 64.0862 33.4228 61.4847C33.5775 57.6034 36.7837 54.4886 40.7071 54.4886C42.6126 54.4886 44.4267 53.8839 45.9454 52.7378C47.0845 51.873 47.9985 50.7339 48.5962 49.4402C48.2095 49.1238 47.8439 48.7863 47.4923 48.4206ZM51.8798 51.4581C51.3735 51.2472 50.8743 51.0011 50.3892 50.7199C50.7478 53.0191 50.1993 55.5573 48.8704 57.7652C48.6665 58.0956 48.779 58.5316 49.1095 58.7284C49.222 58.7987 49.3485 58.8339 49.4751 58.8339C49.7142 58.8339 49.9462 58.7144 50.0798 58.4964C51.3946 56.3027 52.0204 53.8136 51.8798 51.4581Z" fill="#94CD7C"/>
<path d="M47.0352 59.9102C46.8523 59.9102 46.6695 59.9875 46.5359 60.1141C46.4023 60.2477 46.332 60.4234 46.332 60.6133C46.332 60.7961 46.4094 60.9789 46.5359 61.1125C46.6695 61.2461 46.8453 61.3164 47.0352 61.3164C47.218 61.3164 47.4008 61.2391 47.5344 61.1125C47.668 60.9859 47.7383 60.8031 47.7383 60.6133C47.7383 60.4305 47.6609 60.2477 47.5344 60.1141C47.4078 59.9805 47.218 59.9102 47.0352 59.9102Z" fill="black"/>
<path d="M64.6136 38.9844C64.3113 37.768 63.8261 36.5797 63.1722 35.4477C61.5761 32.6844 59.1574 30.6172 56.3519 29.6258C53.5113 28.6204 50.6144 28.8313 48.2027 30.2235C48.1324 30.2657 48.0621 30.3008 47.9988 30.343C47.9566 30.3711 47.9144 30.3993 47.8722 30.4204C45.6433 31.8407 44.1386 34.1469 43.6113 36.9735C43.3581 38.3516 43.3511 39.779 43.5831 41.1922C43.5972 41.2696 43.6113 41.3399 43.6253 41.4172C43.6324 41.4594 43.6394 41.5016 43.6464 41.5368C43.9417 43.0344 44.5113 44.5321 45.3691 45.9454C48.8003 51.6196 55.5363 53.8274 60.416 50.8743C60.5074 50.818 60.5988 50.7618 60.6902 50.6985C60.7113 50.6844 60.7324 50.6704 60.7605 50.6563C62.8699 49.229 64.2972 46.979 64.8035 44.2438C65.1199 42.5352 65.0496 40.7352 64.6136 38.9844ZM52.5339 50.2907C50.0449 49.4118 47.8933 47.5626 46.466 45.0946C43.6042 40.1376 44.6027 34.154 48.6597 31.5946C52.3722 32.7477 54.5449 36.6501 53.5324 40.4399C52.9347 42.6829 53.2371 45.0243 54.4042 47.0352C55.2621 48.5258 56.5206 49.7071 58.0253 50.4594C56.3097 51.0079 54.4113 50.9586 52.5339 50.2907ZM59.755 49.6438C57.9972 49.0954 56.5347 47.9282 55.6136 46.3321C54.6363 44.6446 54.3832 42.6829 54.8824 40.7985C55.9652 36.7485 53.9964 32.593 50.3894 30.779C54.4535 29.4852 59.3613 31.6579 61.9558 36.1508C64.8175 41.1079 63.8191 47.0915 59.755 49.6438Z" fill="black"/>
</svg>
