<svg width="93" height="89" viewBox="0 0 93 89" fill="none" xmlns="http://www.w3.org/2000/svg">
<circle cx="47" cy="46" r="42.5" fill="white" stroke="#94CD7C"/>
<path opacity="0.8" d="M89.1449 31.422C78.18 -2.93311 48.0265 -1.21535 34.3203 3.93792C26.6106 6.01637 -4.22826 25.4093 1.76818 56.3289C7.76462 87.2485 37.7468 88.1074 50.5964 88.1074C63.4459 88.1074 102.851 74.3659 89.1449 31.422Z" stroke="#94CD7C"/>
<g clip-path="url(#clip0)">
<path d="M47.4966 26C53.4361 26.2437 58.5891 28.9082 61.896 34.6596C64.5126 39.225 64.6089 44.0179 62.6344 48.8757C61.4465 51.8164 59.6807 54.3834 57.642 56.7717C54.7525 60.1511 51.4456 63.0431 47.8176 65.5776C46.9989 66.1462 46.9668 66.1625 46.1963 65.6101C41.7336 62.4582 37.7043 58.8513 34.4616 54.3997C32.6637 51.9301 31.1708 49.2981 30.4805 46.3087C29.0679 40.1511 30.7534 34.8871 35.2643 30.5979C38.523 27.4947 42.5041 26.0975 47.4966 26ZM46.9829 64.5703C47.0952 64.5053 47.1916 64.4728 47.2718 64.4078C51.1887 61.6296 54.7525 58.4452 57.7383 54.6596C59.2794 52.71 60.6118 50.6141 61.5268 48.2746C63.5976 43.0268 63.0518 38.0552 59.6646 33.5386C53.7411 25.6101 41.6373 25.1389 35.1037 32.5475C31.6042 36.4955 30.4323 41.1097 31.7647 46.2762C32.439 48.8757 33.7071 51.199 35.2643 53.3599C38.4106 57.7465 42.3436 61.3046 46.71 64.4078C46.7902 64.4728 46.8866 64.5053 46.9829 64.5703Z" fill="black"/>
<path d="M59.5379 42.9786C59.5861 49.9323 53.8231 55.765 46.7919 55.6512C39.9213 55.5538 34.3831 49.8511 34.4152 42.8486C34.4633 35.8137 40.0818 30.1923 47.0327 30.2247C53.9997 30.241 59.5861 35.9437 59.5379 42.9786ZM58.3179 42.9949C58.4142 36.7723 53.3576 31.557 47.113 31.4595C40.8845 31.362 35.7636 36.4473 35.6512 42.8161C35.5389 49.0875 40.5795 54.3027 46.8883 54.384C53.1489 54.449 58.2376 49.3637 58.3179 42.9949Z" fill="black"/>
<path d="M40.1616 41.499C42.714 41.2553 44.6725 42.1327 46.2296 44.066C46.4864 43.6274 46.2457 43.3674 46.0209 43.1237C45.2504 42.2951 44.7206 41.3366 44.4959 40.2155C43.9822 37.7297 44.6725 35.6176 46.4704 33.863C46.8075 33.538 47.1125 33.538 47.4657 33.8467C50.291 36.4462 50.1786 40.2968 48.2683 42.7175C48.1238 42.9125 47.9152 43.0587 47.8028 43.2699C47.6904 43.4812 47.6583 43.7411 47.6744 44.0173C48.6375 42.9613 49.697 42.1327 51.0455 41.7265C51.8963 41.4665 52.6989 41.4015 53.6621 41.5153C53.951 41.6777 54.0152 41.9539 54.0313 42.2626C54.1437 45.7557 51.7197 48.5665 48.2683 48.9889C48.0917 49.0051 47.8991 49.0539 47.6262 49.1026C47.6262 49.6063 47.6262 50.1262 47.6262 50.6298C47.6262 50.8735 47.6423 51.1172 47.6262 51.3609C47.6101 51.9458 47.4175 52.222 47.0162 52.2383C46.6149 52.2383 46.3901 51.9621 46.3741 51.3934C46.358 50.906 46.3741 50.4186 46.3741 49.9312C46.3741 49.6712 46.3741 49.395 46.3741 49.1026C46.053 49.0539 45.7801 49.0214 45.5233 48.9889C42.2324 48.5665 39.7763 45.5933 39.985 42.2301C39.985 41.9702 40.0974 41.759 40.1616 41.499ZM46.9841 35.244C45.0096 37.0636 45.2343 40.7192 46.968 42.1652C48.7178 40.7192 48.9907 37.1286 46.9841 35.244ZM41.2693 42.8313C41.3495 45.5445 43.8859 48.0465 46.1493 47.6404C46.2296 45.0896 43.6772 42.5388 41.2693 42.8313ZM47.8028 47.6241C49.9218 48.0303 52.8755 45.4633 52.6508 42.8313C50.3391 42.4901 47.7707 45.0409 47.8028 47.6241Z" fill="#94CD7C"/>
</g>
<defs>
<clipPath id="clip0">
<rect width="34" height="40" fill="white" transform="translate(30 26)"/>
</clipPath>
</defs>
</svg>
