
<svg width="93" height="89" viewBox="0 0 93 89" fill="none" xmlns="http://www.w3.org/2000/svg">
<circle cx="47" cy="46" r="42.5" fill="white" stroke="#94CD7C"/>
<g clip-path="url(#clip0)">
<path d="M64.9002 50.4875C64.3399 47.9899 61.861 46.4195 59.3634 46.9798C59.2366 47.0083 59.1111 47.042 58.9873 47.081V45.9997C58.9873 45.6315 58.6888 45.333 58.3206 45.333H31.654C31.2858 45.333 30.9873 45.6315 30.9873 45.9997V47.9997C30.9961 52.959 33.2986 57.6353 37.224 60.6663H29.654C29.2858 60.6663 28.9873 60.9648 28.9873 61.333C28.9906 63.9089 31.0781 65.9963 33.654 65.9997H56.3206C58.8965 65.9963 60.984 63.9089 60.9873 61.333C60.9873 60.9648 60.6888 60.6663 60.3206 60.6663H52.7506C53.9984 59.6997 55.0965 58.5539 56.0093 57.2663L61.3926 56.0243C63.8901 55.464 65.4606 52.9851 64.9002 50.4875ZM58.6413 51.2817V51.2797L60.168 50.9743C60.5374 50.8955 60.9008 51.1312 60.9796 51.5006C61.0553 51.8552 60.8411 52.2073 60.4913 52.303L58.1866 52.9617C58.3688 52.4104 58.5205 51.8496 58.6413 51.2817ZM59.5873 61.9997C59.2685 63.5508 57.9041 64.6646 56.3206 64.6663H33.654C32.0705 64.6646 30.7061 63.5508 30.3873 61.9997H59.5873ZM50.3773 60.6663H39.5973C35.098 58.0325 32.3294 53.2133 32.3206 47.9997V46.6663H57.654V47.9997C57.6451 53.2133 54.8766 58.0325 50.3773 60.6663ZM63.0298 53.438C62.5615 54.0875 61.8734 54.5448 61.0933 54.725L57.012 55.6663C57.2169 55.2921 57.4066 54.9103 57.5813 54.521L60.858 53.5843C61.9298 53.2803 62.5521 52.1648 62.2481 51.0929C61.9603 50.0789 60.9405 49.4573 59.9073 49.6663L58.8693 49.8737C58.9246 49.4143 58.9566 48.9503 58.9706 48.483L59.304 48.3717C60.3117 48.0304 61.4225 48.2005 62.282 48.8277V48.8257C63.7621 49.8928 64.097 51.9578 63.0298 53.438Z" fill="black"/>
<path d="M48.9863 30C47.8817 30 46.9863 29.1046 46.9863 28V26H45.653V28C45.6552 29.84 47.1463 31.3312 48.9863 31.3333C50.0909 31.3333 50.9863 32.2288 50.9863 33.3333C50.9863 34.4379 50.0909 35.3333 48.9863 35.3333H41.653C36.8688 35.3388 32.9918 39.2158 32.9863 44H34.3197C34.3244 39.9519 37.6049 36.6714 41.653 36.6667H48.9863C50.8272 36.6667 52.3197 35.1743 52.3197 33.3333C52.3197 31.4924 50.8272 30 48.9863 30Z" fill="#94CD7C"/>
<path d="M53.6536 38.6667H56.6536C59.4151 38.6667 61.6537 36.4281 61.6537 33.6667C61.6537 30.9053 59.4151 28.6667 56.6536 28.6667H56.3203C55.2157 28.6667 54.3203 27.7713 54.3203 26.6667V26H52.987V26.6667C52.987 28.5076 54.4794 30 56.3203 30H56.6536C58.6787 30 60.3203 31.6416 60.3203 33.6667C60.3203 35.6918 58.6787 37.3333 56.6536 37.3333H53.6536C52.365 37.3333 51.3203 38.378 51.3203 39.6667C51.3203 40.9553 52.365 42 53.6536 42C54.7582 42 55.6536 42.8954 55.6536 44H56.987C56.9848 42.16 55.4936 40.6688 53.6536 40.6667C53.1014 40.6667 52.6536 40.2189 52.6536 39.6667C52.6536 39.1144 53.1013 38.6667 53.6536 38.6667Z" fill="#94CD7C"/>
<path d="M35.3085 50.5205L34.0078 50.8125C34.3965 52.5458 35.2745 54.9458 37.2371 56.5205L38.0705 55.4792C36.4078 54.1492 35.6538 52.0485 35.3085 50.5205Z" fill="#94CD7C"/>
<path d="M34.9867 48H33.6533C33.6621 48.4743 33.6983 48.9478 33.762 49.418L35.0847 49.2487C35.0286 48.8346 34.9958 48.4178 34.9867 48Z" fill="#94CD7C"/>
</g>
<path opacity="0.8" d="M89.1449 31.3146C78.18 -3.04053 48.0265 -1.32278 34.3203 3.83049C26.6106 5.90895 -4.22826 25.3019 1.76818 56.2215C7.76462 87.1411 37.7468 88 50.5964 88C63.4459 88 102.851 74.2585 89.1449 31.3146Z" stroke="#94CD7C"/>
<defs>
<clipPath id="clip0">
<rect width="40" height="40" fill="white" transform="translate(27 26)"/>
</clipPath>
</defs>
</svg>
