<svg width="93" height="89" viewBox="0 0 93 89" fill="none" xmlns="http://www.w3.org/2000/svg">
<circle cx="47" cy="46" r="42.5" fill="white" stroke="#94CD7C"/>
<path opacity="0.8" d="M89.1449 31.422C78.18 -2.93311 48.0265 -1.21535 34.3203 3.93792C26.6106 6.01637 -4.22826 25.4093 1.76818 56.3289C7.76462 87.2485 37.7468 88.1074 50.5964 88.1074C63.4459 88.1074 102.851 74.3659 89.1449 31.422Z" stroke="#94CD7C"/>
<g clip-path="url(#clip0)">
<path d="M29.127 42.9043C28.4045 42.9047 27.7317 43.2722 27.3408 43.8798C26.95 44.4874 26.8945 45.252 27.1937 45.9096L29.8063 51.6576C30.1586 52.4356 30.649 53.1432 31.2537 53.7463L35.363 57.8556C35.1308 58.1008 35.0008 58.4253 34.9997 58.763V64.0963C34.9997 64.8327 35.5966 65.4296 36.333 65.4296H43.6663C44.4027 65.4296 44.9997 64.8327 44.9997 64.0963V58.763C44.9997 58.0266 44.4027 57.4296 43.6663 57.4296V56.1883C43.6867 54.6097 43.1718 53.0708 42.2057 51.8223C41.639 51.0763 40.8663 50.5125 39.983 50.2003C38.5791 49.61 37.2878 48.7813 36.1663 47.751C35.1265 46.8925 33.6479 46.8141 32.523 47.5576L31.081 44.193C30.7465 43.4109 29.9776 42.9038 29.127 42.9043ZM43.6663 64.0963H36.333V58.763H43.6663V64.0963ZM31.3463 48.2003C31.7432 49.1268 32.3139 49.9687 33.0277 50.6803L36.073 53.7256C36.2404 53.8989 36.4883 53.9684 36.7213 53.9074C36.9544 53.8464 37.1365 53.6644 37.1975 53.4313C37.2585 53.1982 37.189 52.9503 37.0157 52.783L33.9703 49.7336C33.6638 49.4284 33.3884 49.0934 33.1483 48.7336C33.7884 48.2408 34.6841 48.2554 35.3077 48.769C36.5536 49.9132 37.994 50.8256 39.561 51.463C40.1997 51.6952 40.7568 52.1085 41.1643 52.6523C41.9419 53.6652 42.3538 54.9115 42.333 56.1883V57.4296H36.8203L32.1943 52.8003C31.7032 52.31 31.3048 51.735 31.0183 51.103L28.4057 45.3576C28.2945 45.1124 28.3154 44.8275 28.4612 44.6011C28.607 44.3747 28.8577 44.2378 29.127 44.2376C29.4439 44.2374 29.7303 44.4263 29.855 44.7176L31.3463 48.2003Z" fill="black"/>
<path d="M42.3333 60.7637H41.6667C41.2985 60.7637 41 61.0621 41 61.4303C41 61.7985 41.2985 62.097 41.6667 62.097H42.3333C42.7015 62.097 43 61.7985 43 61.4303C43 61.0621 42.7015 60.7637 42.3333 60.7637Z" fill="#94CD7C"/>
<path d="M50.3333 65.4295H57.6667C58.4031 65.4295 59 64.8326 59 64.0962V58.7628C58.9992 58.4254 58.8698 58.1009 58.638 57.8555L62.7474 53.7468C63.3519 53.1434 63.8422 52.4356 64.1947 51.6575L66.8074 45.9095C67.1286 45.2125 67.0491 44.3965 66.5994 43.7746C66.1498 43.1527 65.3997 42.8215 64.6372 42.9082C63.8746 42.9948 63.218 43.4859 62.9194 44.1928L61.4807 47.5495C60.3528 46.8083 58.8734 46.8894 57.8333 47.7495C56.712 48.7804 55.4207 49.6095 54.0167 50.2002C53.1339 50.5119 52.3615 51.075 51.7947 51.8202C50.8278 53.0691 50.3127 54.6089 50.3333 56.1882V57.4295C49.597 57.4295 49 58.0265 49 58.7628V64.0962C49 64.8326 49.597 65.4295 50.3333 65.4295ZM51.6667 56.1882C51.6467 54.9122 52.0588 53.667 52.836 52.6548C53.2426 52.1117 53.7986 51.6987 54.436 51.4662C56.003 50.8288 57.4434 49.9165 58.6894 48.7722C59.3124 48.255 60.2106 48.2381 60.8527 48.7315C60.6122 49.092 60.3364 49.4276 60.0294 49.7335L56.984 52.7795C56.7314 53.0411 56.735 53.4569 56.9921 53.7141C57.2493 53.9712 57.6651 53.9748 57.9267 53.7222L60.972 50.6768C61.6855 49.9662 62.2562 49.1255 62.6534 48.2002L64.1447 44.7208C64.2694 44.4295 64.5558 44.2407 64.8727 44.2409C65.142 44.2411 65.3927 44.3779 65.5385 44.6043C65.6843 44.8307 65.7052 45.1156 65.594 45.3609L62.9814 51.1088C62.6947 51.7412 62.2961 52.3164 61.8047 52.8068L57.1793 57.4328H51.6667V56.1882ZM50.3333 58.7628H57.6667V64.0962H50.3333V58.7628Z" fill="black"/>
<path d="M52.3333 60.7637H51.6667C51.2985 60.7637 51 61.0621 51 61.4303C51 61.7985 51.2985 62.097 51.6667 62.097H52.3333C52.7015 62.097 53 61.7985 53 61.4303C53 61.0621 52.7015 60.7637 52.3333 60.7637Z" fill="#94CD7C"/>
<path d="M37.1151 31.596C36.1467 32.593 35.624 33.9401 35.6665 35.3294C35.7517 37.5967 36.7248 39.7396 38.3758 41.296C39.9479 42.9417 42.1013 43.9072 44.3758 43.986C45.7595 44.0242 47.101 43.5077 48.1018 42.5514C49.0699 41.5542 49.5924 40.2072 49.5498 38.818C49.4644 36.5512 48.4919 34.4086 46.8418 32.852C43.8218 29.832 39.4598 29.2667 37.1151 31.596ZM39.3151 40.352C37.924 39.0385 37.0945 37.2382 36.9998 35.3274C36.9939 34.8028 37.0829 34.2816 37.2625 33.7887C37.8447 34.1336 38.4974 34.3422 39.1718 34.3987C40.6691 34.4769 41.8664 35.6716 41.9478 37.1687C42.1142 39.2525 43.771 40.9062 45.8551 41.0687C46.3468 41.1016 46.8246 41.2464 47.2518 41.492C47.2185 41.528 47.1938 41.572 47.1591 41.6067C45.3365 43.4174 41.8185 42.854 39.3178 40.352H39.3151ZM48.2125 38.8187C48.2185 39.3432 48.1298 39.8644 47.9505 40.3574C47.3681 40.0122 46.7151 39.8036 46.0405 39.7474C44.5445 39.6682 43.3485 38.4745 43.2665 36.9787C43.1001 34.8951 41.4437 33.2415 39.3598 33.0787C38.8682 33.0456 38.3907 32.9005 37.9638 32.6547C37.9971 32.6187 38.0211 32.5754 38.0558 32.5407C38.8067 31.8272 39.8125 31.4449 40.8478 31.4794C42.7679 31.5675 44.5787 32.3979 45.8985 33.7954C47.2896 35.1087 48.1196 36.9086 48.2151 38.8194L48.2125 38.8187Z" fill="#94CD7C"/>
<path d="M49.6967 43.2C49.688 43.515 49.901 43.7931 50.2073 43.8667C50.6004 43.9602 51.0033 44.0063 51.4073 44.004C55.234 43.9967 58.3407 39.9593 58.3347 35.004C58.3413 30.6113 55.9293 26.8827 52.6013 26.1373C52.2072 26.0474 51.8043 26.0013 51.4 26C49.16 26.0073 47.054 27.4133 45.7667 29.7627C45.6461 29.9721 45.6483 30.2303 45.7723 30.4376C45.8964 30.645 46.1229 30.769 46.3644 30.7617C46.6059 30.7545 46.8246 30.6171 46.936 30.4027C48.0027 28.458 49.6307 27.336 51.4027 27.336C51.5093 27.336 51.6173 27.3407 51.7267 27.35C51.5919 27.9821 51.2964 28.5688 50.8687 29.0533C50.0988 29.9283 49.6801 31.0573 49.6933 32.2227C49.6806 33.3912 50.1009 34.5231 50.8733 35.4C51.4673 36.0491 51.7926 36.8996 51.7833 37.7793C51.7957 38.6558 51.4709 39.5036 50.876 40.1473C50.1337 40.993 49.7157 42.0749 49.6967 43.2ZM51.9413 40.9493C53.5098 39.1235 53.5098 36.4259 51.9413 34.6C51.347 33.9514 51.0214 33.1011 51.0307 32.2213C51.0182 31.3447 51.3433 30.4969 51.9387 29.8533C52.4749 29.2246 52.8483 28.4737 53.026 27.6667C55.3407 28.636 57.0053 31.6273 57 35C57.0053 39.2213 54.4953 42.66 51.4047 42.6667C51.2947 42.6667 51.188 42.6627 51.0833 42.654C51.2175 42.0209 51.5131 41.4332 51.9413 40.948V40.9493Z" fill="#94CD7C"/>
<path d="M30.333 34.6667C30.333 35.0349 30.6315 35.3333 30.9997 35.3333H32.9997C33.3679 35.3333 33.6663 35.0349 33.6663 34.6667C33.6663 34.2985 33.3679 34 32.9997 34H30.9997C30.6315 34 30.333 34.2985 30.333 34.6667Z" fill="black"/>
<path d="M60.333 34.6667C60.333 35.0349 60.6315 35.3333 60.9997 35.3333H62.9997C63.3679 35.3333 63.6664 35.0349 63.6664 34.6667C63.6664 34.2985 63.3679 34 62.9997 34H60.9997C60.6315 34 60.333 34.2985 60.333 34.6667Z" fill="black"/>
<path d="M34.5412 41.0896L32.8079 42.0896C32.5999 42.2078 32.4712 42.4284 32.4707 42.6677C32.4702 42.9069 32.5979 43.1281 32.8053 43.2472C33.0128 43.3664 33.2682 43.3652 33.4745 43.2443L35.2079 42.2443C35.4158 42.126 35.5445 41.9054 35.545 41.6662C35.5456 41.4269 35.4179 41.2058 35.2104 41.0866C35.003 40.9675 34.7476 40.9686 34.5412 41.0896Z" fill="black"/>
<path d="M60.5226 26.0896L58.7893 27.0896C58.5813 27.2078 58.4527 27.4284 58.4522 27.6677C58.4516 27.9069 58.5793 28.1281 58.7868 28.2472C58.9942 28.3664 59.2496 28.3652 59.456 28.2443L61.1893 27.2443C61.3973 27.126 61.5259 26.9054 61.5265 26.6662C61.527 26.4269 61.3993 26.2058 61.1919 26.0866C60.9844 25.9675 60.729 25.9686 60.5226 26.0896Z" fill="black"/>
<path d="M58.7913 42.2443L60.5246 43.2443C60.6258 43.303 60.7409 43.3338 60.8579 43.3336C61.1596 43.3336 61.4238 43.1309 61.5018 42.8395C61.5799 42.548 61.4525 42.2405 61.1913 42.0896L59.4579 41.0896C59.2515 40.9686 58.9962 40.9675 58.7887 41.0866C58.5813 41.2058 58.4536 41.4269 58.4541 41.6662C58.4546 41.9054 58.5833 42.126 58.7913 42.2443Z" fill="black"/>
<path d="M35.2081 27.0892L33.4748 26.0892C33.1562 25.9081 32.7512 26.018 32.5679 26.3354C32.3847 26.6528 32.492 27.0585 32.8081 27.2439L34.5415 28.2439C34.7478 28.3648 35.0032 28.366 35.2107 28.2468C35.4181 28.1277 35.5458 27.9065 35.5453 27.6673C35.5448 27.428 35.4161 27.2074 35.2081 27.0892Z" fill="black"/>
</g>
<defs>
<clipPath id="clip0">
<rect width="40" height="40" fill="white" transform="translate(27 26)"/>
</clipPath>
</defs>
</svg>
