<svg width="93" height="90" viewBox="0 0 93 90" fill="none" xmlns="http://www.w3.org/2000/svg">
<circle cx="47" cy="46.1064" r="42.5" fill="white" stroke="#94CD7C"/>
<path opacity="0.8" d="M89.1449 31.421C78.18 -2.93409 48.0265 -1.21633 34.3203 3.93694C26.6106 6.01539 -4.22826 25.4083 1.76818 56.328C7.76462 87.2476 37.7468 88.1064 50.5964 88.1064C63.4459 88.1064 102.851 74.365 89.1449 31.421Z" stroke="#94CD7C"/>
<path d="M55.4956 60.214C55.4956 60.1797 55.4956 60.1455 55.4614 60.1112C55.4614 60.077 55.4614 60.0427 55.4271 60.0085C55.3929 59.9057 55.3586 59.7687 55.2901 59.666L49.9128 50.3499L49.0566 48.8772L48.9538 48.7059L48.9196 48.6374L42.8915 38.1226C42.6175 37.6773 42.1723 37.4033 41.6585 37.4033C41.1448 37.4033 40.6653 37.6773 40.4255 38.1226L27.9584 59.6317C27.6844 60.077 27.6844 60.625 27.9584 61.0703C28.2324 61.5155 28.6777 61.7895 29.1914 61.7895H54.0229C54.5366 61.7895 55.0161 61.5155 55.2559 61.0703C55.4614 60.7963 55.5299 60.5223 55.4956 60.214ZM29.2599 60.3167L35.4935 49.5622L36.247 48.2607L41.6243 38.9446L47.1043 48.3977L47.8578 49.6992L48.2346 50.3499L53.9886 60.3167H29.2599Z" fill="black"/>
<path d="M47.8576 49.6998L45.6313 51.6521C45.4601 51.7548 45.2888 51.8233 45.1176 51.8233C44.9463 51.8233 44.7751 51.7548 44.6381 51.6521L41.7268 49.1176L38.8155 51.6521C38.5415 51.8918 38.1305 51.8918 37.8565 51.6521L35.459 49.5628L36.2125 48.2613L38.336 50.1108L41.213 47.5763C41.487 47.3365 41.898 47.3365 42.172 47.5763L45.0833 50.1108L47.0698 48.3983L47.8576 49.6998Z" fill="#94CD7C"/>
<path d="M48.9884 48.7062L48.9541 48.6377L48.9884 48.7062Z" fill="black"/>
<path d="M66.0445 59.6321L55.7009 41.7193C55.4269 41.274 54.9817 41 54.4679 41C53.9542 41 53.4747 41.274 53.2349 41.7193L49.0564 48.8776L49.9126 50.3503L50.0154 50.1791L50.7689 48.8776L54.4337 42.507L58.0984 48.8776L58.852 50.1791L64.7087 60.3171H55.4612C55.4612 60.2829 55.4612 60.2486 55.4612 60.2144C55.4954 60.5226 55.4269 60.8309 55.2899 61.0707C55.0159 61.5159 54.5707 61.7899 54.0569 61.7899H64.8115C65.3253 61.7899 65.8048 61.5159 66.0445 61.0707C66.2843 60.6254 66.2843 60.1116 66.0445 59.6321ZM53.9884 60.3171L48.2344 50.3503L53.9884 60.3171Z" fill="black"/>
<path d="M58.8864 50.1785L54.6736 51.4457C54.6051 51.48 54.5366 51.48 54.4681 51.48C54.3996 51.48 54.3311 51.48 54.2626 51.4457L50.0498 50.1785L50.8033 48.877L54.4681 49.973L58.1329 48.877L58.8864 50.1785Z" fill="#94CD7C"/>
<path d="M50.6851 36.5264C48.0535 36.5264 45.9482 34.4212 45.9482 31.7896C45.9482 29.158 48.0535 27.0527 50.6851 27.0527C53.3167 27.0527 55.4219 29.158 55.4219 31.7896C55.4219 34.3773 53.3167 36.5264 50.6851 36.5264ZM50.6851 28.9387C49.1061 28.9387 47.8342 30.2106 47.8342 31.7896C47.8342 33.3685 49.1061 34.6405 50.6851 34.6405C52.264 34.6405 53.536 33.3685 53.536 31.7896C53.536 30.2106 52.264 28.9387 50.6851 28.9387Z" fill="#94CD7C"/>
</svg>
