<svg width="154" height="424" viewBox="0 0 154 424" fill="none" xmlns="http://www.w3.org/2000/svg">
    <g opacity="0.05">
        <path
            d="M-36.6252 349.461L-41.0316 347.514L-42.9898 340.7L-45.4377 330.479C-55.2293 323.665 -63.0625 312.958 -66.4896 299.816C-69.9166 306.63 -73.3437 312.958 -76.2812 318.798C-97.8227 358.222 -112.51 388.398 -110.552 416.141L-110.062 431.716C-78.2395 447.778 -42.5002 457.025 -4.80257 457.025C24.0826 457.025 51.9886 451.671 77.9363 441.937L60.3114 429.283L46.1137 430.743L42.1969 431.229L38.2803 429.769C37.3012 429.283 31.9158 426.849 25.5513 421.982C15.2701 429.283 3.03067 433.176 -10.188 433.176C-43.9689 433.176 -71.3854 405.92 -71.3854 372.337V349.948H-36.6252V349.461Z"
            fill="#171B1C" />
        <path
            d="M35.8307 331.457L33.3828 340.704L31.9141 347.518L27.5078 349.952H30.9349C35.8307 348.005 41.7056 347.032 48.0701 347.032C54.9242 347.032 60.3096 348.005 61.2888 348.492L64.7157 349.465L67.6532 351.899L88.705 369.421L91.1529 370.394C85.278 354.332 75.9761 339.731 66.1846 323.669C62.7575 318.316 59.3304 312.962 55.9034 307.121C51.9868 317.342 44.6431 325.616 35.8307 331.457Z"
            fill="#171B1C" />
        <path
            d="M143.049 1.46132L135.216 13.6292C134.727 14.6026 119.55 36.5048 75.9771 40.8852C38.7691 44.779 17.7171 58.8937 13.3109 82.256C11.8422 90.0435 10.3735 98.8043 9.39436 105.618C5.47774 104.645 -9.69931 104.158 -16.5534 106.105C-17.5326 99.2911 -19.0013 90.5302 -20.47 82.256C-24.8762 58.8937 -45.928 44.779 -83.136 40.8852C-126.709 36.0181 -141.886 14.1159 -142.375 13.6292L-150.698 0.974609L-154.615 15.0893C-157.062 24.3369 -157.063 44.779 -145.802 61.814C-136.5 75.9287 -122.302 84.2029 -103.209 87.1232C-90.9693 89.07 -82.6466 93.9372 -77.7508 102.211C-71.8758 112.432 -72.3653 125.574 -73.8341 135.795C-79.709 131.414 -88.5215 125.087 -96.3547 122.167C-109.084 116.813 -146.292 111.946 -150.698 111.459L-160 110.485L-158.042 119.733C-153.146 139.688 -136.011 157.697 -113.49 166.944C-105.657 169.865 -97.8234 171.812 -90.4797 171.812C-87.0527 171.812 -84.1152 171.325 -81.1777 170.838C-81.6673 177.165 -82.157 183.979 -82.157 190.307C-82.157 199.554 -75.7925 217.076 -67.9592 233.624C-72.3654 243.845 -89.9903 283.756 -102.23 305.658C-126.219 349.463 -144.704 389.196 -141.767 424.726L-128.059 433.974C-130.507 401.851 -113 353.843 -90.4797 311.986C-80.6881 293.977 -67.9592 266.234 -60.6155 249.686C-55.7197 259.907 -51.3134 268.181 -49.3551 272.562C-49.8447 274.508 -50.3343 275.482 -50.3343 275.969C-58.6572 298.844 -43.4801 314.906 -34.1781 320.26L-33.1991 320.746H-32.7095L-27.8137 336.808L-20.9596 340.215L-8.72012 365.524H-55.7197V372.338C-55.7197 397.161 -35.1573 417.603 -10.1888 417.603C4.49857 417.603 17.7172 410.789 26.04 400.081C32.4045 410.302 44.644 415.656 44.644 415.656L64.7167 413.709L126.893 458L129.831 457.513C130.32 457.513 144.518 454.593 150.393 442.912C154.31 435.124 153.82 425.39 148.924 414.682L147.945 412.249L128.362 403.488C126.404 363.577 109.758 336.808 91.6436 308.092C78.9145 287.163 65.6959 265.748 57.373 238.492C65.6959 219.996 73.5292 199.554 73.5292 189.82C73.5292 183.493 73.0396 176.679 72.55 170.351C75.4875 170.838 78.4249 171.325 81.852 171.325C89.1957 171.325 96.5394 169.865 104.862 166.458C127.383 157.697 145.008 139.202 149.414 119.246L151.372 109.999L142.07 110.972C137.664 111.459 100.456 116.326 87.727 121.68C79.8937 125.087 71.0813 130.928 65.2063 135.308C63.7376 125.574 63.248 111.946 69.1229 101.725C74.0187 93.4505 82.3416 88.5833 94.5811 86.6365C113.675 83.7162 128.362 75.442 137.174 61.3273C148.435 44.2922 148.435 23.3635 145.987 14.6026L143.049 1.46132ZM-101.251 133.848C-97.8235 135.308 -93.9069 137.742 -89.9903 140.175C-90.9694 140.175 -91.459 140.175 -92.4382 139.688C-102.719 138.228 -113.49 136.281 -128.177 127.521C-116.917 129.467 -106.146 131.901 -101.251 133.848ZM-107.615 153.803C-113.49 151.37 -119.365 147.963 -125.24 143.582C-113 149.423 -103.209 150.883 -93.9068 152.343C-88.5215 153.316 -83.6256 153.803 -78.7299 155.75C-86.0735 159.157 -96.8443 158.184 -107.615 153.803ZM93.1124 133.848C98.0082 131.901 108.289 129.467 119.06 128.007C104.373 136.768 93.602 138.228 83.3208 140.175C82.8312 140.175 82.3416 140.175 81.852 140.175C85.7686 137.742 89.6853 135.308 93.1124 133.848ZM85.7687 152.83C95.0707 151.37 105.352 149.909 118.57 143.095C112.695 147.963 106.331 151.856 99.9665 154.29C88.7062 158.67 78.425 159.157 71.0813 155.75C75.9771 154.29 80.3833 153.316 85.7687 152.83ZM25.5504 84.6896C27.0191 77.3889 30.4463 72.035 36.3212 67.1679C37.7899 74.4686 43.1753 89.5567 58.8419 93.9372C58.3523 94.4239 57.8626 94.9106 57.8626 95.3973C56.3939 98.3176 55.4147 100.264 54.4355 103.185H53.9461H53.4565C35.8316 103.185 27.0192 94.9106 24.0817 91.9903C24.5713 90.0435 25.0608 87.1232 25.5504 84.6896ZM54.9252 148.936C49.0502 152.83 38.7691 161.591 31.915 176.192C28.488 183.493 26.04 193.714 24.0817 203.448C23.1026 196.634 22.613 189.333 21.6338 182.519C26.0401 152.83 38.769 140.175 44.644 135.308C48.5606 138.228 51.4982 141.635 53.9461 145.042C54.4357 146.989 54.4356 147.963 54.9252 148.936ZM23.5921 95.3973C27.5087 99.2911 36.8108 105.618 53.4565 105.618C51.4982 111.459 51.0086 117.786 51.0086 124.114C41.7066 117.299 30.9358 112.432 21.6338 109.025C22.1234 105.618 23.1025 100.751 23.5921 95.3973ZM20.165 122.653C22.1233 123.14 23.5921 124.114 25.5504 124.6C24.0817 127.521 22.1233 131.414 20.165 136.281C20.165 130.441 20.165 126.06 20.165 122.653ZM27.9983 125.574C33.3837 128.007 38.2795 130.928 43.1753 133.848C37.3003 138.228 26.5296 149.423 21.1442 172.785C20.6546 162.077 20.165 152.343 20.165 144.069C22.6129 135.795 25.5504 129.467 27.9983 125.574ZM-27.8137 138.228C-29.772 133.361 -31.7303 128.981 -33.1991 126.06C-31.2408 125.087 -29.772 124.6 -27.8137 123.627C-28.3033 127.521 -27.8137 132.388 -27.8137 138.228ZM-27.8137 146.016C-27.8137 154.777 -28.3033 164.511 -28.7929 175.219C-33.6887 152.343 -43.4802 140.662 -49.8447 135.308C-45.4385 131.901 -40.5428 129.467 -35.647 127.034C-33.1991 131.414 -30.2616 137.742 -27.8137 146.016ZM-29.2823 110.485C-38.5844 113.893 -49.3551 119.246 -59.1467 126.547C-59.1467 120.22 -59.6363 112.919 -61.5946 106.105C-44.4593 106.105 -35.6469 98.8043 -31.7302 94.9106C-30.7511 100.751 -30.2615 106.105 -29.2823 110.485ZM-33.6887 84.6896C-33.1991 87.1232 -32.7094 89.5568 -32.2199 91.9903C-34.1782 94.4239 -42.9906 103.671 -62.0842 103.671C-62.0842 103.671 -62.0842 103.671 -62.5738 103.671C-63.553 100.751 -64.5321 98.3176 -66.4904 95.884C-66.98 95.3973 -67.4696 94.4239 -67.9592 93.9372C-51.8031 89.07 -46.9073 73.4952 -45.4386 66.6811C-38.5844 71.5483 -35.1574 77.3889 -33.6887 84.6896ZM-142.375 32.1244C-138.948 35.0447 -134.052 37.965 -128.667 40.8852C-130.625 43.8055 -134.052 47.2125 -137.479 49.1594C-140.417 43.3188 -141.886 37.4782 -142.375 32.1244ZM-134.542 55C-135.031 54.0266 -136.011 52.5664 -136.5 51.593C-132.094 49.1594 -128.667 45.2657 -126.219 42.3454C-121.323 44.779 -115.448 47.2125 -108.594 49.1594C-111.042 54.5133 -116.427 63.7609 -125.24 64.7343C-129.156 61.814 -132.094 58.407 -134.542 55ZM-102.719 73.9819C-110.552 72.5217 -117.407 70.0881 -122.792 66.1944C-113.98 63.7608 -108.594 55 -106.636 49.1594C-101.74 50.6195 -95.8652 51.593 -89.9903 52.5664C-91.459 58.407 -94.3964 69.1147 -102.719 73.9819ZM-99.7818 74.9553C-91.9486 69.1147 -89.011 58.407 -88.0318 53.5398C-87.0527 53.5398 -86.0736 54.0265 -85.0945 54.0265C-80.1987 54.5133 -75.3028 55.4867 -71.3862 55.9734C-70.8966 61.3273 -71.3862 73.9819 -79.7091 82.256C-85.0944 78.3623 -91.9486 75.9287 -99.7818 74.9553ZM-77.2612 83.2295C-68.4488 74.9553 -67.9591 62.3007 -68.4487 56.4601C-59.6362 58.407 -52.2926 61.3273 -46.9072 65.221C-47.8864 71.0616 -52.2926 87.6099 -68.4487 91.9903C-70.8966 88.5833 -73.8341 85.663 -77.2612 83.2295ZM-43.4803 253.093C-55.2302 229.244 -68.4487 199.068 -68.4487 188.847C-68.4487 180.086 -67.4695 169.865 -66.4904 162.564C-62.0842 166.458 -56.2092 172.298 -51.803 182.033C-52.2926 182.033 -52.7823 182.033 -53.2718 182.033C-58.6572 182.033 -63.5529 186.413 -63.5529 192.254C-63.5529 197.607 -59.1468 202.475 -53.2718 202.475C-50.8239 202.475 -48.376 201.501 -46.9072 200.041C-42.9906 218.536 -42.501 241.899 -42.0114 246.766C-42.0114 248.713 -42.9907 251.146 -43.4803 253.093ZM-62.5738 148.936C-62.5738 148.449 -62.0842 147.963 -62.0842 147.476C-59.1467 143.582 -55.7196 140.175 -51.3134 136.768C-44.4593 142.122 -32.7094 156.237 -29.2823 185.44C-29.7719 191.767 -30.7512 198.581 -31.2408 204.908C-32.7095 194.201 -35.6469 183.493 -39.0739 176.192C-46.9072 161.591 -56.6989 153.316 -62.5738 148.936ZM-27.8137 308.092C-31.2407 305.658 -43.4802 296.411 -37.6052 279.862V279.376C-37.6052 279.376 -32.2199 259.42 -28.3033 246.766C-13.1263 200.041 -15.5742 131.414 -16.0638 119.246C-11.168 117.3 1.56107 116.813 6.45685 118.76C5.96727 129.467 3.0298 199.554 18.6963 246.766C23.1025 259.42 27.9983 279.376 27.9983 279.376V279.862C33.8733 296.411 22.1234 305.658 18.2067 308.092L7.92554 310.039L1.07146 307.118V297.384L18.2067 292.03C21.6338 291.057 23.5921 287.163 22.6129 283.756C21.6337 280.349 17.7172 278.402 14.2901 279.376L-5.29301 285.703L-26.345 278.889C-29.772 277.915 -33.6886 279.862 -34.6677 283.269C-35.6469 286.676 -33.6886 290.57 -30.2616 291.543L-11.6576 297.384V307.118L-18.5117 310.039L-27.8137 308.092ZM4.49858 322.207L7.92554 323.667L9.39436 323.18L7.92554 328.534L-2.3555 333.888L-3.33472 335.835C-1.3764 328.047 2.54027 323.667 4.49858 322.207ZM-5.29301 333.888C-6.27217 328.047 -8.23048 323.667 -10.1888 320.746L-3.82433 317.826L2.05067 320.26C-0.397217 323.18 -3.3347 327.074 -5.29301 333.888ZM-12.1471 330.967L-17.5325 328.534L-19.0013 323.18L-16.0638 323.667L-12.6367 322.207C-10.1888 326.1 -7.74088 332.428 -7.2513 341.188L-12.1471 330.967ZM-10.1888 403.488C-25.3658 403.488 -38.0948 392.78 -41.5218 378.665H20.6546C17.7171 392.78 4.98814 403.488 -10.1888 403.488ZM31.4254 389.86C33.3837 385.479 34.8524 380.612 34.8524 375.745L52.9669 391.807L31.4254 389.86ZM137.174 421.983C139.622 427.824 139.622 432.204 138.154 435.611C136.195 439.505 132.279 441.452 129.341 442.425L83.3208 409.815H92.6228L81.852 400.081L91.6436 401.541L137.174 421.983ZM79.4041 314.906C95.0706 340.215 109.758 364.064 113.185 396.674L80.3833 382.073L57.8626 363.577C57.8626 363.577 44.1545 360.17 33.8733 365.524H-5.29301L6.45685 343.135L18.2067 337.295L22.1234 321.233L24.0817 320.746L25.0608 320.26C34.3628 314.906 49.5398 298.844 41.217 275.969C41.217 275.482 40.7274 274.022 40.2378 272.562C41.7065 269.641 44.644 263.801 48.0711 256.987C56.8835 278.402 68.6334 296.897 79.4041 314.906ZM35.342 253.093C34.3628 249.686 33.3837 246.279 32.4045 243.359C32.8941 238.492 33.8733 218.05 37.7899 200.528C39.2586 201.501 41.2169 201.988 42.6857 201.988C48.071 201.988 52.9669 197.607 52.9669 191.767C52.9669 186.413 49.0503 182.033 43.6649 181.546C48.0711 172.298 53.946 165.971 58.3522 162.077C59.3314 169.865 60.3105 179.599 60.3105 188.36C60.3105 199.068 47.0919 229.244 35.342 253.093ZM60.8002 91.5036H59.8209C43.6648 87.1232 39.2587 71.5483 38.2795 65.221C43.6649 61.3273 51.0085 58.407 59.8209 56.4601C59.3314 62.3007 60.3105 74.9553 69.1229 83.7162C65.6958 86.1497 63.7376 88.0966 60.8002 91.5036ZM71.0813 82.256C62.2689 74.4686 61.7793 61.3273 62.2688 55.9734C66.675 55 71.5708 54.0266 76.9562 53.5398C77.9354 53.5398 78.4249 53.5398 79.4041 53.0531C80.3833 57.9203 83.3207 68.628 91.154 74.4686C83.3207 76.4154 76.9563 78.849 71.0813 82.256ZM94.5811 73.9819C85.7686 69.1147 82.8311 57.9203 81.852 53.0531C87.7269 52.0797 93.6019 51.1063 98.4977 49.6461C100.946 55 105.841 64.2476 115.143 66.1944C109.268 70.0881 102.414 73.0084 94.5811 73.9819ZM126.893 55C124.445 58.8937 121.508 61.814 118.081 64.7343H117.591C108.779 63.7609 103.393 55 100.946 49.1594C107.8 47.2125 113.675 44.779 118.57 42.3454C120.529 45.2657 124.445 49.6461 128.852 51.593C127.872 52.5664 127.383 54.0266 126.893 55ZM129.831 49.6461C125.914 47.6993 122.487 43.8055 120.529 41.372C126.404 38.4517 130.81 35.0447 134.727 32.1244C133.747 37.4782 132.768 43.8055 129.831 49.6461Z"
            fill="#171B1C" />
    </g>
</svg>