<svg width="144" height="424" viewBox="0 0 144 424" fill="none" xmlns="http://www.w3.org/2000/svg">
    <g opacity="0.05">
        <path
            d="M123.502 349.461L119.095 347.514L117.137 340.7L114.689 330.479C104.898 323.665 97.0644 312.958 93.6374 299.816C90.2103 306.63 86.7833 312.958 83.8458 318.798C62.3043 358.222 47.6169 388.398 49.5752 416.141L50.0648 431.716C81.8874 447.778 117.627 457.025 155.324 457.025C184.21 457.025 212.116 451.671 238.063 441.937L220.438 429.283L206.241 430.743L202.324 431.229L198.407 429.769C197.428 429.283 192.043 426.849 185.678 421.982C175.397 429.283 163.158 433.176 149.939 433.176C116.158 433.176 88.7416 405.92 88.7416 372.337V349.948H123.502V349.461Z"
            fill="#171B1C" />
        <path
            d="M303.176 1.46132L295.343 13.6292C294.853 14.6026 279.677 36.5048 236.104 40.8852C198.896 44.779 177.844 58.8937 173.438 82.256C171.969 90.0435 170.5 98.8043 169.521 105.618C165.605 104.645 150.428 104.158 143.574 106.105C142.594 99.2911 141.126 90.5302 139.657 82.256C135.251 58.8937 114.199 44.779 76.9909 40.8852C33.4184 36.0181 18.2414 14.1159 17.7518 13.6292L9.42892 0.974609L5.51235 15.0893C3.06446 24.3369 3.0644 44.779 14.3247 61.814C23.6267 75.9287 37.8246 84.2029 56.9181 87.1232C69.1576 89.07 77.4804 93.9372 82.3762 102.211C88.2511 112.432 87.7616 125.574 86.2929 135.795C80.4179 131.414 71.6055 125.087 63.7722 122.167C51.0432 116.813 13.8351 111.946 9.42892 111.459L0.126953 110.485L2.08524 119.733C6.98103 139.688 24.1163 157.697 46.637 166.944C54.4702 169.865 62.3035 171.812 69.6472 171.812C73.0743 171.812 76.0117 171.325 78.9492 170.838C78.4596 177.165 77.97 183.979 77.97 190.307C77.97 199.554 84.3345 217.076 92.1677 233.624C87.7615 243.845 70.1367 283.756 57.8972 305.658C33.9078 349.463 15.4226 389.196 18.3601 424.726L32.0682 433.974C29.6203 401.851 47.1266 353.843 69.6472 311.986C79.4388 293.977 92.1677 266.234 99.5114 249.686C104.407 259.907 108.814 268.181 110.772 272.562C110.282 274.508 109.793 275.482 109.793 275.969C101.47 298.844 116.647 314.906 125.949 320.26L126.928 320.746H127.417L132.313 336.808L139.167 340.215L151.407 365.524H104.407V372.338C104.407 397.161 124.97 417.603 149.938 417.603C164.626 417.603 177.844 410.789 186.167 400.081C192.531 410.302 204.771 415.656 204.771 415.656L224.844 413.709L287.02 458L289.958 457.513C290.447 457.513 304.645 454.593 310.52 442.912C314.437 435.124 313.947 425.39 309.051 414.682L308.072 412.249L288.489 403.488C286.531 363.577 269.885 336.808 251.771 308.092C239.041 287.163 225.823 265.748 217.5 238.492C225.823 219.996 233.656 199.554 233.656 189.82C233.656 183.493 233.167 176.679 232.677 170.351C235.614 170.838 238.552 171.325 241.979 171.325C249.323 171.325 256.666 169.865 264.989 166.458C287.51 157.697 305.135 139.202 309.541 119.246L311.499 109.999L302.197 110.972C297.791 111.459 260.583 116.326 247.854 121.68C240.021 125.087 231.208 130.928 225.333 135.308C223.865 125.574 223.375 111.946 229.25 101.725C234.146 93.4505 242.469 88.5833 254.708 86.6365C273.802 83.7162 288.489 75.442 297.301 61.3273C308.562 44.2922 308.562 23.3635 306.114 14.6026L303.176 1.46132ZM58.8764 133.848C62.3035 135.308 66.2201 137.742 70.1367 140.175C69.1575 140.175 68.668 140.175 67.6888 139.688C57.4076 138.228 46.637 136.281 31.9496 127.521C43.2099 129.467 53.9806 131.901 58.8764 133.848ZM52.5119 153.803C46.6369 151.37 40.762 147.963 34.8871 143.582C47.1266 149.423 56.9181 150.883 66.2201 152.343C71.6055 153.316 76.5013 153.803 81.3971 155.75C74.0534 159.157 63.2826 158.184 52.5119 153.803ZM253.239 133.848C258.135 131.901 268.416 129.467 279.187 128.007C264.5 136.768 253.729 138.228 243.448 140.175C242.958 140.175 242.469 140.175 241.979 140.175C245.896 137.742 249.812 135.308 253.239 133.848ZM245.896 152.83C255.198 151.37 265.479 149.909 278.697 143.095C272.822 147.963 266.458 151.856 260.093 154.29C248.833 158.67 238.552 159.157 231.208 155.75C236.104 154.29 240.51 153.316 245.896 152.83ZM185.677 84.6896C187.146 77.3889 190.573 72.035 196.448 67.1679C197.917 74.4686 203.302 89.5567 218.969 93.9372C218.479 94.4239 217.99 94.9106 217.99 95.3973C216.521 98.3176 215.542 100.264 214.562 103.185H214.073H213.583C195.959 103.185 187.146 94.9106 184.209 91.9903C184.698 90.0435 185.188 87.1232 185.677 84.6896ZM215.052 148.936C209.177 152.83 198.896 161.591 192.042 176.192C188.615 183.493 186.167 193.714 184.209 203.448C183.23 196.634 182.74 189.333 181.761 182.519C186.167 152.83 198.896 140.175 204.771 135.308C208.688 138.228 211.625 141.635 214.073 145.042C214.563 146.989 214.563 147.963 215.052 148.936ZM183.719 95.3973C187.636 99.2911 196.938 105.618 213.583 105.618C211.625 111.459 211.136 117.786 211.136 124.114C201.834 117.299 191.063 112.432 181.761 109.025C182.25 105.618 183.229 100.751 183.719 95.3973ZM180.292 122.653C182.25 123.14 183.719 124.114 185.677 124.6C184.209 127.521 182.25 131.414 180.292 136.281C180.292 130.441 180.292 126.06 180.292 122.653ZM188.125 125.574C193.511 128.007 198.406 130.928 203.302 133.848C197.427 138.228 186.657 149.423 181.271 172.785C180.782 162.077 180.292 152.343 180.292 144.069C182.74 135.795 185.677 129.467 188.125 125.574ZM132.313 138.228C130.355 133.361 128.397 128.981 126.928 126.06C128.886 125.087 130.355 124.6 132.313 123.627C131.824 127.521 132.313 132.388 132.313 138.228ZM132.313 146.016C132.313 154.777 131.824 164.511 131.334 175.219C126.438 152.343 116.647 140.662 110.282 135.308C114.688 131.901 119.584 129.467 124.48 127.034C126.928 131.414 129.865 137.742 132.313 146.016ZM130.845 110.485C121.543 113.893 110.772 119.246 100.98 126.547C100.98 120.22 100.491 112.919 98.5324 106.105C115.668 106.105 124.48 98.8043 128.397 94.9106C129.376 100.751 129.865 106.105 130.845 110.485ZM126.438 84.6896C126.928 87.1232 127.418 89.5568 127.907 91.9903C125.949 94.4239 117.136 103.671 98.0427 103.671C98.0427 103.671 98.0427 103.671 97.5531 103.671C96.574 100.751 95.5949 98.3176 93.6366 95.884C93.147 95.3973 92.6573 94.4239 92.1677 93.9372C108.324 89.07 113.22 73.4952 114.688 66.6811C121.543 71.5483 124.97 77.3889 126.438 84.6896ZM17.7518 32.1244C21.1789 35.0447 26.0746 37.965 31.46 40.8852C29.5017 43.8055 26.0747 47.2125 22.6476 49.1594C19.7101 43.3188 18.2414 37.4782 17.7518 32.1244ZM25.585 55C25.0955 54.0266 24.1163 52.5664 23.6268 51.593C28.033 49.1594 31.46 45.2657 33.9079 42.3454C38.8037 44.779 44.6786 47.2125 51.5327 49.1594C49.0849 54.5133 43.6995 63.7609 34.8871 64.7343C30.9705 61.814 28.0329 58.407 25.585 55ZM57.4078 73.9819C49.5745 72.5217 42.7204 70.0881 37.335 66.1944C46.1474 63.7608 51.5327 55 53.491 49.1594C58.3868 50.6195 64.2617 51.593 70.1367 52.5664C68.668 58.407 65.7306 69.1147 57.4078 73.9819ZM60.3451 74.9553C68.1784 69.1147 71.116 58.407 72.0951 53.5398C73.0743 53.5398 74.0533 54.0265 75.0325 54.0265C79.9283 54.5133 84.8242 55.4867 88.7408 55.9734C89.2304 61.3273 88.7407 73.9819 80.4179 82.256C75.0325 78.3623 68.1784 75.9287 60.3451 74.9553ZM82.8658 83.2295C91.6782 74.9553 92.1679 62.3007 91.6783 56.4601C100.491 58.407 107.834 61.3273 113.22 65.221C112.241 71.0616 107.834 87.6099 91.6783 91.9903C89.2304 88.5833 86.2928 85.663 82.8658 83.2295ZM116.647 253.093C104.897 229.244 91.6783 199.068 91.6783 188.847C91.6783 180.086 92.6574 169.865 93.6366 162.564C98.0428 166.458 103.918 172.298 108.324 182.033C107.834 182.033 107.345 182.033 106.855 182.033C101.47 182.033 96.5741 186.413 96.5741 192.254C96.5741 197.607 100.98 202.475 106.855 202.475C109.303 202.475 111.751 201.501 113.22 200.041C117.136 218.536 117.626 241.899 118.116 246.766C118.116 248.713 117.136 251.146 116.647 253.093ZM97.5531 148.936C97.5531 148.449 98.0427 147.963 98.0427 147.476C100.98 143.582 104.407 140.175 108.814 136.768C115.668 142.122 127.418 156.237 130.845 185.44C130.355 191.767 129.376 198.581 128.886 204.908C127.417 194.201 124.48 183.493 121.053 176.192C113.22 161.591 103.428 153.316 97.5531 148.936ZM132.313 308.092C128.886 305.658 116.647 296.411 122.522 279.862V279.376C122.522 279.376 127.907 259.42 131.824 246.766C147.001 200.041 144.553 131.414 144.063 119.246C148.959 117.3 161.688 116.813 166.584 118.76C166.094 129.467 163.157 199.554 178.823 246.766C183.229 259.42 188.125 279.376 188.125 279.376V279.862C194 296.411 182.25 305.658 178.334 308.092L168.052 310.039L161.198 307.118V297.384L178.334 292.03C181.761 291.057 183.719 287.163 182.74 283.756C181.761 280.349 177.844 278.402 174.417 279.376L154.834 285.703L133.782 278.889C130.355 277.915 126.438 279.862 125.459 283.269C124.48 286.676 126.438 290.57 129.865 291.543L148.469 297.384V307.118L141.615 310.039L132.313 308.092ZM164.626 322.207L168.052 323.667L169.521 323.18L168.052 328.534L157.771 333.888L156.792 335.835C158.751 328.047 162.667 323.667 164.626 322.207ZM154.834 333.888C153.855 328.047 151.896 323.667 149.938 320.746L156.303 317.826L162.178 320.26C159.73 323.18 156.792 327.074 154.834 333.888ZM147.98 330.967L142.594 328.534L141.126 323.18L144.063 323.667L147.49 322.207C149.938 326.1 152.386 332.428 152.876 341.188L147.98 330.967ZM149.938 403.488C134.761 403.488 122.032 392.78 118.605 378.665H180.782C177.844 392.78 165.115 403.488 149.938 403.488ZM191.552 389.86C193.511 385.479 194.979 380.612 194.979 375.745L213.094 391.807L191.552 389.86ZM297.301 421.983C299.749 427.824 299.749 432.204 298.281 435.611C296.322 439.505 292.406 441.452 289.468 442.425L243.448 409.815H252.75L241.979 400.081L251.771 401.541L297.301 421.983ZM239.531 314.906C255.198 340.215 269.885 364.064 273.312 396.674L240.51 382.073L217.99 363.577C217.99 363.577 204.281 360.17 194 365.524H154.834L166.584 343.135L178.334 337.295L182.25 321.233L184.209 320.746L185.188 320.26C194.49 314.906 209.667 298.844 201.344 275.969C201.344 275.482 200.854 274.022 200.365 272.562C201.833 269.641 204.771 263.801 208.198 256.987C217.01 278.402 228.76 296.897 239.531 314.906ZM195.469 253.093C194.49 249.686 193.511 246.279 192.531 243.359C193.021 238.492 194 218.05 197.917 200.528C199.386 201.501 201.344 201.988 202.813 201.988C208.198 201.988 213.094 197.607 213.094 191.767C213.094 186.413 209.177 182.033 203.792 181.546C208.198 172.298 214.073 165.971 218.479 162.077C219.458 169.865 220.438 179.599 220.438 188.36C220.438 199.068 207.219 229.244 195.469 253.093ZM220.927 91.5036H219.948C203.792 87.1232 199.386 71.5483 198.406 65.221C203.792 61.3273 211.135 58.407 219.948 56.4601C219.458 62.3007 220.437 74.9553 229.25 83.7162C225.823 86.1497 223.865 88.0966 220.927 91.5036ZM231.208 82.256C222.396 74.4686 221.906 61.3273 222.396 55.9734C226.802 55 231.698 54.0266 237.083 53.5398C238.062 53.5398 238.552 53.5398 239.531 53.0531C240.51 57.9203 243.448 68.628 251.281 74.4686C243.448 76.4154 237.083 78.849 231.208 82.256ZM254.708 73.9819C245.896 69.1147 242.958 57.9203 241.979 53.0531C247.854 52.0797 253.729 51.1063 258.625 49.6461C261.072 55 265.968 64.2476 275.27 66.1944C269.395 70.0881 262.541 73.0084 254.708 73.9819ZM287.02 55C284.572 58.8937 281.635 61.814 278.208 64.7343H277.718C268.906 63.7609 263.52 55 261.073 49.1594C267.927 47.2125 273.802 44.779 278.697 42.3454C280.656 45.2657 284.572 49.6461 288.979 51.593C287.999 52.5664 287.51 54.0266 287.02 55ZM289.958 49.6461C286.041 47.6993 282.614 43.8055 280.656 41.372C286.531 38.4517 290.937 35.0447 294.854 32.1244C293.874 37.4782 292.895 43.8055 289.958 49.6461Z"
            fill="#171B1C" />
    </g>
</svg>