<?xml version="1.0" encoding="utf-8"?>
<!-- Generator: Adobe Illustrator 25.2.0, SVG Export Plug-In . SVG Version: 6.00 Build 0)  -->
<svg version="1.1" id="Layer_1" xmlns="http://www.w3.org/2000/svg" xmlns:xlink="http://www.w3.org/1999/xlink" x="0px"
    y="0px" viewBox="0 0 152.2 121.5" style="enable-background:new 0 0 152.2 121.5;" xml:space="preserve">
    <style type="text/css">
        .st0 {
            fill: none;
            stroke: #000000;
            stroke-width: 2;
            stroke-miterlimit: 10;
        }

        .st1 {
            fill: none;
            stroke: #231F20;
            stroke-width: 2;
            stroke-miterlimit: 10;
        }

        .st2 {
            fill: none;
            stroke: #569046;
            stroke-width: 2;
            stroke-miterlimit: 10;
        }

        .st3 {
            fill: none;
            stroke: #231F20;
            stroke-miterlimit: 10;
        }

        .st4 {
            fill: none;
            stroke: #231F20;
            stroke-linecap: round;
            stroke-linejoin: round;
        }

        .st5 {
            fill: none;
            stroke: #569046;
            stroke-miterlimit: 10;
        }

        .st6 {
            clip-path: url(#SVGID_2_);
        }

        .st7 {
            fill: #569046;
        }

        .st8 {
            fill: none;
            stroke: #558F4D;
            stroke-width: 2;
            stroke-linecap: round;
            stroke-linejoin: round;
        }
    </style>
    <g id="Layer_1-2">
        <path class="st0" d="M105.4,120.5H46.8c-0.8-0.1-1.5-0.8-1.5-1.6v-7.6c0-0.8,0.7-1.5,1.5-1.6h58.6c0.9,0,1.6,0.7,1.6,1.6v7.6
		C107,119.8,106.3,120.5,105.4,120.5z" />
        <path class="st1" d="M84.3,109.7H67.9c-0.4,0-0.7-0.2-0.9-0.5c-0.1-0.3-0.1-0.7,0-1l4.8-8.2c0.2-0.3,0.5-0.4,0.8-0.4h7
		c0.3,0,0.6,0.2,0.8,0.4l4.7,8.2c0.2,0.3,0.2,0.7,0,1C84.9,109.5,84.6,109.7,84.3,109.7z" />
        <path class="st1" d="M141.1,99.6h-130C5.5,99.6,1,95.1,1,89.5V11.1C1,5.5,5.5,1,11.1,1h130c5.6,0,10.1,4.5,10.1,10.1c0,0,0,0,0,0
		v78.4C151.1,95.1,146.7,99.5,141.1,99.6z" />
        <path class="st2" d="M141.2,99.6h-130C5.6,99.5,1,94.9,1,89.3V77h150.2v12.4C151.3,95,146.8,99.5,141.2,99.6
		C141.2,99.6,141.2,99.6,141.2,99.6z" />
        <path class="st3 drive" d="M94.9,30.3l-2.8-7.2l0,0v-5.5c0-0.5-0.4-0.9-0.9-0.9l0,0H61c-0.5-0.1-0.9,0.3-1,0.8c0,0,0,0.1,0,0.1v5.8
		c0,0.1,0,0.1,0.1,0.1l-2.6,6.7l0,0c-0.2,0.1-0.2,0.3-0.2,0.6v36c0,0.5,0.4,0.9,0.9,0.9h0H94c0.5,0,0.9-0.4,0.9-0.9l0,0V31.1
		C95,30.8,95,30.6,94.9,30.3z" />
        <path class="st4 drive" d="M88.6,67.7V30.8l3.5-8.4H60" />
        <path class="st5 pointer" d="M124.6,70.3c-0.2,0-0.3-0.1-0.4-0.2l-2.5-2.5l-1.7,1.7c-0.1,0.1-0.3,0.2-0.4,0.2c0,0-0.1,0-0.1,0
		c-0.2,0-0.4-0.2-0.4-0.4l-3.8-11c-0.1-0.2,0-0.5,0.1-0.6c0.1-0.1,0.3-0.2,0.4-0.2c0.1,0,0.1,0,0.2,0l11,3.8
		c0.2,0.1,0.3,0.2,0.4,0.4c0,0.2,0,0.4-0.2,0.6l-1.7,1.7l2.5,2.5c0.2,0.2,0.2,0.6,0,0.9l-2.9,2.9C124.9,70.3,124.8,70.3,124.6,70.3z
		" />
        <g class="drive">
            <defs>
                <rect id="SVGID_1_" x="63.6" y="38.8" width="19" height="27" />
            </defs>
            <clipPath id="SVGID_2_">
                <use xlink:href="#SVGID_1_" style="overflow:visible;" />
            </clipPath>
            <g class="st6">
                <path class="st7 fillup blink2" d="M71.1,61h-0.3v-1.2c-0.6-0.5-1.1-1.1-1.3-1.9l-0.6,1.2c-1.3,2.5-2.2,4.4-2.1,6.2v1c1.9,1,4,1.5,6.2,1.6
				c1.7,0,3.4-0.3,5-1l-1-0.8h-1.4c0-0.1-0.4-0.2-0.7-0.5c-0.7,0.4-1.4,0.7-2.2,0.7c-2.1-0.1-3.7-1.7-3.7-3.8v-1.4L71.1,61L71.1,61z
				" />
                <path class="st7 fillup blink2" d="M75.5,59.9l-0.2,0.6v0.4l-0.2,0.2h0.2c0.3-0.2,0.7-0.2,1-0.2c0.4,0,0.8,0,0.8,0.1h0.2l0.2,0.2l1.3,1.1h0.1
				c-0.4-1.1-0.9-2.1-1.5-3l-0.6-1.1C76.6,58.9,76.1,59.5,75.5,59.9z" />
                <path class="st7 fillup blink2" d="M82,38.8l-0.5,0.8c0,0-0.9,1.4-3.6,1.7s-3.5,1.2-3.8,2.7c-0.1,0.5-0.2,1-0.2,1.5c-0.5-0.1-1.1-0.1-1.6,0
				c-0.1-0.4-0.1-1-0.2-1.5s-1.6-2.4-3.8-2.7s-3.6-1.7-3.6-1.7l-0.5-0.8l-0.3,0.9c-0.1,1,0.1,2.1,0.6,3c0.6,0.9,1.5,1.5,2.6,1.6
				c0.6,0.1,1.2,0.4,1.5,0.9c0.3,0.7,0.4,1.5,0.2,2.2l-1.3-0.9c-0.8-0.3-3.1-0.6-3.3-0.7h-0.6v0.6c0.4,1.3,1.4,2.4,2.7,3l1.4,0.3
				h0.6c0,0.4-0.1,0.9-0.1,1.3c0.1,0.9,0.4,1.9,0.9,2.7c-0.3,0.7-1.3,3.2-2.1,4.6s-2.6,5.4-2.4,7.6l0.8,0.6c-0.1-2,1-5.1,2.3-7.8
				c0.6-1.1,1.4-2.9,1.8-3.9c0.3,0.6,0.6,1.1,0.7,1.4v0.2c-0.4,1.1,0,2.2,0.9,2.9h0.1l0.3,1l0.4,0.2l0.8,1.7h-2.8v0.4
				c0,1.6,1.2,2.8,2.8,2.9c0.9,0,1.7-0.4,2.2-1.1c0.3,0.4,0.7,0.7,1.1,1l1.2-0.2L81,68h0.2c0.5-0.1,1-0.4,1.2-0.9
				c0.3-0.6,0.2-1.3-0.1-1.8l0,0l-1.2-0.6c-0.1-2.2-0.9-4.3-2.2-6.1c-0.9-1.4-1.6-3-2.1-4.6c0.5-1,0.8-2.1,1-3.2
				c0-0.4-0.1-0.8-0.1-1.2h0.6c0.5,0,1-0.1,1.4-0.4c1.3-0.5,2.3-1.6,2.7-3v-0.6h-0.6c-1.1,0.1-2.2,0.3-3.3,0.7l-1.3,0.9
				c-0.1-0.7-0.1-1.5,0.2-2.2c0.4-0.5,1-0.9,1.6-0.9c1-0.2,2-0.8,2.5-1.7c0.5-0.9,0.7-2,0.6-3L82,38.8z M67.2,47.3l0.7,0.4h-0.2
				c-0.8-0.1-1.5-0.3-2.2-0.7C66.1,47,66.7,47.1,67.2,47.3z M66.8,48.5c-0.4-0.1-0.8-0.3-1.1-0.6c0.6,0.3,1.2,0.5,1.9,0.5
				c0.3,0.1,0.6,0.2,0.9,0.3C67.9,48.9,67.3,48.8,66.8,48.5z M79,47.3c0.5-0.2,1-0.4,1.5-0.4c-0.6,0.4-1.4,0.7-2.1,0.8h-0.1L79,47.3
				z M78.5,48.5c0.7-0.1,1.4-0.3,2-0.6c-0.3,0.3-0.7,0.5-1.1,0.7c-0.6,0.3-1.2,0.3-1.8,0.1L78.5,48.5z M74.9,44.1
				c0.1-0.4,0.3-0.8,0.6-1.1c0.1,0.8,0.6,1.4,1.4,1.7h-0.1l-0.2,0.5l0,0c-0.7,0-1.3-0.2-1.8-0.7C74.8,44.4,74.8,44.2,74.9,44.1z
				 M76.6,48.2c-0.6,0.5-1.1,1.1-1.4,1.8c-0.2,0.5-0.3,1.1-0.4,1.7c-0.1-0.4-0.1-0.9-0.2-1.3c0.1-1.1,0.6-2.2,1.4-3
				c0.3,0.1,0.4,0.4,0.6,0.6V48.2z M74.7,44.8c0.5,0.5,1.2,0.8,1.9,0.7c-0.2,0.3-0.2,0.7-0.2,1.1c-0.6-0.4-1.2-0.7-1.8-0.9
				C74.7,45.4,74.7,45.1,74.7,44.8z M74.5,46.6h0.4l-0.4,0.7V46.6z M75,46.7l0.9,0.6c-0.7,0.7-1.2,1.5-1.3,2.5
				c0-0.7-0.1-1.4-0.1-1.9L75,46.7z M71.6,47.5l-0.3-0.7l0.3-0.2V47.5z M71.6,48v1.9c-0.1-1-0.6-1.9-1.3-2.5
				c0.3-0.2,0.6-0.4,0.9-0.6C71.4,47.2,71.5,47.6,71.6,48z M71.5,45.8c-0.6,0.2-1.3,0.6-1.8,1c0-0.4,0-0.9-0.1-1.3
				c0.7,0,1.3-0.2,1.8-0.7C71.4,45.2,71.5,45.5,71.5,45.8z M71.3,44.1v0.5c-0.5,0.5-1.2,0.7-1.9,0.7l0,0l-0.2-0.5h-0.1
				c0.8-0.3,1.4-1,1.5-1.8C71,43.3,71.2,43.7,71.3,44.1z M64.7,40.8l0.8,0.5L65,41.9C64.8,41.6,64.7,41.2,64.7,40.8z M65.2,42.2
				c-0.1,0-0.1-0.1-0.2-0.2s0.5-0.4,0.7-0.6l1,0.5c-0.1,0.5-0.5,0.9-1,1L65.2,42.2z M67.1,43.4c-0.4,0-0.9-0.2-1.2-0.5
				c0.5-0.1,0.8-0.7,0.9-1l1.1,0.2C67.8,42.6,67.5,43.1,67.1,43.4z M67.3,43.5c0.3-0.4,0.6-0.9,0.7-1.4h1c0,0.6-0.1,1.2-0.5,1.7
				C68.1,43.6,67.7,43.5,67.3,43.5z M68.6,44c0.4-0.4,0.7-1.1,0.6-1.7c0.5,0.1,0.9,0.3,1.3,0.6c-0.1,0.7-0.6,1.4-1.3,1.7L68.6,44z
				 M70.7,54.9c-0.7-1.3-1.2-2.7-1.5-4.1c0-0.6,0-1.1,0.1-1.7c0.4,0.3,0.7,0.8,0.9,1.2h-0.1c-0.3,0.1-0.6,0.3-0.6,0.7
				c0,0.4,0.3,0.6,0.6,0.7l0.4-0.2c0.2,1.2,0.2,2.7,0.3,3S70.7,54.8,70.7,54.9z M69.5,48.2L69.5,48.2l0.7-0.6
				c0.8,0.8,1.3,1.9,1.3,3.1c0,0.4-0.1,0.8-0.1,1.2c0-0.6-0.2-1.2-0.5-1.8C70.6,49.3,70.1,48.7,69.5,48.2z M71.6,58.4
				C71,58,70.8,57.3,71,56.6l0,0c0,0,0.4-1.3,0.6-2.1c0.7-2.7,0.9-5.4,0.7-8.2h1.4c0,0.7-0.2,5.2,0.7,8.2c0.2,0.7,0.4,1.4,0.6,2.1
				l0,0c0.3,0.7,0,1.4-0.6,1.8h-0.6l-0.4-0.2v-0.6l1-0.3c0.2-0.1,0.3-0.4,0.3-0.6c-0.1-0.2-0.3-0.3-0.5-0.2L73,57l-1.3-0.5
				c-0.2,0-0.4,0.1-0.5,0.3c0,0.2,0.1,0.5,0.3,0.5l1.1,0.4v0.6l-0.4,0.2L71.6,58.4z M73.6,59.3h0.3v0.3l-0.6,0.3v0.2
				C73.3,59.8,73.4,59.5,73.6,59.3z M73,60l-0.3-0.8l0.4-0.2l0.3,0.2C73.2,59.4,73.1,59.7,73,60z M72.6,59.9l-0.4-0.2v-0.3h0.3
				c0.2,0.4,0.4,0.8,0.4,1.2L72.6,59.9z M72.7,64.5c-0.9,0-1.7-0.7-1.9-1.6h3.8C74.4,63.8,73.6,64.5,72.7,64.5z M75.2,63.6
				c0.1-0.3,0.2-0.6,0.2-0.9l1.1,1L75.2,63.6z M81.6,65.7c0.2,0.2,0.2,0.5,0.1,0.8c-0.1,0.3-0.4,0.4-0.5,0.5l-2.8-2.1h0.5l-0.6-0.6
				h0.6L81.6,65.7z M78.1,58.8c1.1,1.6,1.8,3.4,2.1,5.3l-2-1l-1.4-1.2c-0.5-0.1-1,0-1.4,0.2H73l0.7-1.5l0.7-0.3l0.3-1.1h0.1
				c1-0.6,1.4-1.8,1-2.9v-0.2c0.1-0.3,0.2-0.7,0.4-1C76.8,56.5,77.5,57.7,78.1,58.8z M75.5,54.9c-0.1-0.2-0.2-0.4-0.2-0.6
				c0-0.9,0.1-1.9,0.3-2.8h0.3c0.3,0,0.6-0.3,0.6-0.6c0-0.4-0.2-0.7-0.5-0.7c0.2-0.5,0.5-0.9,0.9-1.2c0,0.5,0.1,1.1,0.1,1.6
				C76.7,52.1,76.2,53.5,75.5,54.9z M77,44.6L77,44.6c-0.8-0.3-1.3-1-1.4-1.7c0.4-0.3,0.8-0.5,1.3-0.6c0,0.7,0.2,1.3,0.6,1.8
				C77.3,44.2,77.1,44.4,77,44.6z M77.6,44c-0.4-0.5-0.5-1.1-0.5-1.7l0.9-0.2h0.1c0.1,0.5,0.4,1,0.7,1.4L77.6,44z M79.1,43.4
				c-0.5-0.3-0.8-0.8-0.8-1.3l1-0.2c0.1,0.5,0.5,0.9,1,1C80,43.2,79.5,43.4,79.1,43.4z M81,42.2c-0.1,0.3-0.3,0.5-0.5,0.7h-0.1
				c-0.5-0.1-0.8-0.7-1-1l1.1-0.5c0.1,0.2,0.4,0.5,0.6,0.6C81.1,42.1,81.1,42.1,81,42.2z M81.2,41.9l-0.6-0.5l0.9-0.6
				C81.4,41.2,81.3,41.5,81.2,41.9z" />
            </g>
        </g>
        <polyline class="st8 larrow" points="21.7,36.8 14.7,43.8 21.5,50.3 	" />
        <polyline class="st8 rarrow" points="131.4,36.8 138.5,43.8 131.7,50.3 	" />
    </g>

    <style>
        #Layer_1-2 {
            overflow: hidden;
        }

        .drive {
            transform: translateX(-100%);
            position: relative;
            animation: drive 5s 1s cubic-bezier(0.88, 0.08, 0.16, 1.1) infinite;
        }

        @keyframes drive {
            0% {
                transform: translateX(-100%);
                opacity: 0;
            }

            25% {
                transform: translateX(0%);
                opacity: 1;
            }

            75% {
                transform: translateX(0%);
                opacity: 1;
            }

            100% {
                transform: translateX(100%);
                opacity: 0;
            }
        }

        .pointer {
            animation: pointer 5s infinite;
        }

        @keyframes pointer {
            0% {
                transform: translate(16px, -8px);
                stroke: #c98931;
                fill: #c98931;
                opacity: 1;
            }

            25% {
                transform: translate(16px, -8px);
                stroke: #c98931;
                fill: #c98931;
                opacity: 1;
            }

            75% {
                transform: translate(60px, 20px);
                stroke: #569046;
                fill: #569046;
                opacity: 0;
            }

            100% {
                transform: translate(16px, -8px);
                stroke: #c98931;
                fill: #c98931;
                opacity: 1;
            }
        }

        .rarrow {
            animation: rarrow 5s infinite;
        }

        @keyframes rarrow {
            0% {
                stroke: #c98931;
                opacity: 1;
            }

            25% {
                stroke: #558F4D;
                opacity: 0;
            }

            75% {
                stroke: #558F4D;
                opacity: 1;
            }

            100% {
                stroke: #c98931;
                opacity: 1;
            }
        }

        .fillup {
            animation: fillup 5s infinite;
        }

        @keyframes fillup {
            0% {
                fill: #c98931;
            }

            25% {
                fill: #558F4D;
            }

            75% {
                fill: #c98931;
            }

            100% {
                fill: #c98931;
            }
        }

        .blink2 {
            animation: blink2 2s infinite;
            animation-delay: 2000ms;
        }

        @keyframes blink2 {
            0% {
                transform: translateY(0px);
                opacity: 0;
            }

            50% {
                transform: translateY(-1px);
                opacity: 1;
            }

            100% {
                transform: translateY(0px);
                opacity: 1;
            }
        }
    </style>

</svg>