<svg width="120" height="120" viewBox="0 0 120 120" fill="none" xmlns="http://www.w3.org/2000/svg">
    <path opacity="0.5"
        d="M18.8243 49.3982C10.9226 85.6182 37.4804 100.704 52.3081 103.168C60.2273 105.284 92.7169 101.874 103.27 71.2675C113.822 40.6614 90.1881 26.857 78.7687 20.2466C67.3493 13.6362 28.7016 4.12322 18.8243 49.3982Z"
        stroke="black" />
    <path
        d="M103.747 59.8751C103.747 82.9099 85.1031 101.582 62.106 101.582C39.109 101.582 20.4648 82.9099 20.4648 59.8751C20.4648 36.8403 39.109 18.1682 62.106 18.1682C85.1031 18.1682 103.747 36.8403 103.747 59.8751Z"
        stroke="black" stroke-opacity="0.5" />
    <path opacity="0.8"
        d="M103.408 45.565C92.662 11.8436 63.1107 13.5296 49.6782 18.5879C42.1225 20.628 11.8996 39.6632 17.7763 70.0125C23.653 100.362 53.0364 101.205 65.6292 101.205C78.2221 101.205 116.84 87.7168 103.408 45.565Z"
        stroke="black" />
</svg>