<svg width="780" height="500" viewBox="0 0 780 500" fill="none" xmlns="http://www.w3.org/2000/svg">
    <rect width="780" height="500" rx="34" fill="white"></rect>
    <path
        d="M213.986 218.314C208.199 206.197 197.226 198.37 180.692 198.37C175.616 198.457 170.629 199.708 166.115 202.025C161.602 204.341 157.681 207.661 154.655 211.729L154.052 212.463V164.971C154.052 164.696 153.943 164.433 153.749 164.239C153.554 164.045 153.29 163.936 153.015 163.936H129.638C129.366 163.941 129.107 164.052 128.916 164.245C128.726 164.439 128.619 164.7 128.619 164.971V301.201C128.619 301.47 128.726 301.728 128.918 301.919C129.109 302.109 129.368 302.217 129.638 302.217H154.675C154.946 302.217 155.207 302.11 155.401 301.92C155.594 301.73 155.706 301.472 155.711 301.201V243.115C155.711 231.825 163.252 223.828 175.318 223.828C188.516 223.828 191.853 234.666 191.853 245.711V301.201C191.853 301.47 191.96 301.728 192.151 301.919C192.341 302.109 192.6 302.217 192.871 302.217H217.85C218.123 302.217 218.384 302.11 218.577 301.92C218.772 301.73 218.884 301.472 218.888 301.201V242.399C218.888 240.386 218.888 238.41 218.625 236.491C218.194 230.202 216.623 224.043 213.986 218.314Z"
        fill="#5A31F4"></path>
    <path
        d="M88.9715 238.505C88.9715 238.505 76.2268 235.513 71.5325 234.309C66.8379 233.105 58.6368 230.546 58.6368 224.355C58.6368 218.165 65.2542 216.189 71.966 216.189C78.6778 216.189 86.1437 217.807 86.7281 225.239C86.7517 225.508 86.8752 225.756 87.0741 225.938C87.2732 226.119 87.5331 226.219 87.8026 226.218L112.481 226.124C112.627 226.125 112.77 226.095 112.904 226.037C113.037 225.979 113.157 225.895 113.256 225.789C113.355 225.683 113.431 225.558 113.479 225.422C113.528 225.285 113.548 225.139 113.537 224.995C112.01 201.212 91.1018 192.707 71.8151 192.707C48.9463 192.707 32.2237 207.759 32.2237 224.355C32.2237 236.473 35.655 247.838 62.6336 255.74C67.3658 257.114 73.7948 258.902 79.4131 260.463C86.1624 262.345 89.801 265.186 89.801 269.665C89.801 274.858 82.2599 278.471 74.8506 278.471C64.1233 278.471 56.5065 274.5 55.8843 267.369C55.8519 267.108 55.7247 266.868 55.5265 266.694C55.3284 266.521 55.0733 266.426 54.8096 266.428L30.1876 266.541C30.0432 266.541 29.9004 266.57 29.7675 266.626C29.6346 266.682 29.5144 266.765 29.4141 266.868C29.3138 266.972 29.2354 267.095 29.1837 267.229C29.1319 267.364 29.1079 267.508 29.113 267.651C30.2442 290.099 51.9629 302.198 72.2113 302.198C102.376 302.198 116.007 285.264 116.007 269.402C116.045 261.95 114.329 244.978 88.9715 238.505Z"
        fill="#5A31F4"></path>
    <path
        d="M406.457 198.332C393.922 198.332 383.419 205.257 376.651 213.611V199.311C376.651 199.044 376.545 198.789 376.358 198.598C376.174 198.409 375.918 198.3 375.651 198.295H352.236C351.968 198.295 351.707 198.401 351.517 198.592C351.326 198.782 351.217 199.042 351.217 199.311V332.906C351.223 333.171 351.334 333.427 351.525 333.612C351.715 333.798 351.971 333.904 352.236 333.904H377.293C377.556 333.904 377.811 333.798 377.998 333.612C378.186 333.425 378.29 333.169 378.29 332.906V288.989H378.669C382.645 295.048 393.524 302.311 407.741 302.311C434.471 302.311 456.758 280.183 456.758 250.284C456.777 221.589 434.605 198.332 406.457 198.332ZM404.139 276.852C398.863 276.984 393.663 275.541 389.211 272.712C384.76 269.882 381.251 265.792 379.137 260.963C377.024 256.136 376.398 250.788 377.345 245.605C378.287 240.421 380.759 235.635 384.441 231.859C388.123 228.083 392.849 225.488 398.016 224.403C403.181 223.32 408.553 223.796 413.446 225.773C418.341 227.751 422.531 231.139 425.489 235.504C428.444 239.869 430.029 245.015 430.043 250.284C430.097 253.728 429.469 257.149 428.197 260.351C426.925 263.552 425.029 266.471 422.622 268.939C420.216 271.409 417.344 273.378 414.17 274.736C410.999 276.094 407.59 276.813 404.139 276.852Z"
        fill="#5A31F4"></path>
    <path
        d="M277.07 192.462C253.71 192.462 242.059 200.385 232.707 206.726L232.423 206.914C231.942 207.243 231.603 207.743 231.474 208.311C231.344 208.88 231.434 209.475 231.727 209.981L240.966 225.861C241.138 226.159 241.375 226.414 241.658 226.609C241.942 226.804 242.265 226.934 242.606 226.991C242.938 227.05 243.279 227.036 243.605 226.948C243.931 226.86 244.233 226.701 244.491 226.482L245.225 225.881C250.032 221.853 257.744 216.472 276.409 215.004C286.796 214.177 295.771 216.886 302.389 223.058C309.665 229.757 314.022 240.576 314.022 251.997C314.022 273.015 301.615 286.224 281.688 286.488C265.266 286.393 254.236 277.851 254.236 265.225C254.236 258.526 257.272 254.161 263.193 249.795C263.644 249.473 263.964 248.998 264.092 248.458C264.221 247.919 264.149 247.351 263.89 246.861L255.595 231.205C255.442 230.926 255.235 230.678 254.986 230.478C254.737 230.277 254.451 230.128 254.143 230.038C253.828 229.946 253.5 229.919 253.175 229.961C252.849 230.003 252.537 230.113 252.257 230.283C242.945 235.797 231.52 245.882 232.141 265.262C232.895 289.931 253.446 308.766 280.16 309.537H281.499H283.327C315.075 308.502 338.001 284.982 338.001 253.089C338.001 223.81 316.621 192.462 277.07 192.462Z"
        fill="#5A31F4"></path>
    <path
        d="M555.491 207.516H539.577C539.206 207.52 538.848 207.67 538.584 207.934C538.318 208.197 538.168 208.554 538.166 208.927V242.25C538.168 242.621 538.32 242.975 538.586 243.236C538.85 243.497 539.206 243.643 539.577 243.643H555.491C565.181 243.643 572.327 236.022 572.327 225.579C572.327 215.135 565.181 207.516 555.491 207.516Z"
        fill="#5A31F4"></path>
    <path
        d="M604.377 266.466C604.377 271.302 608.467 273.993 615.594 273.993C625.284 273.993 631.014 268.762 631.014 259.485V256.814L616.5 257.566C608.844 257.943 604.377 261.122 604.377 266.466Z"
        fill="#5A31F4"></path>
    <path
        d="M722.207 164.238H508.414C504.908 164.238 501.433 164.927 498.195 166.268C494.953 167.607 492.01 169.572 489.533 172.048C487.052 174.524 485.086 177.463 483.746 180.699C482.403 183.933 481.716 187.4 481.72 190.901V307.711C481.72 314.779 484.531 321.558 489.537 326.558C494.545 331.557 501.334 334.369 508.414 334.374H722.207C725.72 334.384 729.2 333.703 732.448 332.37C735.695 331.037 738.647 329.077 741.135 326.605C743.621 324.132 745.599 321.194 746.949 317.958C748.298 314.723 748.994 311.254 749 307.749V190.938C749.005 187.427 748.319 183.948 746.974 180.702C745.631 177.458 743.657 174.509 741.167 172.028C738.678 169.547 735.721 167.581 732.468 166.244C729.216 164.907 725.729 164.225 722.207 164.238ZM556.301 256.757H539.484C539.109 256.757 538.752 256.906 538.485 257.171C538.22 257.435 538.069 257.794 538.069 258.169V282.065C538.069 282.439 537.921 282.798 537.657 283.063C537.391 283.327 537.033 283.476 536.657 283.476H524.815C524.444 283.471 524.085 283.321 523.821 283.057C523.557 282.794 523.41 282.438 523.402 282.065V195.868C523.402 195.494 523.551 195.135 523.819 194.87C524.083 194.605 524.441 194.457 524.815 194.457H556.301C574.136 194.457 586.899 207.421 586.899 225.616C586.899 243.811 574.23 256.795 556.397 256.795L556.301 256.757ZM644.911 282.046C644.914 282.233 644.88 282.419 644.809 282.592C644.739 282.766 644.635 282.923 644.505 283.056C644.371 283.189 644.215 283.295 644.041 283.367C643.871 283.439 643.684 283.476 643.496 283.476H632.317C632.13 283.476 631.944 283.439 631.772 283.367C631.598 283.295 631.44 283.189 631.311 283.056C631.181 282.923 631.075 282.766 631.007 282.592C630.936 282.419 630.901 282.233 630.904 282.046V279.468C630.921 279.242 630.868 279.016 630.746 278.823C630.627 278.631 630.448 278.482 630.234 278.4C630.023 278.317 629.791 278.305 629.572 278.366C629.351 278.426 629.157 278.555 629.018 278.735C625.68 282.366 620.251 285 611.597 285C598.855 285 590.425 278.377 590.425 266.937C590.303 264.147 590.879 261.371 592.105 258.861C593.328 256.35 595.164 254.185 597.44 252.561C602.038 249.118 609.165 247.331 619.742 246.916L630.959 246.54V243.265C630.959 236.661 626.509 233.857 619.363 233.857C612.219 233.857 607.713 236.379 606.66 240.5C606.574 240.79 606.395 241.046 606.148 241.223C605.904 241.4 605.604 241.49 605.301 241.478H594.234C594.03 241.483 593.828 241.444 593.641 241.362C593.457 241.281 593.288 241.16 593.152 241.008C593.019 240.855 592.919 240.675 592.862 240.48C592.803 240.285 592.789 240.08 592.82 239.879C594.48 230.095 602.585 222.662 619.875 222.662C638.238 222.662 644.854 231.186 644.854 247.462L644.911 282.046ZM714.555 226.124L689.67 292.376C684.013 307.767 674.116 311.72 663.274 311.72C661.232 311.769 659.193 311.522 657.222 310.985C656.914 310.903 656.646 310.722 656.448 310.47C656.256 310.219 656.151 309.91 656.147 309.593V299.526C656.147 299.316 656.193 299.108 656.281 298.916C656.371 298.726 656.5 298.556 656.663 298.422C656.826 298.287 657.015 298.19 657.219 298.136C657.423 298.084 657.637 298.076 657.844 298.115C659.554 298.439 661.289 298.603 663.03 298.605C666.026 298.754 668.989 297.896 671.441 296.166C673.89 294.437 675.689 291.936 676.546 289.064L677.283 286.75C677.397 286.44 677.397 286.101 677.283 285.79L654.017 226.143C653.946 225.93 653.926 225.703 653.961 225.481C653.994 225.258 654.079 225.047 654.206 224.864C654.339 224.68 654.511 224.531 654.71 224.425C654.908 224.321 655.131 224.264 655.355 224.261H666.668C666.958 224.264 667.238 224.353 667.478 224.518C667.716 224.682 667.901 224.914 668.006 225.184L683.806 267.257C683.911 267.532 684.095 267.769 684.337 267.935C684.581 268.103 684.869 268.191 685.163 268.191C685.456 268.191 685.746 268.103 685.988 267.935C686.23 267.769 686.417 267.532 686.519 267.257L700.228 225.297C700.318 225.011 700.5 224.761 700.744 224.585C700.989 224.408 701.281 224.315 701.582 224.318H713.179C713.402 224.317 713.623 224.369 713.824 224.469C714.023 224.569 714.199 224.715 714.333 224.893C714.466 225.073 714.555 225.281 714.594 225.501C714.634 225.721 714.62 225.948 714.555 226.162V226.124Z"
        fill="#5A31F4"></path>
</svg>