<svg xmlns="http://www.w3.org/2000/svg" xmlns:xlink="http://www.w3.org/1999/xlink" viewBox="0 0 183.8 130.7">
    <defs>
        <clipPath id="clip-path">
            <rect x="41.5" y="40.3" width="17" height="24" fill="none" />
        </clipPath>
    </defs>
    <g id="Layer_2" data-name="Layer 2">
        <g id="Layer_1-2" data-name="Layer 1">
            <path class="drive move1" d="M106.7,75.8H1V2A.9.9,0,0,1,2,1H105.7a1,1,0,0,1,1,1Z" fill="none"
                stroke="#507985" stroke-miterlimit="10" stroke-width="2" />
            <path class="drive move1"
                d="M106.4,109.6H51.9v-1.7a3.1,3.1,0,0,0,.1-1,12.6,12.6,0,1,0-25.2,0,3.1,3.1,0,0,0,.1,1v1.7H1V75.8H106.4v33.8Z"
                fill="none" stroke="#231f20" stroke-miterlimit="10" stroke-width="2" />
            <path class="drive move1"
                d="M172.1,72.7H138.3a14.2,14.2,0,0,1-14.2-14.4V25.7h11.1c20.3,0,36.9,16.8,36.9,37.5Z" fill="none"
                stroke="#507985" stroke-miterlimit="10" stroke-width="2" />
            <path class="drive move1"
                d="M153.2,109.8v-.2h29.6V61.1a45.4,45.4,0,0,0-45.4-45.4H106.7v93.9h16.5m-1.1,0a24.5,24.5,0,0,1-.2-2.7,15.8,15.8,0,1,1,31.5,0,12.3,12.3,0,0,1-.2,2.7v1M39.5,94.2a12.7,12.7,0,1,0,12.6,12.7A12.6,12.6,0,0,0,39.5,94.2Zm98.2,0a12.7,12.7,0,1,0,12.6,12.7A12.7,12.7,0,0,0,137.7,94.2Z"
                fill="none" stroke="#231f20" stroke-miterlimit="10" stroke-width="2" />
            <g class="drive move1" clip-path="url(#clip-path)">
                <path class="blink2"
                    d="M48.2,60.1H48l-.2-.4V59a3.4,3.4,0,0,1-1.1-1.7L46,58.4c-1.1,2.2-1.9,3.9-1.8,5.5v.9a12.3,12.3,0,0,0,5.7,1.4,13.3,13.3,0,0,0,4.5-.8l-.9-.8H52.3l-.7-.5a3.7,3.7,0,0,1-2,.7,3.4,3.4,0,0,1-3.3-3.5V60.1Z"
                    fill="#507985" />
                <path class="blink2"
                    d="M52.1,59.1V60h.9c.4,0,.7,0,.7.1h.4l1.1,1h.1a21.9,21.9,0,0,0-1.3-2.7l-.6-.9A2.6,2.6,0,0,1,52.1,59.1Z"
                    fill="#507985" />
                <path class="blink2"
                    d="M57.9,40.3l-.4.7c0,.1-.8,1.3-3.2,1.6s-3.2,1-3.4,2.3a7.8,7.8,0,0,0-.2,1.4H49.3c-.1-.4-.1-.9-.2-1.4s-1.4-2.1-3.4-2.3-3.2-1.5-3.2-1.6l-.5-.7-.2.8a4.2,4.2,0,0,0,.5,2.7,3.1,3.1,0,0,0,2.3,1.4,1.9,1.9,0,0,1,1.4.9,3.1,3.1,0,0,1,.2,1.9L45,47.2a15.7,15.7,0,0,0-3-.6h-.5v.6A4.1,4.1,0,0,0,44,49.7a3.1,3.1,0,0,0,1.3.3h.5a3.7,3.7,0,0,0-.1,1.1,8.3,8.3,0,0,0,.8,2.4,33.3,33.3,0,0,1-1.9,4.1c-1.3,2.5-2.3,4.8-2.1,6.8l.7.5c-.1-1.8.8-4.5,2.1-6.9s1.2-2.6,1.6-3.6l.6,1.3v.2a2,2,0,0,0,.8,2.5h.1l.3.9.3.2.7,1.4H47.2v.4A2.5,2.5,0,0,0,49.6,64a2.6,2.6,0,0,0,2-1,2.2,2.2,0,0,0,1,.9h1.1l3.4,2.5h.1a1.3,1.3,0,0,0,1.1-.8,1.8,1.8,0,0,0,0-1.6h-.1l-1-.5a12.4,12.4,0,0,0-2-5.4,14.8,14.8,0,0,1-1.9-4,11,11,0,0,0,.9-2.8c0-.3-.1-.7-.1-1.1h.5l1.3-.3A3.8,3.8,0,0,0,58.3,47v-.5h-.5a15.7,15.7,0,0,0-3,.6l-1.2.7a3.2,3.2,0,0,1,.2-1.9,2.2,2.2,0,0,1,1.4-.8,3,3,0,0,0,2.3-1.5,3.9,3.9,0,0,0,.5-2.6ZM44.7,47.9c.2,0,.4.2.6.3h-.1a4.8,4.8,0,0,1-2-.7ZM44.3,49a2.4,2.4,0,0,1-.9-.6,6.4,6.4,0,0,0,1.7.5l.8.2A2.3,2.3,0,0,1,44.3,49Zm10.9-1.1,1.4-.4a4.5,4.5,0,0,1-1.9.7h-.1Zm-.4,1a3.5,3.5,0,0,0,1.8-.5,2.1,2.1,0,0,1-1,.6,1.8,1.8,0,0,1-1.6.1Zm-3.2-3.8a1.2,1.2,0,0,1,.6-1,1.7,1.7,0,0,0,1.2,1.5h-.1c-.1.1-.1.3-.2.4h0a1.8,1.8,0,0,1-1.6-.6A.6.6,0,0,1,51.6,45.1Zm1.6,3.6a3.2,3.2,0,0,0-1.3,1.6,6.6,6.6,0,0,0-.4,1.5,4.9,4.9,0,0,1-.1-1.2,4.1,4.1,0,0,1,1.2-2.7l.5.6C53.1,48.6,53.1,48.7,53.2,48.7Zm-1.7-3a2.2,2.2,0,0,0,1.6.6,3.4,3.4,0,0,0-.1,1,4.8,4.8,0,0,0-1.6-.8A2.5,2.5,0,0,1,51.5,45.7Zm-.2,1.5h.3l-.3.7Zm.4.2.8.5a3.4,3.4,0,0,0-1.2,2.2V48.4A5.1,5.1,0,0,1,51.7,47.4Zm-3,.7-.3-.7h.3C48.6,47.5,48.7,47.8,48.7,48.1Zm0,.5c0,.5-.1,1-.1,1.6a4.4,4.4,0,0,0-1.1-2.3l.7-.4A3.8,3.8,0,0,1,48.7,48.6Zm-.1-2.1a6.5,6.5,0,0,0-1.6.9,5.2,5.2,0,0,0-.2-1.1,2.5,2.5,0,0,0,1.7-.6A1.9,1.9,0,0,0,48.6,46.5Zm-.2-1.4v.4a2.1,2.1,0,0,1-1.6.7h0c-.1-.2-.1-.4-.2-.5a.1.1,0,0,1-.1-.1,2,2,0,0,0,1.2-1.5A1.4,1.4,0,0,1,48.4,45.1Zm-5.9-3c.1.2.4.3.7.5l-.5.5A4.4,4.4,0,0,1,42.5,42.1Zm.4,1.3a.3.3,0,0,0-.1-.2c.2-.1.4-.4.5-.5l1,.4c-.1.3-.4.8-.9.8A1.2,1.2,0,0,1,42.9,43.4Zm1.7,1.1L43.5,44a1.3,1.3,0,0,0,.9-.9h.9A1.9,1.9,0,0,1,44.6,44.5Zm.2,0a1.7,1.7,0,0,0,.6-1.2h.9a2.3,2.3,0,0,1-.4,1.5ZM46,45a2.1,2.1,0,0,0,.5-1.5,2.2,2.2,0,0,1,1.1.5,1.9,1.9,0,0,1-1.1,1.5C46.3,45.3,46.2,45.1,46,45Zm1.8,9.6A14.6,14.6,0,0,1,46.5,51a7.1,7.1,0,0,1,.1-1.5,3.8,3.8,0,0,1,.8,1.1h-.1a.6.6,0,0,0-.6.6.6.6,0,0,0,.6.6c.1,0,.3-.1.3-.2a21.2,21.2,0,0,1,.3,2.7C47.9,54.4,47.8,54.5,47.8,54.6Zm-1-5.9h0l.6-.6a4,4,0,0,1,1.2,2.8c0,.4-.1.7-.1,1.1s-.3-1.2-.4-1.6A6.1,6.1,0,0,0,46.8,48.7Zm1.9,9.1a1.4,1.4,0,0,1-.6-1.6h0l.5-1.8a24.4,24.4,0,0,0,.7-7.3,2.4,2.4,0,0,1,1.2,0,24.6,24.6,0,0,0,.7,7.3l.5,1.8h0a1.4,1.4,0,0,1-.5,1.6h-.6l-.4-.2v-.5l1-.4c.2,0,.3-.2.2-.4s-.3-.3-.4-.3l-1.1.4-1.1-.4c-.2-.1-.4.1-.5.2a.4.4,0,0,0,.2.5l1.1.4v.5l-.4.2Zm1.7.8h.3v.3l-.5.3H50C50.1,58.9,50.3,58.6,50.4,58.6Zm-.5.6a2.4,2.4,0,0,0-.3-.7l.4-.2h.3A2.9,2.9,0,0,0,49.9,59.2Zm-.4-.1-.3-.2v-.3h.3a2,2,0,0,1,.3,1Zm.1,4.1a1.8,1.8,0,0,1-1.7-1.4h3.4A1.7,1.7,0,0,1,49.6,63.2Zm2.3-.8a1.9,1.9,0,0,0,.2-.8l1,.9Zm5.7,1.8c.2.4.2.6.1.8a1,1,0,0,1-.5.4l-2.5-1.9h.5l-.6-.5h.6Zm-3.1-6.1a12.1,12.1,0,0,1,1.8,4.7L54.5,62l-1.2-1.1A2,2,0,0,0,52,61H49.9l.6-1.3.7-.3.2-.9h.1a2,2,0,0,0,.9-2.5v-.2a2.8,2.8,0,0,1,.4-.8A24,24,0,0,0,54.5,58.1Zm-2.4-3.5c-.1-.2-.1-.4-.2-.5s.1-1.5.3-2.4h.3a.6.6,0,1,0,.1-1.1,2,2,0,0,1,.8-1.1c0,.4.1,1,.1,1.5A15.9,15.9,0,0,1,52.1,54.6Zm1.4-9.1h-.1A1.9,1.9,0,0,1,52.3,44a2.2,2.2,0,0,1,1.1-.5,2.6,2.6,0,0,0,.5,1.5Zm.5-.6a1.8,1.8,0,0,1-.4-1.5h.9a1.7,1.7,0,0,0,.6,1.2Zm1.3-.4a1.9,1.9,0,0,1-.7-1.2l.9-.2c.2.3.4.8.9.9Zm1.8-1.1-.5.5h0c-.5,0-.8-.5-.9-.8l.9-.4a1.6,1.6,0,0,0,.6.5C57.1,43.2,57.1,43.3,57.1,43.4Zm.1-.3a1.2,1.2,0,0,1-.5-.5l.8-.5A3.8,3.8,0,0,1,57.2,43.1Z"
                    fill="#507985" />
            </g>
            <line class="line1" x1="500" y1="121.1" x2="590" y2="121.1" fill="none" stroke="#231f20"
                stroke-linecap="round" stroke-linejoin="round" stroke-width="2" />
            <line class="line1" x1="400" y1="121.1" x2="490" y2="121.1" fill="none" stroke="#231f20"
                stroke-linecap="round" stroke-linejoin="round" stroke-width="2" />
            <line class="line1" x1="300" y1="121.1" x2="390" y2="121.1" fill="none" stroke="#231f20"
                stroke-linecap="round" stroke-linejoin="round" stroke-width="2" />
            <line class="line1" x1="200" y1="121.1" x2="290" y2="121.1" fill="none" stroke="#231f20"
                stroke-linecap="round" stroke-linejoin="round" stroke-width="2" />
            <line class="line1" x1="100" y1="121.1" x2="190" y2="121.1" fill="none" stroke="#231f20"
                stroke-linecap="round" stroke-linejoin="round" stroke-width="2" />
            <line class="line1" x1="0" y1="121.1" x2="90" y2="121.1" fill="none" stroke="#231f20" stroke-linecap="round"
                stroke-linejoin="round" stroke-width="2" />
            <line class="line2" x1="36.6" y1="129.7" x2="83" y2="129.7" fill="none" stroke="#231f20"
                stroke-linecap="round" stroke-linejoin="round" stroke-width="2" />
            <line class="line3" x1="114.5" y1="129.7" x2="129.6" y2="129.7" fill="none" stroke="#231f20"
                stroke-linecap="round" stroke-linejoin="round" stroke-width="2" />
            <path class="drive move1"
                d="M69.6,29.5,67,22.8h0V17.7a.9.9,0,0,0-.9-.8h-28a.9.9,0,0,0-1,.7h0v5.4h.1l-2.4,6.2h0c-.2.1-.2.3-.2.6V63.5a.9.9,0,0,0,.9.8H68.8a.9.9,0,0,0,.8-.8h0V30.3A1.1,1.1,0,0,0,69.6,29.5Z"
                fill="none" stroke="#231f20" stroke-miterlimit="10" />
            <path class="drive move1" d="M63.7,64.3V30L67,22.2H37.1" fill="none" stroke="#231f20" stroke-linecap="round"
                stroke-linejoin="round" />
        </g>
    </g>

    <style>
        .drive {
            transform: translateX(-100%);
            position: relative;
            animation: drive 5s 1s cubic-bezier(0.88, 0.08, 0.16, 1.1) infinite;
        }

        .move11 {
            animation: move1 0.3s infinite;
        }

        .line1 {
            animation: line1 4s linear 0s infinite;
        }

        .line2 {
            animation: line2 5s linear 0s infinite;
        }

        .line3 {
            animation: line3 6s linear 0s infinite;
        }

        .line4 {
            animation: line3 1s linear 0s infinite;
        }

        .top-down {
            animation: top-down 1s infinite alternate;
        }

        @keyframes drive {
            0% {
                transform: translateX(-100%);
            }

            25% {
                transform: translateX(0%);
            }

            70% {
                transform: translateX(0%);
            }

            100% {
                transform: translateX(100%);
            }
        }

        @keyframes move1 {
            0% {
                transform: translateY(0px);
            }

            50% {
                transform: translateY(-1px);
            }

            100% {
                transform: translateY(0px);
            }
        }

        @keyframes line1 {
            from {
                transform: translateX(0%);
            }

            to {
                transform: translateX(-100%);
            }
        }

        @keyframes line2 {
            from {
                transform: translateX(100%);
            }

            to {
                transform: translateX(-100%);
            }
        }

        @keyframes line3 {
            from {
                transform: translateX(100%);
            }

            to {
                transform: translateX(-100%);
            }
        }

        @keyframes top-down {
            from {
                transform: translateY(1px);
            }

            to {
                transform: translateY(-1px);
            }
        }

        .blink2 {
            animation: blink2 2s infinite;
            animation-delay: 2000ms;
        }

        @keyframes blink2 {
            0% {
                transform: translateY(0px);
                opacity: 0;
            }

            50% {
                transform: translateY(-1px);
                opacity: 1;
            }

            100% {
                transform: translateY(0px);
                opacity: 1;
            }
        }
    </style>

</svg>