<svg xmlns="http://www.w3.org/2000/svg" width="21" height="17" fill="none">
    <g clip-path="url(#A)">
        <path
            d="M20.956 1.899a8.97 8.97 0 0 1-2.479.679c.892-.533 1.573-1.369 1.893-2.378-.832.496-1.75.846-2.728 1.041a4.31 4.31 0 0 0-3.143-1.361A4.3 4.3 0 0 0 10.2 4.184a4.43 4.43 0 0 0 .1.981c-3.577-.174-6.742-1.889-8.868-4.5A4.33 4.33 0 0 0 .843 2.84a4.31 4.31 0 0 0 1.911 3.575 4.25 4.25 0 0 1-1.944-.53v.047c0 2.091 1.491 3.827 3.447 4.227-.35.096-.732.142-1.128.142-.275 0-.553-.016-.815-.073.557 1.704 2.139 2.956 4.02 2.997C4.871 14.37 3.012 15.06 1 15.06c-.353 0-.691-.016-1.03-.059a12.11 12.11 0 0 0 6.6 1.931c7.917 0 12.245-6.558 12.245-12.242 0-.19-.007-.374-.016-.556.854-.606 1.571-1.363 2.156-2.234z"
            fill="#fff" fill-opacity=".6"></path>
    </g>
    <defs>
        <clipPath id="A">
            <path fill="#fff" d="M0 0h21v17H0z"></path>
        </clipPath>
    </defs>
</svg>