<svg class="icon" width="22" height="22" viewBox="0 0 22 22" fill="none" xmlns="http://www.w3.org/2000/svg">
    <path
        d="M11 0C4.92493 0 0 4.92493 0 11C0 17.0751 4.92493 22 11 22C11.3314 22 11.6615 21.9851 11.9901 21.9556C12.2955 21.9282 12.5983 21.8863 12.8987 21.8339L13.0142 21.8134C18.5996 20.7711 22.4723 15.6465 21.9499 9.98862C21.4274 4.33071 16.6819 0.00179036 11 0V0ZM10.1163 21.2278H10.0903C9.80511 21.2026 9.52205 21.1644 9.2415 21.1156C9.22539 21.1127 9.20928 21.1109 9.19352 21.1079C8.91924 21.0588 8.64782 20.9979 8.37909 20.9269L8.3141 20.9102C8.05199 20.8391 7.79274 20.7566 7.53726 20.6649C7.51076 20.6554 7.48408 20.647 7.45758 20.6372C7.20711 20.5452 6.96112 20.442 6.71888 20.3305C6.6888 20.3171 6.65872 20.3042 6.62865 20.2898C6.39106 20.1799 6.15814 20.056 5.92969 19.9257C5.89746 19.9074 5.86488 19.8892 5.83265 19.8711C5.60778 19.7398 5.3881 19.5991 5.17254 19.4505C5.13996 19.4278 5.10702 19.4058 5.07461 19.383C4.86281 19.2328 4.65638 19.0733 4.45532 18.9064L4.4 18.8581V15.7667C4.40269 13.5402 6.20684 11.736 8.43333 11.7333H13.5667C15.7932 11.736 17.5973 13.5402 17.6 15.7667V18.8584L17.5513 18.8991C17.3463 19.0702 17.1359 19.2321 16.9198 19.385C16.8912 19.405 16.8622 19.4242 16.8337 19.4439C16.6157 19.5954 16.3922 19.7379 16.1634 19.8718C16.1348 19.8884 16.1054 19.9042 16.0769 19.9207C15.8451 20.0526 15.6093 20.1772 15.3688 20.2895C15.3413 20.3024 15.3135 20.3144 15.2856 20.3262C15.0414 20.4388 14.7932 20.5425 14.541 20.6352C14.5159 20.6445 14.4907 20.6526 14.4676 20.6613C14.2108 20.7534 13.9505 20.8366 13.687 20.9081L13.6238 20.9238C13.3547 20.9949 13.0831 21.0561 12.8084 21.1054C12.7927 21.1082 12.7769 21.1102 12.7612 21.1127C12.4803 21.1618 12.1969 21.1999 11.9115 21.2253H11.8855C11.5923 21.2506 11.2988 21.2642 11.0018 21.2642C10.7048 21.2642 10.409 21.2531 10.1163 21.2278ZM18.3333 18.1786V15.7667C18.3303 13.1354 16.198 11.003 13.5667 11H8.43333C5.80203 11.003 3.66971 13.1354 3.66667 15.7667V18.1783C-0.28252 14.1476 -0.238477 7.68532 3.76514 3.70874C7.76875 -0.26766 14.2313 -0.26766 18.2349 3.70874C22.2385 7.68532 22.2825 14.1476 18.3333 18.1783V18.1786Z"
        fill="black"></path>
    <path
        d="M10.9997 2.93311C8.97459 2.93311 7.33301 4.57469 7.33301 6.59977C7.33301 8.62485 8.97459 10.2664 10.9997 10.2664C13.0248 10.2664 14.6663 8.62485 14.6663 6.59977C14.6642 4.57559 13.0239 2.93525 10.9997 2.93311ZM10.9997 9.5331C9.37957 9.5331 8.06634 8.21987 8.06634 6.59977C8.06634 4.97967 9.37957 3.66644 10.9997 3.66644C12.6198 3.66644 13.933 4.97967 13.933 6.59977C13.9312 8.21898 12.6189 9.53131 10.9997 9.5331Z"
        fill="black"></path>
</svg>